<?xml version="1.0" encoding="utf-8"?>
<!-- Generator: Adobe Illustrator 28.1.0, SVG Export Plug-In . SVG Version: 6.00 Build 0)  -->
<svg version="1.1" id="Layer_1" xmlns="http://www.w3.org/2000/svg" xmlns:xlink="http://www.w3.org/1999/xlink" x="0px" y="0px"
	 viewBox="0 0 311.1 99.9" style="enable-background:new 0 0 311.1 99.9;" xml:space="preserve">
<style type="text/css">
	.st0{fill:#00375C;}
	.st1{fill:#0089A4;}
	.st2{fill:#DEEEF5;}
	.st3{fill:none;stroke:#0089A4;stroke-width:2;stroke-linecap:round;stroke-miterlimit:10;}
	.st4{fill:none;stroke:#0089A4;stroke-linecap:round;stroke-miterlimit:10;}
</style>
<g>
	<path class="st0" d="M120.2,11h6.1c0.9,0,2.7,0,3.9,0.8c1.3,0.8,1.9,2.1,1.9,3.5c0,1.2-0.4,2.3-1.2,3c-0.7,0.7-1.5,1-2,1.1
		c1.6,0.4,2.4,1.2,2.6,3.3c0.2,2,0.4,3.5,1.1,5.4h-2.5c-0.4-1.1-0.6-3.2-0.8-4.5c-0.3-2.5-0.9-3.2-3.7-3.2h-3v7.7h-2.3V11z
		 M122.5,18.4h3.7c0.3,0,1.6,0,2.2-0.4c0.3-0.2,1.2-0.8,1.2-2.2c0-2.8-2.5-2.8-3.4-2.8h-3.7V18.4z"/>
	<path class="st0" d="M135.3,11H146v2h-8.4v5.3h8v2h-8v5.7h8.5v2.1h-10.9V11z"/>
	<path class="st0" d="M148.9,11h5.7c2.1,0,3.5,0.1,4.7,1.4c0.9,0.9,1.3,2,1.3,3.3c0,1.3-0.4,2.4-1.3,3.3c-0.9,0.9-2.1,1.5-5.2,1.5
		h-2.8v7.6h-2.4V11z M151.3,18.5h2.8c1.6,0,4-0.1,4-2.9c0-2.7-2.2-2.7-3.5-2.7h-3.3V18.5z"/>
	<path class="st0" d="M162.7,11h6.1c0.9,0,2.7,0,3.9,0.8c1.3,0.8,1.9,2.1,1.9,3.5c0,1.2-0.4,2.3-1.2,3c-0.7,0.7-1.5,1-2,1.1
		c1.6,0.4,2.4,1.2,2.6,3.3c0.2,2,0.4,3.5,1.1,5.4h-2.5c-0.4-1.1-0.6-3.2-0.8-4.5c-0.3-2.5-0.9-3.2-3.7-3.2h-3v7.7h-2.3V11z
		 M165,18.4h3.7c0.3,0,1.6,0,2.2-0.4c0.3-0.2,1.2-0.8,1.2-2.2c0-2.8-2.5-2.8-3.4-2.8H165V18.4z"/>
	<path class="st0" d="M179.3,12.9c1.8-1.9,4.1-2.3,5.7-2.3c4.7,0,7.7,3,7.7,8.8c0,4.5-1.8,9.1-7.9,9.1c-5.8,0-7.7-4.1-7.7-8.8
		C177.1,17.8,177.4,14.9,179.3,12.9z M181.1,25c1,1.2,2.4,1.6,3.8,1.6c1.4,0,2.8-0.4,3.8-1.6c1.4-1.7,1.5-4.4,1.5-5.6
		c0-3.9-1.3-6.8-5.2-6.8c-4.3,0-5.4,3.5-5.4,7C179.5,21.4,179.9,23.5,181.1,25z"/>
	<path class="st0" d="M195.6,11h4.9c2.3,0,5,0,6.9,2.2c1.5,1.8,2.1,4.1,2.1,6.5c0,3.7-1.5,6-2.8,7c-1.7,1.4-3.8,1.4-6.3,1.4h-4.8V11
		z M197.9,26.2h2.3c1.6,0,3.3-0.1,4.5-0.9c2.2-1.6,2.2-4.4,2.2-5.4c0-0.6,0-3.5-1.7-5.3c-1.1-1.2-2.5-1.5-4.5-1.5h-2.8V26.2z"/>
	<path class="st0" d="M214.5,11v10.6c0,1.8,0.4,2.6,0.8,3.1c1.1,1.4,2.7,1.7,3.9,1.7c4.6,0,4.6-3.6,4.6-4.9V11h2.3v10.5
		c0,0.9,0,2.8-1.4,4.5c-1.7,2.1-4.3,2.4-5.5,2.4c-1.6,0-4.4-0.4-6-2.7c-0.5-0.8-1-1.8-1-4.3V11H214.5z"/>
	<path class="st0" d="M240,15.7c-0.1-0.6-0.4-3-3.7-3c-4.1,0-4.9,4.2-4.9,7.1c0,3.2,0.9,6.7,4.8,6.7c1,0,2-0.3,2.8-1
		c0.6-0.7,0.8-1.4,0.8-1.8h2.6c-0.4,3.4-3.5,4.8-6.4,4.8c-6,0-7.2-5.3-7.2-8.6c0-3.6,1.4-9,7.5-9c2.4,0,5.8,1,6.1,4.9H240z"/>
	<path class="st0" d="M249.4,28.1V13.1h-5.7v-2h13.8v2h-5.7v15.1H249.4z"/>
	<path class="st0" d="M259.4,11h2.4v17.1h-2.4V11z"/>
	<path class="st0" d="M272.5,28.1h-2.6L263.8,11h2.6l4.9,14.6l5.1-14.6h2.4L272.5,28.1z"/>
	<path class="st0" d="M280.7,11h10.7v2h-8.4v5.3h8v2h-8v5.7h8.5v2.1h-10.9V11z"/>
	<path class="st0" d="M113.1,48.4c0,1.2,0.2,3.4,4.1,3.4c3.5,0,4-2.2,4-3.1c0-1.9-1.5-2.3-3.9-2.9c-2.6-0.6-3.8-0.9-4.6-1.5
		c-1.4-0.9-1.8-2.2-1.8-3.4c0-3.5,3.3-5,6.5-5c1.1,0,3.4,0.2,4.8,1.7c0.9,1,1,2.2,1,2.9h-2.5c-0.1-2.1-1.9-2.6-3.6-2.6
		c-2.4,0-3.8,1.1-3.8,2.8c0,1.5,1,2,3.1,2.5c4.1,1,4.5,1.1,5.5,1.8c1.6,1,1.7,2.7,1.7,3.4c0,3-2.4,5.3-6.7,5.3c-1.3,0-4-0.2-5.3-1.9
		c-1-1.3-1-2.6-1-3.5H113.1z"/>
	<path class="st0" d="M136.8,40.9c-0.1-0.6-0.4-3-3.7-3c-4.1,0-4.9,4.2-4.9,7.1c0,3.2,0.9,6.7,4.8,6.7c1,0,2-0.3,2.8-1
		c0.6-0.7,0.8-1.4,0.8-1.8h2.6c-0.4,3.4-3.5,4.8-6.4,4.8c-6,0-7.2-5.3-7.2-8.6c0-3.6,1.4-9,7.5-9c2.4,0,5.8,1,6.1,4.9H136.8z"/>
	<path class="st0" d="M141.8,36.3h2.4v17.1h-2.4V36.3z"/>
	<path class="st0" d="M147.6,36.3h10.7v2h-8.4v5.3h8v2h-8v5.7h8.5v2.1h-10.9V36.3z"/>
	<path class="st0" d="M161.3,36.3h3.3l8.4,14.1V36.3h2.2v17.1h-3l-8.7-14.5v14.5h-2.2V36.3z"/>
	<path class="st0" d="M189.2,40.9c-0.1-0.6-0.4-3-3.7-3c-4.1,0-4.9,4.2-4.9,7.1c0,3.2,0.9,6.7,4.8,6.7c1,0,2-0.3,2.8-1
		c0.6-0.7,0.8-1.4,0.8-1.8h2.6c-0.4,3.4-3.5,4.8-6.4,4.8c-6,0-7.2-5.3-7.2-8.6c0-3.6,1.4-9,7.5-9c2.4,0,5.8,1,6.1,4.9H189.2z"/>
	<path class="st0" d="M194,36.3h10.7v2h-8.4v5.3h8v2h-8v5.7h8.5v2.1H194V36.3z"/>
	<path class="st0" d="M224.7,40.9c-0.1-0.6-0.4-3-3.7-3c-4.1,0-4.9,4.2-4.9,7.1c0,3.2,0.9,6.7,4.8,6.7c1,0,2-0.3,2.8-1
		c0.6-0.7,0.8-1.4,0.8-1.8h2.6c-0.4,3.4-3.5,4.8-6.4,4.8c-6,0-7.2-5.3-7.2-8.6c0-3.6,1.4-9,7.5-9c2.4,0,5.8,1,6.1,4.9H224.7z"/>
	<path class="st0" d="M229.5,36.3h10.7v2h-8.4v5.3h8v2h-8v5.7h8.5v2.1h-10.9V36.3z"/>
	<path class="st0" d="M243.2,36.3h3.3l8.4,14.1V36.3h2.2v17.1h-3l-8.7-14.5v14.5h-2.2V36.3z"/>
	<path class="st0" d="M265,53.4V38.3h-5.7v-2h13.8v2h-5.7v15.1H265z"/>
	<path class="st0" d="M274.9,36.3h10.7v2h-8.4v5.3h8v2h-8v5.7h8.5v2.1h-10.9V36.3z"/>
	<path class="st0" d="M288.5,36.3h6.1c0.9,0,2.7,0,3.9,0.8c1.3,0.8,1.9,2.1,1.9,3.5c0,1.2-0.4,2.3-1.2,3c-0.7,0.7-1.5,1-2,1.1
		c1.6,0.4,2.4,1.2,2.6,3.3c0.2,2,0.4,3.5,1.1,5.4h-2.5c-0.4-1.1-0.6-3.2-0.8-4.5c-0.3-2.5-0.9-3.2-3.7-3.2h-3v7.7h-2.3V36.3z
		 M290.8,43.7h3.7c0.3,0,1.6,0,2.2-0.4c0.3-0.2,1.2-0.8,1.2-2.2c0-2.8-2.5-2.8-3.4-2.8h-3.7V43.7z"/>
	<path class="st1" d="M150.1,65.4c1.2-1.2,2.7-1.5,3.7-1.5c3.1,0,5,2,5,5.7c0,3-1.2,5.9-5.1,5.9c-3.8,0-5-2.7-5-5.7
		C148.7,68.5,148.9,66.7,150.1,65.4z M151.3,73.2c0.6,0.8,1.6,1,2.5,1c0.9,0,1.8-0.2,2.5-1c0.9-1.1,1-2.9,1-3.6
		c0-2.5-0.8-4.4-3.4-4.4c-2.8,0-3.5,2.3-3.5,4.5C150.3,70.9,150.5,72.3,151.3,73.2z"/>
	<path class="st1" d="M160.8,64.2h6.6v1.3h-5v3.5h4.8v1.3h-4.8v5h-1.6V64.2z"/>
	<path class="st1" d="M173,64.2h2.1l5.5,9.2v-9.2h1.4v11.1h-2l-5.6-9.4v9.4H173V64.2z"/>
	<path class="st1" d="M184.4,64.2h7v1.3h-5.4v3.5h5.2v1.3h-5.2v3.7h5.6v1.4h-7.1V64.2z"/>
	<path class="st1" d="M194.3,64.2l2.4,9.1l2.6-9.1h1.9l2.5,9.2l2.5-9.2h1.5l-3.3,11.1h-1.7l-2.6-9.5l-2.8,9.5h-1.7l-3.2-11.1H194.3z
		"/>
	<path class="st1" d="M213.5,72.3c0,0.4,0,0.9,0.2,1.2c0.2,0.3,0.6,0.7,1.4,0.7c0.6,0,1.2-0.3,1.5-0.8c0.3-0.4,0.3-1.2,0.3-1.5v-7.7
		h1.5v8.1c0,2-1.6,3.2-3.4,3.2c-0.6,0-1.9-0.1-2.6-1.2c-0.5-0.7-0.6-1.6-0.6-2H213.5z"/>
	<path class="st1" d="M220.9,64.2h7v1.3h-5.4v3.5h5.2v1.3h-5.2v3.7h5.6v1.4h-7.1V64.2z"/>
	<path class="st1" d="M229.8,64.2h4c0.6,0,1.7,0,2.6,0.5c0.8,0.5,1.2,1.4,1.2,2.3c0,0.8-0.3,1.5-0.8,2c-0.5,0.5-1,0.6-1.3,0.7
		c1.1,0.3,1.5,0.8,1.7,2.1c0.2,1.3,0.3,2.3,0.7,3.5h-1.6c-0.2-0.7-0.4-2.1-0.5-2.9c-0.2-1.6-0.6-2.1-2.4-2.1h-1.9v5h-1.5V64.2z
		 M231.3,69h2.4c0.2,0,1,0,1.5-0.2c0.2-0.1,0.8-0.5,0.8-1.4c0-1.8-1.6-1.8-2.2-1.8h-2.4V69z"/>
	<path class="st1" d="M240.7,72c0,0.8,0.1,2.2,2.7,2.2c2.3,0,2.6-1.4,2.6-2c0-1.2-1-1.5-2.6-1.9c-1.7-0.4-2.4-0.6-3-1
		c-0.9-0.6-1.2-1.4-1.2-2.2c0-2.3,2.1-3.2,4.2-3.2c0.7,0,2.2,0.1,3.1,1.1c0.6,0.7,0.6,1.4,0.7,1.9h-1.6c-0.1-1.4-1.2-1.7-2.3-1.7
		c-1.5,0-2.5,0.7-2.5,1.8c0,1,0.6,1.3,2,1.6c2.6,0.7,2.9,0.7,3.6,1.2c1,0.7,1.1,1.8,1.1,2.2c0,2-1.5,3.5-4.4,3.5
		c-0.8,0-2.6-0.1-3.4-1.3c-0.6-0.8-0.6-1.7-0.6-2.2H240.7z"/>
	<path class="st1" d="M249.4,64.2h7v1.3h-5.4v3.5h5.2v1.3h-5.2v3.7h5.6v1.4h-7.1V64.2z"/>
	<path class="st1" d="M262,70.9l-4.3-6.7h1.9l3.3,5.4l3.3-5.4h1.7l-4.3,6.8v4.3H262V70.9z"/>
</g>
<g>
	<g>
		<polygon class="st0" points="164,90.8 164,84.6 161.7,84.6 161.7,83.9 167.1,83.9 167.1,84.6 164.8,84.6 164.8,90.8 164,90.8 		
			"/>
		<path class="st0" d="M172.2,87.6v3.2h-0.7v-3.1c0-0.9-0.5-1.3-1.1-1.3c-0.7,0-1.5,0.6-1.5,1.9v2.5h-0.7v-6.9h0.7v2.8
			c0.3-0.7,1-1,1.7-1C171.4,85.7,172.2,86.3,172.2,87.6L172.2,87.6z"/>
		<path class="st0" d="M177.2,88c0-1.1-0.7-1.6-1.4-1.6c-0.8,0-1.5,0.5-1.5,1.6H177.2L177.2,88z M177.8,89.9c-0.6,0.7-1.3,1-2,1
			c-1.3,0-2.4-0.9-2.4-2.6c0-1.7,1.2-2.6,2.4-2.6c1.4,0,2.1,1.1,2.1,2.4c0,0.2,0,0.4,0,0.6h-3.7c0.1,1.1,0.8,1.6,1.6,1.6
			c0.6,0,1.1-0.2,1.5-0.8L177.8,89.9L177.8,89.9z"/>
		<path class="st0" d="M183,87c1,0,1.4-0.6,1.4-1.2c0-0.6-0.4-1.2-1.3-1.2h-1.3V87H183L183,87z M183.1,83.9c1.4,0,2,0.9,2,1.9
			c0,1-0.7,2-2.1,2h-1.2v3.1H181v-6.9H183.1L183.1,83.9z"/>
		<path class="st0" d="M188.8,85.9l-0.2,0.7c-0.2-0.1-0.4-0.1-0.6-0.1c-0.7,0-1.1,0.5-1.1,1.4v2.9h-0.7v-5h0.7v0.7
			c0.3-0.5,0.7-0.7,1.2-0.7C188.4,85.8,188.6,85.8,188.8,85.9L188.8,85.9z"/>
		<path class="st0" d="M192.9,88c0-1.1-0.7-1.6-1.4-1.6c-0.8,0-1.5,0.5-1.5,1.6H192.9L192.9,88z M193.6,89.9c-0.6,0.7-1.3,1-2,1
			c-1.3,0-2.4-0.9-2.4-2.6c0-1.7,1.2-2.6,2.4-2.6c1.4,0,2.1,1.1,2.1,2.4c0,0.2,0,0.4,0,0.6H190c0.1,1.1,0.8,1.6,1.6,1.6
			c0.6,0,1.1-0.2,1.5-0.8L193.6,89.9L193.6,89.9z"/>
		<path class="st0" d="M197,90.7c-0.2,0.1-0.5,0.2-0.8,0.2c-0.7,0-1.3-0.4-1.3-1.5v-5.5h0.7v5.5c0,0.6,0.3,0.9,0.7,0.9
			c0.2,0,0.3,0,0.5-0.1L197,90.7L197,90.7z"/>
		<path class="st0" d="M201,90.8v-0.9c-0.3,0.7-0.9,1-1.6,1c-0.9,0-1.7-0.6-1.7-1.9v-3.2h0.7v3c0,0.9,0.5,1.3,1.1,1.3
			c0.7,0,1.5-0.6,1.5-1.8v-2.5h0.7v5H201L201,90.8z"/>
		<path class="st0" d="M207,88.4c0-1.3-0.9-1.9-1.7-1.9c-0.8,0-1.6,0.6-1.6,1.9c0,1.3,0.9,1.9,1.7,1.9C206.2,90.2,207,89.6,207,88.4
			L207,88.4z M207,90.8v-0.7c-0.4,0.5-1,0.8-1.6,0.8c-1.2,0-2.4-0.9-2.4-2.6c0-1.8,1.2-2.6,2.4-2.6c0.6,0,1.3,0.3,1.7,0.9v-2.7h0.7
			v6.9H207L207,90.8z"/>
		<path class="st0" d="M212.6,88c0-1.1-0.7-1.6-1.4-1.6c-0.8,0-1.5,0.5-1.5,1.6H212.6L212.6,88z M213.3,89.9c-0.6,0.7-1.3,1-2,1
			c-1.3,0-2.4-0.9-2.4-2.6c0-1.7,1.2-2.6,2.4-2.6c1.4,0,2.1,1.1,2.1,2.4c0,0.2,0,0.4,0,0.6h-3.7c0.1,1.1,0.8,1.6,1.6,1.6
			c0.6,0,1.1-0.2,1.5-0.8L213.3,89.9L213.3,89.9z"/>
		<polygon class="st0" points="217.2,83.9 221,89.4 221,83.9 221.8,83.9 221.8,90.8 221,90.8 217.2,85.3 217.2,90.8 216.5,90.8 
			216.5,83.9 217.2,83.9 		"/>
		<path class="st0" d="M226.8,88c0-1.1-0.7-1.6-1.4-1.6c-0.8,0-1.5,0.5-1.5,1.6H226.8L226.8,88z M227.5,89.9c-0.6,0.7-1.3,1-2,1
			c-1.3,0-2.4-0.9-2.4-2.6c0-1.7,1.2-2.6,2.4-2.6c1.4,0,2.1,1.1,2.1,2.4c0,0.2,0,0.4,0,0.6h-3.7c0.1,1.1,0.8,1.6,1.6,1.6
			c0.6,0,1.1-0.2,1.5-0.8L227.5,89.9L227.5,89.9z"/>
		<path class="st0" d="M231.5,90.5c-0.3,0.3-0.7,0.4-1.1,0.4c-0.7,0-1.4-0.4-1.4-1.5v-2.9h-0.9v-0.7h0.9v-1.3h0.7v1.3h1.2v0.7h-1.2
			v2.9c0,0.6,0.3,0.9,0.7,0.9c0.2,0,0.5-0.1,0.7-0.3L231.5,90.5L231.5,90.5z"/>
		<polygon class="st0" points="237.3,90.8 235.9,86.8 234.5,90.8 233.8,90.8 232,85.8 232.8,85.8 234.2,89.8 235.5,85.8 236.3,85.8 
			237.6,89.8 239,85.8 239.8,85.8 238,90.8 237.3,90.8 		"/>
		<path class="st0" d="M241,88.3c0,1.1,0.7,1.9,1.7,1.9c1,0,1.7-0.8,1.7-1.9c0-1.1-0.7-1.9-1.7-1.9C241.7,86.4,241,87.2,241,88.3
			L241,88.3z M245.2,88.3c0,1.5-1,2.6-2.4,2.6c-1.4,0-2.4-1.1-2.4-2.6c0-1.5,1-2.6,2.4-2.6C244.1,85.7,245.2,86.8,245.2,88.3
			L245.2,88.3z"/>
		<path class="st0" d="M248.9,85.9l-0.2,0.7c-0.2-0.1-0.4-0.1-0.6-0.1c-0.7,0-1.1,0.5-1.1,1.4v2.9h-0.7v-5h0.7v0.7
			c0.3-0.5,0.7-0.7,1.2-0.7C248.5,85.8,248.8,85.8,248.9,85.9L248.9,85.9z"/>
		<polygon class="st0" points="250.6,90.8 249.9,90.8 249.9,83.9 250.6,83.9 250.6,88.1 252.8,85.8 253.7,85.8 251.4,88.2 254,90.8 
			253,90.8 250.6,88.4 250.6,90.8 		"/>
	</g>
	<g>
		<path class="st0" d="M254.2,85.1c0-0.5,0.4-1,1-1c0.5,0,1,0.4,1,1c0,0.5-0.4,1-1,1C254.6,86.1,254.2,85.7,254.2,85.1z M256,85.1
			c0-0.5-0.3-0.8-0.8-0.8c-0.5,0-0.8,0.3-0.8,0.8c0,0.5,0.3,0.8,0.8,0.8C255.7,85.9,256,85.6,256,85.1z M255,85.7h-0.1v-1.1h0.5
			c0.3,0,0.4,0.1,0.4,0.3c0,0.2-0.1,0.3-0.3,0.3l0.3,0.5h-0.2l-0.3-0.5H255V85.7z M255.2,85.1c0.2,0,0.4,0,0.4-0.2
			c0-0.2-0.1-0.2-0.3-0.2H255v0.4H255.2z"/>
	</g>
</g>
<g>
	<rect x="111.6" y="69" class="st1" width="30.4" height="1"/>
</g>
<g>
	<rect x="273.1" y="69" class="st1" width="27.7" height="1"/>
</g>
<circle class="st2" cx="50.1" cy="49.4" r="42"/>
<g>
	<path class="st3" d="M28.1,44.6c0.4,2.2,2.2,3.7,4.1,4.5c5.3,2.2,11.4,0.4,13.5-5.3c3.5-9.4-3.2-18.2-12.9-18
		c-9.9,0.2-18.5,8.8-17.4,23.7S25.1,79.2,50,80.1"/>
	<path class="st3" d="M71.8,44.6c-0.4,2.2-2.2,3.7-4.1,4.5c-5.3,2.2-11.4,0.4-13.5-5.3c-3.5-9.4,3.2-18.2,12.9-18
		c9.9,0.2,18.5,8.8,17.4,23.7s-9.6,29.6-34.5,30.5"/>
	<circle class="st3" cx="50.4" cy="65.8" r="13.8"/>
</g>
<path class="st4" d="M61.2,40.6c0,0,4.3-0.2,3.6-6.3"/>
<path class="st4" d="M39.4,40.6c0,0-4.3-0.2-3.6-6.3"/>
<path class="st4" d="M52.2,67.5c-8-0.7-3.5-10.2,1.9-6.3c1.1,0.8,1.8,1.9,2.2,3.2c1.1,3.2-0.1,7.1-3.1,8.9c-3,1.9-7.4,1.3-9.5-1.4"
	/>
</svg>
