<svg id="Layer_1" data-name="Layer 1" xmlns="http://www.w3.org/2000/svg" viewBox="0 0 342.79 212.32"><defs><style>.cls-1{fill:#221f1f;}</style></defs><title>AF_Black</title><path class="cls-1" d="M44,63.06c2.12-.67,2.27-1.89,2.4-3.91l.14-6.21c.15-5-1.55-11.75-10.31-11.75-4,0-8.76,1.89-9,6.08-.14,2.16-.28,3.78-1.41,4.59a15.7,15.7,0,0,1-8.06,2.56,1.74,1.74,0,0,1-2-1.89c0-7,16-16.6,26.29-16.6S57.15,41.6,56.72,51.72l-.85,23.49c-.28,6.21,1,11.75,6.5,11.75a8.52,8.52,0,0,0,3.54-.81,6,6,0,0,1,1.83-1c.57,0,1,.81,1,1.76,0,.67-4.94,5.94-11.87,5.94a11.51,11.51,0,0,1-9.19-4.19c-.56-.81-1.4-1.89-2.25-1.89S42.73,88,39.9,89.52c-3.11,1.62-6.21,3.38-10.17,3.38s-7.49-1.08-9.9-3.11a12.4,12.4,0,0,1-4.38-9.45c0-5.26,2.69-8.37,11.73-11.47ZM35.24,86.82a16.36,16.36,0,0,0,8.62-3.37c1.7-1.62,1.84-3.51,1.84-6.35l.28-8c0-1.49-.56-1.76-1.41-1.76a27.81,27.81,0,0,0-5.8,1.35c-8.34,2.7-12.43,4.73-12.43,10C26.34,81,28,86.82,35.24,86.82Zm71.09-48.46a30.34,30.34,0,0,1,2.25,10.93c-.56,1-2.68,1.22-3.39.41-2.4-5.94-6.64-9.86-12.43-9.86-5.51,0-9,3.38-9,8.24,0,5.53,5.93,8.5,10.88,11.2,7.48,4,14.41,8.64,14.41,18.23,0,10.26-9.89,15.39-20.35,15.39-6.64,0-11.59-1.35-15.12-4.05-1.13-2.57-2-9.18-1.7-13.64a2.48,2.48,0,0,1,3.25-.13C77.49,82.5,82,89,90.07,89c5.09,0,9.47-2.83,9.47-8.64,0-6.21-5.65-9.58-10.88-12.42-8.2-4.45-14-9.18-14-16.6,0-9.86,8.48-15.39,19.22-15.39C99.83,35.93,105.05,37.28,106.33,38.36Zm18.94,13.9c0-5.26,0-5.94-3.82-8.37l-1.27-.81a1.78,1.78,0,0,1,.14-2.43,86.36,86.36,0,0,0,14-7.29,1.6,1.6,0,0,1,1.69,1,58.89,58.89,0,0,0-.56,6.21c0,.94.28,1.75,1.27,1.75,1.84-.81,10.74-6.34,19.78-6.34C170.77,35.93,180,47,180,60.63c0,18.77-14.42,32.27-34.49,32.27a55.83,55.83,0,0,1-7.77-.54c-1.27.27-2,.94-2,3.78v7c0,9.58.28,10.79,5.37,11.47l5.51.67c1,.68.71,3-.28,3.38-6.78-.27-10.88-.4-15.83-.4s-9.33.13-13.28.4c-1-.4-1.27-2.7-.28-3.38l3-.4c5.23-.67,5.38-2,5.38-11.74Zm10.45,25.11c0,4.32,1.41,5.94,4.24,8.1a19.21,19.21,0,0,0,10.18,3c11.58,0,18.37-10.26,18.37-24.3,0-10.8-6.36-21.73-19.08-21.73-6.07,0-10.46,2.16-12,3.78-1.27,1.48-1.7,3.51-1.7,8Zm99.35-25.11c0-5.26,0-5.94-3.81-8.37L230,43.08a1.79,1.79,0,0,1,.15-2.43A112.16,112.16,0,0,0,244.4,34c.71.13,1.13.4,1.13.94v7.83c0,.68.14,1.08.43,1.22,4.94-3.92,10.31-8.1,15.54-8.1,3.53,0,6.36,2.16,6.36,5.4a6.13,6.13,0,0,1-6.08,6.21,5.62,5.62,0,0,1-3.11-.95,11.94,11.94,0,0,0-6.21-2.16,6.36,6.36,0,0,0-5.09,2.7c-1.41,1.89-1.84,5.81-1.84,10.4V75.89c0,9.72.28,11.34,5.65,11.74l5.09.41c1,.67.71,3-.28,3.37-6.64-.27-10.74-.4-15.69-.4s-9.32.13-13,.4c-1-.4-1.27-2.7-.28-3.37l2.68-.41c5.23-.81,5.37-2,5.37-11.74Zm50.06,4.19c-3.67,0-3.81.27-3.81,3.64,0,13.64,8.34,25.25,23.46,25.25,4.66,0,8.62-1.35,13-6.62a1.86,1.86,0,0,1,2.54,1.62c-4.66,9.18-14.83,12.56-22.18,12.56-9.19,0-16.4-3.78-20.5-8.91a27.81,27.81,0,0,1-5.93-17.55c0-16.61,11.44-30.51,28.4-30.51,12.16,0,20.07,8,20.07,16.06a8.08,8.08,0,0,1-.56,3.51c-.43.81-2.4,1-8.34,1Zm8.76-4.05c10.46,0,13.57-.54,14.7-1.35.43-.27.85-.81.85-2.57,0-3.78-2.68-8.5-10.88-8.5S283,47.27,282.87,51.72c0,.27,0,.68,1,.68Zm25.69,59.25H161.25a1.5,1.5,0,0,0,0,3H319.58a1.5,1.5,0,0,0,0-3Zm-215.85,0H16.2a1.5,1.5,0,0,0,0,3h87.53a1.5,1.5,0,0,0,0-3ZM194.38,22.2a3.67,3.67,0,0,1,1.15.26c.18.08.25.26.49.43s.63.26.83.44a16.66,16.66,0,0,1,1.44,2.29c.29.4.76.75,1,1.06.59.95.08,2.72-.22,3.37a2.66,2.66,0,0,1-.71.92c-.11.07-.4.1-.56.17a5.75,5.75,0,0,0-.63.42,2.8,2.8,0,0,1-.62.43c-.18,0-.42-.08-.65-.09s-.49.09-.66.07-.42-.21-.7-.29c-.43-.11-.91-.05-1.34-.17a4.73,4.73,0,0,1-1.67-.84,3.29,3.29,0,0,1-.55-3.1c0-.17.16-.31.22-.49.23-.72.23-1.61.42-2.25C192,23.53,192.85,22.15,194.38,22.2Zm9.39,3.86a2.72,2.72,0,0,0-.88,2.22c.09,1.19,1.66,2.2,2.37,1,0-.38.42-.68.51-1.08,0-.24-.05-.46,0-.71.07-.56.59-1.19.19-1.7A2.25,2.25,0,0,0,203.77,26.06Zm9.68,2.76a1.25,1.25,0,0,0-.36-.88,5.48,5.48,0,0,0-1.27-.76,2.35,2.35,0,0,0-2.4.63,2.84,2.84,0,0,0-.56,2.14,5.69,5.69,0,0,0,.55.88c.56.91,1.61,1.73,2.73.9.06-.46.24-.77.32-1.2,0-.25-.41-.2-.43-.47C212.33,29.39,213.34,29.6,213.45,28.82Zm.86,3.82c-.06.24-.27.52-.28.75a2.71,2.71,0,0,0,.43,1.38c.31.59.88,1.62,1.58,1.64.32,0,.71-.32,1-.55a9.24,9.24,0,0,0,.89-.71,4.64,4.64,0,0,0,1-2,3.36,3.36,0,0,0-1.36-1.93,5.43,5.43,0,0,0-1.59-.49C214.75,30.87,214.64,31.54,214.31,32.64Zm-2.27,10c0-.14.11-.31.12-.45,0-.45-.13-1.06-.11-1.62a2.69,2.69,0,0,0-.31-1.83c-.13-.19-.46-.3-.63-.48s-.15-.34-.23-.42-.45-.17-.79-.34c-.77-.38-1.58-1.57-2.61-1.24a7.43,7.43,0,0,0-2.11-1.07,8.71,8.71,0,0,0-1.56-.13c-.33.08-.58.43-.88.56s-.71.16-.88.36c-.38.46-.18,1.51,0,2.07,1,.28.75,1.69,2,1.76.42-.18.43-.8.66-1.17a1,1,0,0,1,.92,0c0-.28.23-.33.42-.43,0-.4,0-.82.44-.73.38.4-.15.94-.51,1a3.78,3.78,0,0,1-.23.74c.06.14.21.19.23.37s-.3.43-.49.68,0,.49-.37.49-.24-.37-.5-.33c-.19.57.57.9.13,1.57.3.33.27.89.48,1.28a4.36,4.36,0,0,0,.67.79c.33.17.92-.07,1,.46,0,.23-.22.31-.08.5a1.22,1.22,0,0,0,1,.3c.41.68,1.11,1.11,1.31,2a1.94,1.94,0,0,1,1.19.47c0,.44.26.65.35,1a8,8,0,0,1,2.67,2c.45,0,.87.74,1.24.37.19-.17-.28-.16-.18-.41a1.77,1.77,0,0,1,.86-1.12c-.46-.88.2-1.47,1-1.51a1.5,1.5,0,0,0-.09-2.32,4.44,4.44,0,0,0-1.92-.9c-.11-.35-.46-.48-.5-.89-.55.14-.72-.4-1.3-.21C212.55,43.29,212.09,43,212,42.61Zm-1.19,1.65c-.07.27-.41.26-.63.37-.58-.5-1.49.45-2.09-.31.33-.36,1.19-.85,1.63-.32A1.24,1.24,0,0,1,210.85,44.26Zm10.07-2.76c.48,0,1.13-1.45,1.13-2.46s-.66-2-1.63-1.65c-.4-.59-1.16-.17-1.62.17-.2.16-.63.54-.9.77a4.58,4.58,0,0,0-1.07,1.3c-.05.32.19.67.25,1.07a4.87,4.87,0,0,0,.14,1.17c.34.83,1,1.75,2,1.71s.42-.79.47-1.33c0-.19.2-.31.23-.5s-.17-.38,0-.65C220.47,41.05,220.5,41.54,220.92,41.5Zm-17.8,2.11a.38.38,0,0,0,.55.08c0-.32,0-.54-.32-.57S203.14,43.39,203.12,43.61Zm-.63-.48a.26.26,0,0,0,.13.46C202.88,43.54,202.81,43.08,202.49,43.13Zm-8.74,3.33c-.7,0-1.07-.37-1.85-.35a1.53,1.53,0,0,0-1.33-.52c-.38-.45-1.1-.63-1.17.1,0,.33.34.64.15,1.11.61.29.33,2.36,1.09,2.43.58.05.55-1,1.3-.74a2.2,2.2,0,0,0-.51.93c.09.25.54.19.79.29a1.2,1.2,0,0,0,0,.51,4.92,4.92,0,0,0,1.49.42c.25,0,.51.25.74.29s.32,0,.45,0c.36.12.67.55,1.08.56s.85-.34,1.26,0a1.84,1.84,0,0,1,1.53-.27c.17-.1.06-.5.28-.55.91.5,1-1.34,1.9-.7-.16-.35.28-.58.3-.9s-.28-.5-.47-.77c-.23,0-.33.06-.55,0-.16-.22-.29-.46-.69-.34-.19-.1-.22-.35-.38-.47a4.34,4.34,0,0,1-1.82.16,2.12,2.12,0,0,0-2-.25c-.15-.15-.46-.15-.65-.24,0-.26.22-.23.18-.5-.16,0-.22-.12-.4-.12s-.22.26-.41.28S194,46.46,193.75,46.46Zm5,5.5c.4.08.79-.3,1-.56C199.42,51.06,198.78,51.52,198.71,52Zm-5.35.18c-.66-.48-1.56-.74-2.26-1.18a1.2,1.2,0,0,0-.26.24,6.91,6.91,0,0,0,0,.81c.58.15.7.72,1.06,1.07,1,0,2,0,2.3-.7A1.26,1.26,0,0,0,193.36,52.14Zm3.31,1.33a2,2,0,0,0-2-.31c-.13.45-.62.6-.66,1s.41.92.85,1.16a6.13,6.13,0,0,0,.89.35c.31.05.29.11.54.22s.38.06.5.13c.3.18.44.54.67.64l.56,0a1.3,1.3,0,0,0,.72.49c0,.31.15.51.53.48a.51.51,0,0,0,.09-.65.47.47,0,0,0,.33-.54,4.51,4.51,0,0,0,.72-.41c.08-.23-.12-.21-.07-.41.66.08,1.81-.82,1.77-1.17a.32.32,0,0,0-.29-.27c-.21.26-.9.46-1,0a5.8,5.8,0,0,1-2.11-.26.62.62,0,0,1-.83.46c0,.35-.63.28-.82.26-.23-.61.53-.53.56-1C197.45,53.35,196.93,53.34,196.67,53.47Zm-3.65.26c-.1.28.19.5,0,.56-.35-.41-.89-.29-1.35-.22-.15.77.55.78.79,1.2.25,0,.56-.1.6.18-.35.28-.32,1-.67,1.27-.19-.07-.27-.23-.54-.23a1.77,1.77,0,0,1-.43.59c0,.67.52.83.84,1.2a.73.73,0,0,0-.12.35,2.18,2.18,0,0,1,.55,1.08c.53.13.77.93,1.43.63,0,0,0-.1.06-.1,0-.39-.3-.44-.32-.77s.18-.22.17-.44a8,8,0,0,1-.6-4c0-.21-.17-.27-.12-.52.36-.07.75-.56.4-.93A.71.71,0,0,0,193,53.73Zm-.5,4.06c-.25-.1-.53-.16-.59-.43C192.14,56.88,192.53,57.47,192.52,57.79Zm0,.15c.13,0,.09.18.08.31C192.43,58.26,192.52,58.06,192.56,57.94Zm2.75-1.52c-.54-.2-.67-.77-1.32-.87a4.54,4.54,0,0,0,.28,2.43,6.52,6.52,0,0,0,.11,1.82c.42.37.83,0,1.12-.24.47.41.95-.16,1.23-.44a2,2,0,0,0,2.06-1c-.14-.3-.57-.37-1-.6-.62-.37-.95-.86-1.59-.38C196.13,56.73,195.94,56.23,195.31,56.42Zm3.8,2.51c.2,0,.38-.07.42-.28C199.43,58.23,198.88,58.56,199.11,58.93Zm2.65,1.35c0-.4-.81-.94-.94-.2-.38-.1-.41.18-.72.16-.08-.41-1.18-.62-1.68-.54-.66.11-.46.68-.36,1a3.69,3.69,0,0,1,.19,1.28c.39.16.5.66.87.7s.49-.34.78-.52.81-.22,1-.45a1.53,1.53,0,0,0,.07-.55C201.35,60.93,201.82,60.8,201.76,60.28Zm1.3.27a1.58,1.58,0,0,1,.22.61,3.88,3.88,0,0,0,1.8-.66C204.74,60,203.27,60,203.06,60.55Zm-6.95-.1a5.06,5.06,0,0,0-.29.83c.05.2.33.19.33.43a1.18,1.18,0,0,1-1.09-.51.8.8,0,0,0-.66.17c0,.29,0,.56.27.61a2.09,2.09,0,0,0,.46-.17c.18.3.62.67,1,.45a.59.59,0,0,0,.12-.45c.15-.06.35-.07.46-.18.12-.66.69-1.06.7-1.67C196.86,60,196.76,60.51,196.11,60.45ZM202,61c-.07.62-1.14,1.35-1,2.11.07.32.63.53,1.09.31,0,.16-.2.25-.07.4.66-.21.53-1.28,1.19-1.5,0-.65-.51-.83-.64-1.34A.6.6,0,0,0,202,61Zm-6,2.41c.13.32.72.15.67-.22C196.46,63,195.92,63,196,63.36Zm2.16.21c-.21,0-.45-.11-.65-.08a1.49,1.49,0,0,0-1,1.21.82.82,0,0,0,.73.54c.13,0,.23-.17.42-.28.6-.38,1.33-.8,1.52-1.39C199,63.11,198.51,63.55,198.12,63.57Zm4,.46c-.82.07-1.06-.72-1.89-.5-.28.07-.48.47-.8.71s-.68.46-.7.93a4.22,4.22,0,0,1-.09,1.8c.13.08.4,0,.55.13s0,.42.12.51c.5.12.55-.28.69-.57.42,0,.69,0,1.15.11a1.11,1.11,0,0,0,.49-.63,2.58,2.58,0,0,0,1.23-.44,1,1,0,0,0,1.1-.8A3.49,3.49,0,0,0,202.13,64ZM198,66.74c.14.05.13-.07.25,0,0-.2,0-.32-.24-.31A.32.32,0,0,0,198,66.74Zm3.66-26.28c0-.72-.39-1-.43-1.63-1-.67-1.06-1.94-2.55-2.2-1-.17-1.83-.33-2.9-.55a2.3,2.3,0,0,0-1.28-.62c-.72-.09-1.31.46-2,.1-.76.25-1.27.78-2.06,1a14.93,14.93,0,0,0-.77,2.17,7.15,7.15,0,0,0-.4.84c-.06.35,0,.81-.06,1.2a6.18,6.18,0,0,0-.19.81c0,.94,1.08.89,1.43,1.63a8.31,8.31,0,0,0,2.73-.11c.34,0,.74,0,1.06,0s.7-.29.84.1c-.18.31-.58.4-.83.66a8.59,8.59,0,0,0-3.63.92c.22.81,1.33.73,2.33.87l2.84.45c.47-.77.87-.17,1.42,0a12.06,12.06,0,0,0,1.61,0c.16.07.12.33.34.37.24-.13-.11-.63.23-.7.27.14.28.32.53.38a8.1,8.1,0,0,0,1.21,0c.49-.06.87-.54,1.06.11-.17.86-1.91,0-1.92.91,0,.45.88.59,1.17.91.24,0,.23-.24.51-.17.45.34.85.13,1.45.13a1.17,1.17,0,0,1,.34.47c0,.26-.39.2-.34.58a3.46,3.46,0,0,0,1,.1c.16.48,1.33.27,1,1a3.2,3.2,0,0,0-1.89-.5c0-.34-.73-.62-1-.3.09.08.28.06.35.16-.39,0-.48.29-.68.48a1.68,1.68,0,0,0-1.47.93,1.38,1.38,0,0,0-.72.47c.09.27-.07.41-.09.7.46.27.74,0,1.2.06.65.08,1.14.64,1.64.64.26,0,.44-.25.72-.22.31-.46-.21-1-.24-1.27.71.13.55,1.43,1.45,1.08.29.6,1.05.67,1.75.44,0,.14,0,.29,0,.36a11.2,11.2,0,0,0,3.25.42c.51.59,1.86.2,2.27.92-.93.21-2,.09-2.79.36-.2-.51-1.16-.32-1.6-.18-.25-.39-.62-.24-1-.26-.65,0-1.44-.49-2.12-.21,0,.21.12.33,0,.46-.34.25-.49-.11-.8-.09-.84,0-1,1.55-1.61,2l-.4,0c-.46.39-1.4.51-1.43,1.19.2.16.3-.18.56-.13a1.08,1.08,0,0,0,1.24.37c.38.14.29.64.57.78.47.25.71-.4,1.24-.48.11-.3.05-.79.34-.9,1,.18.77-1,1.57-1,.22.83-.68.88-.83,1.46-.49.25-1.11.62-1,1.31.46.2.79-.11,1.16,0,.55.11.62.71,1.06,1a9.6,9.6,0,0,1,1.18-.39c.17-.07.29-.27.47-.33s.29,0,.36,0,.24-.31.42-.38a1.14,1.14,0,0,1,1.06,0c-.48.72-1.71.59-2.05,1.46.21.44,1.25.13,1.12.86-1,.2-1.65-.76-2.53-.78s-1.23.71-1.92,1c-.07.23-.16.46-.23.69a3.45,3.45,0,0,0-.51.13c0,.14-.09.26-.12.4.36.29.13,1.12.37,1.52.14.11.47,0,.6.14.07.45.34.85.66.89.64.08,1-.95,1.71-.87.17-.14.25-.4.47-.48.41.23.68-.09,1-.15-.29.24-.4.68-.94.65-.48.83-1.46,1.11-2.15,1.71-1.58-.16-2.06,1.53-3.79,1.21-.25.21-.62.28-.65.73.36.17.73.06.94.4.36-.08.43.08.8.09s.83-.71,1.35-.79c.27,0,.57.19.85.2s.3-.27.51-.07c0,.19,0,.31-.17.34a2,2,0,0,0-2.16.79c.13.71.61,1.09.72,1.81.22.13.59.13.58.48s-.72.08-.8-.14.09-.19.06-.35a7.52,7.52,0,0,1-1.13-1.48c-.92-.06-1,.79-1.85.82a2.42,2.42,0,0,0-.39.59c-.74.1-1,.74-1.9.65-.17.1-.16.39-.37.44-.55-.1-.77.17-1.17.24,0,.32-.34.76-.63.42-.06-.36.33-.33.53-.48.39-.28.66-.8,1.2-.84.27-.48.87-.44,1.29-.69s.85-1,1.38-1.24a.9.9,0,0,0,1.08-.45c-.12-.27-.42-.18-.69-.24a1.21,1.21,0,0,0-1.09-.55c-.27,0-.5.36-.7.11,0-.28.31-.28.28-.64a2,2,0,0,1-1.32-.77,4.37,4.37,0,0,0-1.24.59c-.22.18-.78.64-.8.91a.8.8,0,0,0,1,.76c.37-.06.68-.77,1-.3-.23.27-.38.64-.74.77,0,.18,0,.36,0,.55.21.19.59.23.52.68-.43.2-.62-.2-.63-.54-.39-.1-.73-.71-1.2-.31-.11.22,0,.46-.08.65a1.22,1.22,0,0,1-.57.22c-.28.65-.92.89-1.52,1.19-.48.61-1.2,1-1.59,1.68.1.47-.09.62-.15.9a3.26,3.26,0,0,1-.59,1.49c-.36.45-.91.58-.51,1.28-.6.19-1.51.46-1.13,1.4a2.47,2.47,0,0,1-.74.62,14.82,14.82,0,0,1-.52,2.29c-.15.11-.36.16-.52.28.06.85-.79,1.72-.74,2.68,0,.27.23.42.17.71s-.33.31-.43.54,0,.37-.08.54c-.12.32-.37.45-.39.64s.13.45.17.72c.08.53-.06,1.27,0,1.71s.36,1,.48,1.44a6.31,6.31,0,0,0,.35,1c.08.2.09.42.17.56s.36.38.43.63-.07.38,0,.55.19.32.28.47a3.23,3.23,0,0,0,1.59,1.34c0,.16,0,.24,0,.36.62.3,1.31,1.37,2.08.66.62.78,2,.16,2.64-.22.12,0,.14.1.3.07a13.92,13.92,0,0,1,2-1.11,1.3,1.3,0,0,1,.08-.55,3.88,3.88,0,0,0,1.31-1c.05-.22-.07-.29,0-.51.62-.42,1.7-.85,1.31-1.9.47-.29.39-1,.28-1.59.36,0,.36-.21.58-.43s.37-.13.42-.33-.17-.47-.17-.67a11.49,11.49,0,0,1,.32-1.24c.11-.45.35-.6.5-.88.06-.12,0-.26.07-.4s.23-.28.32-.44.14-.41.23-.59.27-.25.33-.39c.16-.44.14-1,.27-1.45.11-.32.5-.36.69-.66.29-.47.22-1.2.78-1.43a5.5,5.5,0,0,1,.49-1.68c.27-1,.8-1.36,1-2.22.17-.24.41-.4.35-.89.82-.5.22-1.18,0-1.91.33-.06.64-.15.64-.58,0-.16-.31-.1-.39-.22.21-.23.55-.34.74-.62a1.92,1.92,0,0,1-.11-1A7.23,7.23,0,0,0,207.87,70a.94.94,0,0,1-.06-.6,1.78,1.78,0,0,0,.77-.32c-.38-.76.78-1.42-.22-1.72a.53.53,0,0,1,.55-.83,3.84,3.84,0,0,1,.22-.39c-.28-.45.17-.81,0-1.31.35-.35,1-.89.52-1.54.4,0,.67-.58,1.11-.8.27-.13.62-.05.82-.26s.16-.49.23-.74c-.23-.35-.71,0-1.05-.16.1-.32.41-.09.72-.11a2.94,2.94,0,0,0,1.19-1.75c.41-.49.8-1,1.19-1.51,0-.19-.08-.25,0-.45,1-.35.36-1.95.89-2.53a.67.67,0,0,1-.53-.53,1.76,1.76,0,0,0,.32-1.29,6.78,6.78,0,0,0-2.66-1.2c-.14-.18.11-.26.07-.5a2.38,2.38,0,0,0-1.18-.61,2.7,2.7,0,0,0-1.31-.92,9.16,9.16,0,0,0-2.48-1.7c.09-.68-.46-1-1-.8-.2-.11-.15-.44-.22-.67-.6-.64-1-1.66-2-1.91-.1,0-.25,0-.4,0-.31,0-.61-.31-.95-.09-.15.09-.1.39-.28.44a1.15,1.15,0,0,0-1,0c-.33-.61-1.29-.12-2-.41a1.92,1.92,0,0,1-1.82.06c-.25,0-.56.35-.76.06.47-.74,1.75-.58,2.28-1.24.2,0,.28.1.5.07.13-.25.15-.61.58-.52.18.06.08.38.28.42s.45,0,.57-.12-.14-.29-.07-.56c.24-.08.29-.43.57-.48s.56.26.9.2c.08-.31-.18-.31-.12-.62.05-.11.22-.11.31-.18-.15-.49.52-.77.17-1.3-.28,0-.26.28-.56.22A.67.67,0,0,1,201.62,40.46ZM206,49.4c-.94-.14.26-.83,0,0Zm2.33,2.69c0,.28-.24.31-.52.28C207.76,52.09,208,52.09,208.28,52.09Zm2.65.34c.09.12.21.39.08.56a2.57,2.57,0,0,1-1.19-.41C209.94,52.06,210.49,52.61,210.93,52.43Zm-2.35,3.66c0,.23-.1.28-.27.29C208.3,56.17,208.35,56,208.58,56.09Zm-.43.54c.5.25.08,1-.26,1.14,0,.49.1,1.27-.38,1.39-.44-.31,0-.8.12-1.15a4.3,4.3,0,0,0,.41-1.24C208.06,56.71,208.13,56.7,208.15,56.63Zm-4.1.44c0,.07,0,.13,0,.2s-.23,0-.29-.07S203.89,57.06,204.05,57.07Zm3.13,4.6a1.41,1.41,0,0,1,0,.2H207C207,61.7,207,61.63,207.18,61.67Zm1.94,1.71a.34.34,0,0,1-.53.32C208.58,63.38,208.82,63.35,209.12,63.38Zm-2.78,3.94c0,.23-.1.27-.26.29C205.86,67.47,206.12,67.11,206.34,67.32Zm-7.81,1c-.06.4-.54.71-.84.51C197.87,68.58,198.12,68.15,198.53,68.33Zm3.91,3.28c-.12.7-1.07.51-1.22,1.19a1.84,1.84,0,0,0-1,.3c0,.33.39.44.16.82-.5,0-.39-.34-.73-.39-.91-.15-1.61,1.6-2.36.63.08-.3.41-.24.63-.32A4.48,4.48,0,0,0,199,73.1c-.08-.4-.59-.65-.45-1.09.42.12.56.49.88.7.42-.22.84-.25,1.33-.53S201.64,71.22,202.44,71.61Zm-.83,3.48A2.15,2.15,0,0,1,200.46,74c.87.27,1.11,1.11,1.89,1.46,0,.32-.51.14-.71.06-.25.56-1.45,1.61-1.9.61.53-.18,1.24-.15,1.49-.63l.36,0C201.62,75.36,201.68,75.26,201.61,75.09Zm-3.63,2a8,8,0,0,0-1.19-.26c-.26-.49-.47-1-1.1-1.16-.23,0-.16-.28-.34-.33-.53.09-1.34.61-1.61-.08.08-.3.47-.33.72-.16a1.25,1.25,0,0,0,.68-.62c.33.05.51-.06.75,0a1.11,1.11,0,0,1,.18.46c.33.35.78.57,1,1.06C197.49,76.24,197.92,76.48,198,77.07Zm2.46.13c.28.37-.25.59-.41.23C200.07,77.24,200.22,77.18,200.44,77.2Z"/><polygon class="cls-1" points="29.52 152.37 33.44 152.37 33.44 143.82 40.44 143.82 40.44 140.32 33.44 140.32 33.44 135.71 40.44 135.71 40.44 132.16 29.52 132.16 29.52 152.37"/><polygon class="cls-1" points="65.95 152.37 76.86 152.37 76.86 148.82 69.87 148.82 69.87 143.82 76.86 143.82 76.86 140.32 69.87 140.32 69.87 135.71 76.86 135.71 76.86 132.16 65.95 132.16 65.95 152.37"/><path class="cls-1" d="M111.47,144.52a6.23,6.23,0,0,0,1.28-11.68c-1.33-.63-3.07-.68-5.31-.68h-4.81v20.21h4V143l5.23,9.38h4.72ZM106.59,142v-6.55h1.47c2.87,0,4.3.94,4.3,3.13s-1.68,3.42-4.89,3.42Z"/><polygon class="cls-1" points="135.96 135.71 139.78 135.71 139.78 152.37 143.72 152.37 143.72 135.71 147.53 135.71 147.53 132.16 135.96 132.16 135.96 135.71"/><rect class="cls-1" x="170.17" y="132.16" width="3.95" height="20.22"/><polygon class="cls-1" points="204.47 132.16 200.55 132.16 200.55 152.37 210.81 152.37 210.81 148.82 204.47 148.82 204.47 132.16"/><rect class="cls-1" x="232.43" y="132.16" width="3.96" height="20.22"/><polygon class="cls-1" points="258.73 135.71 262.54 135.71 262.54 152.37 266.5 152.37 266.5 135.71 270.31 135.71 270.31 132.16 258.73 132.16 258.73 135.71"/><polygon class="cls-1" points="297.13 140.86 293.63 132.16 289.28 132.16 295.08 145.1 295.08 152.37 299.03 152.37 299.03 145.1 304.92 132.16 300.6 132.16 297.13 140.86"/><path class="cls-1" d="M325.09,50.63a5,5,0,1,1,5.05,5.06A5,5,0,0,1,325.09,50.63Zm9.28,0a4.24,4.24,0,1,0-4.23,4.25A4.08,4.08,0,0,0,334.37,50.63ZM329,53.49h-.74V47.72h2.48c1.5,0,2,.57,2,1.6S332,50.85,331,50.93l1.72,2.56h-.83l-1.63-2.56H329Zm1-3.23c.8,0,1.93.13,1.93-.95,0-.81-.67-.92-1.37-.92H329v1.87Z"/><polygon class="cls-1" points="50.38 192.78 50.38 176.1 44.06 176.1 44.06 174.18 58.72 174.18 58.72 176.1 52.39 176.1 52.39 192.78 50.38 192.78 50.38 192.78"/><path class="cls-1" d="M72.44,184.05v8.73H70.51v-8.25c0-2.44-1.47-3.57-3-3.57-2,0-4.1,1.73-4.1,5v6.81H61.44v-18.6h1.93v7.64A4.94,4.94,0,0,1,67.85,179c2.36,0,4.59,1.61,4.59,5Z"/><path class="cls-1" d="M85.75,185.15c0-3-2-4.24-3.88-4.24-2.07,0-3.91,1.46-4.13,4.24Zm1.82,5.12a6.91,6.91,0,0,1-5.51,2.82c-3.4,0-6.36-2.54-6.36-7s3.13-7,6.44-7c3.74,0,5.65,3,5.65,6.45a10.75,10.75,0,0,1-.11,1.52H77.82c.35,2.94,2.23,4.19,4.43,4.19a4.65,4.65,0,0,0,4-2.17l1.27,1.24Z"/><path class="cls-1" d="M101.46,182.6c2.66,0,3.75-1.69,3.75-3.36s-1-3.14-3.56-3.14H98.23v6.5Zm.33-8.42c3.74,0,5.43,2.54,5.43,5a5.28,5.28,0,0,1-5.65,5.31H98.23v8.25h-2v-18.6Z"/><path class="cls-1" d="M117.13,179.58l-.43,2a3.86,3.86,0,0,0-1.55-.36c-1.76,0-3,1.36-3,3.79v7.8h-1.93v-13.4h1.93v1.81a3.41,3.41,0,0,1,3.18-2,4.07,4.07,0,0,1,1.81.36Z"/><path class="cls-1" d="M128.27,185.15c0-3-2-4.24-3.88-4.24-2.06,0-3.91,1.46-4.12,4.24Zm1.83,5.12a6.94,6.94,0,0,1-5.52,2.82c-3.39,0-6.36-2.54-6.36-7s3.13-7,6.44-7c3.75,0,5.65,3,5.65,6.45a10.75,10.75,0,0,1-.11,1.52h-9.85c.35,2.94,2.22,4.19,4.42,4.19a4.65,4.65,0,0,0,4-2.17l1.28,1.24Z"/><path class="cls-1" d="M139.25,192.5a4.54,4.54,0,0,1-2.2.57c-1.76,0-3.47-1.11-3.47-4.08V174.18h1.93V189c0,1.66.84,2.29,1.84,2.29a3.25,3.25,0,0,0,1.23-.29l.67,1.47Z"/><path class="cls-1" d="M149.9,192.78v-2.4a4.64,4.64,0,0,1-4.26,2.69c-2.33,0-4.62-1.64-4.62-5v-8.69H143v8.2c0,2.49,1.44,3.59,3,3.59,1.9,0,4-1.7,4-5v-6.81h1.93v13.4Z"/><path class="cls-1" d="M166,186.17c0-3.48-2.33-5.23-4.58-5.23s-4.41,1.64-4.41,5c0,3.51,2.4,5.21,4.65,5.21s4.34-1.68,4.34-5Zm0,6.61v-2a5.34,5.34,0,0,1-4.43,2.24c-3.2,0-6.49-2.41-6.49-7.07s3.34-6.93,6.47-6.93a5.41,5.41,0,0,1,4.45,2.32v-7.18h1.93v18.6Z"/><path class="cls-1" d="M181.25,185.15c0-3-2-4.24-3.88-4.24-2.06,0-3.91,1.46-4.13,4.24Zm1.82,5.12a6.91,6.91,0,0,1-5.51,2.82c-3.39,0-6.35-2.54-6.35-7s3.12-7,6.43-7c3.75,0,5.66,3,5.66,6.45a10.88,10.88,0,0,1-.12,1.52h-9.85c.35,2.94,2.22,4.19,4.42,4.19A4.64,4.64,0,0,0,181.8,189l1.27,1.24Z"/><polygon class="cls-1" points="193.73 174.18 204 188.97 204 174.18 206.01 174.18 206.01 192.78 204 192.78 193.73 177.83 193.73 192.78 191.72 192.78 191.72 174.18 193.73 174.18 193.73 174.18"/><path class="cls-1" d="M219.59,185.15c0-3-2-4.24-3.88-4.24-2.07,0-3.91,1.46-4.13,4.24Zm1.82,5.12a6.91,6.91,0,0,1-5.51,2.82c-3.39,0-6.36-2.54-6.36-7s3.13-7,6.44-7c3.75,0,5.65,3,5.65,6.45a10.75,10.75,0,0,1-.11,1.52h-9.85c.34,2.94,2.22,4.19,4.41,4.19a4.61,4.61,0,0,0,4-2.17l1.28,1.24Z"/><path class="cls-1" d="M232.2,191.91a4.09,4.09,0,0,1-2.85,1.16c-1.88,0-3.64-1.19-3.64-4.08v-7.74h-2.44v-1.87h2.44V176h1.93v3.42h3.2v1.87h-3.2V189c0,1.55.79,2.29,1.84,2.29a2.9,2.9,0,0,0,1.83-.74l.89,1.33Z"/><polygon class="cls-1" points="247.66 192.78 244.02 182.01 240.36 192.78 238.29 192.78 233.56 179.38 235.76 179.38 239.32 190.02 242.91 179.38 245.11 179.38 248.69 190.02 252.25 179.38 254.45 179.38 249.72 192.78 247.66 192.78 247.66 192.78"/><path class="cls-1" d="M257.75,186c0,3,1.92,5.18,4.64,5.18S267,189,267,186s-1.93-5.14-4.65-5.14-4.64,2.18-4.64,5.14Zm11.21,0c0,4-2.77,7-6.57,7s-6.57-3-6.57-7,2.77-7,6.57-7,6.57,3,6.57,7Z"/><path class="cls-1" d="M279.15,179.58l-.43,2a3.86,3.86,0,0,0-1.55-.36c-1.77,0-3,1.36-3,3.79v7.8h-1.93v-13.4h1.93v1.81a3.41,3.41,0,0,1,3.17-2,4.11,4.11,0,0,1,1.82.36Z"/><polygon class="cls-1" points="283.53 192.78 281.6 192.78 281.6 174.18 283.53 174.18 283.53 185.38 289.45 179.38 292.08 179.38 285.68 185.77 292.9 192.78 290.02 192.78 283.53 186.34 283.53 192.78 283.53 192.78"/><path class="cls-1" d="M293.32,177.43a2.62,2.62,0,1,1,2.62,2.62A2.63,2.63,0,0,1,293.32,177.43Zm4.81,0a2.2,2.2,0,1,0-2.19,2.2A2.12,2.12,0,0,0,298.13,177.43Zm-2.79,1.48H295v-3h1.29c.78,0,1,.29,1,.83s-.4.79-.92.83l.89,1.33h-.43l-.85-1.33h-.64Zm.53-1.67c.42,0,1,.07,1-.5s-.34-.47-.71-.47h-.82v1Z"/></svg>