<svg id="Layer_1" data-name="Layer 1" xmlns="http://www.w3.org/2000/svg" viewBox="0 0 342.79 302.98"><defs><style>.cls-1{fill:#221f1f;}</style></defs><title>AFCC_Stacked_Black</title><polygon class="cls-1" points="36.69 288.19 36.69 275.17 31.76 275.17 31.76 273.68 43.19 273.68 43.19 275.17 38.26 275.17 38.26 288.19 36.69 288.19 36.69 288.19"/><path class="cls-1" d="M53.9,281.38v6.81H52.39v-6.44c0-1.9-1.14-2.78-2.37-2.78-1.52,0-3.19,1.35-3.19,3.91v5.31H45.32V273.68h1.51v5.95a3.84,3.84,0,0,1,3.49-2.16,3.55,3.55,0,0,1,3.58,3.91Z"/><path class="cls-1" d="M64.28,282.24a3,3,0,0,0-3-3.31A3.25,3.25,0,0,0,58,282.24Zm1.42,4a5.43,5.43,0,0,1-4.3,2.2c-2.65,0-5-2-5-5.49s2.44-5.47,5-5.47c2.91,0,4.4,2.36,4.4,5a7.52,7.52,0,0,1-.09,1.19H58.1A3.32,3.32,0,0,0,61.55,287a3.6,3.6,0,0,0,3.15-1.7l1,1Z"/><path class="cls-1" d="M76.53,280.25a2.59,2.59,0,0,0,2.92-2.62c0-1.24-.78-2.46-2.77-2.46H74v5.08Zm.26-6.57A3.87,3.87,0,0,1,81,277.61a4.11,4.11,0,0,1-4.4,4.14H74v6.44H72.44V273.68Z"/><path class="cls-1" d="M88.76,277.89l-.34,1.54a2.89,2.89,0,0,0-1.21-.28c-1.38,0-2.35,1.05-2.35,3v6.09h-1.5V277.73h1.5v1.42a2.65,2.65,0,0,1,2.48-1.54,3.25,3.25,0,0,1,1.42.28Z"/><path class="cls-1" d="M97.45,282.24a3,3,0,0,0-3-3.31,3.25,3.25,0,0,0-3.22,3.31Zm1.42,4a5.43,5.43,0,0,1-4.31,2.2c-2.64,0-5-2-5-5.49s2.44-5.47,5-5.47c2.92,0,4.41,2.36,4.41,5a8.93,8.93,0,0,1-.09,1.19H91.26A3.33,3.33,0,0,0,94.71,287a3.62,3.62,0,0,0,3.16-1.7l1,1Z"/><path class="cls-1" d="M106,288a3.63,3.63,0,0,1-1.72.44c-1.37,0-2.71-.86-2.71-3.18V273.68h1.51v11.58c0,1.3.65,1.78,1.44,1.78a2.35,2.35,0,0,0,1-.22L106,288Z"/><path class="cls-1" d="M114.31,288.19v-1.87a3.64,3.64,0,0,1-6.92-1.81v-6.78h1.51v6.4c0,1.95,1.12,2.8,2.32,2.8,1.48,0,3.09-1.32,3.09-3.88v-5.32h1.51v10.46Z"/><path class="cls-1" d="M126.88,283c0-2.71-1.82-4.08-3.58-4.08s-3.43,1.28-3.43,3.9,1.86,4.06,3.62,4.06,3.39-1.3,3.39-3.88Zm0,5.16v-1.55a4.16,4.16,0,0,1-3.45,1.75c-2.5,0-5.06-1.88-5.06-5.51s2.6-5.41,5-5.41a4.24,4.24,0,0,1,3.47,1.81v-5.6h1.5v14.51Z"/><path class="cls-1" d="M138.77,282.24a3,3,0,0,0-3-3.31,3.25,3.25,0,0,0-3.22,3.31Zm1.42,4a5.43,5.43,0,0,1-4.3,2.2c-2.65,0-5-2-5-5.49s2.44-5.47,5-5.47c2.92,0,4.41,2.36,4.41,5a7.52,7.52,0,0,1-.09,1.19h-7.68A3.32,3.32,0,0,0,136,287a3.6,3.6,0,0,0,3.15-1.7l1,1Z"/><polygon class="cls-1" points="148.5 273.68 156.51 285.21 156.51 273.68 158.07 273.68 158.07 288.19 156.51 288.19 148.5 276.52 148.5 288.19 146.93 288.19 146.93 273.68 148.5 273.68 148.5 273.68"/><path class="cls-1" d="M168.67,282.24a3,3,0,0,0-3-3.31,3.25,3.25,0,0,0-3.22,3.31Zm1.42,4a5.43,5.43,0,0,1-4.3,2.2c-2.65,0-5-2-5-5.49s2.44-5.47,5-5.47c2.92,0,4.4,2.36,4.4,5a7.52,7.52,0,0,1-.09,1.19h-7.68a3.32,3.32,0,0,0,3.45,3.27,3.6,3.6,0,0,0,3.15-1.7l1,1Z"/><path class="cls-1" d="M178.5,287.51a3.17,3.17,0,0,1-2.22.9c-1.46,0-2.84-.93-2.84-3.18v-6h-1.9v-1.46h1.9v-2.66H175v2.66h2.5v1.46H175v6.07c0,1.21.61,1.78,1.44,1.78a2.24,2.24,0,0,0,1.42-.57l.69,1Z"/><polygon class="cls-1" points="190.56 288.19 187.72 279.79 184.87 288.19 183.25 288.19 179.57 277.73 181.28 277.73 184.06 286.03 186.85 277.73 188.57 277.73 191.37 286.03 194.14 277.73 195.86 277.73 192.17 288.19 190.56 288.19 190.56 288.19"/><path class="cls-1" d="M198.43,282.91c0,2.35,1.5,4,3.62,4s3.63-1.7,3.63-4a3.64,3.64,0,1,0-7.25,0Zm8.74,0a5.13,5.13,0,1,1-5.12-5.47,5.14,5.14,0,0,1,5.12,5.47Z"/><path class="cls-1" d="M215.13,277.89l-.34,1.54a2.89,2.89,0,0,0-1.21-.28c-1.38,0-2.35,1.05-2.35,3v6.09h-1.5V277.73h1.5v1.42a2.64,2.64,0,0,1,2.48-1.54,3.28,3.28,0,0,1,1.42.28Z"/><polygon class="cls-1" points="218.54 288.19 217.04 288.19 217.04 273.68 218.54 273.68 218.54 282.41 223.16 277.73 225.21 277.73 220.21 282.72 225.85 288.19 223.6 288.19 218.54 283.16 218.54 288.19 218.54 288.19"/><path class="cls-1" d="M226.18,276.21a2,2,0,1,1,2,2.05A2,2,0,0,1,226.18,276.21Zm3.75,0a1.72,1.72,0,1,0-1.71,1.72A1.65,1.65,0,0,0,229.93,276.21Zm-2.17,1.16h-.3V275h1c.61,0,.81.22.81.64s-.31.62-.72.65l.7,1h-.34l-.66-1h-.49Zm.41-1.31c.32,0,.78.06.78-.38s-.27-.37-.55-.37h-.64v.75Z"/><path class="cls-1" d="M50,84.91a11,11,0,1,1,11-11,11,11,0,0,1-11,11m0-33.12A22.08,22.08,0,1,0,72.12,73.87,22.08,22.08,0,0,0,50,51.79"/><path class="cls-1" d="M76.39,41.15c-.17-.07-12.8-5.26-22.59-14.38l-.07-.06-.23-.19-.2-.16-.25-.17-.21-.13-.25-.14-.23-.12-.25-.1-.26-.1-.24-.08-.27-.07-.24-.05-.28,0a2.13,2.13,0,0,0-.25,0l-.27,0h-.53l-.27,0-.26,0-.27,0-.25.05-.27.07-.24.08-.26.1-.24.1-.23.12-.26.14-.21.13-.25.17-.19.16-.24.19-.06.06c-9.8,9.12-22.42,14.31-22.59,14.38L28,51.29A97.43,97.43,0,0,0,50,38.11,97.88,97.88,0,0,0,72,51.29Z"/><path class="cls-1" d="M78.13,48.43a3.16,3.16,0,1,1,3.16,3.16A3.16,3.16,0,0,1,78.13,48.43Zm5.81,0a2.66,2.66,0,1,0-2.65,2.66A2.56,2.56,0,0,0,83.94,48.43Zm-3.37,1.78h-.46V46.6h1.55c.94,0,1.26.36,1.26,1s-.49,1-1.12,1l1.08,1.6h-.52l-1-1.6h-.77Zm.64-2c.5,0,1.21.08,1.21-.6,0-.5-.42-.57-.86-.57h-1v1.17Z"/><path class="cls-1" d="M32.93,151.51l14.3-36.1H51l14.4,36.1H61.88L58,141.76h-18l-3.8,9.75Zm24-12.75-7.8-20.35-7.95,20.35Z"/><path class="cls-1" d="M84.93,147.81l-.1-.2a10.19,10.19,0,0,1-8.6,4.65c-7.45,0-10.3-7.1-10.3-13.4,0-6.5,2.85-13.2,10.3-13.2a10,10,0,0,1,8.6,4.55l.1-.1v-14.7h3v30.45c0,1.95.15,3.95.25,5.65h-3.1Zm-8.2-19.4c-5.7,0-7.55,5.3-7.55,10.1s1.35,11,7.1,11c6.55,0,8.55-5.45,8.55-11.15C84.83,133.26,82.58,128.41,76.73,128.41Z"/><path class="cls-1" d="M94.28,126.41l8.65,21,8.35-21h3.3l-10,25.1h-3.4L91,126.41Z"/><path class="cls-1" d="M132.43,133.81c-.3-4.1-2.4-5.4-6-5.4-3.15,0-5.75,1-6.15,4.35h-3.2c.75-5.15,4.6-7.1,9.4-7.1,5.55,0,9,2.55,8.9,8.3v11.9c-.05,1.95.15,3.95.25,5.65h-3.1l-.1-3.7h-.1l-.15.35c-1.1,2.1-4.45,4.1-7.85,4.1-4.65,0-8.35-2.85-8.35-7.75a7.74,7.74,0,0,1,5-7.25c3.35-1.45,7.7-.95,11.35-1.15Zm-7.5,15.7c6.55,0,7.8-5.4,7.5-10.65-4.25.15-13.15-.65-13.15,5.65C119.28,147.91,121.88,149.51,124.93,149.51Z"/><path class="cls-1" d="M144.33,151.51h-3V132.06c0-1.95-.15-3.95-.25-5.65h3.1l.15,3.7.1.1a8.63,8.63,0,0,1,7.85-4.55c8.2,0,8.85,7.25,8.85,10.15v15.7h-3v-16.2c0-4.35-2.5-6.9-6.6-6.9-4.95,0-7.2,4.15-7.2,8.65Z"/><path class="cls-1" d="M182.73,134.11c-.25-3.85-2.7-5.7-6.85-5.7-4.6,0-7.45,4.8-7.45,10.5s2.85,10.6,7.45,10.6c3.9,0,6.6-2.4,6.85-5.85H186c-.8,5.75-4.1,8.6-9.8,8.6-7.5,0-11-6.45-11-13.3s3.75-13.3,11.2-13.3c5.15,0,9.35,3.1,9.6,8.45Z"/><path class="cls-1" d="M192.38,139.66c.1,5.35,2.55,9.85,8.7,9.85a7.48,7.48,0,0,0,7.25-6h3.15c-1.55,6-5.3,8.75-11.35,8.75-7.5,0-11-6.45-11-13.3s3.75-13.3,11.2-13.3c8.4,0,11.45,6.15,11.45,14Zm16.15-2.75c-.35-4.85-2.95-8.5-8.15-8.5-4.9,0-7.5,4.1-7.9,8.5Z"/><path class="cls-1" d="M234.48,147.81l-.1-.2a10.19,10.19,0,0,1-8.6,4.65c-7.45,0-10.3-7.1-10.3-13.4,0-6.5,2.85-13.2,10.3-13.2a10,10,0,0,1,8.6,4.55l.1-.1v-14.7h3v30.45c0,1.95.15,3.95.25,5.65h-3.1Zm-8.2-19.4c-5.7,0-7.55,5.3-7.55,10.1s1.35,11,7.1,11c6.55,0,8.55-5.45,8.55-11.15C234.38,133.26,232.13,128.41,226.28,128.41Z"/><path class="cls-1" d="M34,202.94v-36.1H54.4v3H37.25v12.75H53.8v3H37.25v17.35Z"/><path class="cls-1" d="M59.35,191.09c.1,5.35,2.55,9.85,8.7,9.85a7.48,7.48,0,0,0,7.25-6h3.15c-1.55,6-5.3,8.75-11.35,8.75-7.5,0-11-6.45-11-13.3s3.75-13.3,11.2-13.3c8.4,0,11.45,6.15,11.45,14Zm16.15-2.75c-.35-4.85-3-8.5-8.15-8.5-4.9,0-7.5,4.1-7.9,8.5Z"/><path class="cls-1" d="M85.8,202.94h-3V183.49c0-2-.15-4-.25-5.65h3.1l.15,3.7h.1a6.46,6.46,0,0,1,5.65-4.45c1-.05,2,0,3,0V180c-.6,0-1.25-.2-1.85-.2-4.45,0-6.8,3.2-6.9,8Z"/><path class="cls-1" d="M101.3,180.59h-5v-2.75h5v-5.35l3-1.3v6.65H110v2.75h-5.7v16.8c0,2.3,1.15,3.55,3.45,3.55a8.83,8.83,0,0,0,2.6-.3v2.6a12.49,12.49,0,0,1-3,.45c-6.35,0-6-4.05-6-7.45Z"/><path class="cls-1" d="M118.2,170.59h-3.5v-3.75h3.5Zm-.25,7.25v25.1h-3v-25.1Z"/><path class="cls-1" d="M128.85,202.94h-3v-36.1h3Z"/><path class="cls-1" d="M139.85,170.59h-3.5v-3.75h3.5Zm-.25,7.25v25.1h-3v-25.1Z"/><path class="cls-1" d="M148.55,180.59h-5v-2.75h5v-5.35l3-1.3v6.65h5.7v2.75h-5.7v16.8c-.05,2.3,1.15,3.55,3.45,3.55a8.83,8.83,0,0,0,2.6-.3v2.6a12.49,12.49,0,0,1-3,.45c-6.35,0-6-4.05-6-7.45Z"/><path class="cls-1" d="M163.4,177.84l8.45,21,8.4-21h3.25l-13.85,34.7h-3.3l3.8-9.6-10.4-25.1Z"/><path class="cls-1" d="M55.08,241.36c0,6.6-3.7,13.3-11.7,13.3s-11.7-6.7-11.7-13.3,3.7-13.3,11.7-13.3S55.08,234.76,55.08,241.36Zm-11.7-10.55c-6.05,0-8.45,5.9-8.45,10.55s2.4,10.55,8.45,10.55,8.45-5.9,8.45-10.55S49.43,230.81,43.38,230.81Z"/><path class="cls-1" d="M61.53,253.91V231.56H56.48v-2.75h5.05v-5.35c0-4.3,1.75-6.25,6-6.25a13.68,13.68,0,0,1,2.85.55v2.4a11.63,11.63,0,0,0-1.85-.2c-4.1,0-4.2,2-4,5.65v3.2h5.7v2.75h-5.7v22.35Z"/><path class="cls-1" d="M109.53,226.26c-.6-4.4-4.4-6.2-8.5-6.2-9.25,0-12,8.4-12,15.8s2.8,15.8,12,15.8c4,0,8-2,8.9-6.5h3.5c-1.05,6.05-6.6,9.5-12.4,9.5-11,0-15.55-8.8-15.55-18.8s4.65-18.8,15.55-18.8c5.9,0,11.5,2.7,12,9.2Z"/><path class="cls-1" d="M120.28,232.61h.1a8.63,8.63,0,0,1,7.85-4.55c8.2,0,8.85,7.25,8.85,10.15v15.7h-3v-16.2c0-4.35-2.5-6.9-6.6-6.9-5,0-7.2,4.15-7.2,8.65v14.45h-3v-36.1h3Z"/><path class="cls-1" d="M147.13,221.56h-3.5v-3.75h3.5Zm-.25,7.25v25.1h-3v-25.1Z"/><path class="cls-1" d="M169.88,236.51c-.25-3.85-2.7-5.7-6.85-5.7-4.6,0-7.45,4.8-7.45,10.5s2.85,10.6,7.45,10.6c3.9,0,6.6-2.4,6.85-5.85h3.25c-.8,5.75-4.1,8.6-9.8,8.6-7.5,0-11-6.45-11-13.3s3.75-13.3,11.2-13.3c5.15,0,9.35,3.1,9.6,8.45Z"/><path class="cls-1" d="M192.63,236.21c-.3-4.1-2.4-5.4-5.95-5.4-3.15,0-5.75.95-6.15,4.35h-3.2c.75-5.15,4.6-7.1,9.4-7.1,5.55,0,9,2.55,8.9,8.3v11.9c0,2,.15,4,.25,5.65h-3.1l-.1-3.7h-.1l-.15.35c-1.1,2.1-4.45,4.1-7.85,4.1-4.65,0-8.35-2.85-8.35-7.75a7.74,7.74,0,0,1,5.05-7.25c3.35-1.45,7.7-.95,11.35-1.15Zm-7.5,15.7c6.55,0,7.8-5.4,7.5-10.65-4.25.15-13.15-.65-13.15,5.65C179.48,250.31,182.08,251.91,185.13,251.91Z"/><path class="cls-1" d="M219.63,228.81h3.1c-.1,1.7-.25,3.7-.25,5.65v15c0,5,.25,10.25-5.3,12.85a11.45,11.45,0,0,1-5.7,1.15c-4.55,0-9.95-1.55-9.95-6.75h3.25c.35,3,3.9,4,7.1,4,3.9,0,7.5-2.75,7.6-6.95v-4.7h-.1a9.19,9.19,0,0,1-8.15,4.7c-7.55,0-10.8-5.75-10.8-12.65s3-13.1,10.7-13.1c3.65,0,6.25,1.75,8.25,4.65l.1-.2Zm-8.2,2c-5.45,0-7.75,5.5-7.75,10.1s2.35,10.15,7.85,10.15c5.75,0,7.95-5.35,7.95-10.25S216.83,230.81,211.43,230.81Z"/><path class="cls-1" d="M250.48,241.36c0,6.6-3.7,13.3-11.7,13.3s-11.7-6.7-11.7-13.3,3.7-13.3,11.7-13.3S250.48,234.76,250.48,241.36Zm-11.7-10.55c-6.05,0-8.45,5.9-8.45,10.55s2.4,10.55,8.45,10.55,8.45-5.9,8.45-10.55S244.83,230.81,238.78,230.81Z"/><path class="cls-1" d="M322.13,203h-3V183.5c.05-1.95-.15-3.95-.25-5.65H322l.15,3.7h.1a6.46,6.46,0,0,1,5.65-4.45c1,0,2,0,3,.05v2.9c-.6-.05-1.25-.2-1.85-.2-4.45,0-6.8,3.2-6.9,8Z"/><path class="cls-1" d="M231,191.09c.1,5.35,2.55,9.85,8.7,9.85a7.48,7.48,0,0,0,7.25-6h3.15c-1.55,6-5.3,8.75-11.35,8.75-7.5,0-11-6.45-11-13.3s3.75-13.3,11.2-13.3c8.4,0,11.45,6.15,11.45,14Zm16.15-2.75c-.35-4.85-2.95-8.5-8.15-8.5-4.9,0-7.5,4.1-7.9,8.5Z"/><path class="cls-1" d="M295.39,191.09c.1,5.35,2.55,9.85,8.7,9.85a7.48,7.48,0,0,0,7.25-6h3.15c-1.55,6-5.3,8.75-11.35,8.75-7.5,0-11-6.45-11-13.3s3.75-13.3,11.2-13.3c8.4,0,11.45,6.15,11.45,14Zm16.15-2.75c-.35-4.85-3-8.5-8.15-8.5-4.9,0-7.5,4.1-7.9,8.5Z"/><path class="cls-1" d="M281.12,180.59h-5v-2.75h5v-5.35l3-1.3v6.65h5.7v2.75h-5.7v16.8c-.05,2.3,1.15,3.55,3.45,3.55a8.83,8.83,0,0,0,2.6-.3v2.6a12.49,12.49,0,0,1-3.05.45c-6.35,0-6-4.05-6-7.45Z"/><path class="cls-1" d="M221.85,175.29c-.6-4.4-4.4-6.2-8.5-6.2-9.25,0-12,8.4-12,15.8s2.8,15.8,12,15.8c4,0,8-2,8.9-6.5h3.5c-1.05,6.05-6.6,9.5-12.4,9.5-10.95,0-15.55-8.8-15.55-18.8s4.65-18.8,15.55-18.8c5.9,0,11.5,2.7,12,9.2Z"/><path class="cls-1" d="M256.88,202.94h-3V183.49c0-2-.15-4-.25-5.65h3.1l.15,3.7.1.1a8.63,8.63,0,0,1,7.85-4.55c8.2,0,8.85,7.25,8.85,10.15v15.7h-3v-16.2c0-4.35-2.5-6.9-6.6-6.9-4.95,0-7.2,4.15-7.2,8.65Z"/><path class="cls-1" d="M252.1,228.47a3.16,3.16,0,1,1,3.16,3.16A3.16,3.16,0,0,1,252.1,228.47Zm5.81,0a2.66,2.66,0,1,0-2.65,2.66A2.56,2.56,0,0,0,257.91,228.47Zm-3.37,1.79h-.46v-3.61h1.55c.94,0,1.26.35,1.26,1s-.49.95-1.12,1l1.08,1.61h-.52l-1-1.61h-.77Zm.64-2c.5,0,1.21.09,1.21-.59,0-.51-.42-.57-.86-.57h-1v1.16Z"/></svg>