<svg id="Layer_1" data-name="Layer 1" xmlns="http://www.w3.org/2000/svg" viewBox="0 0 342.79 193.65"><defs><style>.cls-1{fill:#221f1f;}</style></defs><title>AHFI_Black</title><path class="cls-1" d="M323,54.14a5,5,0,1,1,5.06,5.06A5.06,5.06,0,0,1,323,54.14Zm9.28,0a4.24,4.24,0,1,0-4.22,4.25A4.08,4.08,0,0,0,332.27,54.14ZM326.9,57h-.74V51.23h2.48c1.5,0,2,.56,2,1.6s-.78,1.53-1.78,1.6L330.58,57h-.83l-1.62-2.57H326.9Zm1-3.24c.8,0,1.93.14,1.93-.95,0-.8-.67-.91-1.37-.91H326.9v1.86Z"/><path class="cls-1" d="M41.66,66.58c2.12-.67,2.26-1.89,2.4-3.91l.14-6.2c.15-5-1.55-11.73-10.3-11.73-3.95,0-8.75,1.88-9,6.06-.14,2.16-.28,3.78-1.41,4.59a15.64,15.64,0,0,1-8,2.56,1.74,1.74,0,0,1-2-1.89c0-7,16-16.58,26.26-16.58s15.1,5.66,14.67,15.77l-.84,23.47c-.28,6.2,1,11.73,6.49,11.73a8.47,8.47,0,0,0,3.53-.81,6,6,0,0,1,1.84-.94c.57,0,1,.8,1,1.75,0,.67-5,5.93-11.86,5.93a11.47,11.47,0,0,1-9.18-4.18c-.56-.81-1.41-1.89-2.25-1.89s-2.69,1.22-5.51,2.7c-3.11,1.62-6.21,3.37-10.17,3.37s-7.48-1.08-9.88-3.1a12.37,12.37,0,0,1-4.38-9.44c0-5.26,2.69-8.36,11.72-11.46ZM32.91,90.31a16.32,16.32,0,0,0,8.61-3.37c1.7-1.61,1.83-3.5,1.83-6.33l.29-8c0-1.48-.56-1.75-1.41-1.75a27.4,27.4,0,0,0-5.79,1.34C28.11,74.94,24,77,24,82.23,24,84.52,25.71,90.31,32.91,90.31Zm71-48.41a30.34,30.34,0,0,1,2.25,10.93c-.56.94-2.68,1.21-3.39.4-2.39-5.93-6.63-9.84-12.41-9.84-5.51,0-9,3.37-9,8.22,0,5.53,5.93,8.5,10.87,11.2,7.48,4,14.4,8.62,14.4,18.2,0,10.25-9.88,15.37-20.33,15.37-6.63,0-11.58-1.35-15.1-4-1.14-2.56-2-9.17-1.7-13.62a2.48,2.48,0,0,1,3.25-.14c2.4,7.42,6.92,13.89,15,13.89,5.08,0,9.46-2.83,9.46-8.63,0-6.2-5.65-9.57-10.87-12.41-8.19-4.44-14-9.16-14-16.58,0-9.84,8.46-15.37,19.19-15.37C97.42,39.48,102.65,40.83,103.92,41.9Zm18.91,13.89c0-5.26,0-5.93-3.81-8.36l-1.27-.81a1.76,1.76,0,0,1,.14-2.42,86.66,86.66,0,0,0,14-7.29,1.61,1.61,0,0,1,1.69,1,59.28,59.28,0,0,0-.57,6.2c0,.95.29,1.76,1.28,1.76C136.1,45,145,39.48,154,39.48c14.26,0,23.44,11.05,23.44,24.68,0,18.74-14.41,32.22-34.45,32.22a56,56,0,0,1-7.77-.54c-1.26.27-2,1-2,3.78v7c0,9.57.28,10.79,5.37,11.46l5.5.68c1,.67.71,3-.28,3.37-6.78-.27-10.88-.41-15.81-.41-5.09,0-9.32.14-13.27.41-1-.41-1.27-2.7-.29-3.37l3-.41c5.22-.67,5.36-2,5.36-11.73Zm10.45,25.09c0,4.31,1.41,5.93,4.24,8.09a19.2,19.2,0,0,0,10.16,3c11.57,0,18.35-10.25,18.35-24.27C166,56.87,159.68,46,147,46c-6.07,0-10.44,2.16-12,3.78-1.28,1.48-1.7,3.5-1.7,8Zm99.24-25.09c0-5.26,0-5.93-3.81-8.36l-1.27-.81a1.76,1.76,0,0,1,.14-2.42,111.32,111.32,0,0,0,14.25-6.61c.71.13,1.14.4,1.14.94v7.83c0,.67.13,1.07.42,1.21,4.94-3.91,10.3-8.09,15.53-8.09,3.53,0,6.35,2.16,6.35,5.39a6.13,6.13,0,0,1-6.07,6.21,5.62,5.62,0,0,1-3.11-.95A11.88,11.88,0,0,0,249.88,48a6.36,6.36,0,0,0-5.08,2.7c-1.41,1.89-1.83,5.8-1.83,10.38V79.39c0,9.71.28,11.33,5.64,11.73l5.08.41c1,.67.71,3-.28,3.37-6.63-.27-10.73-.41-15.67-.41s-9.31.14-13,.41c-1-.41-1.28-2.7-.29-3.37l2.68-.41c5.23-.81,5.37-2,5.37-11.73Zm50,4.18c-3.67,0-3.81.27-3.81,3.65,0,13.61,8.33,25.21,23.44,25.21,4.65,0,8.61-1.35,13-6.6a1.85,1.85,0,0,1,2.54,1.61C313,93,302.85,96.38,295.51,96.38c-9.17,0-16.38-3.77-20.47-8.9A27.71,27.71,0,0,1,269.11,70c0-16.58,11.43-30.47,28.37-30.47,12.15,0,20,8,20,16A8.08,8.08,0,0,1,317,59c-.43.81-2.4.94-8.33.94Zm8.75-4c10.45,0,13.56-.54,14.68-1.35.43-.27.85-.81.85-2.56,0-3.78-2.68-8.5-10.87-8.5S280.4,50.8,280.26,55.25c0,.27,0,.68,1,.68Zm25.66,59.19H158.78a1.49,1.49,0,0,0,0,3H316.93a1.49,1.49,0,1,0,0-3Zm-215.61,0H13.89a1.49,1.49,0,0,0,0,3h87.43a1.49,1.49,0,1,0,0-3Zm90.55-89.35A3.18,3.18,0,0,1,193,26c.18.08.25.26.49.42s.63.27.83.45a16.07,16.07,0,0,1,1.44,2.29c.28.4.75.74.95,1,.59,1,.09,2.72-.22,3.37a2.51,2.51,0,0,1-.7.92c-.11.07-.41.1-.56.17a5.75,5.75,0,0,0-.63.42,3,3,0,0,1-.62.42c-.18,0-.42-.08-.65-.08s-.49.09-.66.07-.42-.22-.69-.29c-.44-.12-.92-.05-1.35-.17a4.9,4.9,0,0,1-1.67-.84,3.32,3.32,0,0,1-.55-3.1c0-.17.17-.31.23-.49.22-.72.22-1.6.41-2.25C189.46,27.09,190.34,25.71,191.87,25.77Zm9.38,3.85a2.69,2.69,0,0,0-.87,2.22c.08,1.19,1.65,2.2,2.36,1,0-.38.42-.68.51-1.08.05-.24-.05-.46,0-.71.07-.56.59-1.19.18-1.7A2.24,2.24,0,0,0,201.25,29.62Zm9.67,2.76a1.19,1.19,0,0,0-.36-.88,5.63,5.63,0,0,0-1.26-.76,2.37,2.37,0,0,0-2.41.63,2.92,2.92,0,0,0-.56,2.13,5.43,5.43,0,0,0,.56.89c.56.9,1.6,1.72,2.73.89,0-.45.23-.76.31-1.19,0-.25-.41-.2-.43-.48C209.8,33,210.81,33.16,210.92,32.38Zm.86,3.82a4.47,4.47,0,0,0-.28.74,2.71,2.71,0,0,0,.43,1.38c.31.59.88,1.62,1.58,1.64.31,0,.71-.32,1-.55a8.15,8.15,0,0,0,.89-.71,4.62,4.62,0,0,0,1-2A3.47,3.47,0,0,0,215,34.8a5.8,5.8,0,0,0-1.59-.48C212.22,34.43,212.11,35.09,211.78,36.2Zm-2.27,9.95c0-.13.11-.3.13-.45,0-.44-.13-1.05-.12-1.61a2.69,2.69,0,0,0-.31-1.83c-.13-.19-.46-.3-.63-.49s-.15-.33-.23-.41-.44-.17-.79-.34c-.76-.38-1.58-1.57-2.6-1.24a7.43,7.43,0,0,0-2.11-1.07,8.71,8.71,0,0,0-1.56-.13c-.32.08-.57.43-.88.56s-.7.16-.87.36c-.39.46-.18,1.5,0,2.07,1,.28.75,1.68,2,1.76.42-.18.43-.8.66-1.17.41-.13.69-.17.92,0,0-.29.23-.34.42-.43,0-.4,0-.82.44-.73.38.4-.15.94-.51,1a4.6,4.6,0,0,1-.23.74c.06.13.21.19.23.36s-.3.43-.49.68,0,.49-.38.49-.23-.36-.49-.33c-.19.57.56.9.13,1.57.3.33.27.89.48,1.28a4.36,4.36,0,0,0,.67.79c.33.18.92-.07,1,.46,0,.23-.23.31-.08.5a1.22,1.22,0,0,0,1,.3c.41.68,1.1,1.11,1.3,2a1.88,1.88,0,0,1,1.19.46c0,.45.27.66.35,1a7.92,7.92,0,0,1,2.67,2c.45,0,.87.74,1.24.37.19-.17-.28-.16-.19-.41a1.77,1.77,0,0,1,.87-1.11c-.46-.88.2-1.47,1-1.51a1.51,1.51,0,0,0-.08-2.32,4.44,4.44,0,0,0-1.92-.9c-.11-.35-.46-.48-.5-.89-.55.14-.72-.39-1.3-.21C210,46.83,209.56,46.53,209.51,46.15Zm-1.19,1.65c-.07.27-.4.26-.62.37-.58-.5-1.49.45-2.1-.31.34-.36,1.19-.85,1.63-.32A1.24,1.24,0,0,1,208.32,47.8ZM218.38,45c.48,0,1.13-1.44,1.13-2.45s-.66-2-1.62-1.65c-.41-.59-1.17-.17-1.63.17-.2.15-.63.54-.89.76a4.44,4.44,0,0,0-1.07,1.31c-.05.32.19.67.25,1.06a4.37,4.37,0,0,0,.14,1.17c.34.84,1,1.75,2,1.71s.42-.78.47-1.33c0-.19.19-.31.22-.49s-.17-.39,0-.66C217.93,44.59,218,45.08,218.38,45ZM200.6,47.16a.38.38,0,0,0,.55.07c0-.31,0-.53-.32-.57A.63.63,0,0,0,200.6,47.16Zm-.62-.49a.26.26,0,0,0,.12.46C200.36,47.08,200.29,46.62,200,46.67ZM191.24,50c-.7,0-1.07-.37-1.84-.35a1.57,1.57,0,0,0-1.34-.52c-.37-.45-1.1-.63-1.16.1,0,.33.33.64.14,1.11.61.29.33,2.35,1.09,2.42.58.05.56-1,1.3-.74a2.31,2.31,0,0,0-.5.93c.09.26.53.19.79.29a1.38,1.38,0,0,0,0,.51,5,5,0,0,0,1.49.43c.25,0,.51.24.74.29s.32,0,.46,0c.36.13.66.55,1.07.56s.84-.34,1.26,0a1.88,1.88,0,0,1,1.53-.27c.17-.09.06-.5.28-.54.9.49,1-1.35,1.9-.71-.16-.35.28-.57.29-.89s-.28-.51-.46-.78c-.24,0-.33.06-.55,0-.16-.21-.29-.46-.69-.33-.19-.1-.23-.35-.38-.48a4,4,0,0,1-1.82.16,2.18,2.18,0,0,0-2-.25c-.14-.15-.46-.14-.65-.24,0-.25.22-.22.18-.49-.16,0-.22-.13-.4-.12s-.22.26-.41.28S191.49,50,191.24,50Zm5,5.49c.4.08.78-.29,1-.55C196.91,54.59,196.27,55.05,196.2,55.49Zm-5.35.18c-.65-.48-1.55-.74-2.25-1.17a1,1,0,0,0-.27.24,6.67,6.67,0,0,0,.06.8c.58.16.7.72,1.06,1.07,1,0,2,0,2.3-.7A1.36,1.36,0,0,0,190.85,55.67ZM194.16,57a2.06,2.06,0,0,0-2-.31c-.13.45-.62.6-.66,1a1.52,1.52,0,0,0,.85,1.16,5,5,0,0,0,.89.34c.31,0,.29.11.54.23s.38.06.5.13c.29.17.44.54.67.64l.55,0a1.34,1.34,0,0,0,.73.5c0,.31.15.51.53.48a.55.55,0,0,0,.09-.66.47.47,0,0,0,.33-.53,4.67,4.67,0,0,0,.72-.42c.07-.22-.13-.2-.08-.41.67.09,1.82-.81,1.78-1.16a.34.34,0,0,0-.29-.27c-.21.26-.91.46-1,0a5.75,5.75,0,0,1-2.1-.26.63.63,0,0,1-.83.46c0,.35-.63.28-.82.26-.23-.61.53-.53.56-1C194.94,56.88,194.42,56.87,194.16,57Zm-3.64.26c-.11.28.18.5,0,.55-.35-.4-.89-.28-1.35-.22-.15.78.55.79.8,1.2.25,0,.55-.09.59.19-.35.28-.31,1-.67,1.27-.18-.07-.27-.23-.54-.23a1.6,1.6,0,0,1-.43.58c0,.68.52.84.84,1.21a1,1,0,0,0-.12.34,2.18,2.18,0,0,1,.55,1.09c.53.12.78.92,1.43.63,0,0,0-.1.06-.11,0-.39-.29-.44-.32-.76s.19-.23.18-.45a7.74,7.74,0,0,1-.6-4c0-.22-.18-.27-.13-.52.36-.07.75-.56.41-.93A.69.69,0,0,0,190.52,57.26ZM190,61.32c-.24-.11-.53-.16-.58-.44C189.64,60.41,190,61,190,61.32Zm0,.15c.13,0,.09.17.08.31C189.92,61.78,190,61.59,190.05,61.47ZM192.8,60c-.53-.21-.67-.77-1.32-.88a4.58,4.58,0,0,0,.28,2.44,6.56,6.56,0,0,0,.11,1.82c.42.37.83,0,1.12-.25.47.42.95-.16,1.23-.44a2,2,0,0,0,2.06-1c-.14-.31-.57-.37-1-.61-.62-.36-.95-.85-1.59-.38C193.62,60.25,193.43,59.76,192.8,60Zm3.79,2.51c.2,0,.39-.07.42-.28C196.92,61.76,196.37,62.09,196.59,62.46Zm2.66,1.34c0-.4-.82-.94-.94-.2-.38-.09-.42.18-.72.17-.09-.42-1.19-.62-1.69-.54-.65.11-.45.68-.35,1a3.63,3.63,0,0,1,.19,1.27c.38.16.5.66.87.7s.48-.34.78-.52.81-.22,1-.45a1.73,1.73,0,0,0,.08-.55C198.83,64.45,199.3,64.32,199.25,63.8Zm1.29.27a1.48,1.48,0,0,1,.22.61,3.88,3.88,0,0,0,1.8-.66C202.22,63.53,200.75,63.49,200.54,64.07ZM193.6,64a5.18,5.18,0,0,0-.29.84c.05.19.33.18.33.42a1.18,1.18,0,0,1-1.09-.51.81.81,0,0,0-.66.17c0,.29,0,.56.27.61a2.09,2.09,0,0,0,.46-.17c.18.3.62.67,1,.45a.64.64,0,0,0,.12-.45c.15-.06.35-.07.46-.18.12-.65.69-1.06.69-1.67C194.35,63.49,194.25,64,193.6,64Zm5.87.5c-.08.62-1.14,1.35-1,2.11.07.32.63.53,1.09.31,0,.15-.2.25-.07.4.66-.21.53-1.28,1.19-1.5,0-.65-.51-.83-.64-1.34A.63.63,0,0,0,199.47,64.47Zm-6,2.41c.13.32.71.15.67-.22C194,66.47,193.41,66.51,193.45,66.88Zm2.16.21c-.21,0-.45-.12-.66-.08a1.5,1.5,0,0,0-1,1.21.82.82,0,0,0,.72.54c.13,0,.24-.17.42-.28.61-.38,1.34-.8,1.53-1.39C196.51,66.63,196,67.06,195.61,67.09Zm4,.46c-.82.07-1.06-.72-1.89-.51-.27.08-.47.48-.79.72s-.69.46-.7.92a4.26,4.26,0,0,1-.09,1.81c.13.07.39,0,.54.13s0,.41.13.51c.5.11.54-.28.68-.57.42,0,.7,0,1.15.11a1.1,1.1,0,0,0,.49-.63,2.69,2.69,0,0,0,1.23-.44,1,1,0,0,0,1.1-.8A3.49,3.49,0,0,0,199.61,67.55Zm-4.16,2.7c.13,0,.13-.06.25,0,0-.21,0-.32-.24-.32A.32.32,0,0,0,195.45,70.25ZM199.1,44c.05-.72-.38-1-.42-1.63-1-.67-1.07-1.94-2.55-2.2-1-.17-1.83-.33-2.9-.55A2.3,2.3,0,0,0,192,39c-.72-.09-1.3.46-2,.1-.77.25-1.28.78-2.07,1a15.82,15.82,0,0,0-.76,2.17,5.74,5.74,0,0,0-.4.83c-.07.35,0,.81-.06,1.21a5.71,5.71,0,0,0-.19.8c0,.94,1.07.89,1.43,1.63a8.25,8.25,0,0,0,2.72-.11c.34,0,.74,0,1.06,0s.71-.29.84.1c-.18.31-.58.4-.83.66a8.63,8.63,0,0,0-3.63.92c.23.81,1.33.73,2.33.87l2.84.45c.47-.77.87-.17,1.42,0a14,14,0,0,0,1.61,0c.16.07.12.33.33.36.25-.12-.1-.62.24-.69.27.14.27.32.53.38s1,0,1.21,0c.49-.06.86-.54,1,.11-.16.86-1.91,0-1.91.91,0,.44.88.59,1.16.91.24,0,.23-.24.51-.17.46.33.85.13,1.46.12a1.43,1.43,0,0,1,.33.47c-.05.27-.39.21-.33.59a3.85,3.85,0,0,0,.94.09c.16.48,1.33.28,1,1a3,3,0,0,0-1.88-.5c0-.34-.74-.63-1-.31.09.09.28.07.35.17-.39,0-.48.29-.68.47a1.71,1.71,0,0,0-1.46.93,1.54,1.54,0,0,0-.73.47c.09.27-.07.41-.08.7.46.27.73,0,1.2.06.64.08,1.13.64,1.63.64.27,0,.45-.25.72-.22.31-.46-.21-1-.24-1.27.71.13.56,1.43,1.45,1.09.29.59,1,.66,1.74.43,0,.14,0,.29,0,.36a11.16,11.16,0,0,0,3.25.42c.5.59,1.85.2,2.27.92-.93.21-2,.09-2.79.36-.2-.51-1.16-.32-1.6-.18-.25-.39-.62-.24-1.05-.26-.64,0-1.43-.49-2.1-.21-.06.21.11.33,0,.46-.35.25-.5-.11-.81-.09-.84,0-1,1.54-1.61,2l-.4,0c-.45.38-1.4.5-1.42,1.18.2.16.29-.18.56-.12a1.07,1.07,0,0,0,1.24.37c.38.14.29.64.57.78.47.25.7-.4,1.23-.49.11-.29,0-.78.34-.89,1,.18.77-1,1.57-1,.21.83-.68.87-.83,1.46-.49.25-1.11.61-1,1.3.46.21.79-.11,1.16,0,.55.1.62.7,1.06,1a7.1,7.1,0,0,1,1.18-.39c.17-.08.28-.27.47-.33s.29,0,.35,0,.25-.31.42-.38a1.14,1.14,0,0,1,1.06.06c-.48.71-1.71.59-2,1.45.21.44,1.24.13,1.11.86-1,.2-1.64-.76-2.52-.78s-1.23.71-1.92,1c-.07.23-.15.46-.23.69a3.8,3.8,0,0,0-.51.13c0,.14-.09.26-.12.4.37.29.13,1.12.37,1.52.14.11.47,0,.6.14.07.45.34.85.66.88.63.09,1-1,1.71-.86.17-.14.25-.4.47-.48.4.23.68-.1,1-.15-.3.24-.41.67-.94.65-.48.83-1.46,1.11-2.15,1.7-1.58-.16-2.06,1.54-3.79,1.22-.24.21-.62.27-.64.72.36.17.72.07.94.4.36-.07.42.08.79.09s.84-.71,1.36-.78c.26-.05.56.19.84.19s.3-.27.51-.07c0,.19,0,.31-.17.34a2,2,0,0,0-2.15.8c.12.7.6,1.08.71,1.8.22.13.59.13.58.48-.16.27-.72.08-.8-.14s.09-.19.07-.35A7.42,7.42,0,0,1,199.53,73c-.92-.06-1,.79-1.85.81a2.75,2.75,0,0,0-.39.59c-.73.1-1,.74-1.89.65-.17.1-.16.39-.38.44-.54-.1-.76.17-1.16.24,0,.31-.34.76-.63.42-.06-.36.33-.33.53-.48.39-.28.66-.8,1.2-.84.27-.48.87-.44,1.29-.69s.84-1,1.37-1.24a.9.9,0,0,0,1.09-.45c-.12-.27-.43-.18-.7-.23a1.22,1.22,0,0,0-1.08-.56c-.28,0-.51.36-.71.11,0-.27.32-.28.29-.63a2,2,0,0,1-1.32-.78,4.52,4.52,0,0,0-1.24.59c-.22.19-.78.64-.8.92a.8.8,0,0,0,1,.75c.37-.06.68-.77,1-.3-.23.28-.37.64-.74.77,0,.18,0,.37,0,.55.21.19.6.23.52.68-.42.2-.61-.2-.62-.54-.39-.1-.73-.71-1.2-.31-.11.23,0,.46-.08.66a1.48,1.48,0,0,1-.57.22c-.27.64-.92.88-1.51,1.18-.49.61-1.2,1-1.6,1.68.1.46-.09.61-.15.9a3.22,3.22,0,0,1-.58,1.48c-.37.46-.92.59-.51,1.28-.61.19-1.51.47-1.13,1.4a2.58,2.58,0,0,1-.74.62,14.82,14.82,0,0,1-.52,2.29c-.16.11-.36.16-.52.28.06.85-.79,1.71-.74,2.68,0,.27.23.42.17.71s-.33.3-.43.53,0,.38-.08.55-.36.44-.39.64.13.44.17.71c.08.53-.06,1.27,0,1.71s.36,1,.48,1.44a6.31,6.31,0,0,0,.35,1c.08.19.09.41.17.56s.36.38.43.63-.07.37,0,.55a2.33,2.33,0,0,0,.27.47,3.36,3.36,0,0,0,1.6,1.34c0,.16,0,.23,0,.35.62.3,1.31,1.37,2.08.66.61.78,2,.17,2.63-.21.12,0,.14.09.3.06a13.92,13.92,0,0,1,2-1.11,1.33,1.33,0,0,1,.08-.55,3.75,3.75,0,0,0,1.3-1c.06-.21-.07-.29,0-.5.62-.42,1.7-.85,1.3-1.9.48-.29.39-1,.29-1.59.35,0,.36-.21.58-.43s.37-.12.41-.33-.17-.47-.16-.66a9.59,9.59,0,0,1,.32-1.25c.11-.44.35-.59.49-.87.06-.13,0-.27.08-.4s.23-.28.32-.44.14-.42.23-.59.27-.26.32-.39c.17-.45.14-1,.27-1.45.12-.32.5-.36.69-.67s.22-1.19.78-1.42a5.5,5.5,0,0,1,.49-1.68c.27-1,.8-1.36,1-2.21a1.09,1.09,0,0,0,.35-.89c.82-.5.22-1.19,0-1.92.33,0,.64-.14.64-.57,0-.17-.31-.1-.39-.22.21-.24.55-.34.73-.62a1.93,1.93,0,0,1-.1-1,7.37,7.37,0,0,0,1.15-1.75,1,1,0,0,1-.07-.61,1.67,1.67,0,0,0,.77-.31c-.37-.77.78-1.43-.22-1.72a.54.54,0,0,1,.55-.83c.09-.12.13-.28.22-.39-.27-.45.18-.82,0-1.31.36-.36,1-.89.53-1.54.4,0,.66-.58,1.1-.8.27-.13.62,0,.82-.26s.16-.49.24-.74c-.24-.35-.71,0-1-.16.09-.31.4-.09.71-.11A2.94,2.94,0,0,0,210.11,63c.41-.49.8-1,1.19-1.5,0-.19-.08-.25,0-.45,1-.36.36-2,.89-2.53a.67.67,0,0,1-.53-.53,1.76,1.76,0,0,0,.32-1.29,6.64,6.64,0,0,0-2.66-1.19c-.14-.19.12-.26.08-.51a2.51,2.51,0,0,0-1.18-.61,2.74,2.74,0,0,0-1.31-.92,9.36,9.36,0,0,0-2.48-1.69.73.73,0,0,0-1-.81c-.2-.1-.15-.43-.22-.67-.6-.63-1-1.65-2-1.9-.1,0-.24,0-.4,0-.31,0-.61-.31-.95-.09-.14.09-.09.39-.28.44a1.13,1.13,0,0,0-.95,0c-.33-.61-1.29-.12-2-.41a1.9,1.9,0,0,1-1.81.06c-.26,0-.57.35-.76.06.47-.74,1.75-.58,2.28-1.24.2,0,.28.1.5.08.13-.25.14-.62.58-.53.18.06.07.38.28.42s.44,0,.56-.12-.14-.29-.07-.56c.24-.08.3-.42.58-.48s.56.26.9.2c.07-.31-.19-.31-.13-.61,0-.12.22-.12.31-.18-.15-.49.52-.78.17-1.3-.28,0-.26.27-.56.22A.71.71,0,0,1,199.1,44Zm4.33,8.93c-.94-.15.26-.84,0,0Zm2.32,2.69c0,.27-.23.3-.51.27C205.24,55.62,205.5,55.62,205.75,55.63Zm2.66.33c.08.12.2.39.07.56a2.61,2.61,0,0,1-1.19-.41C207.42,55.6,208,56.14,208.41,56Zm-2.35,3.66c0,.23-.11.28-.27.29C205.77,59.69,205.83,59.56,206.06,59.62Zm-.43.53c.5.26.08,1-.26,1.15,0,.49.1,1.26-.38,1.39-.44-.32,0-.8.11-1.15a4,4,0,0,0,.42-1.24C205.54,60.23,205.61,60.22,205.63,60.15Zm-4.1.45c0,.06,0,.13,0,.19s-.23,0-.29-.06S201.37,60.59,201.53,60.6Zm3.13,4.59a1.41,1.41,0,0,1,0,.2h-.2C204.44,65.22,204.51,65.15,204.66,65.19Zm1.94,1.71a.34.34,0,0,1-.53.32C206.06,66.9,206.29,66.86,206.6,66.9Zm-2.78,3.94c0,.22-.1.27-.26.28C203.33,71,203.6,70.63,203.82,70.84Zm-7.8,1c-.06.4-.54.71-.84.51C195.36,72.09,195.6,71.66,196,71.84Zm3.91,3.28c-.13.7-1.07.51-1.22,1.19a1.67,1.67,0,0,0-1,.3c0,.33.39.44.16.81-.51,0-.39-.33-.74-.38-.91-.15-1.6,1.6-2.35.63.08-.3.4-.24.62-.32a4.63,4.63,0,0,0,1.15-.74c-.08-.4-.59-.65-.45-1.09.42.12.56.49.87.7.43-.22.84-.25,1.33-.53S199.12,74.73,199.93,75.12Zm-.83,3.48a2.14,2.14,0,0,1-1.16-1.07c.87.27,1.11,1.11,1.89,1.46-.05.31-.51.14-.71.06-.25.55-1.44,1.6-1.89.61.52-.18,1.23-.16,1.49-.63l.35,0C199.1,78.87,199.17,78.76,199.1,78.6Zm-3.63,2a9.32,9.32,0,0,0-1.2-.26c-.25-.49-.46-1-1.09-1.16-.23,0-.16-.27-.34-.32-.53.08-1.33.6-1.61-.08.08-.3.47-.33.72-.17a1.18,1.18,0,0,0,.68-.62c.33.05.51-.06.75,0a1.11,1.11,0,0,1,.18.46c.33.36.78.58,1,1.06C195,79.74,195.41,80,195.47,80.57Zm2.46.13c.28.38-.25.59-.41.23C197.55,80.74,197.71,80.69,197.93,80.7Z"/><path class="cls-1" d="M24,147.11H21v-5.5h-4.1v5.5H14V133.37h3v5.32H21v-5.32h3Z"/><path class="cls-1" d="M40.58,140.26a7.49,7.49,0,0,1-1.78,5.09,5.75,5.75,0,0,1-8.8,0,7.49,7.49,0,0,1-1.78-5.09A7.58,7.58,0,0,1,30,135.15a5.68,5.68,0,0,1,8.79,0A7.54,7.54,0,0,1,40.58,140.26Zm-3.09,0a4.09,4.09,0,0,0-.87-2.66,2.87,2.87,0,0,0-4.45,0,4,4,0,0,0-.87,2.67,3.94,3.94,0,0,0,.88,2.63,2.87,2.87,0,0,0,4.44,0A4,4,0,0,0,37.49,140.26Z"/><path class="cls-1" d="M54.44,140.76c0,2.56-.36,4.3-1.09,5.24s-2,1.4-3.81,1.4-3.07-.46-3.8-1.4-1.1-2.68-1.1-5.24v-7.39h3v7.43a6,6,0,0,0,.42,2.74,1.6,1.6,0,0,0,1.51.7,1.63,1.63,0,0,0,1.52-.7,6,6,0,0,0,.42-2.74v-7.43h3Z"/><path class="cls-1" d="M66.76,142.78a4.66,4.66,0,0,1-1.21,3.36,4.25,4.25,0,0,1-3.23,1.26,4.7,4.7,0,0,1-2.14-.47,6.41,6.41,0,0,1-1.88-1.54l1.39-2.58A5.1,5.1,0,0,0,61,144.08a2.66,2.66,0,0,0,1.41.41,1.39,1.39,0,0,0,1-.4,1.37,1.37,0,0,0,.39-1,1.5,1.5,0,0,0-.36-1.06,3.79,3.79,0,0,0-1.55-.74,4.57,4.57,0,0,1-2.33-1.46,4,4,0,0,1-.74-2.5,4.33,4.33,0,0,1,1.09-3.08,3.72,3.72,0,0,1,2.86-1.17,5,5,0,0,1,1.79.31,5.1,5.1,0,0,1,1.57.91l-1,2.76a4.24,4.24,0,0,0-1.06-.79A2.55,2.55,0,0,0,63,136a1.53,1.53,0,0,0-.95.28.94.94,0,0,0-.35.76q0,.91,1.68,1.44l.17.05A4.8,4.8,0,0,1,66,140.08,4.35,4.35,0,0,1,66.76,142.78Z"/><path class="cls-1" d="M77.43,136.52H75.11v10.59h-3V136.52H69.82v-3.15h7.61Z"/><path class="cls-1" d="M92.6,140.26a7.54,7.54,0,0,1-1.78,5.09,5.76,5.76,0,0,1-8.81,0,8.21,8.21,0,0,1,0-10.2,5.69,5.69,0,0,1,8.8,0A7.59,7.59,0,0,1,92.6,140.26Zm-3.09,0a4,4,0,0,0-.88-2.66,2.73,2.73,0,0,0-2.21-1.06,2.78,2.78,0,0,0-2.24,1.05,4.09,4.09,0,0,0-.86,2.67,4,4,0,0,0,.87,2.63,2.88,2.88,0,0,0,4.45,0A4,4,0,0,0,89.51,140.26Z"/><path class="cls-1" d="M108,147.11h-3l-5.29-8.53v8.53h-3V133.37h3l5.27,8.54v-8.54h3Z"/><path class="cls-1" d="M127.08,136.28H123.4v2.41h3.45v2.92H123.4v5.5h-3V133.37h6.65Z"/><path class="cls-1" d="M137.7,147.11h-6.52V133.37h6.52v3h-3.55v2.3h3.4v2.92h-3.4v2.47h3.55Z"/><path class="cls-1" d="M151.12,147.11h-3.5L145,141.77v5.34h-3V133.37h3.48a5.75,5.75,0,0,1,3.9,1,4.33,4.33,0,0,1,1.12,3.31,4.71,4.71,0,0,1-.65,2.59,3.11,3.11,0,0,1-1.89,1.32Zm-3.66-8.94a2.06,2.06,0,0,0-.42-1.45,1.94,1.94,0,0,0-1.44-.44H145v3.65h.54a2,2,0,0,0,1.44-.43A1.72,1.72,0,0,0,147.46,138.17Z"/><path class="cls-1" d="M161.55,136.52h-2.31v10.59h-3V136.52h-2.33v-3.15h7.61Z"/><path class="cls-1" d="M168.15,147.11h-3V133.37h3Z"/><path class="cls-1" d="M179.14,147.11H173V133.37h3.09V144h3.09Z"/><path class="cls-1" d="M185.87,147.11h-3V133.37h3Z"/><path class="cls-1" d="M197.12,136.52h-2.31v10.59h-3V136.52h-2.33v-3.15h7.61Z"/><path class="cls-1" d="M211,133.37l-4,7.53v6.21H204V140.9l-4-7.53h3.54l1.9,4.52,1.91-4.52Z"/><path class="cls-1" d="M225.14,147.11h-3V133.37h3Z"/><path class="cls-1" d="M241.16,147.11h-3l-5.28-8.53v8.53h-3V133.37h3l5.27,8.54v-8.54h3Z"/><path class="cls-1" d="M253.63,142.78a4.62,4.62,0,0,1-1.22,3.36,4.23,4.23,0,0,1-3.23,1.26,4.66,4.66,0,0,1-2.13-.47,6.29,6.29,0,0,1-1.88-1.54l1.38-2.58a5,5,0,0,0,1.29,1.27,2.66,2.66,0,0,0,1.41.41,1.35,1.35,0,0,0,1.4-1.41,1.49,1.49,0,0,0-.35-1.06,3.86,3.86,0,0,0-1.55-.74,4.53,4.53,0,0,1-2.33-1.46,3.92,3.92,0,0,1-.75-2.5,4.37,4.37,0,0,1,1.09-3.08,3.75,3.75,0,0,1,2.87-1.17,5,5,0,0,1,1.78.31,5.15,5.15,0,0,1,1.58.91l-1,2.76a3.91,3.91,0,0,0-1.06-.79,2.52,2.52,0,0,0-1.11-.27,1.5,1.5,0,0,0-.94.28.94.94,0,0,0-.35.76q0,.91,1.68,1.44l.17.05a4.85,4.85,0,0,1,2.47,1.56A4.41,4.41,0,0,1,253.63,142.78Z"/><path class="cls-1" d="M264.29,136.52H262v10.59h-3V136.52h-2.33v-3.15h7.61Z"/><path class="cls-1" d="M270.89,147.11h-3V133.37h3Z"/><path class="cls-1" d="M282.14,136.52h-2.31v10.59h-3V136.52h-2.33v-3.15h7.61Z"/><path class="cls-1" d="M295.7,140.76c0,2.56-.36,4.3-1.09,5.24s-2,1.4-3.81,1.4-3.07-.46-3.8-1.4-1.1-2.68-1.1-5.24v-7.39h3v7.43a6,6,0,0,0,.42,2.74,2,2,0,0,0,3,0,5.88,5.88,0,0,0,.43-2.74v-7.43h3Z"/><path class="cls-1" d="M307.06,136.52h-2.31v10.59h-3V136.52h-2.32v-3.15h7.6Z"/><path class="cls-1" d="M317.42,147.11h-6.53V133.37h6.53v3h-3.56v2.3h3.41v2.92h-3.41v2.47h3.56Z"/><polygon class="cls-1" points="47.28 180.82 47.28 164.1 40.94 164.1 40.94 162.18 55.63 162.18 55.63 164.1 49.29 164.1 49.29 180.82 47.28 180.82 47.28 180.82"/><path class="cls-1" d="M69.38,172.07v8.75H67.44v-8.27c0-2.44-1.47-3.57-3-3.57-2,0-4.11,1.73-4.11,5v6.82H58.36V162.18h1.93v7.65a4.94,4.94,0,0,1,4.49-2.78c2.36,0,4.6,1.62,4.6,5Z"/><path class="cls-1" d="M82.71,173.17c0-3-2-4.25-3.89-4.25-2.07,0-3.92,1.47-4.13,4.25Zm1.82,5.13A6.93,6.93,0,0,1,79,181.13c-3.4,0-6.36-2.55-6.36-7,0-4.65,3.12-7,6.45-7,3.74,0,5.65,3,5.65,6.46a9.56,9.56,0,0,1-.11,1.53H74.77c.35,2.94,2.23,4.19,4.44,4.19a4.65,4.65,0,0,0,4.05-2.18l1.27,1.25Z"/><path class="cls-1" d="M98.45,170.62c2.66,0,3.75-1.7,3.75-3.37s-1-3.15-3.56-3.15H95.21v6.52Zm.32-8.44c3.76,0,5.44,2.55,5.44,5a5.28,5.28,0,0,1-5.65,5.32H95.21v8.27h-2V162.18Z"/><path class="cls-1" d="M114.15,167.59l-.44,2a3.68,3.68,0,0,0-1.55-.37c-1.77,0-3,1.36-3,3.8v7.82h-1.93V167.39h1.93v1.81a3.43,3.43,0,0,1,3.19-2,4.14,4.14,0,0,1,1.82.36Z"/><path class="cls-1" d="M125.31,173.17c0-3-2-4.25-3.89-4.25-2.07,0-3.92,1.47-4.13,4.25Zm1.82,5.13a6.93,6.93,0,0,1-5.52,2.83c-3.4,0-6.37-2.55-6.37-7,0-4.65,3.13-7,6.45-7,3.75,0,5.66,3,5.66,6.46a10.89,10.89,0,0,1-.11,1.53h-9.87c.35,2.94,2.22,4.19,4.43,4.19a4.62,4.62,0,0,0,4-2.18l1.28,1.25Z"/><path class="cls-1" d="M136.31,180.54a4.66,4.66,0,0,1-2.21.57c-1.76,0-3.48-1.12-3.48-4.09V162.18h1.93v14.87c0,1.67.85,2.3,1.86,2.3a3.24,3.24,0,0,0,1.22-.29l.68,1.48Z"/><path class="cls-1" d="M147,180.82v-2.41a4.65,4.65,0,0,1-4.26,2.7c-2.34,0-4.63-1.65-4.63-5v-8.7H140v8.22c0,2.49,1.44,3.59,3,3.59,1.89,0,4-1.7,4-5v-6.82h1.93v13.43Z"/><path class="cls-1" d="M163.12,174.19c0-3.48-2.34-5.24-4.6-5.24s-4.41,1.64-4.41,5,2.4,5.22,4.65,5.22,4.36-1.68,4.36-5Zm0,6.63v-2a5.38,5.38,0,0,1-4.44,2.24c-3.21,0-6.5-2.41-6.5-7.07s3.34-6.95,6.47-6.95a5.48,5.48,0,0,1,4.47,2.32v-7.19h1.93v18.64Z"/><path class="cls-1" d="M178.38,173.17c0-3-2-4.25-3.89-4.25-2.06,0-3.91,1.47-4.13,4.25Zm1.83,5.13a7,7,0,0,1-5.53,2.83c-3.39,0-6.36-2.55-6.36-7,0-4.65,3.13-7,6.44-7,3.76,0,5.67,3,5.67,6.46a10.89,10.89,0,0,1-.11,1.53h-9.88c.36,2.94,2.23,4.19,4.43,4.19a4.64,4.64,0,0,0,4.06-2.18l1.28,1.25Z"/><polygon class="cls-1" points="190.88 162.18 201.16 177 201.16 162.18 203.18 162.18 203.18 180.82 201.16 180.82 190.88 165.84 190.88 180.82 188.87 180.82 188.87 162.18 190.88 162.18 190.88 162.18"/><path class="cls-1" d="M216.79,173.17c0-3-2-4.25-3.89-4.25-2.07,0-3.92,1.47-4.13,4.25Zm1.82,5.13a6.94,6.94,0,0,1-5.52,2.83c-3.4,0-6.37-2.55-6.37-7,0-4.65,3.13-7,6.45-7,3.75,0,5.66,3,5.66,6.46a10.89,10.89,0,0,1-.11,1.53h-9.87c.35,2.94,2.23,4.19,4.43,4.19a4.62,4.62,0,0,0,4.05-2.18l1.28,1.25Z"/><path class="cls-1" d="M229.42,179.94a4.12,4.12,0,0,1-2.85,1.17c-1.89,0-3.65-1.2-3.65-4.09v-7.76h-2.45v-1.87h2.45V164h1.93v3.43h3.21v1.87h-3.21v7.79c0,1.56.79,2.3,1.85,2.3a2.87,2.87,0,0,0,1.82-.74l.9,1.33Z"/><polygon class="cls-1" points="244.91 180.82 241.26 170.03 237.59 180.82 235.52 180.82 230.78 167.39 232.99 167.39 236.56 178.05 240.14 167.39 242.35 167.39 245.94 178.05 249.5 167.39 251.71 167.39 246.97 180.82 244.91 180.82 244.91 180.82"/><path class="cls-1" d="M255,174c0,3,1.93,5.19,4.65,5.19s4.66-2.18,4.66-5.19-1.93-5.15-4.66-5.15S255,171.07,255,174Zm11.23,0c0,4-2.77,7-6.58,7s-6.58-3-6.58-7,2.77-7,6.58-7,6.58,3,6.58,7Z"/><path class="cls-1" d="M276.46,167.59l-.44,2a3.71,3.71,0,0,0-1.55-.37c-1.77,0-3,1.36-3,3.8v7.82h-1.93V167.39h1.93v1.81a3.41,3.41,0,0,1,3.18-2,4.19,4.19,0,0,1,1.83.36Z"/><polygon class="cls-1" points="280.84 180.82 278.91 180.82 278.91 162.18 280.84 162.18 280.84 173.4 286.77 167.39 289.41 167.39 282.99 173.79 290.23 180.82 287.34 180.82 280.84 174.36 280.84 180.82 280.84 180.82"/><path class="cls-1" d="M290.65,165.44a2.62,2.62,0,1,1,2.62,2.62A2.62,2.62,0,0,1,290.65,165.44Zm4.82,0a2.2,2.2,0,1,0-2.2,2.2A2.12,2.12,0,0,0,295.47,165.44Zm-2.79,1.48h-.39v-3h1.29c.78,0,1.05.29,1.05.83s-.41.79-.93.83l.89,1.33h-.43l-.84-1.33h-.64Zm.52-1.68c.42,0,1,.07,1-.49s-.35-.48-.71-.48h-.82v1Z"/></svg>