<?xml version="1.0" encoding="UTF-8"?>
<svg id="Layer_2" data-name="Layer 2" xmlns="http://www.w3.org/2000/svg" xmlns:xlink="http://www.w3.org/1999/xlink" viewBox="0 0 288 83.08">
  <defs>
    <style>
      .cls-1 {
        fill: url(#linear-gradient);
      }

      .cls-2 {
        fill: #636466;
      }

      .cls-3 {
        fill: #333132;
      }

      .cls-4 {
        fill: #939598;
      }
    </style>
    <linearGradient id="linear-gradient" x1="0" y1="41.54" x2="55.38" y2="41.54" gradientTransform="translate(0 0)" gradientUnits="userSpaceOnUse">
      <stop offset=".2" stop-color="#636466"/>
      <stop offset=".8" stop-color="#939598"/>
    </linearGradient>
  </defs>
  <g id="Layer_1-2" data-name="Layer 1">
    <g>
      <g>
        <g>
          <path class="cls-3" d="M276.54,60.42v-5.41h-2.28v-1.12h5.83v1.12h-2.34v5.41h-1.21Z"/>
          <path class="cls-3" d="M286.87,53.89l-2.47,3.35-2.46-3.35h-1.15v6.53h1.2v-2.51c0-.55-.01-1.05-.04-1.5-.01-.21-.03-.42-.05-.63l2.18,2.86h.62l2.2-2.87c-.02.22-.04.44-.05.65-.02.45-.04.94-.04,1.48v2.51h1.2v-6.53h-1.13Z"/>
        </g>
        <path class="cls-3" d="M102.11,44.28c-.83-1.34-1.95-2.44-3.34-3.29-.91-.56-1.88-1-2.9-1.35,1.5-.61,2.7-1.44,3.6-2.48,1.25-1.45,1.88-3.21,1.88-5.27s-.53-3.75-1.58-5.16c-1.05-1.41-2.58-2.49-4.59-3.23-2.01-.74-4.52-1.11-7.53-1.11h-19.29v38.04h20.43c1.85,0,3.63-.2,5.35-.6,1.72-.4,3.28-1.03,4.67-1.9,1.39-.87,2.5-2.03,3.32-3.48.81-1.45,1.22-3.22,1.22-5.33,0-1.88-.42-3.5-1.25-4.84ZM75.27,28.74h12.12c2.03,0,3.68.36,4.95,1.09,1.27.73,1.9,1.85,1.9,3.37,0,.91-.28,1.7-.84,2.39-.56.69-1.31,1.22-2.26,1.6-.94.38-2.01.57-3.21.57h-12.66v-9.02ZM95.32,51.76c-.62.78-1.49,1.36-2.61,1.74-1.12.38-2.43.57-3.91.57h-13.53v-10.16h13.26c1.27,0,2.5.16,3.7.49,1.2.33,2.16.85,2.91,1.58.74.73,1.11,1.7,1.11,2.93,0,1.12-.31,2.07-.92,2.85Z"/>
        <path class="cls-3" d="M126.08,60.75c-3.55,0-6.68-.75-9.4-2.26-2.72-1.5-4.85-3.55-6.39-6.14-1.54-2.59-2.31-5.53-2.31-8.83v-21.2h7.12v20.87c0,2.1.49,3.98,1.47,5.62.98,1.65,2.31,2.95,3.99,3.91,1.68.96,3.52,1.44,5.52,1.44,2.17,0,4.11-.48,5.81-1.44,1.7-.96,3.04-2.26,4.02-3.91.98-1.65,1.47-3.52,1.47-5.62v-20.87h6.85v21.2c0,3.3-.77,6.24-2.31,8.83-1.54,2.59-3.66,4.64-6.36,6.14-2.7,1.5-5.86,2.26-9.48,2.26Z"/>
        <path class="cls-3" d="M183.36,22.38v11.41c0,1.3.02,2.6.05,3.89.04,1.29.08,2.56.14,3.83.05,1.27.12,2.51.19,3.72.07,1.21.17,2.42.3,3.61.08.72.16,1.42.24,2.12l-25.92-28.58h-6.68v38.04h7.01v-14.73c0-.94-.03-1.88-.08-2.83-.05-.94-.11-1.89-.16-2.85-.05-.96-.14-1.94-.24-2.93-.11-1-.21-2.02-.3-3.07-.04-.5-.09-1.01-.14-1.53l25.81,27.94h6.79V22.38h-7.01Z"/>
        <path class="cls-3" d="M235.48,33.96c-.91-2.28-2.24-4.29-3.99-6.03-1.76-1.74-3.91-3.1-6.47-4.08-2.55-.98-5.44-1.47-8.67-1.47h-18.04v38.04h18.04c3.22,0,6.1-.48,8.64-1.44,2.54-.96,4.69-2.31,6.47-4.05,1.77-1.74,3.12-3.76,4.02-6.06.91-2.3,1.36-4.79,1.36-7.47s-.45-5.16-1.36-7.45ZM228.63,46.32c-.54,1.5-1.37,2.82-2.47,3.94-1.11,1.12-2.49,2.01-4.16,2.66-1.67.65-3.64.98-5.92.98h-10.71v-25h10.71c2.28,0,4.26.32,5.92.95,1.67.63,3.05,1.52,4.16,2.66,1.1,1.14,1.93,2.46,2.47,3.97.54,1.5.82,3.14.82,4.92s-.27,3.42-.82,4.92Z"/>
        <path class="cls-3" d="M242.05,60.42V22.38h7.06v31.52h22.39v6.52h-29.46Z"/>
      </g>
      <g>
        <path class="cls-4" d="M51.68,41.54c2.36-4.07,3.71-8.8,3.71-13.85C55.39,12.4,42.99,0,27.69,0,12.4,0,0,12.4,0,27.69c0,5.04,1.35,9.77,3.71,13.85h47.98Z"/>
        <path class="cls-2" d="M3.71,41.54C1.35,45.61,0,50.34,0,55.38c0,15.29,12.4,27.69,27.69,27.69,15.29,0,27.69-12.4,27.69-27.69,0-5.04-1.35-9.77-3.71-13.84H3.71Z"/>
        <path class="cls-1" d="M55.38,27.69h-27.69c-10.25,0-19.2,5.57-23.99,13.85h0C1.35,45.61,0,50.34,0,55.38h27.69c10.25,0,19.2-5.57,23.99-13.85h0c2.36-4.07,3.71-8.8,3.71-13.85Z"/>
      </g>
    </g>
  </g>
</svg>