<?xml version="1.0" encoding="UTF-8"?><svg id="Layer_1" xmlns="http://www.w3.org/2000/svg" viewBox="0 0 559.68 254.54"><defs><style>.cls-1{fill:#221f1f;}</style></defs><g><g><path class="cls-1" d="M61.42,46.61c-12.27,0-22.23,10.36-22.23,23.15s9.95,23.14,22.23,23.14,22.23-10.36,22.23-23.14-9.94-23.15-22.23-23.15Zm0,34.72c-6.13,0-11.11-5.18-11.11-11.57s4.98-11.57,11.11-11.57,11.12,5.18,11.12,11.57-4.97,11.57-11.12,11.57Z"/><path class="cls-1" d="M65.22,20.91s-.04-.03-.07-.06c-2.06-1.92-5.22-2.07-7.45,0-.02,.02-.04,.03-.07,.06-9.85,9.57-22.57,15-22.74,15.07l4.39,10.63c1.76-.76,12.28-5.5,22.13-13.81,9.86,8.32,20.38,13.05,22.14,13.81l4.39-10.63c-.16-.08-12.88-5.51-22.74-15.07Z"/></g><path class="cls-1" d="M88.95,44.15c0-1.8,1.48-3.28,3.29-3.28s3.28,1.48,3.28,3.28-1.47,3.29-3.28,3.29-3.29-1.48-3.29-3.29Zm6.05,0c0-1.6-1.15-2.75-2.75-2.75s-2.77,1.15-2.77,2.75,1.16,2.77,2.77,2.77,2.75-1.15,2.75-2.77Zm-3.5,1.86h-.48v-3.76h1.62c.98,0,1.31,.37,1.31,1.04,0,.72-.51,1-1.16,1.05l1.12,1.67h-.54l-1.06-1.67h-.8v1.67Zm.66-2.11c.52,0,1.26,.09,1.26-.62,0-.52-.44-.59-.89-.59h-1.03v1.21h.66Z"/></g><g><path class="cls-1" d="M63.95,120.87c-.62-4.54-4.54-6.39-8.77-6.39-9.54,0-12.43,8.66-12.43,16.3s2.89,16.3,12.43,16.3c4.13,0,8.25-2.06,9.18-6.7h3.61c-1.08,6.24-6.81,9.8-12.79,9.8-11.29,0-16.04-9.08-16.04-19.39s4.8-19.39,16.04-19.39c6.09,0,11.86,2.78,12.38,9.49h-3.61Z"/><path class="cls-1" d="M73.96,137.17c.1,5.52,2.63,10.16,8.97,10.16,3.66,0,6.7-2.63,7.48-6.19h3.25c-1.6,6.19-5.47,9.02-11.71,9.02-7.74,0-11.35-6.65-11.35-13.72s3.87-13.72,11.55-13.72c8.66,0,11.81,6.34,11.81,14.44h-20.01Zm16.66-2.84c-.36-5-3.04-8.77-8.41-8.77-5.05,0-7.74,4.23-8.15,8.77h16.55Z"/><path class="cls-1" d="M102.58,149.39h-3.09v-20.06c0-2.01-.15-4.07-.26-5.83h3.2l.15,3.82,.1,.1c1.8-3.2,4.74-4.69,8.1-4.69,8.46,0,9.13,7.48,9.13,10.47v16.19h-3.09v-16.71c0-4.49-2.58-7.12-6.81-7.12-5.11,0-7.43,4.28-7.43,8.92v14.9Z"/><path class="cls-1" d="M129.03,126.34h-5.16v-2.84h5.16v-5.52l3.09-1.34v6.86h5.88v2.84h-5.88v17.33c-.05,2.37,1.19,3.66,3.56,3.66,.93,0,1.86-.05,2.68-.31v2.68c-.98,.26-2.11,.46-3.15,.46-6.55,0-6.19-4.18-6.19-7.68v-16.14Z"/><path class="cls-1" d="M144.45,137.17c.1,5.52,2.63,10.16,8.97,10.16,3.66,0,6.7-2.63,7.48-6.19h3.25c-1.6,6.19-5.47,9.02-11.71,9.02-7.74,0-11.35-6.65-11.35-13.72s3.87-13.72,11.55-13.72c8.66,0,11.81,6.34,11.81,14.44h-20.01Zm16.66-2.84c-.36-5-3.04-8.77-8.41-8.77-5.05,0-7.74,4.23-8.15,8.77h16.55Z"/><path class="cls-1" d="M173.08,149.39h-3.09v-20.06c.05-2.01-.15-4.07-.26-5.83h3.2l.15,3.82h.1c.93-2.63,3.25-4.49,5.83-4.59,1.03-.05,2.06,0,3.09,.05v2.99c-.62-.05-1.29-.21-1.91-.21-4.59,0-7.01,3.3-7.12,8.25v15.57Z"/><path class="cls-1" d="M201.03,149.39v-23.05h-5.21v-2.84h5.21v-5.52c0-4.44,1.81-6.45,6.24-6.45,.98,0,2.01,.36,2.94,.57v2.48c-.62-.1-1.29-.21-1.91-.21-4.23,0-4.33,2.11-4.18,5.83v3.3h5.88v2.84h-5.88v23.05h-3.09Z"/><path class="cls-1" d="M235.89,136.45c0,6.81-3.82,13.72-12.07,13.72s-12.07-6.91-12.07-13.72,3.82-13.72,12.07-13.72,12.07,6.91,12.07,13.72Zm-12.07-10.88c-6.24,0-8.72,6.09-8.72,10.88s2.48,10.88,8.72,10.88,8.72-6.09,8.72-10.88-2.48-10.88-8.72-10.88Z"/><path class="cls-1" d="M244.04,149.39h-3.09v-20.06c.05-2.01-.15-4.07-.26-5.83h3.2l.15,3.82h.1c.93-2.63,3.25-4.49,5.83-4.59,1.03-.05,2.06,0,3.09,.05v2.99c-.62-.05-1.29-.21-1.91-.21-4.59,0-7.01,3.3-7.12,8.25v15.57Z"/><path class="cls-1" d="M47.19,204.71h-3.35v-37.23h12.17c3.25,0,5.93,.21,8.77,1.96,2.58,1.55,3.82,4.23,3.82,7.79,0,4.02-2.84,6.91-7.17,7.99v.1c4.74,.77,5.78,3.97,6.24,8.3,.67,6.03,.46,8.82,1.96,11.09h-3.87c-.88-2.48-1.08-5.11-1.29-7.74-.77-8.51-1.29-10-8.04-10h-9.23v17.74Zm7.17-20.83c4.74,0,10.62-.31,10.62-6.65,0-7.17-6.7-6.65-10.26-6.65h-7.53v13.31h7.17Z"/><path class="cls-1" d="M76.49,192.49c.1,5.52,2.63,10.16,8.97,10.16,3.66,0,6.7-2.63,7.48-6.19h3.25c-1.6,6.19-5.47,9.02-11.71,9.02-7.74,0-11.35-6.65-11.35-13.72s3.87-13.72,11.55-13.72c8.66,0,11.81,6.34,11.81,14.44h-20.01Zm16.66-2.84c-.36-5-3.04-8.77-8.41-8.77-5.05,0-7.74,4.23-8.15,8.77h16.55Z"/><path class="cls-1" d="M104.59,214.62h-3.09v-29.96c.05-2.01-.15-4.07-.26-5.83h3.2l.15,3.82,.1,.1c1.8-3.04,5.41-4.69,8.87-4.69,7.68,0,10.62,6.91,10.62,13.61s-2.94,13.82-10.47,13.82c-3.76,0-6.91-1.7-9.02-4.8h-.1v13.92Zm8.82-11.96c5.93,0,7.43-6.55,7.43-11.35s-2.01-10.42-7.89-10.42-8.35,5-8.35,10.26c0,5.88,2.06,11.5,8.82,11.5Z"/><path class="cls-1" d="M132.44,204.71h-3.09v-20.06c.05-2.01-.15-4.07-.26-5.83h3.2l.15,3.82h.1c.93-2.63,3.25-4.49,5.83-4.59,1.03-.05,2.06,0,3.09,.05v2.99c-.62-.05-1.29-.21-1.91-.21-4.59,0-7.01,3.3-7.12,8.25v15.57Z"/><path class="cls-1" d="M167.46,191.77c0,6.81-3.82,13.72-12.07,13.72s-12.07-6.91-12.07-13.72,3.82-13.72,12.07-13.72,12.07,6.91,12.07,13.72Zm-12.07-10.88c-6.24,0-8.72,6.09-8.72,10.88s2.48,10.88,8.72,10.88,8.72-6.09,8.72-10.88-2.48-10.88-8.72-10.88Z"/><path class="cls-1" d="M190.36,200.9l-.1-.21c-2.11,3.09-5.26,4.8-8.87,4.8-7.68,0-10.62-7.32-10.62-13.82s2.94-13.61,10.62-13.61c3.46,0,7.07,1.65,8.87,4.69l.1-.1v-15.16h3.09v31.41c0,2.01,.15,4.07,.26,5.83h-3.2l-.15-3.82Zm-8.46-20.01c-5.88,0-7.79,5.47-7.79,10.42s1.39,11.35,7.32,11.35c6.76,0,8.82-5.62,8.82-11.5,0-5.26-2.32-10.26-8.35-10.26Z"/><path class="cls-1" d="M217.17,178.83h3.09v20.06c0,2.01,.15,4.07,.26,5.83h-3.2l-.15-3.82-.1-.1c-1.81,3.2-4.74,4.69-8.1,4.69-8.46,0-9.13-7.48-9.13-10.47v-16.19h3.09v16.71c0,4.49,2.58,7.12,6.81,7.12,5.11,0,7.43-4.28,7.43-8.92v-14.9Z"/><path class="cls-1" d="M243.53,186.77c-.26-3.97-2.78-5.88-7.06-5.88-4.74,0-7.68,4.95-7.68,10.83s2.94,10.93,7.68,10.93c4.02,0,6.81-2.48,7.06-6.03h3.35c-.83,5.93-4.23,8.87-10.11,8.87-7.74,0-11.35-6.65-11.35-13.72s3.87-13.72,11.55-13.72c5.31,0,9.64,3.2,9.9,8.72h-3.35Z"/><path class="cls-1" d="M253.84,181.66h-5.16v-2.84h5.16v-5.52l3.09-1.34v6.86h5.88v2.84h-5.88v17.33c-.05,2.37,1.19,3.66,3.56,3.66,.93,0,1.86-.05,2.68-.31v2.68c-.98,.26-2.11,.46-3.15,.46-6.55,0-6.19-4.18-6.19-7.68v-16.14Z"/><path class="cls-1" d="M270.86,171.35h-3.61v-3.87h3.61v3.87Zm-.26,7.48v25.89h-3.09v-25.89h3.09Z"/><path class="cls-1" d="M277.56,178.83l8.92,21.61,8.61-21.61h3.4l-10.26,25.89h-3.51l-10.57-25.89h3.4Z"/><path class="cls-1" d="M302.78,192.49c.1,5.52,2.63,10.16,8.97,10.16,3.66,0,6.7-2.63,7.48-6.19h3.25c-1.6,6.19-5.47,9.02-11.71,9.02-7.74,0-11.35-6.65-11.35-13.72s3.87-13.72,11.55-13.72c8.66,0,11.81,6.34,11.81,14.44h-20.01Zm16.66-2.84c-.36-5-3.04-8.77-8.41-8.77-5.05,0-7.74,4.23-8.15,8.77h16.55Z"/><path class="cls-1" d="M342.18,204.71v-37.23h5.36l13.98,32.44,14.28-32.44h5.11v37.23h-3.35v-34.4h-.1l-14.23,34.4h-3.35l-14.23-34.24h-.1v34.24h-3.35Z"/><path class="cls-1" d="M390.45,192.49c.1,5.52,2.63,10.16,8.97,10.16,3.66,0,6.7-2.63,7.48-6.19h3.25c-1.6,6.19-5.47,9.02-11.71,9.02-7.74,0-11.35-6.65-11.35-13.72s3.87-13.72,11.55-13.72c8.66,0,11.81,6.34,11.81,14.44h-20.01Zm16.66-2.84c-.36-5-3.04-8.77-8.41-8.77-5.05,0-7.74,4.23-8.15,8.77h16.55Z"/><path class="cls-1" d="M433.83,200.9l-.1-.21c-2.11,3.09-5.26,4.8-8.87,4.8-7.68,0-10.62-7.32-10.62-13.82s2.94-13.61,10.62-13.61c3.46,0,7.07,1.65,8.87,4.69l.1-.1v-15.16h3.09v31.41c0,2.01,.15,4.07,.26,5.83h-3.2l-.15-3.82Zm-8.46-20.01c-5.88,0-7.79,5.47-7.79,10.42s1.39,11.35,7.32,11.35c6.76,0,8.82-5.62,8.82-11.5,0-5.26-2.32-10.26-8.35-10.26Z"/><path class="cls-1" d="M446.72,171.35h-3.61v-3.87h3.61v3.87Zm-.26,7.48v25.89h-3.09v-25.89h3.09Z"/><path class="cls-1" d="M469.77,186.77c-.26-3.97-2.78-5.88-7.06-5.88-4.74,0-7.68,4.95-7.68,10.83s2.94,10.93,7.68,10.93c4.02,0,6.81-2.48,7.06-6.03h3.35c-.83,5.93-4.23,8.87-10.11,8.87-7.74,0-11.35-6.65-11.35-13.72s3.87-13.72,11.55-13.72c5.31,0,9.64,3.2,9.9,8.72h-3.35Z"/><path class="cls-1" d="M481.27,171.35h-3.61v-3.87h3.61v3.87Zm-.26,7.48v25.89h-3.09v-25.89h3.09Z"/><path class="cls-1" d="M491.07,204.71h-3.09v-20.06c0-2.01-.15-4.07-.26-5.83h3.2l.15,3.82,.1,.1c1.8-3.2,4.74-4.69,8.1-4.69,8.46,0,9.13,7.48,9.13,10.47v16.19h-3.09v-16.71c0-4.49-2.58-7.12-6.81-7.12-5.11,0-7.43,4.28-7.43,8.92v14.9Z"/><path class="cls-1" d="M517.11,192.49c.1,5.52,2.63,10.16,8.97,10.16,3.66,0,6.7-2.63,7.48-6.19h3.25c-1.6,6.19-5.47,9.02-11.71,9.02-7.74,0-11.35-6.65-11.35-13.72s3.87-13.72,11.55-13.72c8.66,0,11.81,6.34,11.81,14.44h-20.01Zm16.66-2.84c-.36-5-3.04-8.77-8.41-8.77-5.05,0-7.74,4.23-8.15,8.77h16.55Z"/></g><g><g><polygon class="cls-1" points="48.34 239.62 48.34 226 43.18 226 43.18 224.44 55.14 224.44 55.14 226 49.98 226 49.98 239.62 48.34 239.62 48.34 239.62"/><path class="cls-1" d="M66.34,232.49v7.13h-1.58v-6.74c0-1.99-1.2-2.91-2.48-2.91-1.59,0-3.34,1.41-3.34,4.09v5.56h-1.58v-15.18h1.58v6.23c.75-1.53,2.21-2.27,3.65-2.27,1.93,0,3.75,1.32,3.75,4.09h0Z"/><path class="cls-1" d="M77.21,233.39c-.03-2.42-1.62-3.47-3.17-3.47-1.69,0-3.19,1.2-3.37,3.47h6.54Zm1.48,4.17c-1.22,1.56-2.86,2.31-4.5,2.31-2.77,0-5.18-2.07-5.18-5.75s2.55-5.73,5.25-5.73c3.05,0,4.61,2.47,4.61,5.26,0,.35-.02,.81-.09,1.25h-8.04c.29,2.4,1.82,3.42,3.61,3.42,1.3,0,2.48-.53,3.3-1.78l1.04,1.01h0Z"/><path class="cls-1" d="M90.02,231.31c2.17,0,3.06-1.38,3.06-2.74s-.82-2.57-2.9-2.57h-2.79v5.31h2.63Zm.27-6.87c3.06,0,4.43,2.07,4.43,4.11,0,2.19-1.57,4.34-4.61,4.34h-2.72v6.74h-1.64v-15.18h4.54Z"/><path class="cls-1" d="M102.82,228.84l-.35,1.61c-.4-.19-.84-.3-1.26-.3-1.44,0-2.46,1.11-2.46,3.1v6.37h-1.58v-10.94h1.58v1.48c.58-1.15,1.58-1.61,2.59-1.61,.53,0,1.06,.09,1.48,.3h0Z"/><path class="cls-1" d="M111.91,233.39c-.02-2.42-1.62-3.47-3.17-3.47-1.69,0-3.19,1.2-3.37,3.47h6.54Zm1.49,4.17c-1.22,1.56-2.86,2.31-4.5,2.31-2.77,0-5.19-2.07-5.19-5.75s2.55-5.73,5.25-5.73c3.06,0,4.61,2.47,4.61,5.26,0,.35-.03,.81-.09,1.25h-8.04c.29,2.4,1.81,3.42,3.61,3.42,1.31,0,2.48-.53,3.3-1.78l1.04,1.01h0Z"/><path class="cls-1" d="M120.87,239.39c-.53,.3-1.17,.46-1.8,.46-1.44,0-2.83-.91-2.83-3.33v-12.09h1.57v12.11c0,1.36,.69,1.87,1.51,1.87,.33,0,.66-.09,1-.23l.55,1.2h0Z"/><path class="cls-1" d="M129.56,239.62v-1.96c-.75,1.5-2.08,2.19-3.48,2.19-1.91,0-3.77-1.34-3.77-4.08v-7.09h1.58v6.69c0,2.03,1.17,2.93,2.44,2.93,1.55,0,3.23-1.38,3.23-4.06v-5.56h1.57v10.94h-1.57Z"/><path class="cls-1" d="M142.71,234.22c0-2.84-1.91-4.27-3.74-4.27s-3.59,1.34-3.59,4.08,1.95,4.25,3.79,4.25,3.55-1.37,3.55-4.06h0Zm0,5.4v-1.62c-.8,1.15-2.17,1.82-3.61,1.82-2.62,0-5.3-1.96-5.3-5.77s2.72-5.66,5.28-5.66c1.37,0,2.77,.65,3.63,1.89v-5.86h1.57v15.18h-1.57Z"/><path class="cls-1" d="M155.14,233.39c-.02-2.42-1.62-3.47-3.17-3.47-1.68,0-3.19,1.2-3.37,3.47h6.54Zm1.49,4.17c-1.22,1.56-2.86,2.31-4.5,2.31-2.77,0-5.19-2.07-5.19-5.75s2.55-5.73,5.25-5.73c3.06,0,4.61,2.47,4.61,5.26,0,.35-.03,.81-.09,1.25h-8.04c.29,2.4,1.81,3.42,3.61,3.42,1.31,0,2.48-.53,3.3-1.78l1.04,1.01h0Z"/><polygon class="cls-1" points="165.32 224.44 173.7 236.5 173.7 224.44 175.34 224.44 175.34 239.62 173.7 239.62 165.32 227.41 165.32 239.62 163.68 239.62 163.68 224.44 165.32 224.44 165.32 224.44"/><path class="cls-1" d="M186.43,233.39c-.02-2.42-1.61-3.47-3.17-3.47-1.69,0-3.19,1.2-3.37,3.47h6.53Zm1.49,4.17c-1.22,1.56-2.85,2.31-4.5,2.31-2.77,0-5.19-2.07-5.19-5.75s2.55-5.73,5.25-5.73c3.06,0,4.61,2.47,4.61,5.26,0,.35-.03,.81-.09,1.25h-8.04c.28,2.4,1.81,3.42,3.61,3.42,1.32,0,2.48-.53,3.3-1.78l1.04,1.01h0Z"/><path class="cls-1" d="M196.72,238.9c-.62,.6-1.44,.95-2.32,.95-1.53,0-2.97-.98-2.97-3.33v-6.32h-1.99v-1.52h1.99v-2.79h1.58v2.79h2.61v1.52h-2.61v6.35c0,1.27,.64,1.87,1.5,1.87,.49,0,1.09-.23,1.49-.6l.73,1.09h0Z"/><polygon class="cls-1" points="209.34 239.62 206.37 230.83 203.37 239.62 201.69 239.62 197.83 228.68 199.63 228.68 202.53 237.36 205.46 228.68 207.25 228.68 210.18 237.36 213.08 228.68 214.87 228.68 211.02 239.62 209.34 239.62 209.34 239.62"/><path class="cls-1" d="M217.57,234.1c0,2.45,1.57,4.23,3.79,4.23s3.79-1.78,3.79-4.23-1.57-4.2-3.79-4.2-3.79,1.78-3.79,4.2h0Zm9.15,.03c0,3.28-2.26,5.73-5.36,5.73s-5.36-2.45-5.36-5.73,2.26-5.73,5.36-5.73,5.36,2.45,5.36,5.73h0Z"/><path class="cls-1" d="M235.04,228.84l-.35,1.61c-.4-.19-.84-.3-1.26-.3-1.44,0-2.46,1.11-2.46,3.1v6.37h-1.58v-10.94h1.58v1.48c.58-1.15,1.57-1.61,2.59-1.61,.53,0,1.06,.09,1.48,.3h0Z"/><polygon class="cls-1" points="238.61 239.62 237.03 239.62 237.03 224.44 238.61 224.44 238.61 233.57 243.44 228.68 245.59 228.68 240.36 233.89 246.26 239.62 243.9 239.62 238.61 234.36 238.61 239.62 238.61 239.62"/></g><path class="cls-1" d="M246.6,227.09c0-1.17,.96-2.13,2.14-2.13s2.13,.96,2.13,2.13-.95,2.14-2.13,2.14-2.14-.96-2.14-2.14Zm3.93,0c0-1.04-.75-1.79-1.79-1.79s-1.8,.75-1.8,1.79,.75,1.8,1.8,1.8,1.79-.75,1.79-1.8Zm-2.28,1.21h-.31v-2.44h1.05c.64,0,.85,.24,.85,.68,0,.47-.33,.65-.75,.68l.73,1.08h-.35l-.69-1.08h-.52v1.08Zm.43-1.37c.34,0,.82,.06,.82-.4,0-.34-.28-.39-.58-.39h-.67v.79h.43Z"/></g></svg>