<svg id="Layer_1" data-name="Layer 1" xmlns="http://www.w3.org/2000/svg" viewBox="0 0 342.79 302.98"><defs><style>.cls-1{fill:#221f1f;}</style></defs><title>IFI_Stacked_Black</title><path class="cls-1" d="M37.53,145.66V106.23h3.53v39.43Z"/><path class="cls-1" d="M50.85,145.66H47.58V124.5c0-2.12-.16-4.29-.27-6.14h3.37l.17,4,.11.11a9.39,9.39,0,0,1,8.54-4.95c8.92,0,9.62,7.89,9.62,11v17.08H65.86V128c0-4.73-2.72-7.51-7.18-7.51-5.39,0-7.83,4.52-7.83,9.41Z"/><path class="cls-1" d="M94.12,141.64l-.11-.22a11.1,11.1,0,0,1-9.36,5.06c-8.1,0-11.2-7.73-11.2-14.58,0-7.07,3.1-14.36,11.2-14.36A10.92,10.92,0,0,1,94,122.49l.11-.11v-16h3.26v33.13c0,2.12.16,4.29.27,6.14H94.28ZM85.2,120.53c-6.21,0-8.22,5.77-8.22,11,0,5.06,1.47,12,7.73,12,7.12,0,9.3-5.93,9.3-12.13C94,125.81,91.56,120.53,85.2,120.53Z"/><path class="cls-1" d="M107.77,110.47H104v-4.08h3.81Zm-.27,7.89v27.3h-3.27v-27.3Z"/><path class="cls-1" d="M130.34,126.41c-.32-4.46-2.61-5.88-6.47-5.88-3.43,0-6.26,1-6.69,4.74H113.7c.81-5.61,5-7.73,10.22-7.73,6,0,9.79,2.77,9.68,9v13c0,2.12.17,4.29.28,6.14H130.5l-.1-4h-.11l-.17.38c-1.19,2.28-4.84,4.46-8.54,4.46-5.06,0-9.08-3.1-9.08-8.43a8.43,8.43,0,0,1,5.49-7.89c3.65-1.58,8.38-1,12.35-1.25Zm-8.16,17.08c7.13,0,8.49-5.88,8.16-11.59-4.62.16-14.3-.71-14.3,6.15C116,141.75,118.86,143.49,122.18,143.49Z"/><path class="cls-1" d="M142.9,145.66h-3.26V124.5c0-2.12-.16-4.29-.27-6.14h3.37l.16,4,.11.11a9.41,9.41,0,0,1,8.54-4.95c8.92,0,9.63,7.89,9.63,11v17.08h-3.26V128c0-4.73-2.72-7.51-7.18-7.51-5.39,0-7.84,4.52-7.84,9.41Z"/><path class="cls-1" d="M183,126.41c-.32-4.46-2.61-5.88-6.47-5.88-3.43,0-6.26,1-6.69,4.74h-3.48c.81-5.61,5-7.73,10.22-7.73,6,0,9.8,2.77,9.69,9v13c-.06,2.12.16,4.29.27,6.14h-3.37l-.11-4h-.11l-.16.38c-1.2,2.28-4.85,4.46-8.54,4.46-5.06,0-9.09-3.1-9.09-8.43a8.42,8.42,0,0,1,5.5-7.89c3.64-1.58,8.37-1,12.34-1.25Zm-8.16,17.08c7.13,0,8.49-5.88,8.16-11.59-4.62.16-14.3-.71-14.3,6.15C168.68,141.75,171.51,143.49,174.82,143.49Z"/><path class="cls-1" d="M37.7,200.59V161.31H59.9v3.27H41.24v13.87h18v3.26h-18v18.88Z"/><path class="cls-1" d="M65.35,187.7c.1,5.82,2.77,10.72,9.46,10.72a8.14,8.14,0,0,0,7.89-6.53h3.43c-1.69,6.53-5.77,9.52-12.35,9.52-8.16,0-12-7-12-14.47S65.89,172.46,74,172.46c9.14,0,12.45,6.7,12.45,15.24Zm17.57-3c-.38-5.27-3.21-9.24-8.87-9.24-5.33,0-8.16,4.46-8.6,9.24Z"/><path class="cls-1" d="M94.21,200.59H91V179.43c0-2.12-.17-4.3-.28-6.15h3.38l.16,4h.11a7,7,0,0,1,6.15-4.85,32.24,32.24,0,0,1,3.26.06v3.15c-.65,0-1.36-.21-2-.21-4.84,0-7.4,3.48-7.51,8.7Z"/><path class="cls-1" d="M111.78,176.27h-5.44v-3h5.44v-5.82l3.27-1.42v7.24h6.2v3h-6.2v18.28c-.06,2.51,1.25,3.87,3.75,3.87a9.68,9.68,0,0,0,2.83-.33v2.83a13.66,13.66,0,0,1-3.32.49c-6.91,0-6.53-4.41-6.53-8.11Z"/><path class="cls-1" d="M130.16,165.39h-3.81v-4.08h3.81Zm-.27,7.89v27.31h-3.27V173.28Z"/><path class="cls-1" d="M141.75,200.59h-3.27V161.31h3.27Z"/><path class="cls-1" d="M153.81,165.39H150v-4.08h3.8Zm-.27,7.89v27.31h-3.26V173.28Z"/><path class="cls-1" d="M163.42,176.27H158v-3h5.44v-5.82l3.26-1.42v7.24h6.2v3h-6.2v18.28c-.05,2.51,1.25,3.87,3.76,3.87a9.76,9.76,0,0,0,2.83-.33v2.83a13.81,13.81,0,0,1-3.32.49c-6.91,0-6.53-4.41-6.53-8.11Z"/><path class="cls-1" d="M179.72,173.28l9.19,22.85,9.14-22.85h3.54L186.52,211h-3.59l4.13-10.45-11.31-27.31Z"/><path class="cls-1" d="M37.7,255.85V216.61h3.52v39.24Z"/><path class="cls-1" d="M51,255.85H47.77V234.79c0-2.11-.16-4.27-.27-6.11h3.36l.16,4,.11.11a9.34,9.34,0,0,1,8.5-4.92c8.88,0,9.58,7.84,9.58,11v17H66V238.31c0-4.71-2.7-7.47-7.14-7.47-5.36,0-7.8,4.49-7.8,9.37Z"/><path class="cls-1" d="M83.4,227.87c5.14,0,9.47,1.78,9.9,7.52H89.78c-.32-3.41-3.35-4.55-6.71-4.55-3,0-6.12,1.19-6.12,4.39,0,4,5.26,3.62,12.62,6.22a6.62,6.62,0,0,1,4.6,6.33c0,6.12-5.69,8.88-11.42,8.88-4.71,0-10.12-2.22-10.23-8.23H76c.27,4.06,3.84,5.25,7.52,5.25,3.46,0,7.09-1.62,7.09-5.41s-4.28-4.54-8.61-5.52-8.6-2.27-8.6-7.31C73.44,229.81,78.63,227.87,83.4,227.87Z"/><path class="cls-1" d="M100.24,231.65H94.82v-3h5.42v-5.8l3.24-1.4v7.2h6.18v3h-6.18v18.19c0,2.49,1.25,3.84,3.74,3.84a9.55,9.55,0,0,0,2.81-.32v2.81a13.57,13.57,0,0,1-3.3.49c-6.87,0-6.49-4.38-6.49-8.06Z"/><path class="cls-1" d="M118.57,220.83h-3.79v-4.06h3.79Zm-.27,7.85v27.17h-3.25V228.68Z"/><path class="cls-1" d="M128.41,231.65H123v-3h5.41v-5.8l3.25-1.4v7.2h6.17v3h-6.17v18.19c-.06,2.49,1.24,3.84,3.73,3.84a9.61,9.61,0,0,0,2.82-.32v2.81a13.58,13.58,0,0,1-3.31.49c-6.87,0-6.49-4.38-6.49-8.06Z"/><path class="cls-1" d="M160,228.68h3.24v21c0,2.11.17,4.28.28,6.12h-3.36l-.16-4-.11-.1a9.36,9.36,0,0,1-8.5,4.92c-8.88,0-9.58-7.85-9.58-11v-17h3.25v17.53c0,4.71,2.7,7.47,7.14,7.47,5.36,0,7.8-4.49,7.8-9.36Z"/><path class="cls-1" d="M172,231.65H166.6v-3H172v-5.8l3.24-1.4v7.2h6.18v3h-6.18v18.19c0,2.49,1.25,3.84,3.74,3.84a9.55,9.55,0,0,0,2.81-.32v2.81a13.57,13.57,0,0,1-3.3.49c-6.87,0-6.49-4.38-6.49-8.06Z"/><path class="cls-1" d="M186.1,243c.11,5.79,2.76,10.66,9.42,10.66a8.09,8.09,0,0,0,7.84-6.49h3.41c-1.67,6.49-5.73,9.47-12.28,9.47-8.12,0-11.91-7-11.91-14.4s4.06-14.39,12.12-14.39c9.1,0,12.4,6.65,12.4,15.15Zm17.48-3c-.38-5.25-3.19-9.2-8.82-9.2-5.31,0-8.12,4.44-8.55,9.2Z"/><path class="cls-1" d="M55,73.54A11.87,11.87,0,1,1,66.82,61.67,11.87,11.87,0,0,1,55,73.54m0-35.61A23.74,23.74,0,1,0,78.69,61.67,23.74,23.74,0,0,0,55,37.93"/><path class="cls-1" d="M83.28,26.49C83.1,26.42,69.52,20.84,59,11L58.93,11l-.26-.21-.21-.17-.27-.18L58,10.27l-.27-.14L57.45,10l-.27-.11-.27-.11-.26-.08-.29-.08-.27-.06-.29-.05a2.4,2.4,0,0,0-.28,0l-.29,0h-.57l-.29,0-.27,0-.3.05-.26.06-.29.08L53,9.78l-.28.11-.26.11-.25.13-.27.14-.23.15a2.4,2.4,0,0,0-.26.18,1.84,1.84,0,0,0-.22.17c-.08.07-.17.13-.25.21L50.9,11c-10.53,9.8-24.1,15.38-24.28,15.45L31.31,37.4A104.92,104.92,0,0,0,55,23.23,104.92,104.92,0,0,0,78.59,37.4Z"/><path class="cls-1" d="M85,34.54a3.16,3.16,0,1,1,3.16,3.16A3.16,3.16,0,0,1,85,34.54Zm5.81,0a2.66,2.66,0,1,0-2.65,2.66A2.56,2.56,0,0,0,90.83,34.54Zm-3.37,1.79H87V32.72h1.55c.94,0,1.26.35,1.26,1s-.49,1-1.12,1l1.08,1.61h-.52l-1-1.61h-.77Zm.64-2c.5,0,1.21.09,1.21-.59,0-.51-.42-.58-.86-.58h-1V34.3Z"/><polygon class="cls-1" points="38.5 292.12 38.5 278.12 33.19 278.12 33.19 276.51 45.49 276.51 45.49 278.12 40.19 278.12 40.19 292.12 38.5 292.12 38.5 292.12"/><path class="cls-1" d="M57,284.79v7.33H55.39v-6.93c0-2-1.23-3-2.55-3-1.64,0-3.44,1.45-3.44,4.2v5.72H47.78V276.51H49.4v6.4a4.15,4.15,0,0,1,3.75-2.33c2,0,3.86,1.36,3.86,4.21Z"/><path class="cls-1" d="M68.18,285.71a3.25,3.25,0,0,0-3.26-3.56,3.49,3.49,0,0,0-3.46,3.56ZM69.7,290a5.84,5.84,0,0,1-4.63,2.37c-2.84,0-5.32-2.13-5.32-5.91s2.62-5.89,5.4-5.89c3.14,0,4.73,2.55,4.73,5.41a8.63,8.63,0,0,1-.09,1.28H61.52a3.58,3.58,0,0,0,3.72,3.52A3.86,3.86,0,0,0,68.63,289L69.7,290Z"/><path class="cls-1" d="M81.35,283.58a2.8,2.8,0,0,0,3.14-2.83c0-1.32-.84-2.63-3-2.63H78.64v5.46Zm.28-7.07a4.16,4.16,0,0,1,4.55,4.22,4.43,4.43,0,0,1-4.74,4.46h-2.8v6.93H77V276.51Z"/><path class="cls-1" d="M94.5,281l-.36,1.66a3,3,0,0,0-1.3-.31c-1.48,0-2.53,1.14-2.53,3.18v6.55H88.69V280.87h1.62v1.52A2.86,2.86,0,0,1,93,280.73a3.42,3.42,0,0,1,1.52.31Z"/><path class="cls-1" d="M103.85,285.71a3.24,3.24,0,0,0-3.26-3.56,3.5,3.5,0,0,0-3.46,3.56Zm1.53,4.3a5.86,5.86,0,0,1-4.63,2.37c-2.85,0-5.33-2.13-5.33-5.91s2.62-5.89,5.4-5.89c3.14,0,4.74,2.55,4.74,5.41a10.23,10.23,0,0,1-.09,1.28H97.2a3.56,3.56,0,0,0,3.71,3.52A3.86,3.86,0,0,0,104.3,289l1.08,1.05Z"/><path class="cls-1" d="M113.06,291.88a3.83,3.83,0,0,1-1.85.48c-1.48,0-2.91-.94-2.91-3.42V276.51h1.62V289c0,1.4.7,1.93,1.55,1.93a2.71,2.71,0,0,0,1-.24l.57,1.23Z"/><path class="cls-1" d="M122,292.12v-2a3.9,3.9,0,0,1-3.57,2.26,3.86,3.86,0,0,1-3.88-4.2v-7.29h1.62v6.88c0,2.09,1.21,3,2.51,3,1.59,0,3.32-1.42,3.32-4.17v-5.72h1.62v11.25Z"/><path class="cls-1" d="M135.51,286.57c0-2.92-2-4.39-3.85-4.39s-3.69,1.37-3.69,4.2,2,4.36,3.89,4.36,3.65-1.4,3.65-4.17Zm0,5.55v-1.66a4.52,4.52,0,0,1-3.72,1.87c-2.69,0-5.44-2-5.44-5.93s2.8-5.82,5.42-5.82a4.55,4.55,0,0,1,3.74,1.95v-6h1.62v15.61Z"/><path class="cls-1" d="M148.29,285.71a3.23,3.23,0,0,0-3.25-3.56,3.51,3.51,0,0,0-3.47,3.56Zm1.53,4.3a5.84,5.84,0,0,1-4.62,2.37c-2.85,0-5.33-2.13-5.33-5.91s2.62-5.89,5.4-5.89c3.14,0,4.74,2.55,4.74,5.41a8.74,8.74,0,0,1-.1,1.28h-8.26a3.56,3.56,0,0,0,3.71,3.52,3.86,3.86,0,0,0,3.39-1.83l1.07,1.05Z"/><polygon class="cls-1" points="158.76 276.51 167.37 288.92 167.37 276.51 169.06 276.51 169.06 292.12 167.37 292.12 158.76 279.57 158.76 292.12 157.07 292.12 157.07 276.51 158.76 276.51 158.76 276.51"/><path class="cls-1" d="M180.46,285.71a3.24,3.24,0,0,0-3.26-3.56,3.5,3.5,0,0,0-3.46,3.56ZM182,290a5.86,5.86,0,0,1-4.63,2.37c-2.85,0-5.33-2.13-5.33-5.91s2.62-5.89,5.4-5.89c3.14,0,4.74,2.55,4.74,5.41a10.23,10.23,0,0,1-.09,1.28h-8.27a3.56,3.56,0,0,0,3.71,3.52,3.85,3.85,0,0,0,3.39-1.83L182,290Z"/><path class="cls-1" d="M191,291.38a3.42,3.42,0,0,1-2.39,1c-1.58,0-3.06-1-3.06-3.42v-6.5h-2.05v-1.57h2.05V278h1.62v2.87h2.69v1.57h-2.69V289c0,1.31.66,1.93,1.55,1.93a2.42,2.42,0,0,0,1.53-.62l.75,1.11Z"/><polygon class="cls-1" points="204.01 292.12 200.95 283.08 197.88 292.12 196.14 292.12 192.18 280.87 194.03 280.87 197.01 289.8 200.02 280.87 201.86 280.87 204.87 289.8 207.86 280.87 209.7 280.87 205.74 292.12 204.01 292.12 204.01 292.12"/><path class="cls-1" d="M212.47,286.44c0,2.52,1.61,4.35,3.89,4.35s3.9-1.83,3.9-4.35-1.62-4.31-3.9-4.31-3.89,1.83-3.89,4.31Zm9.4,0c0,3.37-2.32,5.89-5.51,5.89s-5.51-2.52-5.51-5.89,2.32-5.89,5.51-5.89,5.51,2.52,5.51,5.89Z"/><path class="cls-1" d="M230.43,281l-.37,1.66a3,3,0,0,0-1.3-.31c-1.48,0-2.52,1.14-2.52,3.18v6.55h-1.62V280.87h1.62v1.52a2.84,2.84,0,0,1,2.66-1.66,3.43,3.43,0,0,1,1.53.31Z"/><polygon class="cls-1" points="234.1 292.12 232.48 292.12 232.48 276.51 234.1 276.51 234.1 285.9 239.07 280.87 241.27 280.87 235.9 286.23 241.96 292.12 239.54 292.12 234.1 286.71 234.1 292.12 234.1 292.12"/><path class="cls-1" d="M242.31,279.24a2.2,2.2,0,1,1,2.2,2.19A2.2,2.2,0,0,1,242.31,279.24Zm4,0a1.85,1.85,0,1,0-1.84,1.84A1.78,1.78,0,0,0,246.35,279.24ZM244,280.48h-.32V278h1.08c.65,0,.87.25.87.69s-.33.67-.77.7l.74,1.12h-.36l-.7-1.12H244Zm.44-1.41c.35,0,.84.06.84-.41s-.29-.4-.59-.4H244v.81Z"/></svg>