<?xml version="1.0" encoding="UTF-8"?><svg id="Layer_1" xmlns="http://www.w3.org/2000/svg" viewBox="0 0 487.11 304.89"><defs><style>.cls-1{fill:#221f1f;}</style></defs><path class="cls-1" d="M128.78,155.98c-.54,0-1.07-.01-1.62-.05-15.18-.85-26.9-13.41-26.89-28.42,0-.53,.02-1.07,.05-1.6,.85-15.17,13.4-26.9,28.41-26.9,.54,0,1.08,.02,1.62,.05,15.18,.85,26.9,13.41,26.89,28.43,0,.53-.02,1.07-.05,1.6-.85,15.17-13.4,26.89-28.41,26.89Z"/><path class="cls-1" d="M132.13,87.38c-.38,0-.76-.01-1.14-.03-10.73-.6-19.01-9.47-19-20.09,0-.38,.01-.75,.03-1.13,.6-10.72,9.47-19.01,20.07-19.01,.38,0,.76,.01,1.14,.03,10.73,.6,19.01,9.47,19.01,20.09,0,.38-.01,.75-.03,1.13-.6,10.72-9.47,19-20.08,19Z"/><path class="cls-1" d="M190.51,140.88c-.38,0-.76-.01-1.14-.03-10.72-.6-19.01-9.47-19-20.08,0-.38,.01-.75,.03-1.13,.6-10.72,9.47-19,20.08-19,.38,0,.76,.01,1.14,.03,10.73,.6,19.01,9.47,19.01,20.09,0,.38-.01,.75-.03,1.13-.6,10.72-9.47,19-20.08,19Z"/><path class="cls-1" d="M68.11,134.98c-.38,0-.76-.01-1.14-.03-10.73-.6-19.01-9.47-19.01-20.08,0-.38,0-.75,.03-1.13,.6-10.72,9.47-19,20.08-19,.38,0,.76,.01,1.14,.03,10.72,.6,19.01,9.47,19,20.09,0,.38-.01,.75-.03,1.13-.6,10.72-9.47,19-20.08,19Z"/><path class="cls-1" d="M77.72,184.87c-7.44,0-14.59-4.14-18.08-11.28-1.39-2.85-2.06-5.86-2.06-8.83,0-7.44,4.14-14.6,11.28-18.09,2.85-1.4,5.87-2.06,8.84-2.06,7.44,0,14.59,4.14,18.08,11.28,1.4,2.85,2.06,5.86,2.06,8.83,0,7.44-4.14,14.6-11.28,18.09-2.85,1.4-5.87,2.06-8.85,2.06Z"/><path class="cls-1" d="M88.88,91.99c-4.13,0-8.25-1.7-11.22-5.02-2.57-2.88-3.84-6.46-3.84-10.04,0-4.13,1.7-8.24,5.02-11.22,2.87-2.57,6.46-3.83,10.03-3.83,4.13,0,8.25,1.69,11.22,5.02,2.57,2.88,3.84,6.46,3.83,10.04,0,4.13-1.7,8.24-5.02,11.21-2.87,2.57-6.46,3.83-10.03,3.83Z"/><path class="cls-1" d="M173.67,97.15c-4.13,0-8.25-1.69-11.22-5.02-2.57-2.88-3.84-6.46-3.83-10.04,0-4.13,1.7-8.24,5.02-11.21,2.87-2.57,6.46-3.84,10.03-3.84,4.13,0,8.25,1.69,11.22,5.02,2.57,2.88,3.84,6.46,3.83,10.04,0,4.13-1.7,8.24-5.02,11.21-2.87,2.57-6.46,3.83-10.03,3.83Z"/><path class="cls-1" d="M134.83,32.18c-.25,0-.5,0-.76-.02-7.1-.4-12.59-6.27-12.58-13.3,0-.25,0-.5,.02-.75,.4-7.1,6.27-12.58,13.29-12.58,.25,0,.5,0,.76,.02,7.1,.39,12.59,6.27,12.58,13.3,0,.25,0,.5-.02,.75-.4,7.1-6.27,12.58-13.29,12.58Z"/><path class="cls-1" d="M235.25,126.71c-.25,0-.5,0-.76-.02-7.1-.4-12.59-6.27-12.58-13.3,0-.25,0-.5,.02-.75,.4-7.1,6.27-12.58,13.29-12.58,.25,0,.5,0,.76,.02,7.1,.4,12.59,6.27,12.58,13.3,0,.25,0,.5-.02,.75-.4,7.1-6.27,12.58-13.29,12.58Z"/><path class="cls-1" d="M42.3,206.4c-4.93,0-9.66-2.74-11.97-7.47-.92-1.89-1.36-3.88-1.36-5.85,0-4.93,2.74-9.67,7.47-11.98,1.89-.92,3.89-1.36,5.86-1.36,4.93,0,9.66,2.74,11.97,7.47,.92,1.89,1.36,3.88,1.36,5.85,0,4.93-2.74,9.66-7.47,11.98-1.89,.92-3.89,1.36-5.86,1.36Z"/><path class="cls-1" d="M24.55,115.4c-.25,0-.5,0-.76-.02-7.1-.4-12.59-6.27-12.58-13.3,0-.25,0-.5,.02-.75,.4-7.1,6.27-12.58,13.29-12.58,.25,0,.5,0,.76,.02,7.1,.4,12.59,6.27,12.58,13.3,0,.25,0,.5-.02,.75-.4,7.1-6.27,12.58-13.29,12.58Z"/><path class="cls-1" d="M66.93,62.19c-2.74,0-5.46-1.12-7.43-3.32-1.7-1.9-2.54-4.27-2.54-6.63,0-2.74,1.12-5.47,3.33-7.44,1.9-1.7,4.28-2.54,6.64-2.54,2.74,0,5.46,1.12,7.43,3.33,1.7,1.9,2.54,4.27,2.54,6.63,0,2.74-1.12,5.47-3.32,7.44-1.9,1.7-4.28,2.54-6.64,2.54Z"/><path class="cls-1" d="M198.39,70.12c-2.74,0-5.46-1.12-7.43-3.32-1.7-1.9-2.54-4.27-2.54-6.63,0-2.74,1.12-5.47,3.32-7.44,1.9-1.7,4.28-2.54,6.64-2.54,2.74,0,5.46,1.12,7.43,3.32,1.7,1.9,2.54,4.27,2.54,6.63,0,2.74-1.12,5.47-3.33,7.44-1.9,1.7-4.28,2.54-6.64,2.54Z"/><path class="cls-1" d="M124.66,171.58c0-2.15,1.07-3.36,3.22-3.36h2.82c2.01,0,3.22,1.21,3.22,3.36v87.67c0,2.15-1.21,3.36-3.22,3.36h-2.82c-2.15,0-3.22-1.21-3.22-3.36v-87.67Z"/><path class="cls-1" d="M146.82,172.11c-.81-2.42,.13-3.89,2.69-3.89h3.09c1.88,0,3.22,.81,3.76,2.68l25.11,69.01c1.75,4.83,3.63,12.22,3.63,12.22h.27s2.01-7.38,3.62-12.22l25.38-69.01c.54-1.88,1.88-2.68,3.63-2.68h3.22c2.42,0,3.36,1.48,2.69,3.89l-32.63,87.81c-.67,1.88-1.88,2.69-3.76,2.69h-4.43c-1.75,0-3.09-.81-3.63-2.69l-32.63-87.81Z"/><path class="cls-1" d="M236.78,171.58c0-2.15,1.07-3.36,3.22-3.36h43.1c2.15,0,3.36,1.21,3.36,3.36v1.61c0,2.15-1.21,3.36-3.36,3.36h-37.06v35.45h31.41c2.15,0,3.22,1.07,3.22,3.22v1.75c0,2.15-1.07,3.36-3.22,3.36h-31.41v38.94c0,2.15-1.21,3.36-3.22,3.36h-2.82c-2.15,0-3.22-1.21-3.22-3.36v-87.67Z"/><path class="cls-1" d="M303.54,181.65c.12-1.18,.83-1.89,2.01-1.89h1.42c1.18,0,1.89,.47,2.37,1.54l23.43,50.54c1.89,4.02,4.03,9.35,4.03,9.35h.24s2.13-5.33,4.02-9.35l23.43-50.54c.47-1.07,1.18-1.54,2.37-1.54h1.42c1.18,0,1.89,.71,2.01,1.89l6.39,78.83c0,1.42-.59,2.13-2.01,2.13h-1.07c-1.18,0-1.89-.71-2.01-1.89l-4.97-61.31c-.36-4.02-.36-11.01-.36-11.01h-.24s-2.37,6.98-4.26,11.01l-21.54,45.69c-.47,1.06-1.18,1.54-2.37,1.54h-1.89c-1.19,0-1.89-.47-2.37-1.54l-21.42-45.69c-1.77-3.91-4.38-11.24-4.38-11.24h-.24s0,7.22-.36,11.24l-4.97,61.31c-.12,1.18-.83,1.89-2.01,1.89h-1.06c-1.42,0-2.01-.71-2.01-2.13l6.39-78.83Z"/><path class="cls-1" d="M391.36,181.77c0-1.3,.71-2.01,2.01-2.01h24.03c24.62,0,41.31,15.15,41.31,41.42s-16.69,41.43-41.31,41.43h-24.03c-1.3,0-2.01-.71-2.01-2.01v-78.83Zm25.21,76.1c22.01,0,36.81-12.9,36.81-36.69s-14.79-36.69-36.81-36.69h-20.12v73.38h20.12Z"/><path class="cls-1" d="M460.68,180.66h-2.57v7.42h-1.07v-7.42h-2.59v-.78h6.23v.78Zm5.72,5.27h.04l2.3-6.05h1.93v8.19h-1.07v-7.34h-.04l-2.82,7.34h-.66l-2.82-7.34h-.04v7.34h-1.07v-8.19h1.93l2.34,6.05Z"/><g><g><polygon class="cls-1" points="185.79 300.62 185.79 282.47 178.91 282.47 178.91 280.38 194.86 280.38 194.86 282.47 187.98 282.47 187.98 300.62 185.79 300.62 185.79 300.62"/><path class="cls-1" d="M209.79,291.12v9.5h-2.1v-8.98c0-2.65-1.6-3.88-3.31-3.88-2.12,0-4.46,1.88-4.46,5.45v7.41h-2.1v-20.24h2.1v8.31c1-2.03,2.95-3.02,4.87-3.02,2.57,0,5,1.76,5,5.45h0Z"/><path class="cls-1" d="M224.27,292.32c-.04-3.23-2.16-4.62-4.23-4.62-2.25,0-4.26,1.6-4.49,4.62h8.72Zm1.98,5.57c-1.63,2.09-3.81,3.07-6,3.07-3.69,0-6.91-2.76-6.91-7.66s3.4-7.63,7.01-7.63c4.07,0,6.14,3.3,6.14,7.01,0,.47-.03,1.08-.12,1.66h-10.72c.38,3.2,2.42,4.56,4.82,4.56,1.74,0,3.31-.71,4.4-2.37l1.39,1.35h0Z"/><path class="cls-1" d="M241.36,289.55c2.89,0,4.08-1.85,4.08-3.66s-1.09-3.42-3.87-3.42h-3.72v7.08h3.51Zm.36-9.16c4.07,0,5.91,2.77,5.91,5.48,0,2.92-2.1,5.78-6.14,5.78h-3.63v8.98h-2.19v-20.24h6.06Z"/><path class="cls-1" d="M258.41,286.26l-.47,2.15c-.53-.25-1.12-.4-1.68-.4-1.92,0-3.28,1.48-3.28,4.13v8.49h-2.1v-14.59h2.1v1.97c.77-1.54,2.1-2.15,3.46-2.15,.71,0,1.42,.12,1.98,.4h0Z"/><path class="cls-1" d="M270.53,292.32c-.03-3.23-2.16-4.62-4.22-4.62-2.25,0-4.26,1.6-4.49,4.62h8.71Zm1.98,5.57c-1.63,2.09-3.81,3.07-6,3.07-3.69,0-6.91-2.76-6.91-7.66s3.4-7.63,7.01-7.63c4.08,0,6.15,3.3,6.15,7.01,0,.47-.03,1.08-.12,1.66h-10.72c.38,3.2,2.42,4.56,4.81,4.56,1.75,0,3.31-.71,4.4-2.37l1.39,1.35h0Z"/><path class="cls-1" d="M282.48,300.32c-.71,.4-1.57,.62-2.4,.62-1.92,0-3.78-1.21-3.78-4.44v-16.11h2.1v16.15c0,1.81,.92,2.49,2.01,2.49,.44,0,.88-.12,1.33-.31l.74,1.6h0Z"/><path class="cls-1" d="M294.06,300.62v-2.61c-1,2-2.77,2.92-4.64,2.92-2.54,0-5.02-1.78-5.02-5.44v-9.45h2.1v8.92c0,2.71,1.56,3.9,3.25,3.9,2.06,0,4.31-1.85,4.31-5.42v-7.41h2.1v14.59h-2.1Z"/><path class="cls-1" d="M311.59,293.43c0-3.78-2.54-5.69-4.99-5.69s-4.79,1.78-4.79,5.44,2.6,5.66,5.06,5.66,4.73-1.82,4.73-5.42h0Zm0,7.2v-2.16c-1.06,1.54-2.89,2.43-4.82,2.43-3.49,0-7.06-2.62-7.06-7.69s3.63-7.55,7.03-7.55c1.83,0,3.69,.87,4.84,2.53v-7.81h2.1v20.24h-2.1Z"/><path class="cls-1" d="M328.17,292.32c-.03-3.23-2.16-4.62-4.22-4.62-2.24,0-4.25,1.6-4.49,4.62h8.72Zm1.98,5.57c-1.63,2.09-3.81,3.07-6,3.07-3.69,0-6.91-2.76-6.91-7.66s3.4-7.63,7-7.63c4.08,0,6.15,3.3,6.15,7.01,0,.47-.04,1.08-.12,1.66h-10.72c.38,3.2,2.42,4.56,4.81,4.56,1.75,0,3.31-.71,4.4-2.37l1.39,1.35h0Z"/><polygon class="cls-1" points="341.74 280.38 352.91 296.47 352.91 280.38 355.1 280.38 355.1 300.62 352.91 300.62 341.74 284.35 341.74 300.62 339.56 300.62 339.56 280.38 341.74 280.38 341.74 280.38"/><path class="cls-1" d="M369.88,292.32c-.03-3.23-2.15-4.62-4.22-4.62-2.25,0-4.26,1.6-4.49,4.62h8.71Zm1.98,5.57c-1.63,2.09-3.81,3.07-6,3.07-3.69,0-6.91-2.76-6.91-7.66s3.4-7.63,7.01-7.63c4.07,0,6.15,3.3,6.15,7.01,0,.47-.04,1.08-.12,1.66h-10.72c.38,3.2,2.42,4.56,4.81,4.56,1.75,0,3.31-.71,4.4-2.37l1.39,1.35h0Z"/><path class="cls-1" d="M383.6,299.67c-.82,.8-1.92,1.26-3.1,1.26-2.04,0-3.96-1.3-3.96-4.44v-8.43h-2.66v-2.03h2.66v-3.72h2.1v3.72h3.48v2.03h-3.48v8.46c0,1.69,.86,2.49,2.01,2.49,.65,0,1.45-.31,1.98-.8l.97,1.45h0Z"/><polygon class="cls-1" points="400.42 300.62 396.46 288.9 392.47 300.62 390.22 300.62 385.08 286.04 387.47 286.04 391.35 297.61 395.24 286.04 397.64 286.04 401.54 297.61 405.41 286.04 407.8 286.04 402.66 300.62 400.42 300.62 400.42 300.62"/><path class="cls-1" d="M411.39,293.27c0,3.27,2.09,5.64,5.05,5.64s5.05-2.37,5.05-5.64-2.1-5.59-5.05-5.59-5.05,2.37-5.05,5.59h0Zm12.2,.04c0,4.37-3.01,7.63-7.15,7.63s-7.15-3.26-7.15-7.63,3.01-7.63,7.15-7.63,7.15,3.27,7.15,7.63h0Z"/><path class="cls-1" d="M434.68,286.26l-.47,2.15c-.53-.25-1.12-.4-1.68-.4-1.92,0-3.28,1.48-3.28,4.13v8.49h-2.1v-14.59h2.1v1.97c.77-1.54,2.1-2.15,3.46-2.15,.71,0,1.42,.12,1.98,.4h0Z"/><polygon class="cls-1" points="439.44 300.62 437.34 300.62 437.34 280.38 439.44 280.38 439.44 292.57 445.88 286.04 448.74 286.04 441.77 292.99 449.63 300.62 446.5 300.62 439.44 293.61 439.44 300.62 439.44 300.62"/></g><path class="cls-1" d="M450.09,283.92c0-1.56,1.28-2.84,2.85-2.84s2.84,1.28,2.84,2.84-1.27,2.85-2.84,2.85-2.85-1.28-2.85-2.85Zm5.23,0c0-1.38-1-2.38-2.38-2.38s-2.4,1-2.4,2.38,1.01,2.4,2.4,2.4,2.38-1,2.38-2.4Zm-3.03,1.61h-.42v-3.25h1.4c.85,0,1.13,.32,1.13,.9,0,.63-.44,.86-1.01,.91l.97,1.44h-.47l-.92-1.44h-.7v1.44Zm.57-1.82c.45,0,1.09,.08,1.09-.54,0-.45-.38-.51-.77-.51h-.89v1.05h.57Z"/></g></svg>