<svg id="Layer_1" data-name="Layer 1" xmlns="http://www.w3.org/2000/svg" viewBox="0 0 720 684"><defs><style>.cls-1{fill:#231f20;}</style></defs><title>MEB_Logo_Vert_Black</title><path class="cls-1" d="M203.76,342.41h-3l-.23,1c-4.26,17.8-11,32.52-20.59,45-7.81,9.72-22.7,16.76-35.39,16.76h-6.46c-13.9,0-18.83-5.05-18.83-19.3V321.52H141c15,0,23.25,12.9,24.82,25.69l.38,1.13h2.43V292l-.24-1.29h-2.43l-.14,1.13c-1.59,12.91-9.87,25.93-24.82,25.93h-21.7V260.37c0-13.47,5.92-20,18.11-20h2.39c9.7,0,24.28,5.2,35,16.82,8.45,9.15,14.57,25.2,16.68,36.25l.21,1h2.92l-4.26-57.89H69.51v2.9l1.13.15C81,241,87,248.28,87,259.65V385.84c0,11.37-6,18.68-16.35,20l-1.13.15v2.9H193.3Z"/><path class="cls-1" d="M308.93,283l-13.16,13.16a59.15,59.15,0,0,0-24.39-5c-13.32,0-24.87,3.62-34.33,10.78s-14.42,16.43-14.42,27.33c0,10.31,4.57,19.2,13.6,26.43L227,365a35,35,0,0,0-10.91,26.1c.16,5.66,1.7,10.22,4.58,13.56a20.45,20.45,0,0,0,10.69,6.57,39,39,0,0,0,7.14,1.61c-7.46,3.73-13.25,7.66-17.25,11.73-4.9,5-7.38,10.61-7.38,16.71a22.94,22.94,0,0,0,4.64,14.08A32,32,0,0,0,230.67,465,71,71,0,0,0,247,470.26a92.61,92.61,0,0,0,18.2,1.78c17.92,0,32.87-4.9,44.44-14.56s17.53-21.61,17.53-35.34c0-10.77-3.16-19.27-9.4-25.27s-15.61-9-27.9-9a212.86,212.86,0,0,0-21.42,1.77c-10,1.15-17.15,1.74-21.13,1.74a69,69,0,0,1-13.09-1.26,32.13,32.13,0,0,1-10.81-3.94c-2.06-1.22-3.11-2.54-3.11-3.92a4.82,4.82,0,0,1,.07-.82,32.53,32.53,0,0,1,8.79-14.52l9.44-9.44h0l.26.18a4.22,4.22,0,0,0,.5.43,2.46,2.46,0,0,0,.52.31,3,3,0,0,0,.4.22l1.64.83c11,5.28,20.93,8,29.43,8,13.32,0,24.83-3.63,34.21-10.78,9.58-7.24,14.43-16.44,14.43-27.34,0-10-3.62-18.13-10.67-24.06l-.38-.38a47.32,47.32,0,0,0-9.81-7.06l34-18.71-10.33-10.18ZM289,302.94,248.07,344A80.11,80.11,0,0,1,247,329.63a86.35,86.35,0,0,1,.51-9.61,47.88,47.88,0,0,1,2.17-9.51,30.46,30.46,0,0,1,4.2-8.47,19.11,19.11,0,0,1,7-5.69,23.36,23.36,0,0,1,10.53-2.26C279,294.09,284.75,297,289,302.94Zm-40.28,44.39,41.8-41.92c3.43,6.1,5.17,14.24,5.17,24.22,0,3.52-.14,6.75-.41,9.58a46.85,46.85,0,0,1-1.94,9.28,25.63,25.63,0,0,1-4,8.24,19.59,19.59,0,0,1-7,5.48,24.65,24.65,0,0,1-10.95,2.26C259.24,364.47,251.82,358.86,248.73,347.33ZM227.5,422.81c3.18-2.42,8.79-5.7,16.69-9.74,6.3-1,13.49-1.83,21.39-2.48s13.86-1,17.49-1a35.93,35.93,0,0,1,12,1.8,18.27,18.27,0,0,1,7.55,4.63,19.1,19.1,0,0,1,3.83,6.2,20.49,20.49,0,0,1,1.21,7.06c0,8.06-3.11,15.62-9.25,22.44-2.43,2.66-6.22,5.09-11.24,7.24a82.24,82.24,0,0,1-16.79,5,88.91,88.91,0,0,1-15,1.27c-1.22,0-2.48,0-3.81-.11a68.15,68.15,0,0,1-17.38-2.76,26.67,26.67,0,0,1-12.5-7.88,19.48,19.48,0,0,1-4.77-13.27C216.9,434.57,220.47,428.37,227.5,422.81Z"/><path class="cls-1" d="M334.28,441.23a22.94,22.94,0,0,0,4.64,14.08A32,32,0,0,0,351.09,465a71.12,71.12,0,0,0,16.32,5.29A92.51,92.51,0,0,0,385.6,472c17.92,0,32.87-4.9,44.44-14.56s17.53-21.61,17.53-35.34c0-10.77-3.16-19.27-9.4-25.27s-15.61-9-27.9-9a212.86,212.86,0,0,0-21.42,1.77c-10,1.15-17.15,1.74-21.13,1.74a69,69,0,0,1-13.09-1.26,32.13,32.13,0,0,1-10.81-3.94c-2.06-1.22-3.11-2.54-3.11-3.92a4.82,4.82,0,0,1,.07-.82,32.48,32.48,0,0,1,8.79-14.52l9.44-9.44h0l.26.18a4.22,4.22,0,0,0,.5.43,2.46,2.46,0,0,0,.52.31,3,3,0,0,0,.4.22l1.64.83c11,5.28,20.93,8,29.43,8,13.32,0,24.83-3.63,34.22-10.78,9.57-7.25,14.42-16.44,14.42-27.34,0-10-3.62-18.13-10.67-24.06l-.38-.38a47.32,47.32,0,0,0-9.81-7.06l34-18.71-10.33-10.18L429.35,283l-13.16,13.16a59.15,59.15,0,0,0-24.39-5c-13.32,0-24.87,3.62-34.33,10.78s-14.42,16.43-14.42,27.33c0,10.31,4.57,19.2,13.6,26.43L347.41,365a35,35,0,0,0-10.91,26.1c.16,5.66,1.7,10.22,4.58,13.56a20.43,20.43,0,0,0,10.69,6.57,39.79,39.79,0,0,0,7.15,1.62c-7.47,3.72-13.26,7.65-17.26,11.72C336.76,429.51,334.28,435.13,334.28,441.23Zm13.65-18.43c3.18-2.42,8.79-5.69,16.68-9.73,6.3-1,13.49-1.83,21.39-2.48s13.86-1,17.49-1a35.93,35.93,0,0,1,12,1.8A18.27,18.27,0,0,1,423,416a18.93,18.93,0,0,1,3.83,6.2,20.3,20.3,0,0,1,1.21,7.06c0,8.06-3.11,15.61-9.25,22.44-2.43,2.66-6.21,5.09-11.24,7.24a82.33,82.33,0,0,1-16.78,5,88.94,88.94,0,0,1-15,1.27c-1.22,0-2.48,0-3.81-.11a68.15,68.15,0,0,1-17.38-2.76,26.67,26.67,0,0,1-12.5-7.88,19.52,19.52,0,0,1-4.77-13.27C337.32,434.57,340.89,428.37,347.93,422.8Zm21.22-75.47L411,305.41c3.43,6.1,5.17,14.24,5.17,24.22,0,3.52-.14,6.75-.41,9.58a47.65,47.65,0,0,1-1.93,9.28,26,26,0,0,1-4,8.24,19.61,19.61,0,0,1-7,5.48,24.65,24.65,0,0,1-10.95,2.26C379.66,364.47,372.24,358.86,369.15,347.33Zm40.28-44.39L368.49,344a80.11,80.11,0,0,1-1.12-14.36,83.82,83.82,0,0,1,.52-9.61,47.82,47.82,0,0,1,2.16-9.51,30.74,30.74,0,0,1,4.2-8.47,19.11,19.11,0,0,1,7-5.69,23.36,23.36,0,0,1,10.53-2.26C399.39,294.09,405.17,297,409.43,302.94Z"/><path class="cls-1" d="M101,209.89l-1-.21c-7.57-1.56-14.74-9.49-13.82-21.64l5.59-80.33,40.86,102.6h3L172,112.47l6,77.27c1.24,14.62-4.45,18.23-10.79,20l-.95.5v2.27h54.21l1.28-.24V210l-.94-.26c-7.74-2.11-11.85-9.43-13-23l-6.46-78.72c-.46-11.75,4.23-15.5,8.36-17.46l.74-.59V87.77H177.15l-29.34,79.17L115.22,87.77H77.72L76.43,88v2.22l.88.29c6.88,2.29,10.85,5.73,10.86,16.41L82.42,188.1c-.85,11.23-6.88,19.9-15,21.58l-1,.45v2.34H101Z"/><path class="cls-1" d="M246.77,116.87l42.89,99.83-7,17.22c-4.33,10.58-7,13.8-11.26,13.8-4.5,0-6.77-3.62-9.39-7.81-3.25-5.21-6.94-11.1-15.75-11.1-9.08,0-15.18,6.38-15.18,15.89,0,10.53,8.12,17.33,20.69,17.33,20.56,0,28.72-12.93,34.48-26.9l50-124c4.32-10.69,10.76-17.81,18.63-20.58l.86-.55v-2.2H316l-1.29.24v2.33l1,.22c9.11,2,14.54,8.46,14.54,17.42,0,5.44-1.82,12.6-5.41,21.31L304.91,178.6l-27.27-64.41a29.19,29.19,0,0,1-2.54-10.76c0-6.49,2.44-9.88,9.3-13l.76-.58V87.77H227.6l-1.28.24v2.08l.7.36C235.28,94.7,240.63,101.85,246.77,116.87Z"/><path class="cls-1" d="M155.4,521.39c30.14-5.22,47.13-19.74,47.13-40.86,0-26.54-21-40.56-60.67-40.56H69.69v2.87l1.1.17c11.18,1.7,16.38,8.15,16.38,20.28V589c0,12.2-5.35,18.83-16.35,20.27l-1.13.15v2.89h72.17c42.44,0,68.81-18.38,68.81-48C210.67,539.85,192.09,525.44,155.4,521.39Zm-36-1.44V461.37c0-10.87,6.94-17.63,18.11-17.63,20.18,0,32.23,14,32.23,37.51,0,25.68-12.54,38.7-37.26,38.7Zm0,3.77h15.23c27.75,0,41.81,15.27,41.81,45.4,0,24.81-12.44,39.18-34.14,39.42-16.48-.25-22.9-5.8-22.9-19.78Z"/><path class="cls-1" d="M325.57,589.14l-.38.63a8,8,0,0,1-7.28,4.16c-7,0-8.05-7-8.05-11.16v-58C309.62,499.5,298,485,277.93,485s-57.56,21.23-57.56,40.07c0,8,5.85,13.5,14.22,13.5a17.69,17.69,0,0,0,16-9.07l.46-.86-.71-.67c-4.28-4-8.7-8.21-8.7-16.3,0-11.13,8.64-16.2,16.67-16.2,14.81,0,21.7,11.16,21.7,35.11v17.87c-39.25,8.25-59.14,22.38-59.14,42,0,14.68,10.31,23.8,26.91,23.8,17.19,0,26.26-11,32.5-22.89,1.5,15.19,9.16,22.89,22.81,22.89,12.78,0,22.72-9.49,24.74-23.62l0-1.47Zm-62.49,5.75c-9.65,0-14.75-5.43-14.75-15.71,0-14,8.91-21.58,31.66-26.88v31.87C278.21,588,272.55,594.89,263.08,594.89Z"/><path class="cls-1" d="M453.05,592.59V529.37C453.05,492.69,434,485,418,485c-15.57,0-28.44,8.46-38.31,25.18l-.41-24h-2l-42.11,15.41-.84.55V504l1,.25c11.24,3,14.84,8.44,14.84,22.46v65.85c0,9.92-5.46,16.24-14.61,16.91l-1.19.33v2.48h60.43l1.29-.24v-2.48l-1.19-.09c-9.16-.67-14.85-7.15-14.85-16.91V516.28c5.3-10,13.1-14.83,23.85-14.83,8.29,0,19.31,3,19.31,29.12v62c0,9.92-5.47,16.24-14.61,16.91l-1.2.33v2.48H467.8l1.29-.24v-2.48l-1.19-.09C458.74,608.83,453.05,602.35,453.05,592.59Z"/><path class="cls-1" d="M610.48,609.58c-7.06-2.68-12.14-6.8-23.56-24.17l-37.45-56.29,12.31-10.74c22.93-19.79,29.83-24.56,37.75-28.05l.77-.58v-2.13H555.19l-1.28.24v2.38l1.07.18c9.28,1.54,10.66,7.07,10.66,10.22,0,4.87-1.77,10.91-14.64,22l-29.24,25.22V434.79l-.24-1.28h-1.28L476.52,447l-.91.52v1.91l.91.27c10.77,3.28,15.37,11.51,15.37,27.51V591.87c0,10.77-4.92,16.71-14.64,17.63l-1.16.35v2.46h60.43l1.29-.24v-2.46l-1.17-.11c-9.73-.92-14.88-7-14.88-17.63V553.19l5.66-4.9,27.43,39.76c3.11,4.55,5,8.3,5,12.92,0,4.78-3,7.65-9,8.54l-1.09.41v2.39H610l1.29-.24V609.9Z"/><path class="cls-1" d="M583.05,164.61l28-28a4.3,4.3,0,0,0-1.38-7l-28.3-11.9L569.05,88.87a4.3,4.3,0,0,0-7-1.35L534.69,114.9,507.31,87.52a4.3,4.3,0,0,0-7,1.35L488,117.68l-28.3,11.9a4.3,4.3,0,0,0-1.37,7l27.35,27.35-28,28a4.31,4.31,0,0,0,1.37,7l28.3,11.89,12.35,28.82a4.31,4.31,0,0,0,3.14,2.53,4.47,4.47,0,0,0,.82.07,4.26,4.26,0,0,0,3-1.26L534,213.65,561.38,241a4.27,4.27,0,0,0,3,1.26,4.43,4.43,0,0,0,.81-.07,4.29,4.29,0,0,0,3.14-2.53l12.35-28.82L609,199a4.31,4.31,0,0,0,1.38-7Zm26.19-31.3a1.23,1.23,0,0,1-.34,1.1l-28,28-1.38-1.38a30.6,30.6,0,0,0-12.86-7.71,15.77,15.77,0,0,0,5-3.39c5.24-5.23,8.51-23.6,9.39-29.08l27.45,11.53A1.23,1.23,0,0,1,609.24,133.31ZM534,209.3l-1.38-1.38a27.61,27.61,0,0,1,0-39.07l1.38-1.38,1.38,1.38a27.63,27.63,0,0,1,0,39.07Zm.68-90.05,1.38,1.38a27.63,27.63,0,0,1,0,39.07l-1.38,1.38-1.38-1.38a27.61,27.61,0,0,1,0-39.07Zm16.59,28.54a12.87,12.87,0,0,1,0-18.22c4.67-4.68,17.4-8.24,26.66-8.67-1.25,7.53-4.47,22.91-8.44,26.89A12.9,12.9,0,0,1,551.28,147.79Zm-33.18,0a12.92,12.92,0,0,1-18.23,0c-4-4-7.19-19.36-8.44-26.89,9.26.43,22,4,26.67,8.67A12.9,12.9,0,0,1,518.1,147.79Zm-7.86,7.35a27.47,27.47,0,0,1,19.53,8.09l1.38,1.38-.7.7a27.64,27.64,0,0,1-39.07,0L490,163.93l.7-.7A27.47,27.47,0,0,1,510.24,155.14Zm7.18,25.62a12.89,12.89,0,0,1,0,18.22c-4.67,4.67-17.41,8.24-26.66,8.67,1.24-7.53,4.47-22.92,8.44-26.89a12.89,12.89,0,0,1,18.22,0Zm33.18,0a12.89,12.89,0,0,1,18.22,0c4,4,7.19,19.36,8.44,26.89-9.26-.43-22-4-26.66-8.67A12.89,12.89,0,0,1,550.6,180.76Zm7.86-7.35a27.46,27.46,0,0,1-19.54-8.1l-1.38-1.38.7-.7a27.64,27.64,0,0,1,39.08,0l1.38,1.38-.71.7A27.42,27.42,0,0,1,558.46,173.41Zm5.77-83.71a1.2,1.2,0,0,1,.86-.36l.24,0a1.22,1.22,0,0,1,.9.72l11.88,27.74c-8.84.39-23.2,3.76-29,9.57a15.82,15.82,0,0,0-3.05,4.3,30.63,30.63,0,0,0-7.81-13.24l-1.38-1.38Zm-61.08.38a1.21,1.21,0,0,1,.89-.72l.24,0a1.2,1.2,0,0,1,.86.36l27.37,27.37-1.38,1.38a30.67,30.67,0,0,0-7.81,13.25,15.68,15.68,0,0,0-3.05-4.31c-5.81-5.81-20.17-9.18-29-9.57Zm-42.68,44.33a1.22,1.22,0,0,1-.33-1.1,1.19,1.19,0,0,1,.72-.9l27.45-11.53c.88,5.48,4.16,23.85,9.39,29.08a16,16,0,0,0,4.54,3.16,30.62,30.62,0,0,0-13.72,7.94l-.7.7Zm-1,60.83a1.22,1.22,0,0,1,.33-1.1l28-28,1.38,1.38a30.55,30.55,0,0,0,12.89,7.69,16,16,0,0,0-5.07,3.41c-5.23,5.23-8.51,23.6-9.39,29.08l-27.45-11.54A1.18,1.18,0,0,1,459.46,195.24Zm45,43.61a1.24,1.24,0,0,1-1.1.34,1.21,1.21,0,0,1-.89-.72l-11.89-27.74c8.84-.39,23.2-3.76,29-9.57a15.82,15.82,0,0,0,3-4.3,30.69,30.69,0,0,0,7.81,13.24l1.38,1.38Zm61.09-.38a1.22,1.22,0,0,1-.9.72,1.25,1.25,0,0,1-1.1-.34l-27.37-27.37,1.38-1.38a30.47,30.47,0,0,0,7.81-13.25,15.9,15.9,0,0,0,3,4.31c5.82,5.81,20.17,9.18,29,9.57Zm43-43.23a1.22,1.22,0,0,1-.73.89l-27.45,11.54c-.88-5.48-4.15-23.85-9.39-29.08a15.49,15.49,0,0,0-4.54-3.16,30.57,30.57,0,0,0,13.72-7.94l.7-.7,27.35,27.35A1.23,1.23,0,0,1,608.56,195.24Z"/><path class="cls-1" d="M632.81,598.64v0c3-.29,3.86-1.33,3.86-2.78,0-2-1.66-2.9-5.27-2.9H625v0c.79.16,1.41.66,1.41,2.07v6.52c0,1.78-.38,2.28-1.41,2.62v0h6.56v0c-1.08-.34-1.5-.88-1.5-2.62v-2.62h.08c.71,0,.92.21,1.71,1.79l1.74,3.49H638L635.55,600C635,599.06,634.6,598.64,632.81,598.64Zm-2.66.09h-.08V594.2a1.05,1.05,0,0,1,1.12-1.08h0c1,0,1.5.88,1.5,2.87C632.73,597.77,632,598.73,630.15,598.73Z"/><path class="cls-1" d="M631,584.31a14.17,14.17,0,1,0,14.16,14.16A14.16,14.16,0,0,0,631,584.31Zm0,27.29a13.13,13.13,0,1,1,13.12-13.13A13.12,13.12,0,0,1,631,611.6Z"/></svg>