<svg id="Layer_1" data-name="Layer 1" xmlns="http://www.w3.org/2000/svg" viewBox="0 0 342.79 224.76"><defs><style>.cls-1{fill:#221f1f;}</style></defs><title>NYU_Stacked_Black</title><path class="cls-1" d="M37.06,38.8c-11.71,0-21.21,9.89-21.21,22.08S25.35,83,37.06,83s21.2-9.88,21.2-22.08S48.78,38.8,37.06,38.8Zm0,33.12a11,11,0,0,1,0-22.08,11,11,0,0,1,0,22.08Z"/><path class="cls-1" d="M40.68,14.27l-.07,0a5.11,5.11,0,0,0-7.1,0l-.06,0C24,23.4,11.92,28.58,11.75,28.65L15.94,38.8A92.94,92.94,0,0,0,37.06,25.62,93.17,93.17,0,0,0,58.18,38.8l4.19-10.15C62.21,28.58,50.08,23.4,40.68,14.27Z"/><path class="cls-1" d="M63.32,36.45a3.14,3.14,0,1,1,3.14,3.14A3.14,3.14,0,0,1,63.32,36.45Zm5.77,0a2.64,2.64,0,1,0-2.63,2.64A2.54,2.54,0,0,0,69.09,36.45Zm-3.35,1.78h-.45V34.64h1.54c.93,0,1.25.35,1.25,1s-.48.95-1.11,1L68,38.23h-.52l-1-1.6h-.77Zm.64-2c.5,0,1.2.08,1.2-.6,0-.5-.42-.56-.85-.56h-1v1.16Z"/><path class="cls-1" d="M196,137.05a3.85,3.85,0,0,0,.48,0l3.88.33c4.78.34,5,1,5,2.19,0,1.51-2,2.48-5.18,2.48-4.42,0-5.33-1.09-5.33-2.72a3.11,3.11,0,0,1,1.14-2.3m3.95-21.31c2.53,0,3.06,2.3,3.06,4.22,0,2.71-1.11,4.26-3.06,4.26-2.66,0-3.06-2.67-3.06-4.26s.4-4.22,3.06-4.22m-12,24.85c0,4.21,3.44,5.84,11.17,5.84,8.11,0,13.34-3,13.34-8s-3-6.88-10.86-7.41l-3.3-.16c-1.92-.2-2-.63-2-1.09a1,1,0,0,1,.42-.77,14.19,14.19,0,0,0,3.17.35c6.39,0,10.36-3.69,10.36-9.63a9.39,9.39,0,0,0-.46-2.83,16.57,16.57,0,0,1,3-.24h.4V110l-.44.05a11.27,11.27,0,0,0-5.58,2.45,10.79,10.79,0,0,0-7.32-2.41c-6.41,0-10.55,3.8-10.55,9.69a9.29,9.29,0,0,0,3.42,7.49,6.53,6.53,0,0,0-3,4.87,4,4,0,0,0,1.65,3.28c-2.34,1.35-3.48,3.05-3.48,5.18m-37.28-11.28a6.06,6.06,0,0,1-4.12,1.79,1.88,1.88,0,0,1-2-2.15c0-1.51.71-3.38,6.13-4.64Zm.58,7.74h7.9l-.2-.54c-.44-1.17-.6-2.88-.6-6.11V119c0-6.09-2.72-8.92-8.53-8.92a17.82,17.82,0,0,0-11.91,4.24l-.28.24,3.69,4.85.32-.24c1.37-1,4.09-2.71,6.83-2.71,1.58,0,2.2.71,2.2,2.54v.72c-9.29,1.75-13.81,5.2-13.81,10.53,0,4.51,2.43,7.09,6.65,7.09a9.34,9.34,0,0,0,7.19-3.1,11.2,11.2,0,0,0,.46,2.52Zm27.44-27a10,10,0,0,0-7.25,3.36v-2.83h-7.92v26.44h7.92V119c1.54-1.38,2.91-2.08,4.08-2.08,1,0,1.9.31,1.9,2.58v17.57h7.88V117.22c0-4.67-2.29-7.14-6.61-7.14m77.76,0a10,10,0,0,0-7.24,3.36v-2.83h-7.92v26.44h7.92V119c1.53-1.38,2.9-2.08,4.07-2.08,1,0,1.91.31,1.91,2.58v17.57H263V117.22c0-4.67-2.29-7.14-6.61-7.14m21.51,6.24c.75,0,3,0,3.42,4.83h-7c.38-3.12,1.65-4.83,3.59-4.83m6,11.65-.24.39a6.39,6.39,0,0,1-5.19,3.13c-2.53,0-3.9-1.8-4.19-5.5h14.35v-1.7c0-9-3.89-14.21-10.69-14.21-5.29,0-11.46,3.61-11.46,13.77,0,8.6,4.36,13.73,11.65,13.73a11.79,11.79,0,0,0,10.34-5.47l.21-.3Zm-58.07,3.37c-1.62,0-3.78-.77-3.78-7.49,0-5.07,1.17-7.34,3.78-7.34,1.63,0,3.79.76,3.79,7.34,0,5.18-1.17,7.49-3.79,7.49m0-21.26a11.06,11.06,0,0,0-8.13,3.2c-2.37,2.42-3.57,6-3.57,10.57,0,10.12,6,13.73,11.7,13.73s11.71-3.61,11.71-13.73c0-4.59-1.21-8.14-3.59-10.57a11.05,11.05,0,0,0-8.12-3.2m-123,14.21V100.65H95.08V124c0,4.77-1.35,6.72-4.65,6.72s-4.65-1.9-4.65-6.77V100.65H77.67v23.69c0,8.81,4.26,13.29,12.66,13.29s12.52-4.37,12.52-13.34m-66-2.72c-2.57-5.13-10.66-20-11-20.71l-.11-.21H17.54v36.4H25V115.58c2.65,5,11.4,20.53,11.82,21.27l.11.2h7.42v-36.4H36.89Zm96.59,8.67h-11V100.65H114.4v36.4h19.08Zm-68.32,6.81V122.74l10.28-22.09h-8l-6.13,14.5-6.13-14.5H46.82l10.23,22.14v14.26Z"/><path class="cls-1" d="M170.31,194.54a7.44,7.44,0,0,0,2.56-1.46,8.91,8.91,0,0,0,1.85-2.38,18.47,18.47,0,0,0,1.34-3.25l9.21-28.74h-8.61l-2,8.36c-.17.72-.34,1.42-.49,2.08s-.3,1.34-.44,2-.29,1.36-.42,2.07-.28,1.44-.42,2.23h-.1c-.13-.79-.26-1.53-.38-2.22s-.26-1.38-.39-2-.29-1.32-.44-2-.31-1.34-.47-2.05l-1.9-8.48h-9.3l8.36,26.68-.26.74a2.31,2.31,0,0,1-.86,1.28,3,3,0,0,1-1.64.36,13.77,13.77,0,0,1-2.55-.22c-.74-.14-1.28-.26-1.64-.34l-1.68,7a24.48,24.48,0,0,0,2.73.56,28.79,28.79,0,0,0,4.51.28,10.62,10.62,0,0,0,3.45-.51M63,185.05h8V168c.29-.21.62-.41,1-.62a9,9,0,0,1,4.48-1.18h.44l.57,0,.5,0,.36.05v-8.07l-.06,0h-.32a7.18,7.18,0,0,0-2.55.42,7.09,7.09,0,0,0-1.92,1.07A7.33,7.33,0,0,0,72,161.15a12.85,12.85,0,0,0-1,1.55h-.1v-4H63Zm-45.43-.26h8V170.87h8.75v-7.14H25.54v-7.2H37.89v-7.42H17.54Z"/><path class="cls-1" d="M116.48,185.07h7.92V151.82l-7.92,1.05Zm35.74-35.19-7.87,1.05v7.7h-3.66v6h3.66v13.6c0,5.23,2.14,7.09,8.19,7.09a26.64,26.64,0,0,0,4.54-.36l.29-.08v-6l-.56.24a7.64,7.64,0,0,1-2,.26c-2.16,0-2.63-.52-2.63-2.92V164.67h5.49v-6h-5.49Z"/><path class="cls-1" d="M92.87,150.12l-7.88,1v7.7H81.34v6H85v13.6c0,5.23,2.15,7.09,8.2,7.09a26.74,26.74,0,0,0,4.54-.36l.28-.08v-6l-.56.24a7.55,7.55,0,0,1-2,.26c-2.17,0-2.63-.52-2.63-2.92V164.91h5.48v-6H92.87Z"/><path class="cls-1" d="M48.79,164.39c.75,0,3,0,3.42,4.82h-7c.38-3.11,1.65-4.82,3.59-4.82m6,11.65-.24.38a6.37,6.37,0,0,1-5.19,3.13c-2.52,0-3.9-1.8-4.19-5.5H59.49v-1.69c0-9-3.9-14.21-10.7-14.21-5.29,0-11.46,3.61-11.46,13.77,0,8.59,4.36,13.73,11.65,13.73a11.79,11.79,0,0,0,10.34-5.47l.21-.31Z"/><path class="cls-1" d="M129.35,185.07h7.94v-23.7h-7.94Zm0-26.15h7.94v-7.28h-7.94Z"/><path class="cls-1" d="M102.83,185.07h7.94v-23.7h-7.94Zm0-26.15h7.94v-7.28h-7.94Z"/><path class="cls-1" d="M213.22,184.61a11.2,11.2,0,0,0,3.92-2.83,13.66,13.66,0,0,0,2.5-4.21,27.42,27.42,0,0,0,1.41-5.21L212.49,171a25.81,25.81,0,0,1-.68,3.37,7.89,7.89,0,0,1-1,2.23,3.4,3.4,0,0,1-1.36,1.24,4.18,4.18,0,0,1-1.88.38,4.23,4.23,0,0,1-4.06-2.83c-.84-1.9-1.26-4.71-1.26-8.45s.41-6.45,1.23-8.29a4.14,4.14,0,0,1,4-2.75,3.88,3.88,0,0,1,1.84.4,3.49,3.49,0,0,1,1.29,1.22,7.84,7.84,0,0,1,.87,2.11,28.54,28.54,0,0,1,.61,3l8.54-1.5a24.32,24.32,0,0,0-1.23-5.41,12.38,12.38,0,0,0-2.38-4.09,9.94,9.94,0,0,0-3.79-2.56,14.72,14.72,0,0,0-5.44-.9,16.1,16.1,0,0,0-5.89,1.05,11.57,11.57,0,0,0-4.63,3.32,16,16,0,0,0-3,5.82,29.28,29.28,0,0,0-1.1,8.56,29.93,29.93,0,0,0,1.07,8.55,15.83,15.83,0,0,0,3,5.81,11.12,11.12,0,0,0,4.53,3.32,15.68,15.68,0,0,0,5.84,1.05,14,14,0,0,0,5.67-1"/><path class="cls-1" d="M285.87,151.84l-7.87,1v5.81h-3.66v6H278v13.6c0,5.23,2.14,7.08,8.19,7.08a27,27,0,0,0,4.54-.35L291,185v-6l-.56.24a7.64,7.64,0,0,1-2,.26c-2.16,0-2.63-.52-2.63-2.92V164.73h5.48v-6h-5.48Z"/><path class="cls-1" d="M304.91,164.36c.75,0,3,0,3.42,4.82h-7c.38-3.11,1.65-4.82,3.59-4.82m6,11.65-.24.38a6.37,6.37,0,0,1-5.19,3.13c-2.53,0-3.9-1.8-4.19-5.5H315.6v-1.69c0-9-3.89-14.21-10.69-14.21-5.29,0-11.46,3.61-11.46,13.77,0,8.6,4.35,13.73,11.65,13.73a11.79,11.79,0,0,0,10.34-5.47l.21-.31Z"/><path class="cls-1" d="M264.94,158.17a10,10,0,0,0-7.24,3.35V158.7h-7.92v26.44h7.92V167.07c1.53-1.39,2.9-2.09,4.07-2.09,1,0,1.91.32,1.91,2.58v17.58h7.87V165.3c0-4.67-2.28-7.13-6.61-7.13"/><path class="cls-1" d="M235.31,164.37c.75,0,3,0,3.42,4.82h-7c.39-3.11,1.65-4.82,3.59-4.82m6,11.65-.24.38a6.37,6.37,0,0,1-5.19,3.13c-2.52,0-3.9-1.8-4.19-5.49H246v-1.7c0-9-3.9-14.21-10.7-14.21-5.29,0-11.46,3.61-11.46,13.77,0,8.6,4.36,13.73,11.66,13.73a11.77,11.77,0,0,0,10.33-5.47l.21-.3Z"/><path class="cls-1" d="M319,185h7.89V168c.28-.2.61-.41,1-.62a10.17,10.17,0,0,1,1.23-.57,9.78,9.78,0,0,1,1.47-.43,8.66,8.66,0,0,1,1.75-.17l.44,0c.19,0,.37,0,.56,0l.5,0,.36.05v-8h-.26l-.12,0a7.06,7.06,0,0,0-2.53.42,7.16,7.16,0,0,0-1.91,1.06,7.73,7.73,0,0,0-1.4,1.47,13.6,13.6,0,0,0-1,1.54h-.09v-4H319Z"/><polygon class="cls-1" points="21.83 218.3 21.83 205.29 16.9 205.29 16.9 203.79 28.33 203.79 28.33 205.29 23.4 205.29 23.4 218.3 21.83 218.3 21.83 218.3"/><path class="cls-1" d="M39,211.49v6.81H37.53v-6.44c0-1.9-1.14-2.78-2.37-2.78-1.52,0-3.2,1.35-3.2,3.91v5.31h-1.5V203.79H32v6a3.85,3.85,0,0,1,3.49-2.17A3.55,3.55,0,0,1,39,211.49Z"/><path class="cls-1" d="M49.42,212.35a3,3,0,0,0-3-3.31,3.25,3.25,0,0,0-3.22,3.31Zm1.42,4a5.41,5.41,0,0,1-4.3,2.21c-2.65,0-5-2-5-5.5s2.44-5.47,5-5.47c2.92,0,4.41,2.36,4.41,5a7.44,7.44,0,0,1-.09,1.19H43.23a3.32,3.32,0,0,0,3.46,3.27,3.61,3.61,0,0,0,3.15-1.7l1,1Z"/><path class="cls-1" d="M61.67,210.36a2.6,2.6,0,0,0,2.92-2.62c0-1.23-.78-2.45-2.77-2.45H59.15v5.07Zm.25-6.57a3.88,3.88,0,0,1,4.24,3.93,4.11,4.11,0,0,1-4.41,4.14h-2.6v6.44H57.58V203.79Z"/><path class="cls-1" d="M73.89,208l-.33,1.54a2.9,2.9,0,0,0-1.21-.29c-1.38,0-2.35,1.06-2.35,3v6.08H68.49V207.85H70v1.41a2.66,2.66,0,0,1,2.48-1.54,3.07,3.07,0,0,1,1.41.29Z"/><path class="cls-1" d="M82.58,212.35a3,3,0,0,0-3-3.31,3.25,3.25,0,0,0-3.22,3.31Zm1.42,4a5.39,5.39,0,0,1-4.3,2.21c-2.64,0-5-2-5-5.5s2.43-5.47,5-5.47c2.92,0,4.4,2.36,4.4,5a8.69,8.69,0,0,1-.08,1.19H76.4a3.31,3.31,0,0,0,3.45,3.27,3.62,3.62,0,0,0,3.16-1.7l1,1Z"/><path class="cls-1" d="M91.15,218.08a3.53,3.53,0,0,1-1.72.45c-1.37,0-2.71-.87-2.71-3.18V203.79h1.5v11.58c0,1.3.66,1.79,1.45,1.79a2.57,2.57,0,0,0,1-.22l.53,1.14Z"/><path class="cls-1" d="M99.45,218.3v-1.87a3.63,3.63,0,0,1-3.32,2.1,3.58,3.58,0,0,1-3.6-3.9v-6.78H94v6.4c0,1.94,1.12,2.79,2.33,2.79,1.48,0,3.09-1.32,3.09-3.88v-5.31H101V218.3Z"/><path class="cls-1" d="M112,213.14c0-2.71-1.82-4.08-3.58-4.08S105,210.34,105,213a3.71,3.71,0,0,0,3.62,4.06c1.72,0,3.39-1.31,3.39-3.89Zm0,5.16v-1.54a4.19,4.19,0,0,1-3.46,1.74c-2.5,0-5.06-1.87-5.06-5.51a5,5,0,0,1,5-5.41,4.24,4.24,0,0,1,3.47,1.81v-5.6h1.5V218.3Z"/><path class="cls-1" d="M123.91,212.35a3,3,0,0,0-3-3.31,3.25,3.25,0,0,0-3.22,3.31Zm1.42,4a5.42,5.42,0,0,1-4.3,2.21c-2.65,0-5-2-5-5.5s2.44-5.47,5-5.47c2.92,0,4.41,2.36,4.41,5a8.81,8.81,0,0,1-.09,1.19h-7.68a3.31,3.31,0,0,0,3.44,3.27,3.61,3.61,0,0,0,3.16-1.7l1,1Z"/><polygon class="cls-1" points="133.64 203.79 141.64 215.33 141.64 203.79 143.21 203.79 143.21 218.3 141.64 218.3 133.64 206.64 133.64 218.3 132.07 218.3 132.07 203.79 133.64 203.79 133.64 203.79"/><path class="cls-1" d="M153.81,212.35a3,3,0,0,0-3-3.31,3.25,3.25,0,0,0-3.22,3.31Zm1.42,4a5.41,5.41,0,0,1-4.3,2.21c-2.65,0-5-2-5-5.5s2.44-5.47,5-5.47c2.92,0,4.41,2.36,4.41,5a8.81,8.81,0,0,1-.09,1.19h-7.68a3.31,3.31,0,0,0,3.44,3.27,3.6,3.6,0,0,0,3.16-1.7l1,1Z"/><path class="cls-1" d="M163.64,217.62a3.18,3.18,0,0,1-2.22.91c-1.46,0-2.84-.93-2.84-3.18v-6h-1.9v-1.45h1.9v-2.67h1.51v2.67h2.49v1.45h-2.49v6.07c0,1.21.61,1.79,1.43,1.79a2.18,2.18,0,0,0,1.42-.58l.7,1Z"/><polygon class="cls-1" points="175.7 218.3 172.86 209.9 170 218.3 168.39 218.3 164.71 207.85 166.42 207.85 169.2 216.15 171.99 207.85 173.71 207.85 176.51 216.15 179.28 207.85 180.99 207.85 177.31 218.3 175.7 218.3 175.7 218.3"/><path class="cls-1" d="M183.57,213c0,2.34,1.5,4,3.62,4s3.62-1.7,3.62-4a3.64,3.64,0,1,0-7.24,0Zm8.74,0a5.14,5.14,0,1,1-5.12-5.47,5.16,5.16,0,0,1,5.12,5.47Z"/><path class="cls-1" d="M200.26,208l-.33,1.54a2.94,2.94,0,0,0-1.21-.29c-1.38,0-2.35,1.06-2.35,3v6.08h-1.51V207.85h1.51v1.41a2.66,2.66,0,0,1,2.48-1.54,3.1,3.1,0,0,1,1.41.29Z"/><polygon class="cls-1" points="203.68 218.3 202.17 218.3 202.17 203.79 203.68 203.79 203.68 212.53 208.3 207.85 210.35 207.85 205.35 212.83 210.99 218.3 208.74 218.3 203.68 213.28 203.68 218.3 203.68 218.3"/><path class="cls-1" d="M211.32,206.33a2,2,0,1,1,2,2A2,2,0,0,1,211.32,206.33Zm3.75,0a1.72,1.72,0,1,0-1.71,1.72A1.65,1.65,0,0,0,215.07,206.33Zm-2.18,1.15h-.3v-2.33h1c.61,0,.81.23.81.65s-.31.62-.72.65l.69,1h-.33l-.66-1h-.5Zm.42-1.3c.32,0,.78,0,.78-.39s-.28-.37-.56-.37h-.64v.76Z"/></svg>