<?xml version="1.0" encoding="UTF-8"?><svg id="Layer_2" xmlns="http://www.w3.org/2000/svg" viewBox="0 0 442.67 277.33"><defs><style>.cls-1{fill:#231f20;}</style></defs><path class="cls-1" d="M51.3,15.25c26.58,0,37.04,12.53,37.04,27.5,0,13.44-8.47,27.96-37.87,27.96H28.88v48.74h-8.8V15.25h31.22ZM28.88,63.99h21.09c21.09,0,28.9-9.32,28.9-21.08s-7.97-20.93-27.9-20.93H28.88V63.99Z"/><g><g><g><polygon class="cls-1" points="24.26 259.29 24.26 241.4 17.49 241.4 17.49 239.35 33.2 239.35 33.2 241.4 26.42 241.4 26.42 259.29 24.26 259.29 24.26 259.29"/><path class="cls-1" d="M47.91,249.92v9.36h-2.07v-8.85c0-2.61-1.57-3.82-3.26-3.82-2.09,0-4.39,1.85-4.39,5.37v7.3h-2.07v-19.94h2.07v8.18c.99-2,2.91-2.98,4.8-2.98,2.53,0,4.92,1.73,4.92,5.37h0Z"/><path class="cls-1" d="M62.18,251.11c-.04-3.18-2.12-4.55-4.16-4.55-2.21,0-4.19,1.57-4.42,4.55h8.59Zm1.95,5.48c-1.6,2.06-3.75,3.03-5.91,3.03-3.64,0-6.81-2.72-6.81-7.55s3.35-7.52,6.9-7.52c4.01,0,6.05,3.25,6.05,6.91,0,.46-.03,1.06-.12,1.64h-10.57c.38,3.15,2.39,4.49,4.75,4.49,1.71,0,3.26-.7,4.33-2.33l1.37,1.33h0Z"/><path class="cls-1" d="M79.02,248.37c2.85,0,4.02-1.82,4.02-3.6s-1.07-3.37-3.81-3.37h-3.66v6.97h3.46Zm.35-9.03c4.01,0,5.82,2.73,5.82,5.4,0,2.87-2.07,5.69-6.05,5.69h-3.58v8.85h-2.16v-19.94h5.97Z"/><path class="cls-1" d="M95.82,245.13l-.47,2.12c-.52-.24-1.11-.39-1.66-.39-1.89,0-3.23,1.46-3.23,4.07v8.36h-2.07v-14.37h2.07v1.94c.76-1.51,2.07-2.12,3.41-2.12,.7,0,1.4,.11,1.95,.39h0Z"/><path class="cls-1" d="M107.76,251.11c-.03-3.18-2.12-4.55-4.16-4.55-2.21,0-4.2,1.57-4.43,4.55h8.58Zm1.95,5.48c-1.6,2.06-3.75,3.03-5.91,3.03-3.64,0-6.81-2.72-6.81-7.55s3.35-7.52,6.9-7.52c4.02,0,6.06,3.25,6.06,6.91,0,.46-.03,1.06-.12,1.64h-10.57c.38,3.15,2.38,4.49,4.74,4.49,1.72,0,3.26-.7,4.34-2.33l1.37,1.33h0Z"/><path class="cls-1" d="M119.53,258.98c-.7,.39-1.54,.61-2.36,.61-1.89,0-3.72-1.19-3.72-4.37v-15.88h2.07v15.91c0,1.79,.9,2.46,1.98,2.46,.44,0,.87-.12,1.31-.3l.73,1.58h0Z"/><path class="cls-1" d="M130.94,259.29v-2.57c-.99,1.97-2.73,2.88-4.57,2.88-2.5,0-4.95-1.76-4.95-5.36v-9.31h2.07v8.79c0,2.67,1.54,3.85,3.2,3.85,2.03,0,4.25-1.82,4.25-5.34v-7.3h2.07v14.37h-2.07Z"/><path class="cls-1" d="M148.21,252.2c0-3.73-2.5-5.61-4.92-5.61s-4.72,1.76-4.72,5.36,2.57,5.58,4.98,5.58,4.66-1.79,4.66-5.34h0Zm0,7.09v-2.12c-1.05,1.52-2.85,2.4-4.75,2.4-3.44,0-6.96-2.58-6.96-7.57s3.58-7.43,6.93-7.43c1.81,0,3.64,.85,4.77,2.49v-7.69h2.07v19.94h-2.07Z"/><path class="cls-1" d="M164.55,251.11c-.03-3.18-2.13-4.55-4.16-4.55-2.21,0-4.19,1.57-4.43,4.55h8.59Zm1.95,5.48c-1.6,2.06-3.75,3.03-5.91,3.03-3.64,0-6.81-2.72-6.81-7.55s3.35-7.52,6.9-7.52c4.02,0,6.06,3.25,6.06,6.91,0,.46-.03,1.06-.12,1.64h-10.56c.38,3.15,2.38,4.49,4.74,4.49,1.72,0,3.26-.7,4.34-2.33l1.37,1.33h0Z"/><polygon class="cls-1" points="177.92 239.35 188.93 255.2 188.93 239.35 191.08 239.35 191.08 259.29 188.93 259.29 177.92 243.26 177.92 259.29 175.77 259.29 175.77 239.35 177.92 239.35 177.92 239.35"/><path class="cls-1" d="M205.64,251.11c-.03-3.18-2.12-4.55-4.16-4.55-2.22,0-4.19,1.57-4.43,4.55h8.58Zm1.95,5.48c-1.6,2.06-3.75,3.03-5.91,3.03-3.64,0-6.81-2.72-6.81-7.55s3.35-7.52,6.9-7.52c4.01,0,6.06,3.25,6.06,6.91,0,.46-.04,1.06-.12,1.64h-10.56c.37,3.15,2.38,4.49,4.74,4.49,1.73,0,3.26-.7,4.34-2.33l1.37,1.33h0Z"/><path class="cls-1" d="M219.16,258.35c-.81,.78-1.89,1.25-3.05,1.25-2.01,0-3.9-1.28-3.9-4.37v-8.3h-2.62v-2h2.62v-3.66h2.07v3.66h3.43v2h-3.43v8.34c0,1.66,.84,2.46,1.98,2.46,.64,0,1.43-.3,1.95-.79l.96,1.43h0Z"/><polygon class="cls-1" points="235.73 259.29 231.83 247.74 227.9 259.29 225.68 259.29 220.62 244.92 222.98 244.92 226.79 256.32 230.63 244.92 232.99 244.92 236.84 256.32 240.65 244.92 243.01 244.92 237.94 259.29 235.73 259.29 235.73 259.29"/><path class="cls-1" d="M246.54,252.04c0,3.22,2.06,5.55,4.98,5.55s4.98-2.33,4.98-5.55-2.07-5.51-4.98-5.51-4.98,2.33-4.98,5.51h0Zm12.02,.04c0,4.31-2.97,7.52-7.04,7.52s-7.04-3.21-7.04-7.52,2.97-7.52,7.04-7.52,7.04,3.22,7.04,7.52h0Z"/><path class="cls-1" d="M269.49,245.13l-.47,2.12c-.52-.24-1.11-.39-1.66-.39-1.89,0-3.23,1.46-3.23,4.07v8.36h-2.07v-14.37h2.07v1.94c.76-1.51,2.07-2.12,3.4-2.12,.69,0,1.4,.11,1.95,.39h0Z"/><polygon class="cls-1" points="274.18 259.29 272.11 259.29 272.11 239.35 274.18 239.35 274.18 251.35 280.53 244.92 283.35 244.92 276.48 251.77 284.22 259.29 281.13 259.29 274.18 252.38 274.18 259.29 274.18 259.29"/></g><path class="cls-1" d="M284.68,242.83c0-1.54,1.26-2.79,2.81-2.79s2.79,1.26,2.79,2.79-1.25,2.81-2.79,2.81-2.81-1.26-2.81-2.81Zm5.16,0c0-1.36-.98-2.35-2.35-2.35s-2.36,.98-2.36,2.35,.99,2.36,2.36,2.36,2.35-.98,2.35-2.36Zm-2.99,1.59h-.41v-3.2h1.38c.83,0,1.12,.31,1.12,.89,0,.62-.43,.85-.99,.89l.95,1.42h-.46l-.9-1.42h-.69v1.42Zm.57-1.8c.45,0,1.07,.07,1.07-.53,0-.45-.37-.51-.76-.51h-.88v1.04h.57Z"/></g><path class="cls-1" d="M199.29,31.45c-14.12-6.87-26.91-10.08-40.36-10.08-28.24,0-49.5,19.71-49.5,46.14s21.09,45.83,50.66,45.83c12.79,0,24.91-3.21,40.36-10.69v8.4c-13.12,6.42-27.07,9.78-40.19,9.78-34.55,0-60.29-22.76-60.29-53.32s28.4-53.62,59.46-53.62c12.62,0,26.08,2.9,39.86,8.71v8.86Z"/><path class="cls-1" d="M253.1,15.25c27.74,0,37.54,12.99,37.54,26.89,0,12.07-7.14,20.47-21.59,25.36,5.32,2.6,9.8,8.56,15.11,15.89l25.58,36.05h-10.3l-19.76-28.57c-13.62-19.71-17.94-21.39-31.56-21.39h-15.28v49.96h-8.8V15.25h29.07Zm-20.26,47.51h18.77c19.93,0,29.56-7.94,29.56-20.47,0-11.76-9.14-20.32-29.9-20.32h-18.44V62.77Z"/><polygon class="cls-1" points="420.69 15.25 429.49 15.25 429.49 119.45 420.69 119.45 420.69 27.02 420.35 27.02 377.5 75.75 334.65 27.02 334.32 27.02 334.32 119.45 325.52 119.45 325.52 15.25 334.32 15.25 377.5 63.68 420.69 15.25"/><path class="cls-1" d="M228.04,154.85c.03-.6,.12-1.17,.28-1.7,.16-.53,.39-.99,.69-1.39,.3-.39,.68-.7,1.14-.93,.45-.23,.99-.35,1.61-.35,1.22,0,2.12,.39,2.7,1.16,.58,.78,.86,1.84,.82,3.2h-7.24Zm11.93,.62c0-1.21-.15-2.32-.46-3.35-.31-1.03-.79-1.92-1.44-2.67-.65-.75-1.49-1.34-2.51-1.76-1.02-.42-2.25-.64-3.69-.64-1.36,0-2.58,.22-3.67,.67-1.08,.45-2,1.1-2.76,1.95-.76,.85-1.33,1.89-1.73,3.12-.4,1.23-.6,2.6-.6,4.13,0,1.6,.19,3,.57,4.2,.38,1.19,.95,2.18,1.72,2.96,.77,.78,1.73,1.37,2.88,1.75,1.15,.38,2.49,.58,4.01,.58,.85,0,1.64-.05,2.39-.16,.74-.11,1.41-.24,1.98-.39,.58-.15,1.05-.3,1.42-.45,.37-.15,.6-.28,.68-.37l.2-.28c.05-.1,.09-.21,.12-.36,.03-.14,.04-.31,.06-.51,.01-.2,.02-.44,.02-.72,0-.32,0-.59-.03-.8-.02-.21-.05-.38-.11-.49-.05-.12-.12-.2-.19-.24-.08-.04-.17-.07-.29-.07-.19,0-.44,.06-.75,.18-.31,.12-.7,.26-1.16,.4-.47,.15-1.02,.28-1.66,.4-.64,.12-1.39,.18-2.23,.18s-1.55-.11-2.15-.33c-.6-.22-1.08-.54-1.46-.95-.38-.42-.66-.92-.83-1.52-.17-.6-.26-1.26-.26-1.99h10.45c.46,0,.82-.14,1.09-.42,.26-.28,.39-.72,.39-1.31v-.77Zm-18.42-6.81c-.01-.27-.03-.47-.06-.61-.03-.13-.05-.24-.09-.32l-.15-.21c-.07-.06-.18-.13-.34-.18-.15-.06-.33-.11-.54-.15-.2-.05-.4-.08-.6-.1-.19-.02-.37-.03-.54-.03-.36,0-.72,.05-1.08,.14-.36,.1-.72,.27-1.08,.51-.36,.24-.74,.57-1.14,.99-.4,.42-.82,.95-1.27,1.59v-2.14c0-.13-.03-.24-.1-.34-.06-.1-.17-.18-.32-.24-.15-.06-.36-.11-.63-.14-.27-.03-.61-.05-1.02-.05s-.73,.02-.99,.05c-.26,.03-.48,.08-.64,.14-.17,.06-.28,.14-.35,.24-.06,.1-.1,.21-.1,.34v17.17c0,.13,.04,.24,.12,.34,.08,.1,.21,.18,.39,.24,.19,.06,.43,.11,.74,.14,.31,.03,.7,.05,1.17,.05s.87-.02,1.17-.05c.31-.03,.55-.08,.74-.14,.19-.06,.32-.14,.39-.24,.08-.1,.12-.21,.12-.34v-10.7c.36-.56,.7-1.04,1.01-1.42,.31-.39,.62-.69,.9-.92,.29-.23,.57-.4,.84-.51,.27-.11,.54-.16,.81-.16,.23,0,.44,.02,.64,.07,.19,.05,.37,.09,.53,.14,.16,.05,.3,.1,.43,.14,.13,.05,.24,.07,.35,.07,.13,0,.23-.03,.32-.1,.08-.06,.15-.18,.2-.35,.05-.17,.09-.4,.12-.69,.03-.3,.04-.67,.04-1.14s0-.83-.02-1.1Zm-14.57,14.09c-.03-.23-.07-.41-.11-.55-.04-.13-.09-.22-.16-.27l-.22-.07c-.09,0-.19,.02-.3,.07-.11,.04-.24,.1-.4,.15-.16,.06-.34,.11-.55,.15-.21,.04-.44,.07-.69,.07-.76,0-1.28-.23-1.58-.7-.3-.47-.44-1.17-.44-2.11v-8.07h3.75c.24,0,.43-.15,.56-.45,.13-.3,.19-.8,.19-1.51,0-.37-.02-.69-.05-.94-.03-.26-.08-.46-.14-.61-.06-.15-.14-.25-.24-.32-.1-.06-.21-.1-.34-.1h-3.73v-3.83c0-.13-.04-.24-.12-.35-.08-.1-.21-.19-.39-.26-.18-.07-.43-.12-.74-.15-.32-.03-.71-.05-1.18-.05s-.85,.02-1.16,.05c-.31,.03-.56,.08-.75,.15-.19,.07-.32,.16-.39,.26-.07,.1-.11,.22-.11,.35v3.83h-2.04c-.13,0-.24,.03-.34,.1-.1,.06-.18,.17-.24,.32-.06,.15-.11,.35-.14,.61-.03,.26-.05,.57-.05,.94,0,.71,.06,1.21,.19,1.51,.13,.3,.31,.45,.56,.45h2.06v8.8c0,1.05,.11,1.96,.33,2.73,.22,.77,.56,1.41,1.02,1.92,.46,.51,1.05,.88,1.75,1.13,.71,.24,1.54,.37,2.5,.37,.36,0,.71-.02,1.07-.06s.68-.09,.98-.16c.3-.07,.56-.15,.79-.25s.39-.21,.51-.33c.12-.12,.21-.33,.28-.63,.07-.3,.11-.73,.11-1.3,0-.36-.02-.65-.05-.89Zm-14.5-8.03c0-1.24-.11-2.31-.33-3.2-.22-.89-.57-1.66-1.07-2.32-.49-.66-1.14-1.18-1.94-1.57-.8-.39-1.79-.58-2.95-.58-1.07,0-2.09,.26-3.07,.77-.98,.51-1.95,1.28-2.9,2.31v-1.98c0-.13-.03-.24-.1-.34-.06-.1-.17-.18-.32-.24-.15-.06-.36-.11-.62-.14-.27-.03-.61-.05-1.02-.05s-.73,.02-.99,.05c-.26,.03-.48,.08-.64,.14-.17,.06-.28,.14-.35,.24-.06,.1-.1,.21-.1,.34v17.17c0,.13,.04,.24,.12,.34,.08,.1,.21,.18,.39,.24,.19,.06,.43,.11,.74,.14,.31,.03,.7,.05,1.17,.05s.87-.02,1.17-.05c.31-.03,.56-.08,.74-.14,.19-.06,.32-.14,.39-.24,.08-.1,.12-.21,.12-.34v-11.41c.68-.86,1.33-1.51,1.96-1.96,.63-.45,1.25-.67,1.87-.67,.49,0,.91,.09,1.28,.28,.37,.19,.66,.45,.89,.79,.23,.34,.41,.75,.53,1.22,.12,.48,.18,1.13,.18,1.96v9.8c0,.13,.04,.24,.12,.34,.08,.1,.21,.18,.39,.24,.18,.06,.43,.11,.74,.14,.31,.03,.71,.05,1.18,.05s.85-.02,1.16-.05c.31-.03,.56-.08,.74-.14,.18-.06,.31-.14,.38-.24,.08-.1,.12-.21,.12-.34v-10.61Zm-32.3,.13c.03-.6,.12-1.17,.28-1.7,.16-.53,.39-.99,.69-1.39,.3-.39,.68-.7,1.13-.93,.46-.23,.99-.35,1.61-.35,1.22,0,2.12,.39,2.7,1.16,.58,.78,.86,1.84,.82,3.2h-7.24Zm11.93,.62c0-1.21-.15-2.32-.46-3.35-.31-1.03-.79-1.92-1.44-2.67-.65-.75-1.49-1.34-2.51-1.76-1.02-.42-2.25-.64-3.69-.64-1.36,0-2.58,.22-3.67,.67-1.08,.45-2,1.1-2.76,1.95-.76,.85-1.33,1.89-1.73,3.12-.4,1.23-.6,2.6-.6,4.13,0,1.6,.19,3,.57,4.2,.38,1.19,.95,2.18,1.72,2.96,.77,.78,1.73,1.37,2.88,1.75,1.15,.38,2.49,.58,4.01,.58,.85,0,1.64-.05,2.39-.16,.74-.11,1.41-.24,1.98-.39,.58-.15,1.05-.3,1.42-.45,.37-.15,.6-.28,.68-.37l.2-.28c.05-.1,.09-.21,.12-.36,.02-.14,.04-.31,.06-.51,.01-.2,.02-.44,.02-.72,0-.32,0-.59-.03-.8-.02-.21-.05-.38-.11-.49-.05-.12-.12-.2-.19-.24-.08-.04-.17-.07-.29-.07-.19,0-.44,.06-.75,.18-.31,.12-.7,.26-1.16,.4-.47,.15-1.02,.28-1.66,.4-.64,.12-1.39,.18-2.23,.18s-1.55-.11-2.15-.33c-.6-.22-1.08-.54-1.46-.95-.38-.42-.66-.92-.83-1.52-.17-.6-.26-1.26-.26-1.99h10.45c.46,0,.82-.14,1.09-.42,.26-.28,.39-.72,.39-1.31v-.77Zm-19.24,5.63c-.03-.28-.06-.49-.12-.65-.05-.15-.12-.26-.19-.31-.08-.05-.18-.08-.31-.08-.17,0-.4,.1-.7,.31-.3,.21-.69,.44-1.15,.69-.47,.26-1.03,.49-1.68,.7-.65,.21-1.43,.32-2.33,.32-.99,0-1.88-.17-2.67-.51-.79-.34-1.46-.86-2.02-1.55-.56-.69-.99-1.58-1.29-2.65-.3-1.07-.45-2.34-.45-3.8,0-1.33,.14-2.53,.42-3.6,.28-1.07,.7-1.97,1.24-2.72,.54-.75,1.21-1.33,1.98-1.73,.78-.4,1.66-.61,2.65-.61,.9,0,1.67,.11,2.32,.34,.65,.22,1.21,.48,1.67,.75,.47,.28,.85,.53,1.14,.75,.3,.22,.54,.34,.73,.34,.12,0,.22-.04,.31-.12s.17-.2,.23-.37c.06-.17,.11-.39,.13-.65,.03-.27,.04-.6,.04-.98,0-.36-.01-.66-.03-.9-.02-.24-.05-.46-.09-.64-.04-.18-.09-.33-.15-.44-.06-.12-.18-.26-.36-.43-.17-.17-.48-.38-.91-.63-.44-.24-.93-.46-1.47-.64-.55-.19-1.14-.34-1.78-.45-.64-.12-1.31-.17-2-.17-1.71,0-3.27,.29-4.69,.87-1.42,.58-2.63,1.42-3.65,2.54-1.01,1.12-1.8,2.5-2.37,4.14-.57,1.64-.85,3.52-.85,5.64s.26,3.9,.77,5.47c.51,1.57,1.25,2.87,2.21,3.92,.96,1.05,2.13,1.83,3.5,2.36,1.37,.53,2.91,.79,4.62,.79,.87,0,1.68-.07,2.43-.21,.75-.14,1.42-.32,2-.53,.58-.21,1.08-.43,1.48-.66,.4-.23,.68-.42,.82-.57,.14-.15,.24-.28,.31-.39,.06-.12,.12-.25,.15-.41,.04-.16,.07-.35,.09-.58,.02-.22,.03-.5,.03-.82,0-.46-.01-.83-.04-1.11Zm-29.91,.45c-.03-.27-.06-.49-.11-.66-.04-.17-.11-.29-.18-.36-.08-.06-.17-.1-.29-.1-.17,0-.37,.1-.62,.3-.24,.2-.55,.42-.9,.66s-.78,.47-1.26,.66c-.48,.2-1.06,.3-1.72,.3s-1.23-.12-1.72-.36c-.49-.24-.9-.59-1.23-1.07-.33-.47-.57-1.06-.74-1.77-.17-.71-.25-1.52-.25-2.44,0-1.87,.33-3.29,1-4.26,.67-.97,1.63-1.45,2.89-1.45,.64,0,1.19,.09,1.65,.27,.46,.18,.86,.38,1.19,.6,.33,.22,.62,.42,.87,.6,.24,.18,.47,.27,.69,.27,.2,0,.37-.15,.5-.45,.13-.3,.19-.82,.19-1.57,0-.32,0-.59-.03-.82-.02-.22-.05-.41-.08-.57-.03-.15-.08-.28-.14-.38-.06-.1-.16-.21-.3-.36-.14-.14-.38-.31-.72-.5-.34-.19-.73-.37-1.15-.52-.43-.15-.89-.28-1.39-.37-.49-.09-1-.13-1.51-.13-1.26,0-2.41,.2-3.46,.6-1.05,.4-1.96,1.01-2.73,1.83-.77,.82-1.37,1.86-1.8,3.11-.43,1.25-.65,2.74-.65,4.46,0,1.49,.18,2.81,.53,3.97,.35,1.15,.88,2.13,1.57,2.94,.69,.8,1.55,1.41,2.57,1.82,1.02,.41,2.19,.62,3.51,.62,.59,0,1.16-.05,1.72-.15,.56-.1,1.07-.24,1.55-.4,.48-.17,.9-.36,1.27-.57,.37-.21,.64-.39,.79-.54,.15-.15,.25-.27,.3-.37,.04-.1,.08-.22,.12-.38,.03-.15,.06-.34,.08-.57,.02-.22,.03-.5,.03-.84,0-.42-.01-.77-.04-1.04Zm-17.82-12.72c0-.46-.12-.8-.37-1.01-.24-.21-.61-.32-1.1-.32h-9.74v-1.64c0-1.06,.15-1.83,.46-2.29,.31-.46,.8-.69,1.48-.69,.27,0,.49,.02,.67,.05,.18,.03,.34,.07,.47,.11,.14,.04,.25,.07,.35,.1l.26,.04c.2,0,.34-.13,.41-.38,.07-.25,.11-.68,.11-1.3,0-.33,0-.61-.02-.84-.01-.22-.04-.41-.07-.55-.03-.14-.07-.26-.12-.35l-.17-.24c-.07-.07-.2-.14-.39-.2-.19-.06-.42-.12-.67-.17-.26-.05-.53-.09-.82-.12-.29-.03-.57-.04-.86-.04-1.01,0-1.89,.14-2.64,.43-.74,.29-1.36,.73-1.85,1.31-.49,.58-.85,1.31-1.09,2.18-.24,.87-.36,1.89-.36,3.06v1.52h-2.14c-.13,0-.24,.03-.34,.1-.1,.06-.17,.17-.23,.32-.06,.15-.1,.35-.14,.61-.03,.26-.05,.57-.05,.94,0,.71,.06,1.21,.18,1.51,.12,.3,.3,.45,.55,.45h2.16v13.9c0,.13,.03,.24,.1,.34,.07,.1,.2,.18,.39,.24,.19,.06,.44,.11,.75,.14,.31,.03,.7,.05,1.16,.05s.87-.02,1.18-.05c.32-.03,.56-.08,.74-.14,.18-.06,.31-.14,.39-.24,.08-.1,.12-.21,.12-.34v-13.9h6.37v13.9c0,.13,.04,.24,.12,.34,.08,.1,.2,.18,.38,.24,.18,.06,.43,.11,.74,.14,.31,.03,.71,.05,1.18,.05s.85-.02,1.16-.05c.31-.03,.56-.08,.74-.14,.18-.06,.31-.14,.39-.24,.08-.1,.12-.21,.12-.34v-16.5Zm.24-7.62c-.08-.32-.23-.58-.43-.79-.21-.21-.48-.35-.84-.44-.35-.09-.79-.13-1.32-.13s-.97,.05-1.33,.13c-.36,.09-.65,.24-.86,.44-.21,.21-.36,.47-.44,.79-.08,.32-.13,.71-.13,1.17s.04,.88,.13,1.2c.08,.33,.23,.59,.44,.79,.21,.2,.5,.34,.86,.42,.36,.08,.8,.13,1.33,.13s.96-.04,1.32-.13c.35-.08,.63-.22,.84-.42,.2-.2,.35-.46,.43-.79,.08-.33,.13-.73,.13-1.2s-.04-.85-.13-1.17Zm-22.28-.82c-.38-.37-1.12-.55-2.19-.55s-1.83,.19-2.22,.57c-.39,.38-.59,1.06-.59,2.03s.19,1.58,.57,1.94c.38,.36,1.11,.54,2.2,.54s1.82-.19,2.21-.56c.4-.37,.6-1.05,.6-2.02s-.19-1.59-.58-1.95Zm.21,7.8c0-.13-.04-.24-.12-.34-.08-.1-.21-.18-.39-.25-.19-.07-.43-.13-.74-.16-.31-.04-.7-.06-1.17-.06s-.87,.02-1.17,.06c-.31,.04-.56,.09-.74,.16-.19,.07-.32,.15-.39,.25-.08,.1-.12,.21-.12,.34v17.13c0,.13,.04,.24,.12,.34,.08,.1,.21,.18,.39,.24,.19,.06,.43,.11,.74,.14,.31,.03,.7,.05,1.17,.05s.87-.02,1.17-.05c.31-.03,.56-.08,.74-.14,.19-.06,.32-.14,.39-.24,.08-.1,.12-.21,.12-.34v-17.13Zm-8.37,13.36c-.03-.27-.06-.49-.11-.66-.04-.17-.11-.29-.18-.36-.08-.06-.17-.1-.29-.1-.17,0-.37,.1-.62,.3-.24,.2-.55,.42-.9,.66-.36,.24-.78,.47-1.26,.66-.48,.2-1.06,.3-1.72,.3s-1.23-.12-1.72-.36c-.49-.24-.9-.59-1.23-1.07-.33-.47-.57-1.06-.74-1.77-.17-.71-.25-1.52-.25-2.44,0-1.87,.33-3.29,1-4.26,.67-.97,1.63-1.45,2.89-1.45,.64,0,1.19,.09,1.66,.27,.46,.18,.86,.38,1.19,.6,.33,.22,.62,.42,.87,.6,.24,.18,.48,.27,.69,.27,.2,0,.37-.15,.5-.45,.13-.3,.19-.82,.19-1.57,0-.32-.01-.59-.03-.82s-.04-.41-.08-.57c-.03-.15-.08-.28-.13-.38-.06-.1-.16-.21-.3-.36-.14-.14-.38-.31-.72-.5-.34-.19-.73-.37-1.15-.52-.43-.15-.89-.28-1.39-.37-.49-.09-1-.13-1.51-.13-1.26,0-2.41,.2-3.46,.6-1.05,.4-1.96,1.01-2.73,1.83-.77,.82-1.37,1.86-1.8,3.11-.43,1.25-.64,2.74-.64,4.46,0,1.49,.18,2.81,.53,3.97,.35,1.15,.88,2.13,1.57,2.94,.69,.8,1.55,1.41,2.57,1.82,1.02,.41,2.19,.62,3.51,.62,.59,0,1.16-.05,1.72-.15,.56-.1,1.07-.24,1.55-.4,.47-.17,.9-.36,1.27-.57,.37-.21,.64-.39,.79-.54,.15-.15,.25-.27,.3-.37,.04-.1,.08-.22,.12-.38,.03-.15,.06-.34,.08-.57,.02-.22,.03-.5,.03-.84,0-.42-.01-.77-.04-1.04Zm-22.55-.6c-.59,.67-1.17,1.17-1.74,1.52-.57,.35-1.2,.52-1.88,.52-.81,0-1.44-.21-1.9-.62-.45-.41-.68-.98-.68-1.69,0-.42,.08-.8,.24-1.13,.16-.33,.41-.61,.76-.84,.35-.23,.8-.4,1.35-.52,.55-.12,1.22-.17,2-.17h1.85v2.93Zm4.75-7.12c0-1.18-.14-2.2-.42-3.06-.28-.86-.73-1.56-1.35-2.11-.62-.55-1.4-.95-2.36-1.21-.96-.26-2.11-.39-3.45-.39-.76,0-1.49,.06-2.2,.18-.71,.12-1.37,.28-1.97,.47-.6,.19-1.13,.4-1.58,.63-.45,.22-.76,.43-.94,.62-.18,.19-.3,.39-.37,.63-.06,.23-.1,.54-.1,.94,0,.3,.02,.56,.06,.81,.04,.24,.09,.45,.16,.62,.07,.17,.16,.3,.27,.39,.11,.09,.23,.13,.37,.13,.21,0,.47-.09,.8-.27,.33-.18,.73-.38,1.22-.6,.49-.22,1.05-.42,1.68-.6,.64-.18,1.36-.27,2.17-.27,.62,0,1.13,.06,1.55,.19,.42,.13,.75,.33,1,.6,.25,.27,.43,.61,.54,1.01,.11,.4,.16,.88,.16,1.41v1.04h-1.67c-1.53,0-2.87,.12-4.02,.35-1.15,.23-2.12,.59-2.9,1.07-.78,.48-1.36,1.09-1.75,1.83-.39,.74-.59,1.61-.59,2.61,0,.92,.15,1.73,.46,2.43,.31,.69,.74,1.27,1.3,1.74,.56,.47,1.22,.82,1.98,1.06,.76,.24,1.6,.36,2.51,.36,1.1,0,2.11-.21,3.01-.64,.9-.42,1.71-1.01,2.41-1.77v1.37c0,.18,.05,.32,.16,.42,.11,.1,.3,.18,.56,.22,.26,.04,.68,.07,1.26,.07,.54,0,.95-.02,1.22-.07,.28-.05,.48-.12,.61-.22,.13-.1,.19-.24,.19-.42v-11.55Zm-23.06-3.05c-.18,.55-.44,1.01-.79,1.4-.35,.39-.79,.7-1.34,.91-.55,.22-1.22,.33-2.03,.33h-2.27v-8.45h2.16c.53,0,1.04,.04,1.53,.11,.49,.07,.97,.24,1.42,.51,.45,.27,.83,.69,1.14,1.25,.31,.56,.46,1.28,.46,2.16,0,.64-.09,1.24-.27,1.78Zm5.14-4.89c-.28-.81-.69-1.53-1.23-2.14-.54-.61-1.19-1.11-1.95-1.51-.76-.4-1.52-.67-2.26-.82-.74-.15-1.38-.24-1.92-.29-.53-.04-1.09-.07-1.68-.07h-5.87c-.51,0-.93,.15-1.24,.45-.31,.3-.47,.75-.47,1.36v22.4c0,.13,.04,.24,.12,.35,.08,.1,.21,.19,.4,.25,.19,.06,.45,.12,.78,.15,.33,.04,.73,.06,1.22,.06s.91-.02,1.23-.06c.32-.04,.58-.09,.77-.15,.19-.06,.33-.15,.41-.25,.08-.1,.12-.22,.12-.35v-7.95h2.08c1.64,0,3.07-.19,4.28-.58,1.21-.38,2.23-.95,3.07-1.68,.83-.74,1.47-1.65,1.91-2.72,.44-1.08,.65-2.32,.65-3.72,0-1.01-.14-1.93-.42-2.74Z"/><path class="cls-1" d="M222.56,202.45c.03-.6,.12-1.17,.28-1.7,.16-.53,.39-.99,.69-1.39,.3-.39,.68-.7,1.14-.93,.46-.23,.99-.35,1.61-.35,1.22,0,2.12,.39,2.7,1.16,.58,.78,.86,1.84,.82,3.2h-7.24Zm11.93,.62c0-1.21-.15-2.32-.46-3.35-.31-1.03-.79-1.92-1.44-2.67-.65-.75-1.49-1.34-2.51-1.76-1.02-.42-2.25-.64-3.68-.64-1.36,0-2.58,.22-3.67,.67-1.08,.45-2.01,1.1-2.76,1.95-.76,.85-1.33,1.89-1.73,3.12-.4,1.23-.6,2.6-.6,4.13,0,1.6,.19,3,.57,4.2,.38,1.19,.95,2.18,1.72,2.96,.77,.78,1.73,1.37,2.88,1.75,1.15,.38,2.49,.58,4.01,.58,.85,0,1.64-.05,2.39-.16,.74-.11,1.41-.24,1.98-.38,.58-.15,1.05-.3,1.43-.45,.37-.15,.6-.28,.68-.37l.2-.28c.05-.1,.09-.21,.12-.36,.03-.14,.04-.31,.06-.51,.01-.2,.02-.44,.02-.72,0-.32-.01-.59-.03-.8-.02-.21-.05-.37-.11-.49-.05-.12-.12-.2-.19-.24-.08-.04-.17-.07-.29-.07-.19,0-.44,.06-.75,.18-.31,.12-.7,.26-1.16,.4-.47,.15-1.02,.28-1.67,.4-.64,.12-1.39,.18-2.23,.18s-1.55-.11-2.15-.33c-.6-.22-1.08-.54-1.46-.95-.38-.42-.65-.92-.83-1.52-.17-.6-.26-1.26-.26-1.99h10.45c.46,0,.82-.14,1.09-.42,.26-.28,.39-.72,.39-1.31v-.77Zm-18.44-7.67c-.06-.1-.18-.18-.35-.24-.17-.06-.4-.11-.7-.13-.3-.03-.69-.04-1.16-.04s-.88,.02-1.18,.05c-.3,.03-.54,.08-.72,.13-.18,.06-.31,.14-.39,.25s-.14,.24-.18,.39l-3.85,12.61-.12,.48-.12-.48-3.91-12.61c-.05-.15-.12-.29-.19-.39-.08-.11-.21-.19-.39-.25-.19-.06-.44-.1-.76-.13-.32-.03-.74-.05-1.27-.05-.48,0-.87,.01-1.18,.04-.31,.03-.56,.07-.74,.13-.18,.06-.31,.14-.38,.24-.07,.1-.11,.21-.11,.34v.25c.02,.09,.04,.24,.09,.44,.04,.21,.11,.44,.18,.69l5.16,15.53c.06,.21,.15,.38,.26,.51,.11,.14,.29,.24,.53,.32s.58,.13,1.01,.16c.43,.03,.98,.05,1.66,.05s1.25-.01,1.68-.04c.43-.03,.77-.08,1.02-.15,.25-.08,.43-.18,.54-.32,.11-.13,.2-.31,.26-.53l5.16-15.53c.05-.18,.09-.34,.13-.48,.03-.14,.06-.27,.08-.38,.02-.11,.03-.21,.04-.3v-.23c.01-.13-.02-.24-.09-.34Zm-20.75-7.41c-.38-.37-1.12-.55-2.19-.55s-1.83,.19-2.22,.57c-.39,.38-.59,1.06-.59,2.03s.19,1.59,.57,1.94c.38,.36,1.11,.54,2.2,.54s1.82-.19,2.21-.56c.4-.37,.6-1.05,.6-2.02s-.19-1.59-.58-1.95Zm-12.36,7.11v-3.83c0-.13-.04-.24-.12-.35-.08-.1-.21-.19-.39-.26-.18-.07-.43-.12-.74-.15-.32-.03-.71-.05-1.18-.05s-.85,.02-1.16,.05c-.31,.03-.56,.08-.75,.15-.19,.07-.32,.16-.39,.26-.07,.1-.11,.22-.11,.35v3.83h-2.04c-.13,0-.24,.03-.34,.1-.1,.06-.18,.17-.24,.32-.06,.15-.11,.35-.14,.61-.03,.26-.05,.57-.05,.94,0,.71,.06,1.21,.19,1.51s.31,.45,.56,.45h2.06v8.8c0,1.05,.11,1.96,.33,2.73,.22,.77,.56,1.41,1.02,1.92,.46,.51,1.05,.88,1.75,1.13,.71,.24,1.54,.37,2.5,.37,.36,0,.71-.02,1.07-.06,.35-.04,.68-.09,.98-.16,.3-.07,.57-.15,.8-.25,.23-.1,.4-.21,.52-.35,.12-.14,.2-.35,.27-.64,.06-.29,.1-.72,.1-1.28,0-.36-.02-.66-.05-.89-.03-.23-.07-.41-.11-.55-.04-.13-.09-.22-.16-.27l-.22-.07c-.09,0-.19,.02-.3,.07-.11,.05-.24,.1-.4,.15-.16,.06-.34,.11-.55,.15-.21,.04-.44,.07-.69,.07-.76,0-1.28-.23-1.58-.7-.3-.47-.44-1.17-.44-2.11v-8.06h7.72v13.9c0,.13,.04,.24,.12,.34,.08,.1,.21,.18,.39,.24,.18,.06,.43,.11,.74,.15,.32,.03,.71,.05,1.18,.05s.85-.02,1.16-.05c.31-.03,.56-.08,.74-.15,.18-.06,.31-.14,.38-.24,.08-.1,.12-.21,.12-.34v-16.48c0-.44-.11-.77-.32-1-.21-.23-.59-.35-1.13-.35h-11.11Zm-9.18,14.05c-.03-.27-.06-.49-.11-.66-.04-.17-.11-.29-.18-.36-.08-.06-.17-.1-.29-.1-.17,0-.37,.1-.62,.3-.24,.2-.55,.42-.9,.66-.36,.24-.78,.47-1.26,.66-.48,.2-1.06,.3-1.72,.3s-1.23-.12-1.72-.36c-.49-.24-.9-.59-1.23-1.07-.33-.47-.57-1.06-.74-1.77-.17-.71-.25-1.52-.25-2.44,0-1.87,.33-3.29,1-4.26,.67-.97,1.63-1.45,2.89-1.45,.64,0,1.19,.09,1.65,.27,.46,.18,.86,.38,1.19,.6,.33,.22,.62,.42,.87,.6,.24,.18,.47,.27,.69,.27,.21,0,.37-.15,.5-.45,.13-.3,.19-.82,.19-1.57,0-.32,0-.59-.03-.82-.02-.22-.04-.41-.08-.57-.03-.15-.08-.28-.14-.38-.06-.1-.16-.21-.3-.36-.14-.14-.38-.31-.72-.5-.34-.19-.72-.37-1.15-.52-.43-.15-.89-.28-1.39-.37-.49-.09-1-.13-1.51-.13-1.26,0-2.41,.2-3.46,.6-1.05,.4-1.96,1.01-2.73,1.83-.77,.82-1.37,1.86-1.8,3.11-.43,1.25-.65,2.74-.65,4.46,0,1.49,.18,2.81,.53,3.97,.35,1.15,.88,2.13,1.57,2.93,.69,.8,1.55,1.41,2.57,1.82,1.02,.41,2.19,.62,3.51,.62,.59,0,1.16-.05,1.72-.15,.56-.1,1.07-.24,1.55-.4,.47-.17,.9-.36,1.27-.57,.37-.21,.64-.39,.79-.54,.15-.15,.25-.27,.3-.37,.04-.1,.08-.22,.12-.38,.03-.15,.06-.34,.08-.57,.02-.22,.03-.5,.03-.84,0-.42-.01-.77-.04-1.04Zm-17.84-13.4c0-.13-.04-.24-.12-.34-.08-.1-.21-.18-.38-.24-.18-.06-.42-.11-.73-.14-.31-.03-.7-.05-1.17-.05s-.87,.02-1.17,.05c-.31,.03-.56,.08-.74,.14-.19,.06-.31,.14-.38,.24-.07,.1-.11,.21-.11,.34v11.41c-.71,.86-1.37,1.51-1.99,1.96-.62,.45-1.24,.67-1.86,.67-.49,0-.91-.09-1.28-.28-.37-.19-.67-.45-.9-.79-.24-.34-.41-.75-.53-1.22-.12-.48-.17-1.16-.17-2.06v-9.7c0-.13-.04-.24-.12-.34-.08-.1-.21-.18-.39-.24-.19-.06-.43-.11-.74-.14-.31-.03-.7-.05-1.17-.05s-.85,.02-1.16,.05c-.31,.03-.56,.08-.75,.14-.19,.06-.31,.14-.38,.24-.07,.1-.11,.21-.11,.34v10.51c0,1.31,.11,2.4,.32,3.28,.21,.88,.56,1.65,1.06,2.32,.49,.67,1.14,1.19,1.94,1.58,.8,.38,1.79,.58,2.97,.58,1.05,0,2.07-.26,3.05-.77,.98-.51,1.95-1.28,2.9-2.31v1.98c0,.13,.03,.24,.1,.34,.06,.1,.17,.18,.33,.24,.15,.06,.36,.11,.62,.15,.26,.03,.61,.05,1.03,.05,.4,0,.73-.02,.99-.05,.26-.03,.47-.08,.64-.15,.16-.06,.27-.14,.34-.24,.06-.1,.1-.21,.1-.34v-17.17Zm-25.98,11.39c-.41,.51-.79,.95-1.14,1.3-.35,.35-.68,.64-1.01,.86-.33,.22-.65,.38-.96,.47-.31,.1-.64,.14-.97,.14-.67,0-1.22-.16-1.66-.48-.44-.32-.79-.75-1.05-1.28-.26-.53-.45-1.14-.57-1.82-.12-.68-.17-1.38-.17-2.1,0-.68,.07-1.34,.2-1.99,.13-.65,.34-1.23,.62-1.76,.27-.53,.64-.95,1.1-1.26,.46-.31,1-.47,1.63-.47,.69,0,1.36,.23,1.99,.69,.64,.46,1.3,1.13,1.99,2v5.7Zm4.81-19.48c0-.13-.04-.24-.12-.35-.08-.1-.2-.19-.38-.26-.18-.07-.42-.13-.73-.16-.31-.04-.7-.06-1.17-.06s-.87,.02-1.17,.06c-.31,.04-.56,.09-.74,.16-.19,.07-.32,.16-.39,.26-.07,.1-.11,.22-.11,.35v9.3c-.77-.76-1.55-1.33-2.33-1.72-.78-.39-1.65-.59-2.62-.59-1.22,0-2.3,.23-3.23,.69-.94,.46-1.72,1.12-2.35,1.98-.63,.86-1.11,1.9-1.43,3.12-.33,1.22-.49,2.59-.49,4.12,0,1.27,.13,2.48,.39,3.63,.26,1.15,.67,2.15,1.24,3.01,.57,.86,1.31,1.54,2.21,2.05,.9,.51,2.01,.76,3.32,.76,1.18,0,2.25-.26,3.22-.79,.97-.53,1.9-1.26,2.78-2.21v1.91c0,.14,.03,.26,.11,.36,.07,.1,.19,.18,.35,.24,.16,.06,.37,.11,.63,.13,.26,.03,.59,.04,1,.04,.38,0,.71-.01,.97-.04,.26-.03,.47-.07,.62-.13,.15-.06,.26-.15,.33-.24,.06-.1,.1-.21,.1-.36v-25.25Zm-25.37,19.12c-.17,.71-.42,1.32-.77,1.82-.35,.5-.79,.88-1.33,1.15s-1.17,.39-1.91,.39c-.8,0-1.46-.14-2-.43-.54-.29-.97-.7-1.28-1.22-.32-.53-.54-1.14-.68-1.86-.14-.71-.21-1.49-.21-2.34,0-.91,.09-1.72,.26-2.43,.17-.71,.43-1.32,.78-1.83,.35-.51,.79-.89,1.33-1.15,.54-.26,1.17-.39,1.89-.39,.81,0,1.48,.15,2.01,.44,.53,.3,.96,.71,1.28,1.23,.32,.53,.55,1.15,.68,1.86,.14,.71,.2,1.49,.2,2.34,0,.91-.08,1.72-.25,2.43Zm4.7-6.69c-.36-1.18-.91-2.18-1.65-2.98-.74-.81-1.67-1.42-2.8-1.84-1.13-.42-2.46-.63-4-.63s-2.95,.24-4.13,.71c-1.17,.48-2.15,1.15-2.93,2.01-.78,.87-1.37,1.91-1.76,3.12-.39,1.21-.59,2.55-.59,4.01s.18,2.86,.54,4.04c.36,1.18,.91,2.17,1.66,2.98,.74,.81,1.68,1.42,2.81,1.85,1.13,.42,2.46,.64,3.98,.64s2.96-.24,4.14-.71c1.18-.47,2.16-1.15,2.94-2.02,.78-.87,1.37-1.91,1.75-3.12,.38-1.21,.58-2.54,.58-4s-.18-2.88-.54-4.06Zm-19.35-3.85c-.01-.27-.03-.47-.06-.61-.03-.13-.05-.24-.09-.32l-.15-.21c-.07-.06-.18-.13-.34-.18-.15-.06-.33-.11-.54-.15-.21-.04-.4-.08-.6-.1-.19-.02-.37-.03-.54-.03-.36,0-.72,.05-1.08,.14-.36,.1-.72,.27-1.08,.51-.36,.24-.74,.57-1.14,.99-.4,.42-.82,.95-1.27,1.59v-2.14c0-.13-.03-.24-.1-.34-.06-.1-.17-.18-.32-.24-.15-.06-.36-.11-.63-.14-.27-.03-.61-.05-1.02-.05s-.73,.02-.99,.05c-.26,.03-.48,.08-.65,.14-.17,.06-.28,.14-.35,.24-.06,.1-.1,.21-.1,.34v17.17c0,.13,.04,.24,.12,.34,.08,.1,.21,.18,.39,.24,.19,.06,.43,.11,.74,.15,.31,.03,.7,.05,1.17,.05s.87-.02,1.17-.05c.31-.03,.55-.08,.74-.15,.19-.06,.32-.14,.39-.24,.08-.1,.12-.21,.12-.34v-10.7c.36-.56,.7-1.04,1.01-1.42,.31-.39,.62-.69,.9-.92,.29-.23,.57-.4,.84-.51,.27-.11,.54-.16,.81-.16,.23,0,.44,.02,.64,.07,.19,.05,.37,.09,.53,.14,.16,.05,.3,.1,.43,.14,.13,.04,.24,.07,.35,.07,.13,0,.23-.03,.32-.1,.08-.06,.15-.18,.2-.35,.05-.17,.09-.4,.12-.69,.03-.3,.04-.67,.04-1.14s0-.83-.02-1.1Zm-20.14,10.14c-.14,.66-.34,1.24-.63,1.76-.28,.52-.65,.94-1.09,1.26-.44,.32-.98,.48-1.61,.48-.67,0-1.31-.23-1.93-.7-.62-.47-1.26-1.13-1.94-1.99v-5.66c.39-.51,.75-.94,1.1-1.29,.35-.35,.68-.63,1.01-.85,.33-.22,.65-.38,.96-.47,.31-.1,.63-.14,.95-.14,.64,0,1.18,.16,1.61,.47,.43,.31,.78,.74,1.04,1.26,.26,.53,.45,1.13,.56,1.8,.11,.67,.16,1.38,.16,2.11,0,.66-.07,1.31-.2,1.96Zm4.86-5.97c-.26-1.14-.66-2.14-1.22-3-.56-.86-1.28-1.54-2.17-2.03-.89-.49-1.96-.74-3.21-.74-.6,0-1.17,.06-1.7,.19-.53,.13-1.05,.32-1.55,.59-.5,.26-.99,.59-1.47,.98-.48,.39-.97,.84-1.47,1.36v-2.02c0-.13-.03-.24-.1-.34-.06-.1-.18-.18-.34-.24-.16-.06-.37-.11-.64-.14-.26-.03-.59-.05-.97-.05s-.73,.02-.99,.05c-.26,.03-.48,.08-.64,.14-.16,.06-.27,.14-.34,.24-.06,.1-.1,.21-.1,.34v23.98c0,.13,.04,.24,.12,.35,.08,.1,.21,.19,.39,.26,.19,.07,.43,.13,.74,.16,.31,.04,.7,.06,1.17,.06s.87-.02,1.17-.06c.31-.04,.56-.09,.74-.16,.19-.07,.32-.16,.39-.26,.08-.1,.12-.22,.12-.35v-8.08c.41,.4,.81,.74,1.19,1.04,.38,.3,.77,.54,1.16,.74s.8,.35,1.21,.44c.42,.1,.88,.14,1.38,.14,1.21,0,2.28-.23,3.21-.69,.94-.46,1.72-1.12,2.35-1.98,.63-.86,1.11-1.9,1.43-3.13,.33-1.23,.49-2.6,.49-4.13,0-1.3-.13-2.51-.38-3.66Zm-32.8,2.02c.03-.6,.12-1.17,.28-1.7,.16-.53,.39-.99,.69-1.39,.3-.39,.68-.7,1.14-.93,.45-.23,.99-.35,1.61-.35,1.22,0,2.12,.39,2.7,1.16,.58,.78,.86,1.84,.82,3.2h-7.24Zm11.93,.62c0-1.21-.15-2.32-.46-3.35-.31-1.03-.79-1.92-1.44-2.67-.66-.75-1.49-1.34-2.51-1.76-1.02-.42-2.25-.64-3.69-.64-1.36,0-2.58,.22-3.67,.67-1.08,.45-2,1.1-2.76,1.95-.76,.85-1.33,1.89-1.73,3.12-.4,1.23-.6,2.6-.6,4.13,0,1.6,.19,3,.57,4.2,.38,1.19,.95,2.18,1.72,2.96,.77,.78,1.73,1.37,2.88,1.75,1.15,.38,2.49,.58,4.01,.58,.85,0,1.64-.05,2.39-.16,.74-.11,1.4-.24,1.98-.38,.58-.15,1.05-.3,1.42-.45,.37-.15,.6-.28,.68-.37l.2-.28c.05-.1,.09-.21,.12-.36,.03-.14,.04-.31,.06-.51,.01-.2,.02-.44,.02-.72,0-.32,0-.59-.03-.8-.02-.21-.05-.37-.11-.49-.05-.12-.12-.2-.19-.24-.08-.04-.17-.07-.29-.07-.19,0-.44,.06-.75,.18-.31,.12-.7,.26-1.16,.4-.47,.15-1.02,.28-1.66,.4-.64,.12-1.39,.18-2.23,.18s-1.55-.11-2.15-.33c-.6-.22-1.08-.54-1.46-.95-.38-.42-.66-.92-.83-1.52-.17-.6-.26-1.26-.26-1.99h10.45c.46,0,.82-.14,1.09-.42,.26-.28,.39-.72,.39-1.31v-.77Zm-25.5-5.58c-.18,.44-.45,.81-.81,1.13-.36,.31-.81,.56-1.35,.73-.54,.17-1.17,.26-1.89,.26h-2.58v-7.06h2.27c.58,0,1.03,.02,1.36,.06,.33,.04,.62,.09,.88,.15,.85,.23,1.46,.63,1.83,1.19,.37,.57,.56,1.26,.56,2.08,0,.54-.09,1.03-.27,1.46Zm6.7,14.91c-.06-.22-.19-.58-.39-1.07l-2.1-4.91c-.24-.59-.49-1.12-.75-1.59-.26-.47-.53-.89-.82-1.25-.29-.37-.6-.68-.92-.93-.33-.26-.68-.47-1.05-.65,.77-.24,1.46-.56,2.06-.96,.6-.4,1.11-.87,1.52-1.41,.41-.54,.72-1.15,.93-1.84,.21-.69,.32-1.45,.32-2.28,0-.99-.15-1.86-.44-2.63-.3-.76-.72-1.42-1.28-1.98-.56-.56-1.24-1.01-2.04-1.36-.8-.35-1.7-.59-2.7-.73-.35-.04-.73-.07-1.15-.1-.42-.03-.96-.04-1.62-.04h-6.45c-.42,0-.78,.12-1.07,.38-.29,.25-.43,.66-.43,1.22v22.62c0,.13,.04,.24,.12,.35,.08,.1,.21,.19,.4,.25,.19,.06,.45,.12,.78,.15,.33,.04,.73,.06,1.22,.06s.91-.02,1.23-.06c.32-.04,.58-.09,.77-.15,.19-.06,.33-.15,.41-.25,.08-.1,.13-.22,.13-.35v-9.49h1.58c.54,0,1.01,.08,1.43,.25,.41,.17,.77,.41,1.09,.74,.31,.33,.6,.73,.86,1.22,.26,.49,.52,1.05,.79,1.67l2.23,5.56c.05,.15,.12,.29,.19,.39,.08,.11,.21,.2,.39,.27,.19,.07,.44,.12,.76,.14,.32,.03,.75,.04,1.29,.04,.64,0,1.15-.01,1.52-.04,.37-.03,.66-.07,.85-.13,.19-.06,.31-.15,.37-.24,.05-.1,.08-.21,.08-.36,0-.13-.03-.31-.1-.53Z"/><path class="cls-1" d="M379.86,202.45c.03-.6,.12-1.17,.28-1.7,.16-.53,.39-.99,.69-1.39,.3-.39,.68-.7,1.13-.93,.46-.23,.99-.35,1.61-.35,1.22,0,2.12,.39,2.7,1.16,.58,.78,.86,1.84,.82,3.21h-7.24Zm11.93,.62c0-1.21-.15-2.32-.46-3.35-.31-1.03-.79-1.92-1.44-2.67-.65-.75-1.49-1.34-2.51-1.76-1.02-.42-2.25-.63-3.69-.63-1.36,0-2.58,.22-3.67,.67-1.08,.45-2.01,1.1-2.76,1.95-.76,.85-1.33,1.89-1.73,3.12-.4,1.23-.6,2.6-.6,4.13,0,1.6,.19,3,.57,4.2,.38,1.19,.95,2.18,1.72,2.96,.77,.78,1.73,1.37,2.88,1.75,1.15,.38,2.49,.58,4.01,.58,.85,0,1.64-.05,2.39-.16,.74-.11,1.41-.24,1.98-.39,.58-.15,1.05-.3,1.42-.45,.37-.15,.6-.28,.68-.37l.2-.28c.05-.1,.09-.21,.12-.36,.03-.14,.04-.31,.06-.51,.01-.2,.02-.44,.02-.72,0-.32-.01-.59-.03-.8-.02-.21-.05-.38-.11-.49-.05-.12-.12-.2-.19-.24-.08-.04-.17-.07-.29-.07-.19,0-.44,.06-.75,.18-.31,.12-.7,.26-1.16,.4-.47,.15-1.02,.28-1.67,.4-.64,.12-1.39,.18-2.23,.18s-1.55-.11-2.15-.33c-.6-.22-1.08-.54-1.46-.95-.38-.42-.65-.92-.83-1.52-.17-.6-.26-1.26-.26-1.99h10.45c.46,0,.82-.14,1.09-.42,.26-.28,.39-.72,.39-1.31v-.77Zm-20.63-.75c0-1.24-.11-2.31-.33-3.2-.22-.89-.57-1.66-1.07-2.32-.49-.66-1.14-1.18-1.94-1.57-.8-.39-1.79-.58-2.95-.58-1.07,0-2.09,.26-3.07,.77-.98,.51-1.95,1.28-2.9,2.31v-1.98c0-.13-.03-.24-.1-.34-.06-.1-.17-.18-.32-.24-.15-.06-.36-.11-.63-.14-.27-.03-.61-.05-1.02-.05s-.73,.02-.99,.05-.48,.08-.64,.14c-.17,.06-.28,.14-.35,.24-.06,.1-.1,.21-.1,.34v17.17c0,.13,.04,.24,.12,.34,.08,.1,.21,.18,.39,.24,.19,.06,.43,.11,.74,.14,.31,.03,.7,.05,1.18,.05s.87-.02,1.17-.05c.31-.03,.55-.08,.74-.14,.19-.06,.32-.14,.39-.24,.08-.1,.12-.21,.12-.34v-11.41c.68-.86,1.33-1.51,1.96-1.96,.63-.45,1.25-.67,1.87-.67,.49,0,.91,.09,1.28,.28,.37,.19,.66,.45,.9,.79,.23,.34,.41,.75,.53,1.22,.12,.48,.18,1.13,.18,1.96v9.8c0,.13,.04,.24,.12,.34,.08,.1,.2,.18,.38,.24,.18,.06,.43,.11,.74,.14,.31,.03,.71,.05,1.18,.05s.85-.02,1.16-.05c.31-.03,.56-.08,.74-.14,.18-.06,.31-.14,.39-.24,.08-.1,.12-.21,.12-.34v-10.61Zm-21.46-14.33c-.39-.37-1.12-.55-2.19-.55s-1.83,.19-2.22,.57c-.39,.38-.59,1.06-.59,2.03s.19,1.59,.57,1.94c.38,.36,1.11,.54,2.2,.54s1.82-.19,2.21-.56c.4-.37,.6-1.05,.6-2.02s-.19-1.59-.58-1.95Zm.21,7.8c0-.13-.04-.24-.12-.34-.08-.1-.21-.18-.39-.25-.19-.07-.43-.13-.74-.16-.31-.04-.7-.06-1.17-.06s-.87,.02-1.18,.06c-.31,.04-.55,.09-.74,.16-.19,.07-.32,.15-.39,.25-.08,.1-.12,.21-.12,.34v17.13c0,.13,.04,.24,.12,.34,.08,.1,.21,.18,.39,.24,.19,.06,.43,.11,.74,.14,.31,.03,.7,.05,1.18,.05s.87-.02,1.17-.05c.31-.03,.55-.08,.74-.14,.19-.06,.32-.14,.39-.24,.08-.1,.12-.21,.12-.34v-17.13Zm-8.37,13.36c-.03-.27-.06-.49-.11-.66-.05-.17-.11-.29-.18-.36-.08-.06-.17-.1-.29-.1-.17,0-.37,.1-.62,.3-.24,.2-.55,.42-.9,.66-.36,.24-.78,.47-1.26,.66-.48,.2-1.06,.3-1.72,.3s-1.23-.12-1.72-.36c-.49-.24-.9-.59-1.23-1.07-.33-.47-.57-1.06-.74-1.77-.17-.71-.25-1.52-.25-2.44,0-1.87,.33-3.29,1-4.26,.67-.97,1.63-1.45,2.89-1.45,.64,0,1.19,.09,1.65,.27,.46,.18,.86,.38,1.19,.6,.33,.22,.62,.42,.87,.6,.24,.18,.47,.27,.69,.27,.21,0,.37-.15,.5-.45,.13-.3,.19-.83,.19-1.57,0-.32-.01-.59-.03-.82-.02-.22-.04-.41-.08-.57-.03-.15-.08-.28-.13-.38-.06-.1-.16-.21-.3-.36-.14-.14-.38-.31-.72-.5-.34-.19-.72-.37-1.15-.52-.43-.15-.89-.28-1.39-.37s-1-.14-1.51-.14c-1.26,0-2.41,.2-3.46,.6-1.05,.4-1.96,1.01-2.73,1.83-.77,.82-1.37,1.86-1.8,3.11-.43,1.25-.64,2.74-.64,4.46,0,1.49,.18,2.81,.53,3.96,.35,1.16,.88,2.13,1.57,2.94,.69,.8,1.55,1.41,2.57,1.82,1.02,.41,2.19,.62,3.51,.62,.59,0,1.16-.05,1.72-.15,.56-.1,1.07-.24,1.55-.4,.47-.17,.9-.36,1.27-.57,.37-.21,.64-.39,.79-.54s.25-.27,.3-.37c.04-.1,.08-.22,.12-.38,.03-.15,.06-.34,.08-.57,.02-.22,.03-.5,.03-.84,0-.42-.01-.77-.04-1.04Zm-18.01-21.16c-.38-.37-1.12-.55-2.19-.55s-1.83,.19-2.22,.57c-.39,.38-.59,1.06-.59,2.03s.19,1.59,.57,1.94c.38,.36,1.11,.54,2.2,.54s1.82-.19,2.21-.56c.4-.37,.6-1.05,.6-2.02s-.19-1.59-.58-1.95Zm.21,7.8c0-.13-.04-.24-.12-.34-.08-.1-.21-.18-.39-.25-.19-.07-.43-.13-.74-.16-.31-.04-.7-.06-1.17-.06s-.87,.02-1.17,.06c-.31,.04-.56,.09-.74,.16-.19,.07-.32,.15-.39,.25-.08,.1-.12,.21-.12,.34v17.13c0,.13,.04,.24,.12,.34,.08,.1,.21,.18,.39,.24,.19,.06,.43,.11,.74,.14,.31,.03,.7,.05,1.17,.05s.87-.02,1.17-.05c.31-.03,.55-.08,.74-.14,.19-.06,.32-.14,.39-.24,.08-.1,.12-.21,.12-.34v-17.13Zm-14.55,11.36c-.41,.51-.79,.95-1.14,1.3-.35,.35-.68,.64-1.01,.86-.33,.22-.65,.38-.96,.47-.32,.1-.64,.14-.97,.14-.67,0-1.22-.16-1.65-.48-.44-.32-.79-.75-1.05-1.28-.26-.53-.45-1.14-.57-1.82-.12-.68-.17-1.38-.17-2.1,0-.68,.07-1.34,.2-1.99,.14-.65,.34-1.23,.62-1.76,.28-.53,.64-.95,1.1-1.26,.46-.31,1-.47,1.63-.47,.69,0,1.36,.23,1.99,.69,.64,.46,1.3,1.13,1.99,2v5.7Zm4.81-19.48c0-.13-.04-.24-.12-.35-.08-.1-.21-.19-.38-.26-.18-.07-.42-.13-.73-.16-.31-.04-.7-.06-1.18-.06s-.87,.02-1.17,.06c-.31,.04-.56,.09-.74,.16-.19,.07-.31,.16-.38,.26-.07,.1-.11,.22-.11,.35v9.3c-.77-.76-1.55-1.33-2.33-1.72-.78-.39-1.66-.59-2.62-.59-1.22,0-2.3,.23-3.23,.69-.94,.46-1.72,1.12-2.35,1.98-.63,.86-1.11,1.9-1.43,3.12-.33,1.22-.49,2.59-.49,4.12,0,1.27,.13,2.48,.38,3.63,.26,1.15,.67,2.15,1.24,3.01,.57,.86,1.31,1.54,2.21,2.05,.9,.51,2.01,.76,3.32,.76,1.18,0,2.25-.26,3.22-.79,.97-.53,1.9-1.26,2.78-2.21v1.91c0,.14,.04,.26,.11,.36,.07,.1,.19,.18,.35,.24,.16,.06,.37,.11,.62,.13,.26,.03,.59,.04,1,.04,.38,0,.71-.01,.97-.04,.26-.03,.47-.07,.63-.13,.15-.06,.26-.15,.33-.24,.06-.1,.1-.21,.1-.36v-25.25Zm-32.19,14.78c.03-.6,.12-1.17,.28-1.7,.16-.53,.39-.99,.69-1.39,.3-.39,.68-.7,1.13-.93,.46-.23,.99-.35,1.61-.35,1.22,0,2.12,.39,2.7,1.16,.58,.78,.86,1.84,.82,3.21h-7.24Zm11.93,.62c0-1.21-.15-2.32-.46-3.35-.31-1.03-.79-1.92-1.44-2.67-.65-.75-1.49-1.34-2.51-1.76-1.02-.42-2.25-.63-3.69-.63-1.36,0-2.58,.22-3.67,.67-1.08,.45-2.01,1.1-2.76,1.95-.76,.85-1.33,1.89-1.73,3.12-.4,1.23-.6,2.6-.6,4.13,0,1.6,.19,3,.57,4.2,.38,1.19,.95,2.18,1.72,2.96,.77,.78,1.73,1.37,2.88,1.75,1.15,.38,2.49,.58,4.01,.58,.85,0,1.64-.05,2.39-.16,.74-.11,1.41-.24,1.98-.39,.58-.15,1.05-.3,1.42-.45,.37-.15,.6-.28,.68-.37l.2-.28c.05-.1,.09-.21,.12-.36,.03-.14,.04-.31,.06-.51,.01-.2,.02-.44,.02-.72,0-.32-.01-.59-.03-.8-.02-.21-.05-.38-.11-.49-.05-.12-.12-.2-.19-.24-.08-.04-.17-.07-.29-.07-.19,0-.44,.06-.75,.18-.31,.12-.7,.26-1.16,.4-.47,.15-1.02,.28-1.67,.4-.64,.12-1.39,.18-2.23,.18s-1.55-.11-2.15-.33c-.6-.22-1.08-.54-1.46-.95-.38-.42-.65-.92-.83-1.52-.17-.6-.26-1.26-.26-1.99h10.45c.46,0,.82-.14,1.09-.42,.26-.28,.39-.72,.39-1.31v-.77Zm-21-12.38c0-.32-.04-.61-.13-.86-.08-.25-.2-.46-.37-.63-.16-.17-.37-.3-.62-.39-.25-.09-.55-.13-.89-.13h-3.41c-.47,0-.89,.05-1.25,.14s-.67,.26-.93,.49c-.26,.23-.49,.53-.69,.9-.2,.37-.38,.83-.55,1.37l-5.58,14.8h-.08l-5.39-14.84c-.15-.54-.33-.99-.54-1.36-.2-.37-.46-.66-.77-.89-.31-.22-.67-.38-1.1-.48-.42-.1-.93-.14-1.52-.14h-3.31c-.58,0-1.04,.17-1.39,.52-.35,.35-.52,.85-.52,1.5v22.19c0,.13,.04,.24,.11,.35,.07,.1,.2,.19,.39,.25,.19,.06,.43,.12,.74,.15,.31,.04,.69,.06,1.15,.06s.86-.02,1.16-.06c.3-.04,.55-.09,.74-.15,.19-.06,.32-.15,.39-.25,.07-.1,.11-.22,.11-.35v-20.27h.04l6.97,20.25c.04,.14,.12,.26,.23,.37,.12,.1,.27,.19,.47,.26,.2,.07,.45,.12,.76,.15,.31,.03,.68,.05,1.12,.05s.81,0,1.12-.03c.31-.02,.56-.06,.76-.13,.2-.06,.36-.15,.47-.26,.12-.11,.2-.25,.25-.41l7.22-20.25h.04v20.27c0,.13,.04,.24,.12,.35,.08,.1,.2,.19,.38,.25,.18,.06,.42,.12,.73,.15,.31,.04,.69,.06,1.15,.06s.87-.02,1.17-.06c.31-.04,.56-.09,.74-.15,.19-.06,.31-.15,.39-.25,.07-.1,.11-.22,.11-.35v-22.19Z"/><path class="cls-1" d="M297.19,150.08c-.01-.27-.03-.47-.06-.61-.03-.13-.05-.24-.09-.32l-.15-.21c-.07-.06-.18-.13-.34-.18-.15-.06-.33-.11-.54-.15-.2-.04-.4-.08-.6-.1-.19-.02-.37-.03-.54-.03-.36,0-.72,.05-1.08,.14-.36,.1-.72,.27-1.08,.51-.36,.24-.74,.57-1.14,.99-.4,.42-.82,.95-1.27,1.59v-2.14c0-.13-.03-.24-.1-.34-.06-.1-.17-.18-.32-.24-.15-.06-.36-.11-.62-.14-.27-.03-.61-.05-1.02-.05s-.73,.02-.99,.05c-.26,.03-.48,.08-.64,.14-.17,.06-.28,.14-.35,.24-.06,.1-.1,.21-.1,.34v17.17c0,.13,.04,.24,.12,.34,.08,.1,.21,.18,.39,.24,.19,.06,.43,.11,.74,.15,.31,.03,.7,.05,1.17,.05s.87-.02,1.17-.05c.31-.03,.55-.08,.74-.15,.19-.06,.32-.14,.39-.24,.08-.1,.12-.21,.12-.34v-10.7c.36-.56,.7-1.04,1.01-1.42,.31-.39,.62-.69,.9-.92,.29-.23,.57-.4,.84-.51,.27-.11,.54-.16,.81-.16,.23,0,.44,.02,.64,.07,.19,.05,.37,.09,.53,.14,.16,.05,.31,.1,.43,.14,.13,.04,.24,.07,.35,.07,.13,0,.23-.03,.32-.1,.08-.06,.15-.18,.2-.35,.05-.17,.09-.4,.12-.69,.03-.3,.04-.67,.04-1.14s0-.83-.02-1.1Zm-20.09,10.54c-.17,.71-.42,1.32-.77,1.82-.35,.5-.79,.88-1.33,1.15-.54,.26-1.17,.39-1.91,.39-.79,0-1.46-.14-2-.43-.54-.29-.97-.7-1.28-1.22-.31-.53-.54-1.14-.68-1.86-.14-.71-.21-1.49-.21-2.34,0-.91,.09-1.72,.26-2.43,.17-.71,.43-1.32,.78-1.83,.35-.51,.79-.89,1.33-1.15,.54-.26,1.17-.39,1.89-.39,.81,0,1.48,.15,2.01,.44,.53,.3,.96,.71,1.28,1.23,.32,.53,.55,1.15,.68,1.86,.13,.71,.2,1.49,.2,2.34,0,.91-.08,1.72-.25,2.43Zm4.7-6.69c-.36-1.18-.91-2.18-1.65-2.98-.74-.81-1.67-1.42-2.8-1.84-1.13-.42-2.46-.63-4-.63s-2.95,.24-4.13,.71c-1.17,.48-2.15,1.15-2.93,2.01-.78,.87-1.37,1.91-1.76,3.12-.39,1.21-.59,2.55-.59,4.01s.18,2.86,.54,4.04c.36,1.18,.91,2.17,1.66,2.98,.74,.81,1.68,1.42,2.81,1.85,1.13,.42,2.46,.64,3.98,.64s2.96-.24,4.14-.71c1.18-.47,2.16-1.15,2.94-2.02,.78-.87,1.37-1.91,1.75-3.12,.38-1.21,.58-2.54,.58-4s-.18-2.88-.54-4.06Zm-18.38-11.83c-.03-.25-.07-.46-.12-.62-.06-.16-.13-.28-.22-.37-.09-.08-.26-.17-.52-.27-.26-.1-.61-.19-1.06-.27-.45-.08-.92-.12-1.42-.12-1.04,0-1.94,.15-2.7,.44-.76,.3-1.39,.73-1.89,1.32-.5,.58-.86,1.32-1.09,2.19-.23,.88-.35,1.9-.35,3.07v1.44h-2.14c-.13,0-.24,.03-.34,.1-.1,.06-.17,.17-.23,.32-.06,.15-.1,.35-.14,.61-.03,.26-.05,.57-.05,.94,0,.71,.06,1.21,.18,1.51,.12,.3,.3,.45,.55,.45h2.16v13.9c0,.13,.03,.24,.11,.34,.07,.1,.2,.18,.39,.24,.19,.06,.44,.11,.75,.15,.31,.03,.7,.05,1.16,.05s.85-.02,1.17-.05c.32-.03,.57-.08,.75-.15,.18-.06,.31-.14,.38-.24,.08-.1,.12-.21,.12-.34v-13.9h3.14c.24,0,.43-.15,.56-.45,.13-.3,.19-.81,.19-1.51,0-.37-.02-.69-.05-.94-.03-.26-.08-.46-.14-.61-.06-.15-.14-.25-.24-.32-.1-.06-.2-.1-.32-.1h-3.14v-1.58c0-.55,.04-1.02,.12-1.4,.08-.38,.2-.69,.37-.92,.17-.24,.37-.41,.62-.52,.25-.11,.55-.16,.9-.16,.3,0,.55,.02,.77,.07,.22,.04,.41,.09,.57,.14,.16,.05,.3,.1,.4,.14,.11,.05,.21,.07,.3,.07l.21-.07c.06-.04,.12-.13,.17-.25,.05-.12,.09-.3,.12-.52,.03-.22,.04-.52,.04-.9s-.01-.68-.04-.93Z"/></g></svg>