<svg id="Layer_1" data-name="Layer 1" xmlns="http://www.w3.org/2000/svg" viewBox="0 0 342.79 302.98"><defs><style>.cls-1{fill:#221f1f;}</style></defs><title>PFC_Stacked_Black</title><polygon class="cls-1" points="46.32 296.81 46.32 282.47 40.89 282.47 40.89 280.83 53.49 280.83 53.49 282.47 48.05 282.47 48.05 296.81 46.32 296.81 46.32 296.81"/><path class="cls-1" d="M65.28,289.31v7.5H63.62v-7.09c0-2.1-1.26-3.06-2.61-3.06-1.68,0-3.52,1.48-3.52,4.3v5.85H55.83v-16h1.66v6.56A4.23,4.23,0,0,1,61.34,285c2,0,3.94,1.39,3.94,4.31Z"/><path class="cls-1" d="M76.72,290.26c0-2.56-1.7-3.65-3.33-3.65a3.58,3.58,0,0,0-3.55,3.65Zm1.56,4.39a5.93,5.93,0,0,1-4.73,2.43c-2.92,0-5.46-2.18-5.46-6.05s2.68-6,5.53-6c3.21,0,4.85,2.6,4.85,5.54a9,9,0,0,1-.09,1.31H69.91a3.66,3.66,0,0,0,3.8,3.61,4,4,0,0,0,3.48-1.88l1.09,1.07Z"/><path class="cls-1" d="M90.22,288.06c2.28,0,3.22-1.45,3.22-2.88s-.86-2.71-3.06-2.71H87.44v5.59Zm.28-7.23c3.22,0,4.67,2.18,4.67,4.32a4.54,4.54,0,0,1-4.86,4.57H87.44v7.09H85.72v-16Z"/><path class="cls-1" d="M103.69,285.47l-.37,1.69a3.31,3.31,0,0,0-1.33-.31c-1.52,0-2.59,1.17-2.59,3.26v6.7H97.74V285.29H99.4v1.56a2.93,2.93,0,0,1,2.73-1.7,3.57,3.57,0,0,1,1.56.32Z"/><path class="cls-1" d="M113.26,290.26c0-2.56-1.7-3.65-3.33-3.65a3.58,3.58,0,0,0-3.55,3.65Zm1.57,4.39a6,6,0,0,1-4.74,2.43c-2.92,0-5.46-2.18-5.46-6.05s2.68-6,5.53-6c3.22,0,4.85,2.6,4.85,5.54a9,9,0,0,1-.09,1.31h-8.47a3.66,3.66,0,0,0,3.8,3.61,4,4,0,0,0,3.48-1.88l1.1,1.07Z"/><path class="cls-1" d="M122.7,296.57a3.9,3.9,0,0,1-1.9.49c-1.51,0-3-.95-3-3.5V280.83h1.66v12.75c0,1.44.72,2,1.59,2a2.66,2.66,0,0,0,1-.24l.59,1.26Z"/><path class="cls-1" d="M131.85,296.81v-2.06a4,4,0,0,1-3.66,2.31,3.94,3.94,0,0,1-4-4.3v-7.47h1.66v7c0,2.15,1.23,3.09,2.56,3.09,1.63,0,3.41-1.46,3.41-4.28v-5.86h1.65v11.52Z"/><path class="cls-1" d="M145.69,291.13c0-3-2-4.49-3.94-4.49S138,288,138,290.93s2.05,4.48,4,4.48,3.73-1.44,3.73-4.28Zm0,5.68v-1.7a4.59,4.59,0,0,1-3.8,1.92c-2.76,0-5.58-2.06-5.58-6.07s2.87-6,5.56-6a4.67,4.67,0,0,1,3.82,2v-6.17h1.66v16Z"/><path class="cls-1" d="M158.79,290.26a3.32,3.32,0,0,0-3.34-3.65,3.58,3.58,0,0,0-3.54,3.65Zm1.57,4.39a6,6,0,0,1-4.74,2.43c-2.92,0-5.46-2.18-5.46-6.05s2.68-6,5.53-6c3.22,0,4.86,2.6,4.86,5.54a9.13,9.13,0,0,1-.1,1.31H152a3.66,3.66,0,0,0,3.8,3.61,4,4,0,0,0,3.48-1.88l1.1,1.07Z"/><polygon class="cls-1" points="169.51 280.83 178.33 293.54 178.33 280.83 180.06 280.83 180.06 296.81 178.33 296.81 169.51 283.96 169.51 296.81 167.78 296.81 167.78 280.83 169.51 280.83 169.51 280.83"/><path class="cls-1" d="M191.73,290.26c0-2.56-1.69-3.65-3.33-3.65a3.59,3.59,0,0,0-3.55,3.65Zm1.57,4.39a6,6,0,0,1-4.74,2.43c-2.91,0-5.46-2.18-5.46-6.05s2.69-6,5.54-6c3.21,0,4.85,2.6,4.85,5.54a9.13,9.13,0,0,1-.1,1.31h-8.46a3.65,3.65,0,0,0,3.79,3.61,4,4,0,0,0,3.48-1.88l1.1,1.07Z"/><path class="cls-1" d="M202.57,296.06a3.49,3.49,0,0,1-2.44,1c-1.62,0-3.14-1-3.14-3.5V286.9H194.9v-1.61H197v-2.93h1.66v2.93h2.75v1.61h-2.75v6.68c0,1.34.68,2,1.59,2a2.44,2.44,0,0,0,1.56-.63l.77,1.14Z"/><polygon class="cls-1" points="215.86 296.81 212.73 287.56 209.58 296.81 207.8 296.81 203.74 285.29 205.63 285.29 208.69 294.44 211.77 285.29 213.66 285.29 216.74 294.44 219.8 285.29 221.69 285.29 217.63 296.81 215.86 296.81 215.86 296.81"/><path class="cls-1" d="M224.52,291c0,2.58,1.66,4.46,4,4.46s4-1.88,4-4.46-1.66-4.41-4-4.41-4,1.87-4,4.41Zm9.64,0c0,3.46-2.38,6-5.65,6s-5.64-2.57-5.64-6,2.38-6,5.64-6,5.65,2.58,5.65,6Z"/><path class="cls-1" d="M242.92,285.47l-.37,1.69a3.31,3.31,0,0,0-1.33-.31c-1.52,0-2.59,1.17-2.59,3.26v6.7H237V285.29h1.66v1.56a2.93,2.93,0,0,1,2.73-1.7,3.6,3.6,0,0,1,1.56.32Z"/><polygon class="cls-1" points="246.68 296.81 245.02 296.81 245.02 280.83 246.68 280.83 246.68 290.45 251.77 285.29 254.03 285.29 248.53 290.79 254.73 296.81 252.26 296.81 246.68 291.27 246.68 296.81 246.68 296.81"/><path class="cls-1" d="M255.1,283.62a2.25,2.25,0,1,1,2.25,2.25A2.25,2.25,0,0,1,255.1,283.62Zm4.13,0a1.89,1.89,0,1,0-1.88,1.89A1.82,1.82,0,0,0,259.23,283.62Zm-2.4,1.27h-.32v-2.57h1.1c.67,0,.9.25.9.71s-.35.69-.8.72l.77,1.14h-.37l-.73-1.14h-.55Zm.46-1.44c.36,0,.86.06.86-.42s-.3-.41-.61-.41h-.71v.83Z"/><path class="cls-1" d="M45.59,146.75V107.06h9.95c7.64-.17,16.22,1.76,16.22,11.22s-8.58,11.38-16.22,11.21H49.17v17.26Zm3.58-20.56h8.68c5.33,0,10.06-1.7,10.06-7.91s-4.73-7.92-10.06-7.92H49.17Z"/><path class="cls-1" d="M89.57,127.29c-.33-4.51-2.64-5.94-6.54-5.94-3.46,0-6.32,1.05-6.76,4.79H72.75c.82-5.67,5.06-7.81,10.33-7.81,6.11,0,9.9,2.8,9.79,9.13v13.08c-.05,2.15.17,4.35.28,6.21H89.74l-.11-4.06h-.11l-.17.38c-1.21,2.31-4.89,4.51-8.63,4.51-5.11,0-9.18-3.14-9.18-8.52a8.5,8.5,0,0,1,5.55-8c3.68-1.6,8.47-1.05,12.48-1.27Zm-8.25,17.27c7.21,0,8.58-5.94,8.25-11.71-4.67.16-14.46-.72-14.46,6.21C75.11,142.8,78,144.56,81.32,144.56Z"/><path class="cls-1" d="M116.85,127.62c-.28-4.23-3-6.27-7.53-6.27-5.06,0-8.2,5.28-8.2,11.55s3.14,11.66,8.2,11.66c4.28,0,7.25-2.64,7.53-6.44h3.57c-.88,6.32-4.51,9.46-10.77,9.46-8.25,0-12.1-7.09-12.1-14.63s4.12-14.62,12.32-14.62c5.66,0,10.28,3.41,10.55,9.29Z"/><path class="cls-1" d="M128.81,111.18H125v-4.12h3.85Zm-.27,8v27.6h-3.3v-27.6Z"/><path class="cls-1" d="M138.69,146.75V122.18h-5.56v-3h5.56v-5.88c0-4.73,1.92-6.87,6.65-6.87a15.06,15.06,0,0,1,3.13.6v2.64a12.6,12.6,0,0,0-2-.22c-4.51,0-4.62,2.26-4.45,6.22v3.51h6.26v3H142v24.57Zm18.56-35.57H153.4v-4.12h3.85Zm-.28,8v27.6h-3.29v-27.6Z"/><path class="cls-1" d="M182,127.62c-.27-4.23-3-6.27-7.53-6.27-5.06,0-8.19,5.28-8.19,11.55s3.13,11.66,8.19,11.66c4.29,0,7.26-2.64,7.53-6.44h3.58c-.88,6.32-4.51,9.46-10.78,9.46-8.25,0-12.1-7.09-12.1-14.63s4.13-14.62,12.32-14.62c5.66,0,10.28,3.41,10.56,9.29Z"/><path class="cls-1" d="M45.32,203.05v-39.7H67.75v3.3H48.89v14h18.2V184H48.89v19.08Z"/><path class="cls-1" d="M72.83,190c.12,5.88,2.81,10.83,9.57,10.83a8.21,8.21,0,0,0,8-6.6h3.47c-1.71,6.6-5.83,9.62-12.48,9.62-8.25,0-12.1-7.09-12.1-14.62s4.12-14.63,12.32-14.63c9.23,0,12.59,6.77,12.59,15.4Zm17.76-3c-.38-5.34-3.24-9.35-9-9.35-5.39,0-8.25,4.51-8.68,9.35Z"/><path class="cls-1" d="M101.37,203.05h-3.3V181.66c.05-2.14-.17-4.34-.28-6.21h3.41l.17,4.07h.11a7.1,7.1,0,0,1,6.21-4.9c1.1-.05,2.2,0,3.3.06v3.19c-.66-.06-1.38-.22-2-.22-4.89,0-7.47,3.52-7.58,8.8Z"/><path class="cls-1" d="M119.45,178.47H114v-3h5.49v-5.88l3.3-1.43v7.31H129v3h-6.27V197c0,2.53,1.27,3.9,3.8,3.9a9.55,9.55,0,0,0,2.86-.33v2.86a14.06,14.06,0,0,1-3.36.49c-7,0-6.6-4.45-6.6-8.19Z"/><path class="cls-1" d="M137.87,167.48H134v-4.13h3.85Zm-.27,8v27.6h-3.3v-27.6Z"/><path class="cls-1" d="M148.7,203.05h-3.3v-39.7h3.3Z"/><path class="cls-1" d="M159.81,167.48H156v-4.13h3.85Zm-.28,8v27.6h-3.3v-27.6Z"/><path class="cls-1" d="M169.23,178.47h-5.49v-3h5.49v-5.88l3.3-1.43v7.31h6.27v3h-6.27V197c-.05,2.53,1.27,3.9,3.79,3.9a9.55,9.55,0,0,0,2.86-.33v2.86a13.9,13.9,0,0,1-3.35.49c-7,0-6.6-4.45-6.6-8.19Z"/><path class="cls-1" d="M185.17,175.45l9.3,23.09,9.23-23.09h3.58l-15.23,38.16h-3.63l4.18-10.56-11.44-27.6Z"/><path class="cls-1" d="M177.46,259.3h-3.29V237.91c.05-2.14-.17-4.34-.28-6.21h3.41l.16,4.07h.12a7.1,7.1,0,0,1,6.21-4.89c1.1-.06,2.2,0,3.3.05v3.19c-.66-.05-1.38-.22-2-.22-4.89,0-7.47,3.52-7.59,8.8Z"/><path class="cls-1" d="M77.3,246.26c.11,5.88,2.81,10.83,9.57,10.83a8.21,8.21,0,0,0,8-6.6H98.3c-1.7,6.6-5.82,9.62-12.48,9.62-8.24,0-12.09-7.09-12.09-14.62S77.85,230.86,86,230.86c9.24,0,12.59,6.77,12.59,15.4Zm17.76-3c-.38-5.34-3.24-9.35-9-9.35-5.39,0-8.25,4.51-8.69,9.35Z"/><path class="cls-1" d="M148.06,246.26c.11,5.88,2.81,10.83,9.57,10.83a8.21,8.21,0,0,0,8-6.6h3.46c-1.7,6.6-5.82,9.62-12.48,9.62-8.24,0-12.09-7.09-12.09-14.62s4.12-14.63,12.31-14.63c9.24,0,12.59,6.77,12.59,15.4Zm17.76-3c-.38-5.34-3.24-9.35-9-9.35-5.39,0-8.25,4.51-8.69,9.35Z"/><path class="cls-1" d="M132.37,234.71h-5.5v-3h5.5v-5.88l3.3-1.43v7.31h6.27v3h-6.27v18.48c-.06,2.53,1.26,3.9,3.79,3.9a9.55,9.55,0,0,0,2.86-.33v2.86a13.9,13.9,0,0,1-3.35.49c-7,0-6.6-4.45-6.6-8.19Z"/><path class="cls-1" d="M67.2,228.89c-.66-4.84-4.84-6.82-9.34-6.82-10.18,0-13.25,9.23-13.25,17.37s3.07,17.38,13.25,17.38c4.39,0,8.79-2.2,9.78-7.15h3.85c-1.15,6.65-7.26,10.44-13.63,10.44-12,0-17.1-9.67-17.1-20.67s5.11-20.67,17.1-20.67c6.48,0,12.64,3,13.19,10.12Z"/><path class="cls-1" d="M105.72,259.29h-3.3V237.9c0-2.14-.17-4.34-.28-6.21h3.41l.17,4.07.11.11a9.49,9.49,0,0,1,8.63-5c9,0,9.73,8,9.73,11.17v17.26h-3.3V241.48c0-4.79-2.75-7.59-7.26-7.59-5.44,0-7.91,4.56-7.91,9.51Z"/><path class="cls-1" d="M63,73.31A12.14,12.14,0,1,1,75.16,61.17,12.13,12.13,0,0,1,63,73.31m0-36.42A24.28,24.28,0,1,0,87.3,61.17,24.28,24.28,0,0,0,63,36.89"/><path class="cls-1" d="M92,25.19c-.19-.07-14.07-5.77-24.85-15.8l-.07-.06-.25-.22-.22-.17-.27-.19L66.1,8.6l-.27-.15-.26-.13-.27-.11L65,8.1,64.75,8l-.29-.09-.27,0-.31-.06-.27,0-.3,0h-.58l-.3,0-.28,0-.3.06-.27,0-.3.09L61,8.1l-.28.11-.27.11-.25.13-.28.15-.23.15-.28.19-.21.17a2.75,2.75,0,0,0-.26.22l-.07.06C48.11,19.42,34.22,25.12,34,25.19l4.8,11.16A107,107,0,0,0,63,21.85,107,107,0,0,0,87.2,36.35Z"/><path class="cls-1" d="M92.7,33.76a3.16,3.16,0,1,1,3.17,3.17A3.16,3.16,0,0,1,92.7,33.76Zm5.81,0a2.66,2.66,0,1,0-2.64,2.66A2.55,2.55,0,0,0,98.51,33.76Zm-3.37,1.79h-.46V31.94h1.56c.94,0,1.25.35,1.25,1s-.48,1-1.11,1l1.07,1.6h-.52l-1-1.6h-.78Zm.64-2c.51,0,1.21.08,1.21-.6,0-.5-.42-.57-.86-.57h-1v1.17Z"/></svg>