<svg id="Layer_1" data-name="Layer 1" xmlns="http://www.w3.org/2000/svg" viewBox="0 0 342.79 302.98"><defs><style>.cls-1{fill:#221f1f;}</style></defs><title>RBA_Stacked_Black</title><path class="cls-1" d="M40,148.64H36.53V110.12H49.12c3.37,0,6.14.21,9.08,2,2.66,1.6,3.94,4.38,3.94,8.06,0,4.16-2.93,7.15-7.41,8.27v.11c4.91.8,6,4.11,6.45,8.59.7,6.24.48,9.12,2,11.47h-4a31.16,31.16,0,0,1-1.34-8c-.8-8.81-1.33-10.35-8.32-10.35H40Zm7.42-21.56c4.91,0,11-.32,11-6.88,0-7.42-6.94-6.88-10.62-6.88H40v13.76Z"/><path class="cls-1" d="M68.94,136c.11,5.71,2.72,10.51,9.28,10.51A8,8,0,0,0,86,140.1h3.36c-1.65,6.41-5.65,9.34-12.11,9.34-8,0-11.74-6.88-11.74-14.19s4-14.2,12-14.2c9,0,12.22,6.57,12.22,15Zm17.23-2.94C85.8,127.89,83,124,77.48,124c-5.23,0-8,4.37-8.43,9.07Z"/><path class="cls-1" d="M97.27,158.89h-3.2v-31c.05-2.09-.16-4.22-.27-6h3.31l.16,3.94.11.11a10.71,10.71,0,0,1,9.18-4.86c8,0,11,7.15,11,14.09,0,6.73-3,14.3-10.83,14.3a11,11,0,0,1-9.34-5h-.11Zm9.13-12.38c6.13,0,7.68-6.78,7.68-11.74,0-5.12-2.08-10.78-8.16-10.78-6.25,0-8.65,5.18-8.65,10.62C97.27,140.69,99.41,146.51,106.4,146.51Z"/><path class="cls-1" d="M125.39,148.64h-3.2V127.89c0-2.09-.16-4.22-.27-6h3.31l.16,3.94h.11a6.9,6.9,0,0,1,6-4.75,31.07,31.07,0,0,1,3.2.06v3.09c-.64,0-1.33-.21-2-.21-4.75,0-7.26,3.41-7.37,8.54Z"/><path class="cls-1" d="M160.47,135.25c0,7-3.95,14.19-12.49,14.19s-12.48-7.15-12.48-14.19,3.95-14.2,12.48-14.2S160.47,128.2,160.47,135.25ZM148,124c-6.45,0-9,6.3-9,11.26s2.56,11.26,9,11.26,9-6.3,9-11.26S154.44,124,148,124Z"/><path class="cls-1" d="M184.11,144.69l-.11-.21a10.88,10.88,0,0,1-9.18,5c-7.95,0-11-7.57-11-14.3,0-6.94,3-14.09,11-14.09a10.71,10.71,0,0,1,9.18,4.86l.11-.11V110.12h3.2v32.49c0,2.08.16,4.22.27,6h-3.31ZM175.36,124c-6.09,0-8.06,5.66-8.06,10.78,0,5,1.44,11.74,7.58,11.74,7,0,9.12-5.82,9.12-11.9C184,129.17,181.6,124,175.36,124Z"/><path class="cls-1" d="M210.36,121.86h3.2v20.75c0,2.08.16,4.22.27,6h-3.31l-.16-3.95-.1-.1a9.23,9.23,0,0,1-8.38,4.85c-8.75,0-9.45-7.73-9.45-10.83V121.86h3.21v17.28c0,4.65,2.66,7.37,7,7.37,5.28,0,7.68-4.43,7.68-9.23Z"/><path class="cls-1" d="M236.35,130.07C236.08,126,233.47,124,229,124c-4.91,0-7.95,5.12-7.95,11.2s3,11.32,7.95,11.32c4.16,0,7-2.56,7.31-6.25h3.47c-.86,6.14-4.38,9.18-10.46,9.18-8,0-11.74-6.88-11.74-14.19s4-14.2,11.95-14.2c5.5,0,10,3.31,10.25,9Z"/><path class="cls-1" d="M246.59,124.79h-5.33v-2.93h5.33v-5.71l3.2-1.39v7.1h6.09v2.93h-6.09v17.93c0,2.45,1.23,3.79,3.69,3.79a9.61,9.61,0,0,0,2.77-.32V149a13.16,13.16,0,0,1-3.25.48c-6.78,0-6.41-4.32-6.41-7.95Z"/><path class="cls-1" d="M264.32,114.12h-3.73v-4h3.73Zm-.27,7.74v26.78h-3.2V121.86Z"/><path class="cls-1" d="M270.69,121.86l9.23,22.35,8.91-22.35h3.52l-10.62,26.78H278.1l-10.93-26.78Z"/><path class="cls-1" d="M296.33,136c.11,5.71,2.72,10.51,9.28,10.51a8,8,0,0,0,7.74-6.41h3.36c-1.65,6.41-5.65,9.34-12.11,9.34-8,0-11.74-6.88-11.74-14.19s4-14.2,11.95-14.2c9,0,12.22,6.57,12.22,15Zm17.23-2.94c-.37-5.17-3.14-9.07-8.69-9.07-5.23,0-8,4.37-8.43,9.07Z"/><path class="cls-1" d="M36.37,202.63V164.11l13.82,0c5.71,0,10.73,3.47,10.73,9.6a9.06,9.06,0,0,1-7.15,8.7v.11c5.23.85,8.75,4.27,8.75,9.76,0,5.07-3.1,10.3-11.48,10.3Zm11.85-21.56c4.48,0,9-1.76,9-7,0-5.6-4.59-6.72-9.12-6.77H39.84v13.76Zm-8.38,18.36h8.48c6.62.11,10.46-1.65,10.46-7.58,0-6.56-5.28-7.57-12.54-7.57h-6.4Z"/><path class="cls-1" d="M69.72,168.16H66v-4h3.73Zm-.26,7.74v26.78h-3.2V175.9Z"/><path class="cls-1" d="M99,189.29c0,7-4,14.19-12.49,14.19S74,196.33,74,189.29s3.95-14.2,12.49-14.2S99,182.24,99,189.29ZM86.53,178c-6.46,0-9,6.3-9,11.26s2.56,11.26,9,11.26,9-6.3,9-11.26S93,178,86.53,178Z"/><path class="cls-1" d="M106.75,202.68h-3.2V164.16h3.2Z"/><path class="cls-1" d="M135.73,189.29c0,7-3.95,14.19-12.49,14.19s-12.49-7.15-12.49-14.19,4-14.2,12.49-14.2S135.73,182.24,135.73,189.29ZM123.24,178c-6.46,0-9,6.3-9,11.26s2.56,11.26,9,11.26,9-6.3,9-11.26S129.7,178,123.24,178Z"/><path class="cls-1" d="M158.83,175.9h3.31c-.11,1.81-.27,3.94-.27,6V198c0,5.33.27,10.93-5.66,13.71a12.23,12.23,0,0,1-6.08,1.23c-4.85,0-10.62-1.66-10.62-7.21H143c.38,3.2,4.16,4.27,7.58,4.27,4.16,0,8-2.93,8.11-7.41v-5h-.11c-1.54,3.15-5.23,5-8.7,5-8.05,0-11.52-6.14-11.52-13.51s3.25-14,11.42-14c3.89,0,6.67,1.87,8.8,5l.11-.22ZM150.08,178c-5.82,0-8.27,5.87-8.27,10.78s2.51,10.83,8.38,10.83c6.13,0,8.48-5.71,8.48-10.94S155.84,178,150.08,178Z"/><path class="cls-1" d="M167.85,175.9l9,22.41,9-22.41h3.47l-14.78,37H171l4.06-10.25L164,175.9Z"/><path class="cls-1" d="M31.55,256.93l15.26-38.52h3.26l16.16,38.52H62.44l-4.11-10.4H38.38l-4.05,10.4Zm25.56-13.6-8.33-21.72L40.3,243.33Z"/><path class="cls-1" d="M78.07,229.35c5.07,0,9.33,1.76,9.76,7.41H84.36c-.32-3.36-3.3-4.48-6.61-4.48-3,0-6,1.18-6,4.32,0,4,5.17,3.58,12.43,6.14A6.51,6.51,0,0,1,88.69,249c0,6-5.61,8.76-11.26,8.76-4.65,0-10-2.19-10.09-8.12h3.47c.27,4,3.79,5.18,7.42,5.18,3.41,0,7-1.6,7-5.34S81,245,76.73,244s-8.48-2.24-8.48-7.2C68.25,231.27,73.37,229.35,78.07,229.35Z"/><path class="cls-1" d="M103,229.35c5.06,0,9.33,1.76,9.76,7.41h-3.47c-.32-3.36-3.31-4.48-6.61-4.48-3,0-6,1.18-6,4.32,0,4,5.17,3.58,12.43,6.14a6.51,6.51,0,0,1,4.53,6.24c0,6-5.6,8.76-11.25,8.76-4.65,0-10-2.19-10.09-8.12H95.7c.27,4,3.79,5.18,7.42,5.18,3.41,0,7-1.6,7-5.34s-4.22-4.48-8.49-5.44-8.48-2.24-8.48-7.2C93.14,231.27,98.26,229.35,103,229.35Z"/><path class="cls-1" d="M141.84,243.54c0,7.05-4,14.2-12.48,14.2s-12.49-7.15-12.49-14.2,3.95-14.19,12.49-14.19S141.84,236.5,141.84,243.54Zm-12.48-11.26c-6.46,0-9,6.3-9,11.26s2.56,11.26,9,11.26,9-6.3,9-11.26S135.81,232.28,129.36,232.28Z"/><path class="cls-1" d="M163.29,238.37c-.27-4.11-2.88-6.09-7.31-6.09-4.91,0-7.95,5.13-7.95,11.21s3,11.31,7.95,11.31c4.16,0,7-2.56,7.31-6.24h3.47c-.85,6.13-4.37,9.18-10.46,9.18-8,0-11.74-6.89-11.74-14.2s4-14.19,12-14.19c5.49,0,10,3.31,10.24,9Z"/><path class="cls-1" d="M174.66,222.41h-3.73v-4h3.73Zm-.26,7.74v26.78h-3.21V230.15Z"/><path class="cls-1" d="M196.06,238.05c-.32-4.38-2.56-5.77-6.35-5.77-3.36,0-6.14,1-6.56,4.65h-3.42c.8-5.5,4.91-7.58,10-7.58,5.92,0,9.61,2.72,9.5,8.86v12.7c0,2.08.16,4.21.27,6h-3.31l-.11-3.94H196l-.16.37c-1.18,2.24-4.75,4.38-8.38,4.38-5,0-8.91-3.05-8.91-8.28a8.25,8.25,0,0,1,5.39-7.73c3.57-1.55,8.21-1,12.11-1.23Zm-8,16.75c7,0,8.33-5.76,8-11.37-4.54.16-14-.69-14,6C182,253.09,184.8,254.8,188.05,254.8Z"/><path class="cls-1" d="M220.93,244.29c.11,5.71,2.72,10.51,9.29,10.51a8,8,0,0,0,7.73-6.4h3.36c-1.65,6.4-5.65,9.34-12.11,9.34-8,0-11.74-6.89-11.74-14.2s4-14.19,12-14.19c9,0,12.21,6.56,12.21,14.94Zm17.24-2.94c-.38-5.17-3.15-9.07-8.7-9.07-5.23,0-8,4.38-8.43,9.07Z"/><path class="cls-1" d="M255.56,229.35c5.07,0,9.34,1.76,9.77,7.41h-3.47c-.32-3.36-3.31-4.48-6.62-4.48-3,0-6,1.18-6,4.32,0,4,5.18,3.58,12.43,6.14a6.51,6.51,0,0,1,4.54,6.24c0,6-5.6,8.76-11.26,8.76-4.64,0-10-2.19-10.08-8.12h3.46c.27,4,3.79,5.18,7.42,5.18,3.42,0,7-1.6,7-5.34S258.5,245,254.23,244s-8.49-2.24-8.49-7.2C245.74,231.27,250.87,229.35,255.56,229.35Z"/><path class="cls-1" d="M206.72,233h-5.33V230h5.33v-5.71l3.21-1.39V230H216V233h-6.08V250.9c-.06,2.45,1.22,3.79,3.68,3.79a9.61,9.61,0,0,0,2.77-.32v2.77a13.16,13.16,0,0,1-3.25.48c-6.78,0-6.41-4.32-6.41-8Z"/><path class="cls-1" d="M53.61,77.94A11.65,11.65,0,1,1,65.26,66.29,11.65,11.65,0,0,1,53.61,77.94m0-35a23.31,23.31,0,1,0,23.3,23.31A23.31,23.31,0,0,0,53.61,43"/><path class="cls-1" d="M81.42,31.75c-.18-.07-13.5-5.54-23.84-15.17l-.07-.06a2.43,2.43,0,0,0-.25-.2,1.73,1.73,0,0,0-.21-.17L56.79,16l-.22-.14-.27-.14-.24-.13-.26-.11-.27-.11-.26-.07L55,15.19l-.26-.06-.29-.05-.27,0-.29,0h-.55l-.29,0-.27,0-.29.05-.26.06-.28.08-.26.07-.27.11-.26.11-.24.13-.27.14-.22.14-.26.18-.21.17a2.43,2.43,0,0,0-.25.2l-.07.06C39.3,26.21,26,31.68,25.79,31.75l4.6,10.71A102.84,102.84,0,0,0,53.61,28.55,102.65,102.65,0,0,0,76.82,42.46Z"/><path class="cls-1" d="M82,39.25a3.16,3.16,0,1,1,3.17,3.16A3.17,3.17,0,0,1,82,39.25Zm5.81,0a2.65,2.65,0,1,0-2.64,2.66A2.55,2.55,0,0,0,87.84,39.25ZM84.48,41H84V37.42h1.55c.94,0,1.26.36,1.26,1s-.49,1-1.12,1L86.79,41h-.52l-1-1.6h-.77Zm.64-2c.5,0,1.2.08,1.2-.6,0-.5-.42-.57-.85-.57h-1V39Z"/><polygon class="cls-1" points="37.92 292.68 37.92 279 32.74 279 32.74 277.43 44.76 277.43 44.76 279 39.58 279 39.58 292.68 37.92 292.68 37.92 292.68"/><path class="cls-1" d="M56,285.52v7.16H54.43v-6.77c0-2-1.2-2.92-2.5-2.92-1.6,0-3.35,1.41-3.35,4.1v5.59H47V277.43h1.59v6.26a4,4,0,0,1,3.67-2.28c1.93,0,3.76,1.32,3.76,4.11Z"/><path class="cls-1" d="M66.92,286.42a3.16,3.16,0,0,0-3.18-3.48,3.41,3.41,0,0,0-3.38,3.48Zm1.49,4.2a5.68,5.68,0,0,1-4.52,2.31c-2.78,0-5.2-2.08-5.2-5.77s2.56-5.75,5.27-5.75c3.07,0,4.63,2.48,4.63,5.28A8.29,8.29,0,0,1,68.5,288H60.42a3.49,3.49,0,0,0,3.63,3.43,3.79,3.79,0,0,0,3.32-1.78l1,1Z"/><path class="cls-1" d="M79.8,284.33a2.73,2.73,0,0,0,3.07-2.75c0-1.3-.82-2.58-2.92-2.58h-2.8v5.33Zm.27-6.9a4.07,4.07,0,0,1,4.45,4.12,4.33,4.33,0,0,1-4.63,4.36H77.15v6.77H75.5V277.43Z"/><path class="cls-1" d="M92.65,281.85l-.36,1.62a3.15,3.15,0,0,0-1.27-.3c-1.44,0-2.47,1.12-2.47,3.11v6.4H87v-11h1.58v1.48a2.8,2.8,0,0,1,2.61-1.62,3.42,3.42,0,0,1,1.49.3Z"/><path class="cls-1" d="M101.78,286.42a3.16,3.16,0,0,0-3.18-3.48,3.43,3.43,0,0,0-3.39,3.48Zm1.49,4.2a5.68,5.68,0,0,1-4.52,2.31c-2.78,0-5.21-2.08-5.21-5.77s2.56-5.75,5.28-5.75c3.07,0,4.63,2.48,4.63,5.28a8.29,8.29,0,0,1-.09,1.26H95.28a3.48,3.48,0,0,0,3.63,3.43,3.78,3.78,0,0,0,3.31-1.78l1,1Z"/><path class="cls-1" d="M110.78,292.45a3.74,3.74,0,0,1-1.8.46c-1.45,0-2.85-.91-2.85-3.34V277.43h1.58V289.6c0,1.36.69,1.87,1.51,1.87a2.64,2.64,0,0,0,1-.23l.55,1.21Z"/><path class="cls-1" d="M119.51,292.68v-2a3.81,3.81,0,0,1-3.49,2.2,3.76,3.76,0,0,1-3.79-4.1v-7.12h1.58v6.72c0,2,1.18,2.94,2.45,2.94,1.56,0,3.25-1.39,3.25-4.08v-5.58h1.58v11Z"/><path class="cls-1" d="M132.72,287.25c0-2.85-1.92-4.28-3.76-4.28s-3.61,1.34-3.61,4.1,2,4.26,3.81,4.26,3.56-1.37,3.56-4.08Zm0,5.43v-1.63a4.4,4.4,0,0,1-3.63,1.84c-2.63,0-5.32-2-5.32-5.8s2.73-5.68,5.3-5.68a4.45,4.45,0,0,1,3.65,1.9v-5.88h1.58v15.25Z"/><path class="cls-1" d="M145.21,286.42a3.17,3.17,0,0,0-3.18-3.48,3.43,3.43,0,0,0-3.39,3.48Zm1.49,4.2a5.67,5.67,0,0,1-4.51,2.31c-2.78,0-5.21-2.08-5.21-5.77s2.56-5.75,5.27-5.75c3.07,0,4.64,2.48,4.64,5.28a8.38,8.38,0,0,1-.1,1.26h-8.08a3.49,3.49,0,0,0,3.63,3.43,3.81,3.81,0,0,0,3.32-1.78l1,1Z"/><polygon class="cls-1" points="155.44 277.43 163.85 289.55 163.85 277.43 165.5 277.43 165.5 292.68 163.85 292.68 155.44 280.42 155.44 292.68 153.79 292.68 153.79 277.43 155.44 277.43 155.44 277.43"/><path class="cls-1" d="M176.64,286.42a3.16,3.16,0,0,0-3.18-3.48,3.42,3.42,0,0,0-3.39,3.48Zm1.49,4.2a5.68,5.68,0,0,1-4.52,2.31c-2.78,0-5.21-2.08-5.21-5.77s2.56-5.75,5.28-5.75c3.07,0,4.63,2.48,4.63,5.28a8.29,8.29,0,0,1-.09,1.26h-8.08a3.49,3.49,0,0,0,3.62,3.43,3.77,3.77,0,0,0,3.32-1.78l1,1Z"/><path class="cls-1" d="M187,292a3.36,3.36,0,0,1-2.34,1c-1.54,0-3-1-3-3.34v-6.35h-2v-1.53h2v-2.8h1.58v2.8h2.62v1.53h-2.62v6.38c0,1.27.64,1.87,1.51,1.87a2.35,2.35,0,0,0,1.49-.6L187,292Z"/><polygon class="cls-1" points="199.65 292.68 196.67 283.85 193.66 292.68 191.97 292.68 188.09 281.69 189.9 281.69 192.81 290.41 195.75 281.69 197.56 281.69 200.5 290.41 203.41 281.69 205.21 281.69 201.34 292.68 199.65 292.68 199.65 292.68"/><path class="cls-1" d="M207.92,287.13c0,2.47,1.57,4.25,3.8,4.25s3.81-1.78,3.81-4.25-1.58-4.21-3.81-4.21-3.8,1.78-3.8,4.21Zm9.19,0a5.4,5.4,0,1,1-5.39-5.75,5.42,5.42,0,0,1,5.39,5.75Z"/><path class="cls-1" d="M225.47,281.85l-.36,1.62a3.19,3.19,0,0,0-1.27-.3c-1.45,0-2.47,1.12-2.47,3.11v6.4h-1.58v-11h1.58v1.48a2.79,2.79,0,0,1,2.61-1.62,3.45,3.45,0,0,1,1.49.3Z"/><polygon class="cls-1" points="229.05 292.68 227.47 292.68 227.47 277.43 229.05 277.43 229.05 286.61 233.91 281.69 236.06 281.69 230.81 286.93 236.74 292.68 234.37 292.68 229.05 287.39 229.05 292.68 229.05 292.68"/><path class="cls-1" d="M237.08,280.09a2.15,2.15,0,1,1,2.15,2.15A2.15,2.15,0,0,1,237.08,280.09Zm3.94,0a1.8,1.8,0,1,0-1.79,1.81A1.73,1.73,0,0,0,241,280.09Zm-2.28,1.22h-.31v-2.46h1c.64,0,.85.24.85.68s-.33.65-.75.69l.73,1.09H240l-.69-1.09h-.52Zm.43-1.38c.34,0,.82.06.82-.4s-.28-.39-.58-.39h-.67v.79Z"/></svg>