<?xml version="1.0" encoding="UTF-8"?><svg id="Layer_1" xmlns="http://www.w3.org/2000/svg" viewBox="0 0 328.89 219.11"><defs><style>.cls-1{fill:#221f1f;}</style></defs><g><g><path class="cls-1" d="M37.15,40.86c-10.67,0-19.31,9.01-19.31,20.12s8.65,20.11,19.31,20.11,19.32-9,19.32-20.11-8.64-20.12-19.32-20.12Zm0,30.17c-5.33,0-9.66-4.5-9.66-10.05s4.32-10.06,9.66-10.06,9.66,4.5,9.66,10.06-4.32,10.05-9.66,10.05Z"/><path class="cls-1" d="M40.45,18.53s-.03-.03-.06-.05c-1.79-1.67-4.54-1.8-6.47,0-.02,.02-.04,.03-.06,.05-8.56,8.31-19.61,13.03-19.76,13.1l3.81,9.24c1.53-.66,10.67-4.78,19.23-12.01,8.57,7.23,17.72,11.34,19.24,12.01l3.81-9.24c-.14-.07-11.19-4.78-19.76-13.1Z"/></g><path class="cls-1" d="M61.07,38.73c0-1.56,1.28-2.85,2.86-2.85s2.85,1.28,2.85,2.85-1.28,2.86-2.85,2.86-2.86-1.28-2.86-2.86Zm5.25,0c0-1.39-1-2.39-2.39-2.39s-2.41,1-2.41,2.39,1.01,2.41,2.41,2.41,2.39-1,2.39-2.41Zm-3.05,1.62h-.42v-3.27h1.4c.85,0,1.14,.32,1.14,.9,0,.63-.44,.87-1.01,.91l.97,1.45h-.47l-.92-1.45h-.7v1.45Zm.58-1.83c.46,0,1.09,.08,1.09-.54,0-.46-.38-.52-.77-.52h-.9v1.06h.58Z"/></g><g><path class="cls-1" d="M22.59,130.19h-2.92v-32.37h10.58c2.83,0,5.16,.18,7.62,1.7,2.24,1.35,3.32,3.68,3.32,6.77,0,3.5-2.47,6.01-6.23,6.95v.09c4.13,.67,5.02,3.45,5.42,7.22,.58,5.25,.4,7.67,1.7,9.64h-3.36c-.76-2.15-.94-4.44-1.12-6.72-.67-7.4-1.12-8.7-6.99-8.7h-8.02v15.42Zm6.23-18.11c4.12,0,9.23-.27,9.23-5.78,0-6.23-5.83-5.78-8.92-5.78h-6.54v11.57h6.23Z"/><path class="cls-1" d="M47.01,119.56c.09,4.8,2.29,8.83,7.8,8.83,3.18,0,5.83-2.29,6.5-5.38h2.83c-1.39,5.38-4.75,7.84-10.18,7.84-6.72,0-9.86-5.78-9.86-11.93s3.36-11.93,10.04-11.93c7.53,0,10.27,5.51,10.27,12.55h-17.39Zm14.48-2.47c-.31-4.35-2.65-7.62-7.31-7.62-4.39,0-6.72,3.68-7.08,7.62h14.39Z"/><path class="cls-1" d="M84.71,107.68h2.78c-.09,1.53-.22,3.32-.22,5.07v13.5c0,4.48,.22,9.19-4.75,11.52-1.79,.85-3,1.03-5.11,1.03-4.08,0-8.92-1.39-8.92-6.05h2.92c.31,2.69,3.5,3.59,6.37,3.59,3.5,0,6.72-2.47,6.81-6.23v-4.22h-.09c-1.3,2.65-4.39,4.22-7.31,4.22-6.77,0-9.68-5.15-9.68-11.34s2.74-11.75,9.59-11.75c3.27,0,5.6,1.57,7.4,4.17l.09-.18,.13-3.32Zm-7.35,1.79c-4.89,0-6.95,4.93-6.95,9.06s2.11,9.1,7.04,9.1,7.13-4.8,7.13-9.19-2.38-8.97-7.22-8.97Z"/><path class="cls-1" d="M95.78,101.18h-3.14v-3.36h3.14v3.36Zm-.23,6.5v22.51h-2.69v-22.51h2.69Z"/><path class="cls-1" d="M120.12,118.93c0,5.92-3.32,11.93-10.49,11.93s-10.49-6.01-10.49-11.93,3.32-11.93,10.49-11.93,10.49,6.01,10.49,11.93Zm-10.49-9.46c-5.42,0-7.58,5.29-7.58,9.46s2.15,9.46,7.58,9.46,7.58-5.29,7.58-9.46-2.15-9.46-7.58-9.46Z"/><path class="cls-1" d="M126.25,130.19h-2.69v-17.44c0-1.75-.14-3.54-.22-5.07h2.78l.13,3.32,.09,.09c1.57-2.78,4.13-4.08,7.04-4.08,7.35,0,7.94,6.5,7.94,9.1v14.08h-2.69v-14.53c0-3.9-2.24-6.19-5.92-6.19-4.44,0-6.46,3.72-6.46,7.76v12.96Z"/><path class="cls-1" d="M160.05,114.32c-.27-3.68-2.15-4.84-5.34-4.84-2.82,0-5.15,.85-5.51,3.9h-2.87c.67-4.62,4.13-6.37,8.43-6.37,4.98,0,8.07,2.29,7.98,7.44v10.67c-.05,1.75,.13,3.54,.22,5.07h-2.78l-.09-3.32h-.09l-.13,.31c-.99,1.88-3.99,3.68-7.04,3.68-4.17,0-7.49-2.56-7.49-6.95,0-3.05,1.84-5.38,4.53-6.5,3-1.3,6.9-.85,10.18-1.03v-2.06Zm-6.73,14.08c5.87,0,6.99-4.84,6.73-9.55-3.81,.14-11.79-.58-11.79,5.07,0,3.05,2.33,4.48,5.06,4.48Z"/><path class="cls-1" d="M171.3,130.19h-2.69v-32.37h2.69v32.37Z"/><path class="cls-1" d="M19.18,178.26v-32.37h18.29v2.69h-15.38v11.43h14.84v2.69h-14.84v15.56h-2.92Z"/><path class="cls-1" d="M42.04,167.64c.09,4.8,2.29,8.83,7.8,8.83,3.18,0,5.83-2.29,6.5-5.38h2.83c-1.39,5.38-4.75,7.84-10.18,7.84-6.72,0-9.86-5.78-9.86-11.93s3.36-11.93,10.04-11.93c7.53,0,10.27,5.51,10.27,12.55h-17.39Zm14.48-2.47c-.31-4.35-2.65-7.62-7.31-7.62-4.39,0-6.72,3.68-7.08,7.62h14.39Z"/><path class="cls-1" d="M66.29,178.26h-2.69v-17.44c.04-1.75-.14-3.54-.22-5.07h2.78l.13,3.32h.09c.81-2.29,2.82-3.9,5.07-3.99,.9-.05,1.79,0,2.69,.04v2.6c-.54-.05-1.12-.18-1.66-.18-3.99,0-6.1,2.87-6.19,7.17v13.54Z"/><path class="cls-1" d="M80.54,158.22h-4.48v-2.47h4.48v-4.8l2.69-1.17v5.96h5.11v2.47h-5.11v15.06c-.04,2.06,1.03,3.18,3.09,3.18,.81,0,1.61-.04,2.33-.27v2.33c-.85,.22-1.84,.4-2.73,.4-5.69,0-5.38-3.63-5.38-6.68v-14.03Z"/><path class="cls-1" d="M96.59,149.26h-3.14v-3.36h3.14v3.36Zm-.23,6.5v22.51h-2.69v-22.51h2.69Z"/><path class="cls-1" d="M106.4,178.26h-2.69v-32.37h2.69v32.37Z"/><path class="cls-1" d="M116.66,149.26h-3.14v-3.36h3.14v3.36Zm-.23,6.5v22.51h-2.69v-22.51h2.69Z"/><path class="cls-1" d="M125.67,158.22h-4.48v-2.47h4.48v-4.8l2.69-1.17v5.96h5.11v2.47h-5.11v15.06c-.04,2.06,1.03,3.18,3.09,3.18,.81,0,1.61-.04,2.33-.27v2.33c-.85,.22-1.84,.4-2.73,.4-5.69,0-5.38-3.63-5.38-6.68v-14.03Z"/><path class="cls-1" d="M139.7,155.76l7.58,18.83,7.53-18.83h2.92l-12.42,31.12h-2.96l3.41-8.61-9.33-22.51h3.27Z"/><path class="cls-1" d="M168.07,178.26v-32.37h8.12c6.23-.13,13.23,1.44,13.23,9.15s-6.99,9.28-13.23,9.15h-5.2v14.08h-2.92Zm2.92-16.77h7.08c4.35,0,8.2-1.39,8.2-6.46s-3.86-6.45-8.2-6.45h-7.08v12.91Z"/><path class="cls-1" d="M195.18,178.26h-2.69v-17.44c.04-1.75-.14-3.54-.22-5.07h2.78l.13,3.32h.09c.81-2.29,2.82-3.9,5.07-3.99,.9-.05,1.79,0,2.69,.04v2.6c-.54-.05-1.12-.18-1.66-.18-3.99,0-6.1,2.87-6.19,7.17v13.54Z"/><path class="cls-1" d="M224.54,167.01c0,5.92-3.32,11.93-10.49,11.93s-10.49-6.01-10.49-11.93,3.32-11.93,10.49-11.93,10.49,6.01,10.49,11.93Zm-10.49-9.46c-5.42,0-7.58,5.29-7.58,9.46s2.15,9.46,7.58,9.46,7.58-5.29,7.58-9.46-2.15-9.46-7.58-9.46Z"/><path class="cls-1" d="M244.58,155.76h2.78c-.09,1.53-.22,3.32-.22,5.07v13.5c0,4.48,.22,9.19-4.75,11.52-1.79,.85-3,1.03-5.11,1.03-4.08,0-8.92-1.39-8.92-6.05h2.92c.31,2.69,3.5,3.59,6.37,3.59,3.5,0,6.72-2.47,6.81-6.23v-4.22h-.09c-1.3,2.65-4.39,4.22-7.31,4.22-6.77,0-9.68-5.15-9.68-11.34s2.74-11.75,9.59-11.75c3.27,0,5.6,1.57,7.4,4.17l.09-.18,.13-3.32Zm-7.35,1.79c-4.89,0-6.95,4.93-6.95,9.06s2.11,9.1,7.04,9.1,7.13-4.8,7.13-9.19-2.38-8.97-7.22-8.97Z"/><path class="cls-1" d="M255.37,178.26h-2.69v-17.44c.04-1.75-.14-3.54-.22-5.07h2.78l.13,3.32h.09c.81-2.29,2.82-3.9,5.07-3.99,.9-.05,1.79,0,2.69,.04v2.6c-.54-.05-1.12-.18-1.66-.18-3.99,0-6.1,2.87-6.19,7.17v13.54Z"/><path class="cls-1" d="M278.42,162.39c-.27-3.68-2.15-4.84-5.34-4.84-2.82,0-5.15,.85-5.51,3.9h-2.87c.67-4.62,4.13-6.37,8.43-6.37,4.98,0,8.07,2.29,7.98,7.44v10.67c-.05,1.75,.13,3.54,.22,5.07h-2.78l-.09-3.32h-.09l-.13,.31c-.99,1.88-3.99,3.68-7.04,3.68-4.17,0-7.49-2.56-7.49-6.95,0-3.05,1.84-5.38,4.53-6.5,3-1.3,6.9-.85,10.18-1.03v-2.06Zm-6.73,14.08c5.87,0,6.99-4.84,6.73-9.55-3.81,.14-11.79-.58-11.79,5.07,0,3.05,2.33,4.48,5.06,4.48Z"/><path class="cls-1" d="M288.54,159.08l.09,.09c1.57-2.78,4.13-4.08,7.04-4.08,3.54,0,6.32,1.97,7.31,4.93,1.66-2.65,4.26-4.93,7.76-4.93,7.35,0,7.94,6.5,7.94,9.1v14.08h-2.69v-14.53c0-3.9-2.24-6.19-5.92-6.19-4.44,0-6.46,3.72-6.46,7.76v12.96h-2.69v-14.53c0-3.9-2.24-6.19-5.92-6.19-4.44,0-6.45,3.72-6.45,7.76v12.96h-2.69v-17.44c0-1.75-.13-3.54-.22-5.07h2.78l.14,3.32Z"/></g><g><g><polygon class="cls-1" points="21.28 208.6 21.28 196.76 16.8 196.76 16.8 195.4 27.2 195.4 27.2 196.76 22.71 196.76 22.71 208.6 21.28 208.6 21.28 208.6"/><path class="cls-1" d="M36.93,202.4v6.2h-1.37v-5.86c0-1.73-1.04-2.53-2.16-2.53-1.38,0-2.9,1.23-2.9,3.55v4.83h-1.37v-13.19h1.37v5.41c.65-1.33,1.92-1.97,3.17-1.97,1.67,0,3.26,1.15,3.26,3.55h0Z"/><path class="cls-1" d="M46.37,203.18c-.02-2.11-1.41-3.01-2.75-3.01-1.47,0-2.77,1.04-2.93,3.01h5.68Zm1.29,3.63c-1.06,1.36-2.48,2-3.91,2-2.41,0-4.5-1.8-4.5-4.99s2.22-4.98,4.57-4.98c2.65,0,4,2.15,4,4.57,0,.3-.02,.7-.08,1.08h-6.99c.25,2.09,1.58,2.97,3.14,2.97,1.13,0,2.16-.46,2.87-1.54l.9,.88h0Z"/><path class="cls-1" d="M57.51,201.37c1.89,0,2.66-1.2,2.66-2.38s-.71-2.23-2.52-2.23h-2.42v4.61h2.29Zm.23-5.97c2.66,0,3.85,1.8,3.85,3.57,0,1.9-1.37,3.77-4,3.77h-2.37v5.86h-1.43v-13.19h3.95Z"/><path class="cls-1" d="M68.63,199.23l-.31,1.4c-.34-.16-.73-.26-1.1-.26-1.25,0-2.14,.96-2.14,2.69v5.53h-1.37v-9.51h1.37v1.28c.5-1,1.37-1.4,2.25-1.4,.46,0,.92,.08,1.29,.26h0Z"/><path class="cls-1" d="M76.53,203.18c-.02-2.11-1.4-3.01-2.75-3.01-1.47,0-2.78,1.04-2.93,3.01h5.68Zm1.29,3.63c-1.06,1.36-2.48,2-3.91,2-2.41,0-4.51-1.8-4.51-4.99s2.22-4.98,4.57-4.98c2.66,0,4.01,2.15,4.01,4.57,0,.3-.02,.7-.08,1.08h-6.99c.25,2.09,1.58,2.97,3.14,2.97,1.14,0,2.16-.46,2.87-1.54l.91,.88h0Z"/><path class="cls-1" d="M84.32,208.4c-.46,.26-1.02,.4-1.56,.4-1.25,0-2.46-.79-2.46-2.89v-10.5h1.37v10.53c0,1.18,.6,1.62,1.31,1.62,.29,0,.58-.08,.87-.2l.48,1.04h0Z"/><path class="cls-1" d="M91.87,208.6v-1.7c-.65,1.3-1.81,1.91-3.02,1.91-1.66,0-3.27-1.16-3.27-3.55v-6.16h1.37v5.82c0,1.77,1.02,2.55,2.12,2.55,1.34,0,2.81-1.2,2.81-3.53v-4.83h1.37v9.51h-1.37Z"/><path class="cls-1" d="M103.29,203.9c0-2.47-1.66-3.71-3.25-3.71s-3.12,1.16-3.12,3.55,1.7,3.69,3.3,3.69,3.08-1.19,3.08-3.53h0Zm0,4.69v-1.4c-.69,1-1.89,1.58-3.14,1.58-2.27,0-4.6-1.71-4.6-5.01s2.37-4.92,4.59-4.92c1.19,0,2.41,.57,3.16,1.65v-5.09h1.37v13.19h-1.37Z"/><path class="cls-1" d="M114.1,203.18c-.02-2.11-1.41-3.01-2.75-3.01-1.46,0-2.77,1.04-2.93,3.01h5.68Zm1.29,3.63c-1.06,1.36-2.48,2-3.91,2-2.41,0-4.51-1.8-4.51-4.99s2.22-4.98,4.56-4.98c2.66,0,4.01,2.15,4.01,4.57,0,.3-.02,.7-.08,1.08h-6.99c.25,2.09,1.58,2.97,3.14,2.97,1.14,0,2.16-.46,2.87-1.54l.91,.88h0Z"/><polygon class="cls-1" points="122.95 195.4 130.23 205.89 130.23 195.4 131.66 195.4 131.66 208.6 130.23 208.6 122.95 197.99 122.95 208.6 121.52 208.6 121.52 195.4 122.95 195.4 122.95 195.4"/><path class="cls-1" d="M141.29,203.18c-.02-2.11-1.4-3.01-2.75-3.01-1.47,0-2.77,1.04-2.93,3.01h5.68Zm1.29,3.63c-1.06,1.36-2.48,2-3.91,2-2.41,0-4.51-1.8-4.51-4.99s2.22-4.98,4.57-4.98c2.66,0,4.01,2.15,4.01,4.57,0,.3-.02,.7-.08,1.08h-6.99c.25,2.09,1.58,2.97,3.13,2.97,1.14,0,2.16-.46,2.87-1.54l.91,.88h0Z"/><path class="cls-1" d="M150.23,207.97c-.54,.52-1.25,.82-2.02,.82-1.33,0-2.58-.85-2.58-2.89v-5.49h-1.73v-1.33h1.73v-2.42h1.37v2.42h2.27v1.33h-2.27v5.52c0,1.1,.56,1.62,1.31,1.62,.43,0,.95-.2,1.29-.52l.63,.94h0Z"/><polygon class="cls-1" points="161.2 208.6 158.62 200.95 156.02 208.6 154.55 208.6 151.2 199.09 152.76 199.09 155.29 206.63 157.83 199.09 159.39 199.09 161.93 206.63 164.45 199.09 166.01 199.09 162.66 208.6 161.2 208.6 161.2 208.6"/><path class="cls-1" d="M168.35,203.8c0,2.13,1.36,3.67,3.29,3.67s3.3-1.54,3.3-3.67-1.37-3.65-3.3-3.65-3.29,1.54-3.29,3.65h0Zm7.95,.02c0,2.85-1.96,4.98-4.66,4.98s-4.66-2.13-4.66-4.98,1.96-4.98,4.66-4.98,4.66,2.13,4.66,4.98h0Z"/><path class="cls-1" d="M183.53,199.23l-.31,1.4c-.35-.16-.73-.26-1.1-.26-1.25,0-2.14,.96-2.14,2.69v5.53h-1.37v-9.51h1.37v1.28c.5-1,1.37-1.4,2.25-1.4,.46,0,.92,.08,1.29,.26h0Z"/><polygon class="cls-1" points="186.64 208.6 185.27 208.6 185.27 195.4 186.64 195.4 186.64 203.34 190.84 199.09 192.7 199.09 188.16 203.62 193.28 208.6 191.24 208.6 186.64 204.02 186.64 208.6 186.64 208.6"/></g><path class="cls-1" d="M193.58,197.71c0-1.02,.83-1.85,1.86-1.85s1.85,.83,1.85,1.85-.83,1.86-1.85,1.86-1.86-.83-1.86-1.86Zm3.41,0c0-.9-.65-1.55-1.55-1.55s-1.56,.65-1.56,1.55,.66,1.56,1.56,1.56,1.55-.65,1.55-1.56Zm-1.98,1.05h-.27v-2.12h.91c.55,0,.74,.21,.74,.59,0,.41-.29,.56-.66,.59l.63,.94h-.31l-.6-.94h-.45v.94Zm.37-1.19c.3,0,.71,.05,.71-.35,0-.3-.25-.34-.5-.34h-.58v.69h.37Z"/></g></svg>