<?xml version="1.0" encoding="UTF-8"?><svg id="Layer_1" xmlns="http://www.w3.org/2000/svg" viewBox="0 0 372.12 226.98"><defs><style>.cls-1{fill:#221f1f;}</style></defs><g><g><path class="cls-1" d="M32.63,33.3c-11.51,0-20.84,9.72-20.84,21.7s9.33,21.7,20.84,21.7,20.84-9.71,20.84-21.7-9.32-21.7-20.84-21.7Zm0,32.55c-5.75,0-10.42-4.85-10.42-10.85s4.67-10.85,10.42-10.85,10.42,4.86,10.42,10.85-4.66,10.85-10.42,10.85Z"/><path class="cls-1" d="M36.19,9.2s-.04-.03-.06-.05c-1.93-1.8-4.9-1.94-6.98,0-.02,.02-.04,.03-.06,.05C19.84,18.17,7.92,23.26,7.76,23.33l4.12,9.97c1.65-.72,11.51-5.16,20.75-12.95,9.25,7.8,19.11,12.24,20.76,12.95l4.12-9.97c-.15-.07-12.08-5.16-21.32-14.13Z"/></g><path class="cls-1" d="M58.44,31c0-1.69,1.38-3.07,3.09-3.07s3.07,1.38,3.07,3.07-1.38,3.09-3.07,3.09-3.09-1.38-3.09-3.09Zm5.67,0c0-1.5-1.08-2.58-2.58-2.58s-2.6,1.08-2.6,2.58,1.09,2.6,2.6,2.6,2.58-1.08,2.58-2.6Zm-3.29,1.75h-.45v-3.52h1.52c.92,0,1.23,.34,1.23,.98,0,.68-.48,.93-1.09,.98l1.05,1.56h-.51l-.99-1.56h-.75v1.56Zm.62-1.97c.49,0,1.18,.08,1.18-.58,0-.49-.41-.56-.84-.56h-.97v1.14h.62Z"/></g><g><path class="cls-1" d="M20.74,97.66H9.47v-2.9h25.53v2.9h-11.07l-.05,32.01h-3.09l-.05-32.01Z"/><path class="cls-1" d="M40.22,109.07h.1c1.69-3,4.45-4.4,7.59-4.4,7.93,0,8.56,7.01,8.56,9.82v15.18h-2.9v-15.67c0-4.21-2.42-6.67-6.38-6.67-4.79,0-6.96,4.01-6.96,8.37v13.97h-2.9v-34.91h2.9v14.31Z"/><path class="cls-1" d="M64.64,118.21c.1,5.17,2.47,9.53,8.41,9.53,3.43,0,6.29-2.47,7.01-5.8h3.05c-1.5,5.8-5.13,8.46-10.98,8.46-7.25,0-10.64-6.24-10.64-12.86s3.63-12.86,10.83-12.86c8.12,0,11.07,5.95,11.07,13.54h-18.76Zm15.62-2.66c-.34-4.69-2.85-8.22-7.88-8.22-4.74,0-7.25,3.96-7.64,8.22h15.52Z"/><path class="cls-1" d="M105.02,129.67h-3.14v-34.91h11.41c3.05,0,5.56,.19,8.22,1.84,2.42,1.45,3.58,3.97,3.58,7.3,0,3.77-2.66,6.48-6.72,7.5v.1c4.45,.73,5.42,3.72,5.85,7.79,.63,5.66,.44,8.27,1.84,10.4h-3.63c-.82-2.32-1.02-4.79-1.21-7.25-.73-7.98-1.21-9.38-7.54-9.38h-8.66v16.63Zm6.72-19.54c4.45,0,9.96-.29,9.96-6.24,0-6.72-6.29-6.24-9.62-6.24h-7.06v12.48h6.72Z"/><path class="cls-1" d="M132.48,118.21c.1,5.17,2.47,9.53,8.41,9.53,3.43,0,6.29-2.47,7.01-5.8h3.05c-1.5,5.8-5.13,8.46-10.98,8.46-7.25,0-10.64-6.24-10.64-12.86s3.63-12.86,10.83-12.86c8.12,0,11.07,5.95,11.07,13.54h-18.76Zm15.62-2.66c-.34-4.69-2.85-8.22-7.88-8.22-4.74,0-7.25,3.96-7.64,8.22h15.52Z"/><path class="cls-1" d="M158.84,138.96h-2.9v-28.09c.05-1.89-.15-3.82-.24-5.46h3l.15,3.58,.1,.1c1.69-2.85,5.08-4.4,8.32-4.4,7.2,0,9.96,6.48,9.96,12.77s-2.76,12.96-9.82,12.96c-3.53,0-6.48-1.6-8.46-4.5h-.1v13.06Zm8.27-11.22c5.56,0,6.96-6.14,6.96-10.64s-1.89-9.77-7.4-9.77-7.83,4.69-7.83,9.62c0,5.51,1.93,10.78,8.27,10.78Z"/><path class="cls-1" d="M184.95,129.67h-2.9v-18.81c.05-1.89-.15-3.82-.24-5.46h3l.15,3.58h.1c.87-2.47,3.05-4.21,5.46-4.3,.97-.05,1.93,0,2.9,.05v2.8c-.58-.05-1.21-.19-1.79-.19-4.3,0-6.58,3.09-6.67,7.74v14.6Z"/><path class="cls-1" d="M217.78,117.53c0,6.38-3.58,12.86-11.31,12.86s-11.32-6.48-11.32-12.86,3.58-12.86,11.32-12.86,11.31,6.48,11.31,12.86Zm-11.31-10.2c-5.85,0-8.17,5.71-8.17,10.2s2.32,10.2,8.17,10.2,8.17-5.71,8.17-10.2-2.32-10.2-8.17-10.2Z"/><path class="cls-1" d="M239.25,126.09l-.1-.19c-1.98,2.9-4.93,4.5-8.32,4.5-7.21,0-9.96-6.87-9.96-12.96s2.76-12.77,9.96-12.77c3.24,0,6.62,1.55,8.32,4.4l.1-.1v-14.22h2.9v29.45c0,1.89,.15,3.82,.24,5.46h-3l-.15-3.58Zm-7.93-18.76c-5.51,0-7.3,5.12-7.3,9.77s1.31,10.64,6.87,10.64c6.33,0,8.27-5.27,8.27-10.78,0-4.93-2.18-9.62-7.83-9.62Z"/><path class="cls-1" d="M264.39,105.4h2.9v18.81c0,1.89,.15,3.82,.24,5.46h-3l-.15-3.58-.1-.1c-1.69,3-4.45,4.4-7.59,4.4-7.93,0-8.56-7.01-8.56-9.82v-15.18h2.9v15.67c0,4.21,2.42,6.67,6.38,6.67,4.79,0,6.96-4.01,6.96-8.37v-13.97Z"/><path class="cls-1" d="M289.1,112.84c-.24-3.72-2.61-5.51-6.62-5.51-4.45,0-7.21,4.64-7.21,10.15s2.76,10.25,7.21,10.25c3.77,0,6.38-2.32,6.62-5.66h3.14c-.77,5.56-3.96,8.32-9.48,8.32-7.25,0-10.64-6.24-10.64-12.86s3.63-12.86,10.83-12.86c4.98,0,9.04,3,9.28,8.17h-3.14Z"/><path class="cls-1" d="M298.77,108.06h-4.84v-2.66h4.84v-5.17l2.9-1.26v6.43h5.51v2.66h-5.51v16.25c-.05,2.22,1.11,3.43,3.34,3.43,.87,0,1.74-.05,2.51-.29v2.51c-.92,.24-1.98,.44-2.95,.44-6.14,0-5.8-3.92-5.8-7.21v-15.13Z"/><path class="cls-1" d="M314.73,98.39h-3.39v-3.63h3.39v3.63Zm-.24,7.01v24.27h-2.9v-24.27h2.9Z"/><path class="cls-1" d="M321.01,105.4l8.37,20.26,8.08-20.26h3.19l-9.62,24.27h-3.29l-9.91-24.27h3.19Z"/><path class="cls-1" d="M344.66,118.21c.1,5.17,2.47,9.53,8.41,9.53,3.43,0,6.29-2.47,7.01-5.8h3.05c-1.5,5.8-5.13,8.46-10.98,8.46-7.25,0-10.64-6.24-10.64-12.86s3.63-12.86,10.83-12.86c8.12,0,11.07,5.95,11.07,13.54h-18.76Zm15.62-2.66c-.34-4.69-2.85-8.22-7.88-8.22-4.74,0-7.25,3.96-7.64,8.22h15.52Z"/><path class="cls-1" d="M20.54,181.54v-34.91h5.03l13.1,30.42,13.39-30.42h4.79v34.91h-3.14v-32.25h-.1l-13.35,32.25h-3.14l-13.35-32.11h-.1v32.11h-3.14Z"/><path class="cls-1" d="M65.8,170.08c.1,5.17,2.47,9.53,8.41,9.53,3.43,0,6.29-2.47,7.01-5.8h3.05c-1.5,5.8-5.13,8.46-10.98,8.46-7.25,0-10.64-6.24-10.64-12.86s3.63-12.86,10.83-12.86c8.12,0,11.07,5.95,11.07,13.54h-18.76Zm15.62-2.66c-.34-4.69-2.85-8.22-7.88-8.22-4.74,0-7.25,3.96-7.64,8.22h15.52Z"/><path class="cls-1" d="M106.47,177.96l-.1-.19c-1.98,2.9-4.93,4.5-8.32,4.5-7.21,0-9.96-6.87-9.96-12.96s2.76-12.77,9.96-12.77c3.24,0,6.62,1.55,8.32,4.4l.1-.1v-14.22h2.9v29.45c0,1.89,.15,3.82,.24,5.46h-3l-.15-3.58Zm-7.93-18.76c-5.51,0-7.3,5.12-7.3,9.77s1.31,10.64,6.87,10.64c6.33,0,8.27-5.27,8.27-10.78,0-4.93-2.18-9.62-7.83-9.62Z"/><path class="cls-1" d="M118.56,150.26h-3.39v-3.63h3.39v3.63Zm-.24,7.01v24.27h-2.9v-24.27h2.9Z"/><path class="cls-1" d="M140.17,164.72c-.24-3.72-2.61-5.51-6.62-5.51-4.45,0-7.21,4.64-7.21,10.15s2.76,10.25,7.21,10.25c3.77,0,6.38-2.32,6.62-5.66h3.14c-.77,5.56-3.96,8.32-9.48,8.32-7.25,0-10.64-6.24-10.64-12.86s3.63-12.86,10.83-12.86c4.98,0,9.04,3,9.28,8.17h-3.14Z"/><path class="cls-1" d="M150.95,150.26h-3.39v-3.63h3.39v3.63Zm-.24,7.01v24.27h-2.9v-24.27h2.9Z"/><path class="cls-1" d="M160.14,181.54h-2.9v-18.81c0-1.89-.15-3.82-.24-5.46h3l.15,3.58,.1,.1c1.69-3,4.45-4.4,7.59-4.4,7.93,0,8.56,7.01,8.56,9.82v15.18h-2.9v-15.67c0-4.21-2.42-6.67-6.38-6.67-4.79,0-6.96,4.01-6.96,8.37v13.97Z"/><path class="cls-1" d="M184.56,170.08c.1,5.17,2.47,9.53,8.41,9.53,3.43,0,6.29-2.47,7.01-5.8h3.05c-1.5,5.8-5.13,8.46-10.98,8.46-7.25,0-10.64-6.24-10.64-12.86s3.63-12.86,10.83-12.86c8.12,0,11.07,5.95,11.07,13.54h-18.76Zm15.62-2.66c-.34-4.69-2.85-8.22-7.88-8.22-4.74,0-7.25,3.96-7.64,8.22h15.52Z"/><path class="cls-1" d="M247.32,163.75v16.34c-4.21,1.64-8.03,2.18-12.52,2.18-9.53,0-14.89-7.45-14.89-18.18,0-8.99,4.79-18.18,14.89-18.18,5.8,0,11.75,3.14,12.28,9.33h-3.58c-.63-4.45-4.55-6.43-8.7-6.43-8.37,0-11.51,8.03-11.51,15.28,0,8.9,3.72,15.28,13.15,15.28,2.61,0,5.27-.73,7.74-1.45v-11.27h-8.75v-2.9h11.9Z"/><path class="cls-1" d="M257.23,181.54h-2.9v-18.81c.05-1.89-.15-3.82-.24-5.46h3l.15,3.58h.1c.87-2.47,3.05-4.21,5.46-4.3,.97-.05,1.93,0,2.9,.05v2.8c-.58-.05-1.21-.19-1.79-.19-4.3,0-6.58,3.09-6.67,7.74v14.6Z"/><path class="cls-1" d="M290.07,169.41c0,6.38-3.58,12.86-11.31,12.86s-11.32-6.48-11.32-12.86,3.58-12.86,11.32-12.86,11.31,6.48,11.31,12.86Zm-11.31-10.2c-5.85,0-8.17,5.71-8.17,10.2s2.32,10.2,8.17,10.2,8.17-5.71,8.17-10.2-2.32-10.2-8.17-10.2Z"/><path class="cls-1" d="M311.05,157.27h2.9v18.81c0,1.89,.15,3.82,.24,5.46h-3l-.15-3.58-.1-.1c-1.69,3-4.45,4.4-7.59,4.4-7.93,0-8.56-7.01-8.56-9.82v-15.18h2.9v15.67c0,4.21,2.42,6.67,6.38,6.67,4.79,0,6.96-4.01,6.96-8.37v-13.97Z"/><path class="cls-1" d="M322.85,190.83h-2.9v-28.09c.05-1.89-.15-3.82-.24-5.46h3l.15,3.58,.1,.1c1.69-2.85,5.08-4.4,8.32-4.4,7.21,0,9.96,6.48,9.96,12.77s-2.76,12.96-9.82,12.96c-3.53,0-6.48-1.6-8.46-4.5h-.1v13.06Zm8.27-11.22c5.56,0,6.96-6.14,6.96-10.64s-1.89-9.77-7.4-9.77-7.83,4.69-7.83,9.62c0,5.51,1.93,10.78,8.27,10.78Z"/></g><g><g><polygon class="cls-1" points="20.36 214.27 20.36 201.5 15.52 201.5 15.52 200.03 26.74 200.03 26.74 201.5 21.9 201.5 21.9 214.27 20.36 214.27 20.36 214.27"/><path class="cls-1" d="M37.24,207.58v6.68h-1.48v-6.32c0-1.86-1.12-2.73-2.33-2.73-1.49,0-3.13,1.32-3.13,3.83v5.21h-1.48v-14.23h1.48v5.84c.7-1.43,2.08-2.13,3.42-2.13,1.81,0,3.51,1.24,3.51,3.83h0Z"/><path class="cls-1" d="M47.43,208.43c-.03-2.27-1.52-3.25-2.97-3.25-1.58,0-2.99,1.12-3.16,3.25h6.13Zm1.39,3.91c-1.14,1.47-2.68,2.16-4.22,2.16-2.6,0-4.86-1.94-4.86-5.39s2.39-5.37,4.93-5.37c2.86,0,4.32,2.32,4.32,4.93,0,.33-.02,.76-.08,1.17h-7.54c.27,2.25,1.7,3.21,3.39,3.21,1.22,0,2.33-.5,3.09-1.67l.98,.95h0Z"/><path class="cls-1" d="M59.45,206.48c2.04,0,2.87-1.3,2.87-2.57s-.77-2.41-2.72-2.41h-2.62v4.98h2.47Zm.25-6.44c2.87,0,4.15,1.95,4.15,3.85,0,2.05-1.47,4.07-4.32,4.07h-2.55v6.32h-1.54v-14.23h4.26Z"/><path class="cls-1" d="M71.44,204.16l-.33,1.51c-.37-.17-.79-.28-1.18-.28-1.35,0-2.31,1.04-2.31,2.9v5.97h-1.48v-10.26h1.48v1.39c.54-1.08,1.48-1.51,2.43-1.51,.5,0,1,.08,1.39,.28h0Z"/><path class="cls-1" d="M79.96,208.43c-.02-2.27-1.52-3.25-2.97-3.25-1.58,0-3,1.12-3.16,3.25h6.13Zm1.39,3.91c-1.14,1.47-2.68,2.16-4.22,2.16-2.6,0-4.86-1.94-4.86-5.39s2.39-5.37,4.93-5.37c2.87,0,4.32,2.32,4.32,4.93,0,.33-.02,.76-.08,1.17h-7.54c.27,2.25,1.7,3.21,3.38,3.21,1.23,0,2.33-.5,3.1-1.67l.98,.95h0Z"/><path class="cls-1" d="M88.37,214.05c-.5,.28-1.1,.44-1.69,.44-1.35,0-2.66-.85-2.66-3.12v-11.33h1.47v11.36c0,1.27,.65,1.75,1.41,1.75,.31,0,.62-.09,.93-.22l.52,1.13h0Z"/><path class="cls-1" d="M96.51,214.27v-1.84c-.7,1.4-1.95,2.06-3.26,2.06-1.79,0-3.53-1.26-3.53-3.83v-6.65h1.48v6.28c0,1.91,1.1,2.75,2.28,2.75,1.45,0,3.03-1.3,3.03-3.81v-5.21h1.47v10.26h-1.47Z"/><path class="cls-1" d="M108.84,209.2c0-2.66-1.79-4-3.51-4s-3.37,1.25-3.37,3.83,1.83,3.98,3.56,3.98,3.32-1.28,3.32-3.81h0Zm0,5.06v-1.52c-.75,1.08-2.03,1.71-3.39,1.71-2.45,0-4.97-1.84-4.97-5.41s2.55-5.31,4.95-5.31c1.29,0,2.6,.61,3.41,1.78v-5.49h1.47v14.23h-1.47Z"/><path class="cls-1" d="M120.5,208.43c-.02-2.27-1.52-3.25-2.97-3.25-1.58,0-2.99,1.12-3.16,3.25h6.13Zm1.39,3.91c-1.14,1.47-2.68,2.16-4.22,2.16-2.6,0-4.86-1.94-4.86-5.39s2.39-5.37,4.92-5.37c2.87,0,4.33,2.32,4.33,4.93,0,.33-.02,.76-.09,1.17h-7.54c.27,2.25,1.7,3.21,3.38,3.21,1.23,0,2.33-.5,3.1-1.67l.98,.95h0Z"/><polygon class="cls-1" points="130.05 200.03 137.9 211.35 137.9 200.03 139.44 200.03 139.44 214.27 137.9 214.27 130.05 202.82 130.05 214.27 128.51 214.27 128.51 200.03 130.05 200.03 130.05 200.03"/><path class="cls-1" d="M149.83,208.43c-.02-2.27-1.51-3.25-2.97-3.25-1.58,0-2.99,1.12-3.16,3.25h6.13Zm1.39,3.91c-1.14,1.47-2.68,2.16-4.22,2.16-2.6,0-4.86-1.94-4.86-5.39s2.39-5.37,4.93-5.37c2.87,0,4.32,2.32,4.32,4.93,0,.33-.03,.76-.09,1.17h-7.54c.27,2.25,1.7,3.21,3.38,3.21,1.23,0,2.33-.5,3.1-1.67l.98,.95h0Z"/><path class="cls-1" d="M159.48,213.6c-.58,.56-1.35,.89-2.18,.89-1.44,0-2.79-.91-2.79-3.12v-5.93h-1.87v-1.43h1.87v-2.62h1.48v2.62h2.45v1.43h-2.45v5.95c0,1.19,.6,1.75,1.41,1.75,.46,0,1.02-.22,1.39-.57l.68,1.02h0Z"/><polygon class="cls-1" points="171.31 214.27 168.53 206.02 165.72 214.27 164.14 214.27 160.53 204.01 162.21 204.01 164.93 212.15 167.67 204.01 169.36 204.01 172.1 212.15 174.82 204.01 176.51 204.01 172.89 214.27 171.31 214.27 171.31 214.27"/><path class="cls-1" d="M179.03,209.09c0,2.3,1.47,3.96,3.55,3.96s3.56-1.67,3.56-3.96-1.47-3.93-3.56-3.93-3.55,1.67-3.55,3.93h0Zm8.58,.03c0,3.08-2.12,5.37-5.03,5.37s-5.03-2.29-5.03-5.37,2.12-5.37,5.03-5.37,5.03,2.3,5.03,5.37h0Z"/><path class="cls-1" d="M195.41,204.16l-.33,1.51c-.37-.17-.79-.28-1.18-.28-1.35,0-2.31,1.04-2.31,2.9v5.97h-1.48v-10.26h1.48v1.39c.54-1.08,1.47-1.51,2.43-1.51,.5,0,1,.08,1.39,.28h0Z"/><polygon class="cls-1" points="198.76 214.27 197.28 214.27 197.28 200.03 198.76 200.03 198.76 208.6 203.29 204.01 205.3 204.01 200.4 208.9 205.93 214.27 203.72 214.27 198.76 209.34 198.76 214.27 198.76 214.27"/></g><path class="cls-1" d="M206.25,202.52c0-1.1,.9-1.99,2.01-1.99s1.99,.9,1.99,1.99-.89,2.01-1.99,2.01-2.01-.9-2.01-2.01Zm3.68,0c0-.97-.7-1.68-1.68-1.68s-1.69,.7-1.69,1.68,.71,1.69,1.69,1.69,1.68-.7,1.68-1.69Zm-2.13,1.13h-.29v-2.29h.98c.6,0,.8,.22,.8,.63,0,.44-.31,.61-.71,.64l.68,1.02h-.33l-.64-1.02h-.49v1.02Zm.4-1.28c.32,0,.77,.05,.77-.38,0-.32-.27-.36-.54-.36h-.63v.74h.4Z"/></g></svg>