<?xml version="1.0" encoding="UTF-8"?><svg id="Layer_1" xmlns="http://www.w3.org/2000/svg" viewBox="0 0 646.79 333.65"><defs><style>.cls-1{fill:#221f1f;}</style></defs><g><g><path class="cls-1" d="M57.23,55.31c-12.95,0-23.44,10.93-23.44,24.42s10.5,24.41,23.44,24.41,23.44-10.93,23.44-24.41-10.48-24.42-23.44-24.42Zm0,36.62c-6.47,0-11.72-5.46-11.72-12.2s5.25-12.21,11.72-12.21,11.73,5.47,11.73,12.21-5.24,12.2-11.73,12.2Z"/><path class="cls-1" d="M61.23,28.19s-.04-.04-.07-.06c-2.17-2.03-5.51-2.18-7.85,0-.02,.02-.05,.04-.07,.06-10.39,10.09-23.8,15.82-23.98,15.9l4.63,11.22c1.85-.8,12.95-5.8,23.35-14.57,10.4,8.77,21.5,13.77,23.35,14.57l4.63-11.22c-.17-.08-13.59-5.81-23.98-15.9Z"/></g><path class="cls-1" d="M86.26,52.71c0-1.9,1.56-3.46,3.47-3.46s3.46,1.56,3.46,3.46-1.55,3.47-3.46,3.47-3.47-1.56-3.47-3.47Zm6.38,0c0-1.69-1.22-2.9-2.9-2.9s-2.92,1.22-2.92,2.9,1.23,2.92,2.92,2.92,2.9-1.22,2.9-2.92Zm-3.7,1.96h-.51v-3.96h1.71c1.03,0,1.38,.39,1.38,1.1,0,.76-.53,1.05-1.23,1.11l1.18,1.76h-.57l-1.12-1.76h-.85v1.76Zm.7-2.22c.55,0,1.33,.09,1.33-.65,0-.55-.46-.63-.94-.63h-1.09v1.28h.7Z"/></g><g><path class="cls-1" d="M41,121.28h3.58l19.26,30.72h.1v-30.72h3.15v34.93h-3.97l-18.87-30.19h-.1v30.19h-3.15v-34.93Z"/><path class="cls-1" d="M83.49,141.12l-12.87-19.84h4.02l10.69,16.89,10.69-16.89h3.39l-12.77,19.74v15.19h-3.15v-15.1Z"/><path class="cls-1" d="M106.38,121.28v22.6c.24,6.34,3.87,10.16,9.63,10.16s9.39-3.82,9.63-10.16v-22.6h3.15v22.64c-.1,7.5-4.31,13.02-12.77,13.02s-12.68-5.52-12.77-13.02v-22.64h3.15Z"/><path class="cls-1" d="M149.26,156.21v-34.93h3.15v32.03h17.56v2.9h-20.71Z"/><path class="cls-1" d="M187.68,139.08c-.29-3.97-2.32-5.23-5.76-5.23-3.05,0-5.56,.92-5.95,4.21h-3.1c.73-4.98,4.45-6.87,9.1-6.87,5.37,0,8.71,2.47,8.61,8.03v11.52c-.05,1.89,.15,3.82,.24,5.47h-3l-.1-3.58h-.1l-.15,.34c-1.06,2.03-4.31,3.97-7.6,3.97-4.5,0-8.08-2.76-8.08-7.5,0-3.29,1.98-5.81,4.89-7.02,3.24-1.4,7.45-.92,10.98-1.11v-2.23Zm-7.26,15.19c6.34,0,7.55-5.23,7.26-10.31-4.11,.14-12.73-.63-12.73,5.47,0,3.29,2.52,4.84,5.47,4.84Z"/><path class="cls-1" d="M199.78,156.21h-2.9v-18.82c0-1.89-.15-3.82-.24-5.47h3l.15,3.58,.1,.1c1.69-3,4.45-4.4,7.6-4.4,7.94,0,8.56,7.02,8.56,9.82v15.19h-2.9v-15.68c0-4.21-2.42-6.68-6.39-6.68-4.79,0-6.97,4.02-6.97,8.37v13.98Z"/><path class="cls-1" d="M239.41,131.92h3c-.1,1.65-.24,3.58-.24,5.47v14.56c0,4.84,.24,9.92-5.13,12.43-1.94,.92-3.24,1.11-5.52,1.11-4.4,0-9.63-1.5-9.63-6.53h3.15c.34,2.9,3.77,3.87,6.87,3.87,3.77,0,7.26-2.66,7.35-6.73v-4.55h-.1c-1.4,2.86-4.74,4.55-7.89,4.55-7.31,0-10.45-5.56-10.45-12.24s2.95-12.68,10.35-12.68c3.53,0,6.05,1.69,7.98,4.5l.1-.19,.15-3.58Zm-7.94,1.94c-5.27,0-7.5,5.32-7.5,9.77s2.27,9.82,7.6,9.82,7.69-5.18,7.69-9.92-2.56-9.68-7.79-9.68Z"/><path class="cls-1" d="M269.07,144.07c0,6.39-3.58,12.87-11.32,12.87s-11.32-6.48-11.32-12.87,3.58-12.87,11.32-12.87,11.32,6.48,11.32,12.87Zm-11.32-10.21c-5.85,0-8.18,5.71-8.18,10.21s2.32,10.21,8.18,10.21,8.18-5.71,8.18-10.21-2.32-10.21-8.18-10.21Z"/><path class="cls-1" d="M276.72,156.21h-2.9v-18.82c0-1.89-.15-3.82-.24-5.47h3l.15,3.58,.1,.1c1.69-3,4.45-4.4,7.6-4.4,7.94,0,8.56,7.02,8.56,9.82v15.19h-2.9v-15.68c0-4.21-2.42-6.68-6.39-6.68-4.79,0-6.97,4.02-6.97,8.37v13.98Z"/><path class="cls-1" d="M301.16,144.75c.1,5.18,2.47,9.53,8.42,9.53,3.44,0,6.29-2.47,7.02-5.81h3.05c-1.5,5.81-5.13,8.47-10.98,8.47-7.26,0-10.64-6.24-10.64-12.87s3.63-12.87,10.84-12.87c8.13,0,11.08,5.95,11.08,13.55h-18.77Zm15.63-2.66c-.34-4.69-2.85-8.23-7.89-8.23-4.74,0-7.26,3.97-7.65,8.23h15.53Z"/><path class="cls-1" d="M44.68,208.57h-3.15v-34.93h11.42c3.05,0,5.56,.19,8.23,1.84,2.42,1.45,3.58,3.97,3.58,7.31,0,3.77-2.66,6.48-6.73,7.5v.1c4.45,.73,5.42,3.73,5.85,7.79,.63,5.66,.44,8.27,1.84,10.4h-3.63c-.82-2.32-1.02-4.79-1.21-7.26-.73-7.98-1.21-9.39-7.55-9.39h-8.66v16.64Zm6.73-19.55c4.45,0,9.97-.29,9.97-6.24,0-6.73-6.29-6.24-9.63-6.24h-7.06v12.48h6.73Z"/><path class="cls-1" d="M72.17,197.1c.1,5.18,2.47,9.53,8.42,9.53,3.44,0,6.29-2.47,7.02-5.81h3.05c-1.5,5.81-5.13,8.47-10.98,8.47-7.26,0-10.64-6.24-10.64-12.87s3.63-12.87,10.84-12.87c8.13,0,11.08,5.95,11.08,13.55h-18.77Zm15.63-2.66c-.34-4.69-2.85-8.23-7.89-8.23-4.74,0-7.26,3.97-7.65,8.23h15.53Z"/><path class="cls-1" d="M98.54,217.86h-2.9v-28.11c.05-1.89-.15-3.82-.24-5.47h3l.15,3.58,.1,.1c1.69-2.85,5.08-4.4,8.32-4.4,7.21,0,9.97,6.48,9.97,12.77s-2.76,12.97-9.82,12.97c-3.53,0-6.48-1.6-8.47-4.5h-.1v13.06Zm8.27-11.23c5.56,0,6.97-6.14,6.97-10.64s-1.89-9.77-7.4-9.77-7.84,4.69-7.84,9.63c0,5.52,1.94,10.79,8.27,10.79Z"/><path class="cls-1" d="M124.68,208.57h-2.9v-18.82c.05-1.89-.15-3.82-.24-5.47h3l.15,3.58h.1c.87-2.47,3.05-4.21,5.47-4.31,.97-.05,1.94,0,2.9,.05v2.81c-.58-.05-1.21-.19-1.79-.19-4.31,0-6.58,3.1-6.68,7.74v14.61Z"/><path class="cls-1" d="M157.53,196.43c0,6.39-3.58,12.87-11.32,12.87s-11.32-6.48-11.32-12.87,3.58-12.87,11.32-12.87,11.32,6.48,11.32,12.87Zm-11.32-10.21c-5.85,0-8.18,5.71-8.18,10.21s2.32,10.21,8.18,10.21,8.18-5.71,8.18-10.21-2.32-10.21-8.18-10.21Z"/><path class="cls-1" d="M179.02,204.99l-.1-.19c-1.98,2.9-4.94,4.5-8.32,4.5-7.21,0-9.97-6.87-9.97-12.97s2.76-12.77,9.97-12.77c3.24,0,6.63,1.55,8.32,4.4l.1-.1v-14.23h2.9v29.47c0,1.89,.15,3.82,.24,5.47h-3l-.15-3.58Zm-7.94-18.77c-5.52,0-7.31,5.13-7.31,9.77s1.31,10.64,6.87,10.64c6.34,0,8.27-5.27,8.27-10.79,0-4.94-2.18-9.63-7.84-9.63Z"/><path class="cls-1" d="M204.18,184.28h2.9v18.82c0,1.89,.15,3.82,.24,5.47h-3l-.15-3.58-.1-.1c-1.69,3-4.45,4.4-7.6,4.4-7.94,0-8.56-7.02-8.56-9.82v-15.19h2.9v15.68c0,4.21,2.42,6.68,6.39,6.68,4.79,0,6.97-4.02,6.97-8.37v-13.98Z"/><path class="cls-1" d="M228.91,191.73c-.24-3.73-2.61-5.52-6.63-5.52-4.45,0-7.21,4.65-7.21,10.16s2.76,10.26,7.21,10.26c3.77,0,6.39-2.32,6.63-5.66h3.15c-.77,5.56-3.97,8.32-9.48,8.32-7.26,0-10.65-6.24-10.65-12.87s3.63-12.87,10.84-12.87c4.98,0,9.05,3,9.29,8.18h-3.15Z"/><path class="cls-1" d="M238.59,186.94h-4.84v-2.66h4.84v-5.18l2.9-1.26v6.43h5.52v2.66h-5.52v16.26c-.05,2.23,1.11,3.44,3.34,3.44,.87,0,1.74-.05,2.52-.29v2.52c-.92,.24-1.98,.44-2.95,.44-6.15,0-5.81-3.92-5.81-7.21v-15.14Z"/><path class="cls-1" d="M254.56,177.27h-3.39v-3.63h3.39v3.63Zm-.24,7.02v24.29h-2.9v-24.29h2.9Z"/><path class="cls-1" d="M260.85,184.28l8.37,20.27,8.08-20.27h3.19l-9.63,24.29h-3.29l-9.92-24.29h3.19Z"/><path class="cls-1" d="M284.51,197.1c.1,5.18,2.47,9.53,8.42,9.53,3.44,0,6.29-2.47,7.02-5.81h3.05c-1.5,5.81-5.13,8.47-10.98,8.47-7.26,0-10.64-6.24-10.64-12.87s3.63-12.87,10.84-12.87c8.13,0,11.08,5.95,11.08,13.55h-18.77Zm15.63-2.66c-.34-4.69-2.85-8.23-7.89-8.23-4.74,0-7.26,3.97-7.65,8.23h15.53Z"/><path class="cls-1" d="M330,209.3c-5.56,0-10.26-4.06-10.4-9.82h3.39c.1,5.37,4.06,6.92,8.76,6.92,3.92,0,8.42-2.27,8.42-6.73,0-3.48-2.52-5.13-5.47-6.1-5.66-1.89-14.27-3.68-14.27-11.22,0-6.1,5.61-9.44,11.13-9.44,4.6,0,10.6,1.6,11.37,8.32h-3.39c-.1-4.31-4.02-5.42-7.6-5.42s-8.13,1.84-8.13,6.1c0,9.92,19.74,5.42,19.74,17.47,0,7.6-6.53,9.92-13.55,9.92Z"/><path class="cls-1" d="M351.39,217.86h-2.9v-28.11c.05-1.89-.15-3.82-.24-5.47h3l.15,3.58,.1,.1c1.69-2.85,5.08-4.4,8.32-4.4,7.21,0,9.97,6.48,9.97,12.77s-2.76,12.97-9.82,12.97c-3.53,0-6.48-1.6-8.47-4.5h-.1v13.06Zm8.27-11.23c5.56,0,6.97-6.14,6.97-10.64s-1.89-9.77-7.4-9.77-7.84,4.69-7.84,9.63c0,5.52,1.94,10.79,8.27,10.79Z"/><path class="cls-1" d="M376.31,197.1c.1,5.18,2.47,9.53,8.42,9.53,3.44,0,6.29-2.47,7.02-5.81h3.05c-1.5,5.81-5.13,8.47-10.98,8.47-7.26,0-10.64-6.24-10.64-12.87s3.63-12.87,10.84-12.87c8.13,0,11.08,5.95,11.08,13.55h-18.77Zm15.63-2.66c-.34-4.69-2.85-8.23-7.89-8.23-4.74,0-7.26,3.97-7.65,8.23h15.53Z"/><path class="cls-1" d="M415.61,191.73c-.24-3.73-2.61-5.52-6.63-5.52-4.45,0-7.21,4.65-7.21,10.16s2.76,10.26,7.21,10.26c3.77,0,6.39-2.32,6.63-5.66h3.15c-.77,5.56-3.97,8.32-9.48,8.32-7.26,0-10.65-6.24-10.65-12.87s3.63-12.87,10.84-12.87c4.98,0,9.05,3,9.29,8.18h-3.15Z"/><path class="cls-1" d="M426.4,177.27h-3.39v-3.63h3.39v3.63Zm-.24,7.02v24.29h-2.9v-24.29h2.9Z"/><path class="cls-1" d="M446.43,191.44c-.29-3.97-2.32-5.23-5.76-5.23-3.05,0-5.56,.92-5.95,4.21h-3.1c.73-4.98,4.45-6.87,9.1-6.87,5.37,0,8.71,2.47,8.61,8.03v11.52c-.05,1.89,.15,3.82,.24,5.47h-3l-.1-3.58h-.1l-.15,.34c-1.06,2.03-4.31,3.97-7.6,3.97-4.5,0-8.08-2.76-8.08-7.5,0-3.29,1.98-5.81,4.89-7.02,3.24-1.4,7.45-.92,10.98-1.11v-2.23Zm-7.26,15.19c6.34,0,7.55-5.23,7.26-10.31-4.11,.14-12.73-.63-12.73,5.47,0,3.29,2.52,4.84,5.47,4.84Z"/><path class="cls-1" d="M458.58,208.57h-2.9v-34.93h2.9v34.93Z"/><path class="cls-1" d="M468.31,177.27h-3.39v-3.63h3.39v3.63Zm-.24,7.02v24.29h-2.9v-24.29h2.9Z"/><path class="cls-1" d="M482.68,183.56c4.6,0,8.47,1.6,8.85,6.73h-3.15c-.29-3.05-3-4.06-6-4.06-2.71,0-5.47,1.06-5.47,3.92,0,3.58,4.69,3.24,11.27,5.56,2.52,.87,4.11,3.05,4.11,5.66,0,5.47-5.08,7.93-10.21,7.93-4.21,0-9.05-1.98-9.15-7.35h3.15c.24,3.63,3.44,4.69,6.73,4.69,3.1,0,6.34-1.45,6.34-4.84s-3.82-4.06-7.69-4.93c-3.82-.92-7.69-2.03-7.69-6.53,0-5.03,4.65-6.77,8.9-6.77Z"/><path class="cls-1" d="M499.62,186.94h-4.84v-2.66h4.84v-5.18l2.9-1.26v6.43h5.52v2.66h-5.52v16.26c-.05,2.23,1.11,3.44,3.34,3.44,.87,0,1.74-.05,2.52-.29v2.52c-.92,.24-1.98,.44-2.95,.44-6.15,0-5.81-3.92-5.81-7.21v-15.14Z"/><path class="cls-1" d="M520.47,183.56c4.6,0,8.47,1.6,8.85,6.73h-3.15c-.29-3.05-3-4.06-6-4.06-2.71,0-5.47,1.06-5.47,3.92,0,3.58,4.69,3.24,11.27,5.56,2.52,.87,4.11,3.05,4.11,5.66,0,5.47-5.08,7.93-10.21,7.93-4.21,0-9.05-1.98-9.15-7.35h3.15c.24,3.63,3.44,4.69,6.73,4.69,3.1,0,6.34-1.45,6.34-4.84s-3.82-4.06-7.69-4.93c-3.82-.92-7.69-2.03-7.69-6.53,0-5.03,4.65-6.77,8.9-6.77Z"/><path class="cls-1" d="M64.18,248.79c0,6.39-3.58,12.87-11.32,12.87s-11.32-6.48-11.32-12.87,3.58-12.87,11.32-12.87,11.32,6.48,11.32,12.87Zm-11.32-10.21c-5.85,0-8.18,5.71-8.18,10.21s2.32,10.21,8.18,10.21,8.18-5.71,8.18-10.21-2.32-10.21-8.18-10.21Z"/><path class="cls-1" d="M71.01,260.93v-21.63h-4.89v-2.66h4.89v-5.18c0-4.16,1.69-6.05,5.85-6.05,.92,0,1.89,.34,2.76,.53v2.32c-.58-.1-1.21-.19-1.79-.19-3.97,0-4.06,1.98-3.92,5.47v3.1h5.52v2.66h-5.52v21.63h-2.9Z"/><path class="cls-1" d="M96.56,226h3.58l19.26,30.72h.1v-30.72h3.15v34.93h-3.97l-18.87-30.19h-.1v30.19h-3.15v-34.93Z"/><path class="cls-1" d="M131.35,249.46c.1,5.18,2.47,9.53,8.42,9.53,3.44,0,6.29-2.47,7.02-5.81h3.05c-1.5,5.81-5.13,8.47-10.98,8.47-7.26,0-10.64-6.24-10.64-12.87s3.63-12.87,10.84-12.87c8.13,0,11.08,5.95,11.08,13.55h-18.77Zm15.63-2.66c-.34-4.69-2.85-8.23-7.89-8.23-4.74,0-7.26,3.97-7.65,8.23h15.53Z"/><path class="cls-1" d="M162.66,257.11h.1l7.35-20.47h3.44l7.16,20.27h.1l7.02-20.27h3.19l-9.05,24.29h-2.76l-7.45-20.95h-.1l-7.6,20.95h-2.95l-8.9-24.29h3.19l7.26,20.47Z"/><path class="cls-1" d="M215.94,245.83l-12.87-19.84h4.02l10.69,16.89,10.69-16.89h3.39l-12.77,19.74v15.19h-3.15v-15.1Z"/><path class="cls-1" d="M255.77,248.79c0,6.39-3.58,12.87-11.32,12.87s-11.32-6.48-11.32-12.87,3.58-12.87,11.32-12.87,11.32,6.48,11.32,12.87Zm-11.32-10.21c-5.85,0-8.18,5.71-8.18,10.21s2.32,10.21,8.18,10.21,8.18-5.71,8.18-10.21-2.32-10.21-8.18-10.21Z"/><path class="cls-1" d="M263.41,260.93h-2.9v-18.82c.05-1.89-.15-3.82-.24-5.47h3l.15,3.58h.1c.87-2.47,3.05-4.21,5.47-4.31,.97-.05,1.94,0,2.9,.05v2.81c-.58-.05-1.21-.19-1.79-.19-4.31,0-6.58,3.1-6.68,7.74v14.61Z"/><path class="cls-1" d="M278.56,246.56l11.76-9.92h3.73l-12.29,10.5,13.26,13.79h-3.68l-12.77-13.16v13.16h-2.9v-34.93h2.9v20.56Z"/></g><g><g><polygon class="cls-1" points="43.43 301.73 43.43 287.37 37.99 287.37 37.99 285.72 50.61 285.72 50.61 287.37 45.16 287.37 45.16 301.73 43.43 301.73 43.43 301.73"/><path class="cls-1" d="M62.42,294.21v7.52h-1.66v-7.11c0-2.1-1.26-3.07-2.62-3.07-1.68,0-3.53,1.49-3.53,4.31v5.86h-1.66v-16.01h1.66v6.57c.79-1.61,2.33-2.39,3.85-2.39,2.03,0,3.95,1.39,3.95,4.31h0Z"/><path class="cls-1" d="M73.88,295.16c-.03-2.56-1.71-3.66-3.34-3.66-1.78,0-3.37,1.26-3.55,3.66h6.9Zm1.56,4.4c-1.29,1.65-3.01,2.43-4.75,2.43-2.92,0-5.47-2.19-5.47-6.06s2.69-6.04,5.54-6.04c3.22,0,4.86,2.61,4.86,5.55,0,.37-.02,.85-.09,1.31h-8.49c.3,2.53,1.92,3.61,3.81,3.61,1.37,0,2.62-.56,3.48-1.87l1.1,1.07h0Z"/><path class="cls-1" d="M87.4,292.97c2.29,0,3.23-1.46,3.23-2.89s-.86-2.71-3.06-2.71h-2.94v5.6h2.78Zm.28-7.25c3.22,0,4.67,2.19,4.67,4.33,0,2.31-1.66,4.57-4.86,4.57h-2.87v7.11h-1.73v-16.01h4.79Z"/><path class="cls-1" d="M100.89,290.36l-.37,1.7c-.42-.2-.89-.31-1.33-.31-1.52,0-2.6,1.17-2.6,3.27v6.72h-1.66v-11.54h1.66v1.56c.61-1.22,1.66-1.7,2.74-1.7,.56,0,1.12,.09,1.56,.31h0Z"/><path class="cls-1" d="M110.48,295.16c-.02-2.56-1.71-3.66-3.34-3.66-1.78,0-3.37,1.26-3.55,3.66h6.89Zm1.57,4.4c-1.29,1.65-3.01,2.43-4.75,2.43-2.92,0-5.47-2.19-5.47-6.06s2.69-6.04,5.54-6.04c3.22,0,4.86,2.61,4.86,5.55,0,.37-.03,.85-.09,1.31h-8.49c.3,2.53,1.91,3.61,3.81,3.61,1.38,0,2.62-.56,3.48-1.87l1.1,1.07h0Z"/><path class="cls-1" d="M119.93,301.49c-.56,.31-1.24,.49-1.9,.49-1.52,0-2.99-.96-2.99-3.51v-12.75h1.66v12.78c0,1.43,.73,1.97,1.59,1.97,.35,0,.7-.1,1.05-.24l.58,1.27h0Z"/><path class="cls-1" d="M129.1,301.73v-2.07c-.79,1.58-2.19,2.31-3.67,2.31-2.01,0-3.97-1.41-3.97-4.31v-7.48h1.66v7.06c0,2.15,1.24,3.09,2.57,3.09,1.63,0,3.41-1.46,3.41-4.28v-5.87h1.66v11.54h-1.66Z"/><path class="cls-1" d="M142.97,296.04c0-2.99-2.01-4.5-3.95-4.5s-3.79,1.41-3.79,4.31,2.06,4.48,4,4.48,3.74-1.44,3.74-4.28h0Zm0,5.7v-1.71c-.84,1.22-2.29,1.92-3.81,1.92-2.76,0-5.59-2.07-5.59-6.08s2.87-5.97,5.57-5.97c1.45,0,2.92,.69,3.83,2v-6.18h1.66v16.01h-1.66Z"/><path class="cls-1" d="M156.09,295.16c-.02-2.56-1.71-3.66-3.34-3.66-1.77,0-3.37,1.26-3.55,3.66h6.9Zm1.57,4.4c-1.29,1.65-3.01,2.43-4.74,2.43-2.92,0-5.47-2.19-5.47-6.06s2.69-6.04,5.54-6.04c3.23,0,4.87,2.61,4.87,5.55,0,.37-.03,.85-.1,1.31h-8.48c.3,2.53,1.91,3.61,3.81,3.61,1.38,0,2.62-.56,3.48-1.87l1.1,1.07h0Z"/><polygon class="cls-1" points="166.83 285.72 175.66 298.45 175.66 285.72 177.4 285.72 177.4 301.73 175.66 301.73 166.83 288.86 166.83 301.73 165.1 301.73 165.1 285.72 166.83 285.72 166.83 285.72"/><path class="cls-1" d="M189.09,295.16c-.02-2.56-1.7-3.66-3.34-3.66-1.78,0-3.37,1.26-3.55,3.66h6.89Zm1.57,4.4c-1.29,1.65-3.01,2.43-4.74,2.43-2.92,0-5.47-2.19-5.47-6.06s2.69-6.04,5.54-6.04c3.22,0,4.86,2.61,4.86,5.55,0,.37-.03,.85-.1,1.31h-8.48c.3,2.53,1.91,3.61,3.8,3.61,1.39,0,2.62-.56,3.49-1.87l1.1,1.07h0Z"/><path class="cls-1" d="M199.94,300.98c-.65,.63-1.52,1-2.45,1-1.62,0-3.14-1.03-3.14-3.51v-6.67h-2.1v-1.61h2.1v-2.94h1.66v2.94h2.76v1.61h-2.76v6.7c0,1.34,.68,1.97,1.59,1.97,.52,0,1.15-.24,1.57-.64l.77,1.15h0Z"/><polygon class="cls-1" points="213.25 301.73 210.12 292.46 206.96 301.73 205.18 301.73 201.12 290.19 203.01 290.19 206.08 299.35 209.16 290.19 211.05 290.19 214.14 299.35 217.2 290.19 219.09 290.19 215.03 301.73 213.25 301.73 213.25 301.73"/><path class="cls-1" d="M221.93,295.91c0,2.59,1.66,4.46,4,4.46s4-1.87,4-4.46-1.66-4.43-4-4.43-4,1.87-4,4.43h0Zm9.65,.03c0,3.46-2.38,6.04-5.65,6.04s-5.66-2.58-5.66-6.04,2.38-6.04,5.66-6.04,5.65,2.59,5.65,6.04h0Z"/><path class="cls-1" d="M240.36,290.36l-.37,1.7c-.42-.2-.89-.31-1.33-.31-1.52,0-2.59,1.17-2.59,3.27v6.72h-1.66v-11.54h1.66v1.56c.61-1.22,1.66-1.7,2.73-1.7,.56,0,1.12,.09,1.57,.31h0Z"/><polygon class="cls-1" points="244.13 301.73 242.47 301.73 242.47 285.72 244.13 285.72 244.13 295.36 249.23 290.19 251.49 290.19 245.98 295.69 252.19 301.73 249.71 301.73 244.13 296.18 244.13 301.73 244.13 301.73"/></g><path class="cls-1" d="M252.56,288.51c0-1.23,1.01-2.24,2.26-2.24s2.24,1.01,2.24,2.24-1.01,2.26-2.24,2.26-2.26-1.01-2.26-2.26Zm4.14,0c0-1.09-.79-1.88-1.88-1.88s-1.9,.79-1.9,1.88,.8,1.9,1.9,1.9,1.88-.79,1.88-1.9Zm-2.4,1.27h-.33v-2.57h1.11c.67,0,.9,.25,.9,.71,0,.5-.35,.68-.8,.72l.77,1.14h-.37l-.72-1.14h-.55v1.14Zm.45-1.44c.36,0,.86,.06,.86-.42,0-.36-.3-.41-.61-.41h-.71v.83h.45Z"/></g></svg>