<svg id="Layer_1" data-name="Layer 1" xmlns="http://www.w3.org/2000/svg" viewBox="0 0 342.79 235.43"><defs><style>.cls-1{fill:#221f1f;}</style></defs><title>TFI_Stacked_Black</title><path class="cls-1" d="M20.91,104.45H9.18v-3H35.77v3H24.24l0,33.33H21Z"/><path class="cls-1" d="M33.65,125.85c.1,5.39,2.57,9.92,8.76,9.92a7.52,7.52,0,0,0,7.3-6h3.18c-1.57,6-5.34,8.81-11.43,8.81-7.56,0-11.08-6.5-11.08-13.4s3.77-13.39,11.28-13.39c8.46,0,11.53,6.19,11.53,14.1Zm16.26-2.77c-.35-4.88-3-8.56-8.2-8.56-4.94,0-7.56,4.13-8,8.56Z"/><path class="cls-1" d="M60.89,137.78h-3V118.2c0-2-.15-4-.25-5.69h3.12l.15,3.72.1.1a8.69,8.69,0,0,1,7.91-4.58c8.25,0,8.91,7.3,8.91,10.22v15.81h-3V121.47c0-4.38-2.52-7-6.65-7-5,0-7.25,4.18-7.25,8.71Z"/><path class="cls-1" d="M86.72,137.78h-3V118.2c0-2-.15-4-.26-5.69h3.13l.15,3.72.1.1a8.69,8.69,0,0,1,7.9-4.58c8.26,0,8.92,7.3,8.92,10.22v15.81h-3V121.47c0-4.38-2.51-7-6.64-7-5,0-7.25,4.18-7.25,8.71Z"/><path class="cls-1" d="M112,125.85c.1,5.39,2.57,9.92,8.76,9.92a7.52,7.52,0,0,0,7.3-6h3.18c-1.57,6-5.34,8.81-11.43,8.81-7.56,0-11.08-6.5-11.08-13.4s3.77-13.39,11.28-13.39c8.46,0,11.53,6.19,11.53,14.1Zm16.26-2.77c-.35-4.88-3-8.56-8.2-8.56-4.94,0-7.56,4.13-8,8.56Z"/><path class="cls-1" d="M145.17,111.75c4.78,0,8.81,1.66,9.22,7h-3.28c-.3-3.17-3.12-4.23-6.24-4.23-2.82,0-5.69,1.11-5.69,4.08,0,3.73,4.88,3.37,11.73,5.79a6.15,6.15,0,0,1,4.28,5.89c0,5.69-5.29,8.26-10.62,8.26-4.38,0-9.42-2.07-9.52-7.66h3.27c.26,3.78,3.58,4.89,7,4.89,3.23,0,6.6-1.51,6.6-5s-4-4.23-8-5.13-8-2.12-8-6.8C135.91,113.56,140.74,111.75,145.17,111.75Z"/><path class="cls-1" d="M168.58,111.75c4.79,0,8.81,1.66,9.22,7h-3.28c-.3-3.17-3.12-4.23-6.24-4.23-2.82,0-5.69,1.11-5.69,4.08,0,3.73,4.89,3.37,11.73,5.79a6.15,6.15,0,0,1,4.28,5.89c0,5.69-5.28,8.26-10.62,8.26-4.38,0-9.42-2.07-9.52-7.66h3.28c.25,3.78,3.57,4.89,7,4.89,3.23,0,6.6-1.51,6.6-5s-4-4.23-8-5.13-8-2.12-8-6.8C159.32,113.56,164.15,111.75,168.58,111.75Z"/><path class="cls-1" d="M185.05,125.85c.1,5.39,2.56,9.92,8.76,9.92a7.54,7.54,0,0,0,7.3-6h3.17c-1.56,6-5.34,8.81-11.43,8.81-7.55,0-11.08-6.5-11.08-13.4s3.78-13.39,11.28-13.39c8.46,0,11.53,6.19,11.53,14.1Zm16.26-2.77c-.35-4.88-3-8.56-8.21-8.56-4.93,0-7.55,4.13-7.95,8.56Z"/><path class="cls-1" d="M211.58,125.85c.1,5.39,2.57,9.92,8.76,9.92a7.52,7.52,0,0,0,7.3-6h3.17c-1.56,6-5.33,8.81-11.43,8.81-7.55,0-11.07-6.5-11.07-13.4s3.77-13.39,11.28-13.39c8.45,0,11.53,6.19,11.53,14.1Zm16.26-2.77c-.35-4.88-3-8.56-8.2-8.56-4.94,0-7.56,4.13-8,8.56Z"/><path class="cls-1" d="M17.06,189.32V152.78H37.71v3H20.35v12.9H37.11v3H20.35v17.56Z"/><path class="cls-1" d="M42.78,177.33c.1,5.41,2.58,10,8.81,10a7.55,7.55,0,0,0,7.33-6.08h3.19c-1.57,6.08-5.36,8.86-11.49,8.86-7.59,0-11.13-6.53-11.13-13.46s3.8-13.46,11.34-13.46c8.5,0,11.59,6.22,11.59,14.17Zm16.35-2.79c-.36-4.91-3-8.6-8.25-8.6-5,0-7.59,4.15-8,8.6Z"/><path class="cls-1" d="M69.63,189.32h-3V169.63c.05-2-.16-4-.26-5.72h3.14l.15,3.75h.1a6.53,6.53,0,0,1,5.72-4.5,28,28,0,0,1,3,.05v2.93c-.61,0-1.27-.2-1.87-.2-4.51,0-6.89,3.24-7,8.1Z"/><path class="cls-1" d="M86,166.7H80.92v-2.79H86V158.5l3-1.32v6.73h5.77v2.79H89v17c-.05,2.33,1.17,3.6,3.5,3.6a8.71,8.71,0,0,0,2.63-.31v2.63a12.35,12.35,0,0,1-3.09.46c-6.43,0-6.07-4.1-6.07-7.54Z"/><path class="cls-1" d="M103.07,156.58H99.53v-3.8h3.54Zm-.25,7.33v25.41h-3V163.91Z"/><path class="cls-1" d="M113.85,189.32h-3V152.78h3Z"/><path class="cls-1" d="M125.08,156.58h-3.55v-3.8h3.55Zm-.26,7.33v25.41h-3V163.91Z"/><path class="cls-1" d="M134,166.7H129v-2.79H134V158.5l3-1.32v6.73h5.77v2.79h-5.77v17c-.05,2.33,1.16,3.6,3.49,3.6a8.71,8.71,0,0,0,2.63-.31v2.63a12.28,12.28,0,0,1-3.09.46c-6.42,0-6.07-4.1-6.07-7.54Z"/><path class="cls-1" d="M149.18,163.91l8.55,21.26,8.5-21.26h3.29L155.5,199h-3.34l3.85-9.72-10.53-25.41Z"/><path class="cls-1" d="M181.62,189.29V152.78h3.27v36.51Z"/><path class="cls-1" d="M194,189.29h-3V169.7c0-2-.15-4-.25-5.69h3.12l.15,3.72.1.1a8.71,8.71,0,0,1,7.91-4.58c8.26,0,8.91,7.3,8.91,10.22v15.82h-3V173c0-4.38-2.52-6.95-6.65-6.95-5,0-7.25,4.18-7.25,8.71Z"/><path class="cls-1" d="M224.13,163.25c4.78,0,8.81,1.66,9.21,7h-3.27c-.3-3.17-3.12-4.23-6.24-4.23-2.82,0-5.69,1.11-5.69,4.08,0,3.73,4.88,3.37,11.73,5.79a6.15,6.15,0,0,1,4.28,5.89c0,5.69-5.29,8.26-10.63,8.26-4.38,0-9.41-2.06-9.51-7.65h3.27c.25,3.77,3.58,4.88,7,4.88,3.22,0,6.6-1.51,6.6-5s-4-4.23-8-5.14-8-2.11-8-6.8C214.86,165.07,219.7,163.25,224.13,163.25Z"/><path class="cls-1" d="M239.79,166.78h-5V164h5v-5.39l3-1.31V164h5.75v2.77h-5.75V183.7c-.05,2.31,1.16,3.57,3.48,3.57a9,9,0,0,0,2.62-.3v2.62a12.72,12.72,0,0,1-3.07.45c-6.4,0-6.05-4.08-6.05-7.5Z"/><path class="cls-1" d="M256.85,156.71h-3.53v-3.78h3.53Zm-.25,7.3v25.28h-3V164Z"/><path class="cls-1" d="M266,166.78h-5V164h5v-5.39l3-1.31V164h5.74v2.77H269V183.7c0,2.31,1.16,3.57,3.48,3.57a9,9,0,0,0,2.62-.3v2.62A12.73,12.73,0,0,1,272,190c-6.39,0-6-4.08-6-7.5Z"/><path class="cls-1" d="M295.39,164h3V183.6c0,2,.16,4,.26,5.69h-3.12l-.16-3.73-.1-.1a8.69,8.69,0,0,1-7.9,4.58c-8.26,0-8.91-7.3-8.91-10.22V164h3v16.31c0,4.38,2.51,7,6.64,7,5,0,7.25-4.18,7.25-8.71Z"/><path class="cls-1" d="M306.57,166.78h-5V164h5v-5.39l3-1.31V164h5.74v2.77h-5.74V183.7c0,2.31,1.16,3.57,3.47,3.57a8.93,8.93,0,0,0,2.62-.3v2.62a12.65,12.65,0,0,1-3.07.45c-6.4,0-6-4.08-6-7.5Z"/><path class="cls-1" d="M319.67,177.35c.1,5.39,2.56,9.92,8.76,9.92a7.54,7.54,0,0,0,7.3-6h3.17c-1.56,6-5.34,8.81-11.43,8.81-7.55,0-11.08-6.5-11.08-13.39s3.78-13.4,11.28-13.4c8.46,0,11.53,6.2,11.53,14.1Zm16.26-2.77c-.35-4.88-3-8.56-8.21-8.56-4.93,0-7.55,4.13-8,8.56Z"/><path class="cls-1" d="M32.35,37.63c-11.8,0-21.36,10-21.36,22.24S20.55,82.1,32.35,82.1,53.7,72.15,53.7,59.87,44.15,37.63,32.35,37.63Zm0,33.35a11.12,11.12,0,0,1,0-22.23,11.12,11.12,0,0,1,0,22.23Z"/><path class="cls-1" d="M36,12.93l-.06,0a5.17,5.17,0,0,0-7.16,0l-.06,0C19.24,22.12,7,27.34,6.86,27.41l4.22,10.22A93.67,93.67,0,0,0,32.35,24.35,93.67,93.67,0,0,0,53.62,37.63l4.22-10.22C57.68,27.34,45.46,22.12,36,12.93Z"/><path class="cls-1" d="M58.79,35.26A3.16,3.16,0,1,1,62,38.43,3.16,3.16,0,0,1,58.79,35.26Zm5.81,0A2.65,2.65,0,1,0,62,37.92,2.55,2.55,0,0,0,64.6,35.26Zm-3.36,1.79h-.47V33.44h1.56c.94,0,1.26.35,1.26,1s-.49,1-1.12,1l1.07,1.6H63l-1-1.6h-.77Zm.63-2c.51,0,1.21.08,1.21-.6,0-.5-.42-.57-.85-.57h-1V35Z"/><polygon class="cls-1" points="18.07 223.57 18.07 210.55 13.14 210.55 13.14 209.06 24.57 209.06 24.57 210.55 19.64 210.55 19.64 223.57 18.07 223.57 18.07 223.57"/><path class="cls-1" d="M35.28,216.76v6.81H33.77v-6.44c0-1.9-1.14-2.78-2.37-2.78-1.52,0-3.19,1.35-3.19,3.91v5.31H26.7V209.06h1.51V215a3.85,3.85,0,0,1,3.49-2.16,3.55,3.55,0,0,1,3.58,3.91Z"/><path class="cls-1" d="M45.66,217.62a3,3,0,0,0-3-3.31,3.24,3.24,0,0,0-3.21,3.31Zm1.42,4a5.41,5.41,0,0,1-4.3,2.2c-2.65,0-5-2-5-5.49s2.43-5.47,5-5.47c2.92,0,4.4,2.36,4.4,5a8.79,8.79,0,0,1-.08,1.19H39.48a3.32,3.32,0,0,0,3.45,3.27,3.61,3.61,0,0,0,3.16-1.7l1,1Z"/><path class="cls-1" d="M57.91,215.63A2.6,2.6,0,0,0,60.84,213c0-1.24-.79-2.46-2.78-2.46H55.39v5.08Zm.26-6.57A3.87,3.87,0,0,1,62.4,213a4.11,4.11,0,0,1-4.4,4.14H55.39v6.44H53.83V209.06Z"/><path class="cls-1" d="M70.14,213.27l-.34,1.54a2.86,2.86,0,0,0-1.21-.28c-1.37,0-2.35,1.05-2.35,2.95v6.09h-1.5V213.11h1.5v1.42A2.65,2.65,0,0,1,68.72,213a3.25,3.25,0,0,1,1.42.28Z"/><path class="cls-1" d="M78.83,217.62a3,3,0,0,0-3-3.31,3.25,3.25,0,0,0-3.22,3.31Zm1.42,4a5.43,5.43,0,0,1-4.3,2.2c-2.65,0-5-2-5-5.49s2.44-5.47,5-5.47c2.92,0,4.41,2.36,4.41,5a8.93,8.93,0,0,1-.09,1.19H72.64a3.33,3.33,0,0,0,3.45,3.27,3.6,3.6,0,0,0,3.16-1.7l1,1Z"/><path class="cls-1" d="M87.39,223.35a3.63,3.63,0,0,1-1.72.44c-1.37,0-2.7-.86-2.7-3.18V209.06h1.5v11.58c0,1.3.66,1.78,1.44,1.78a2.35,2.35,0,0,0,1-.22l.53,1.15Z"/><path class="cls-1" d="M95.7,223.57V221.7a3.63,3.63,0,0,1-3.33,2.09,3.58,3.58,0,0,1-3.6-3.9v-6.78h1.51v6.4c0,2,1.12,2.8,2.33,2.8,1.48,0,3.09-1.32,3.09-3.88v-5.32h1.5v10.46Z"/><path class="cls-1" d="M108.26,218.41c0-2.71-1.82-4.08-3.58-4.08s-3.43,1.28-3.43,3.9a3.71,3.71,0,0,0,3.63,4.06c1.71,0,3.38-1.3,3.38-3.88Zm0,5.16V222a4.16,4.16,0,0,1-3.45,1.75c-2.5,0-5.06-1.88-5.06-5.51s2.6-5.41,5-5.41a4.22,4.22,0,0,1,3.47,1.81v-5.6h1.51v14.51Z"/><path class="cls-1" d="M120.15,217.62a3,3,0,0,0-3-3.31,3.25,3.25,0,0,0-3.22,3.31Zm1.42,4a5.43,5.43,0,0,1-4.3,2.2c-2.64,0-5-2-5-5.49s2.44-5.47,5-5.47c2.93,0,4.41,2.36,4.41,5a8.79,8.79,0,0,1-.08,1.19H114a3.32,3.32,0,0,0,3.45,3.27,3.6,3.6,0,0,0,3.15-1.7l1,1Z"/><polygon class="cls-1" points="129.88 209.06 137.89 220.59 137.89 209.06 139.46 209.06 139.46 223.57 137.89 223.57 129.88 211.9 129.88 223.57 128.31 223.57 128.31 209.06 129.88 209.06 129.88 209.06"/><path class="cls-1" d="M150.05,217.62a3,3,0,0,0-3-3.31,3.25,3.25,0,0,0-3.22,3.31Zm1.42,4a5.41,5.41,0,0,1-4.3,2.2c-2.64,0-4.95-2-4.95-5.49s2.43-5.47,5-5.47c2.92,0,4.4,2.36,4.4,5a8.79,8.79,0,0,1-.08,1.19h-7.69a3.32,3.32,0,0,0,3.45,3.27,3.62,3.62,0,0,0,3.16-1.7l1,1Z"/><path class="cls-1" d="M159.89,222.89a3.19,3.19,0,0,1-2.22.9c-1.47,0-2.84-.93-2.84-3.18v-6h-1.91v-1.46h1.91v-2.66h1.5v2.66h2.5v1.46h-2.5v6.07c0,1.21.61,1.78,1.44,1.78a2.24,2.24,0,0,0,1.42-.57l.7,1Z"/><polygon class="cls-1" points="171.95 223.57 169.11 215.17 166.25 223.57 164.63 223.57 160.95 213.11 162.67 213.11 165.44 221.41 168.24 213.11 169.95 213.11 172.75 221.41 175.52 213.11 177.24 213.11 173.55 223.57 171.95 223.57 171.95 223.57"/><path class="cls-1" d="M179.81,218.29c0,2.35,1.5,4.05,3.62,4.05s3.63-1.7,3.63-4.05a3.64,3.64,0,1,0-7.25,0Zm8.75,0a5.14,5.14,0,1,1-5.13-5.47,5.15,5.15,0,0,1,5.13,5.47Z"/><path class="cls-1" d="M196.51,213.27l-.34,1.54a2.89,2.89,0,0,0-1.21-.28c-1.37,0-2.35,1.05-2.35,2.95v6.09h-1.5V213.11h1.5v1.42a2.65,2.65,0,0,1,2.48-1.54,3.25,3.25,0,0,1,1.42.28Z"/><polygon class="cls-1" points="199.92 223.57 198.42 223.57 198.42 209.06 199.92 209.06 199.92 217.79 204.54 213.11 206.59 213.11 201.6 218.1 207.23 223.57 204.98 223.57 199.92 218.54 199.92 223.57 199.92 223.57"/><path class="cls-1" d="M207.56,211.59a2,2,0,1,1,2,2A2,2,0,0,1,207.56,211.59Zm3.75,0a1.71,1.71,0,1,0-1.71,1.72A1.64,1.64,0,0,0,211.31,211.59Zm-2.17,1.16h-.3v-2.33h1c.61,0,.82.22.82.64s-.32.62-.73.65l.7,1h-.34l-.65-1h-.5Zm.41-1.31c.33,0,.78.06.78-.38s-.27-.37-.55-.37h-.64v.75Z"/></svg>